G04 #@! TF.GenerationSoftware,KiCad,Pcbnew,(5.99.0-9973-gfb99c55869)*
G04 #@! TF.CreationDate,2021-09-10T21:28:04-07:00*
G04 #@! TF.ProjectId,2E1,3245312e-6b69-4636-9164-5f7063625858,rev?*
G04 #@! TF.SameCoordinates,Original*
G04 #@! TF.FileFunction,Soldermask,Top*
G04 #@! TF.FilePolarity,Negative*
%FSLAX46Y46*%
G04 Gerber Fmt 4.6, Leading zero omitted, Abs format (unit mm)*
G04 Created by KiCad (PCBNEW (5.99.0-9973-gfb99c55869)) date 2021-09-10 21:28:04*
%MOMM*%
%LPD*%
G01*
G04 APERTURE LIST*
G04 Aperture macros list*
%AMRoundRect*
0 Rectangle with rounded corners*
0 $1 Rounding radius*
0 $2 $3 $4 $5 $6 $7 $8 $9 X,Y pos of 4 corners*
0 Add a 4 corners polygon primitive as box body*
4,1,4,$2,$3,$4,$5,$6,$7,$8,$9,$2,$3,0*
0 Add four circle primitives for the rounded corners*
1,1,$1+$1,$2,$3*
1,1,$1+$1,$4,$5*
1,1,$1+$1,$6,$7*
1,1,$1+$1,$8,$9*
0 Add four rect primitives between the rounded corners*
20,1,$1+$1,$2,$3,$4,$5,0*
20,1,$1+$1,$4,$5,$6,$7,0*
20,1,$1+$1,$6,$7,$8,$9,0*
20,1,$1+$1,$8,$9,$2,$3,0*%
G04 Aperture macros list end*
%ADD10C,3.000000*%
%ADD11RoundRect,0.250002X1.599998X1.599998X-1.599998X1.599998X-1.599998X-1.599998X1.599998X-1.599998X0*%
%ADD12C,3.700000*%
%ADD13C,2.489200*%
%ADD14C,1.473200*%
%ADD15C,3.759200*%
%ADD16C,2.082800*%
%ADD17C,4.826000*%
G04 APERTURE END LIST*
D10*
G04 #@! TO.C,J5_1*
X359664000Y-314429000D03*
D11*
X362514000Y-307129000D03*
D12*
X356814000Y-307129000D03*
X362514000Y-301629000D03*
X356814000Y-301629000D03*
G04 #@! TD*
D10*
G04 #@! TO.C,J2_3*
X175824000Y-314429000D03*
D11*
X178674000Y-307129000D03*
D12*
X172974000Y-307129000D03*
X178674000Y-301629000D03*
X172974000Y-301629000D03*
G04 #@! TD*
D10*
G04 #@! TO.C,J9_1*
X685094000Y-314175000D03*
D11*
X687944000Y-306875000D03*
D12*
X682244000Y-306875000D03*
X687944000Y-301375000D03*
X682244000Y-301375000D03*
G04 #@! TD*
D13*
G04 #@! TO.C,J6_0_1*
X464700874Y-290949888D03*
X464700874Y-278249888D03*
X456445874Y-290949888D03*
X456445874Y-278249888D03*
X448190874Y-290949888D03*
X448190874Y-278249888D03*
X439935874Y-290949888D03*
X439935874Y-278249888D03*
G04 #@! TD*
G04 #@! TO.C,J8_0_1*
X627370856Y-291089842D03*
X627370856Y-278389842D03*
X619115856Y-291089842D03*
X619115856Y-278389842D03*
X610860856Y-291089842D03*
X610860856Y-278389842D03*
X602605856Y-291089842D03*
X602605856Y-278389842D03*
G04 #@! TD*
D10*
G04 #@! TO.C,J3_3*
X257810000Y-314386000D03*
D11*
X260660000Y-307086000D03*
D12*
X254960000Y-307086000D03*
X260660000Y-301586000D03*
X254960000Y-301586000D03*
G04 #@! TD*
D13*
G04 #@! TO.C,J7_0_2*
X584499974Y-290910010D03*
X584499974Y-278210010D03*
X576244974Y-290910010D03*
X576244974Y-278210010D03*
X567989974Y-290910010D03*
X567989974Y-278210010D03*
X559734974Y-290910010D03*
X559734974Y-278210010D03*
G04 #@! TD*
D10*
G04 #@! TO.C,J3_1*
X196088000Y-314386000D03*
D11*
X198938000Y-307086000D03*
D12*
X193238000Y-307086000D03*
X198938000Y-301586000D03*
X193238000Y-301586000D03*
G04 #@! TD*
D10*
G04 #@! TO.C,J4_3*
X339288000Y-314386000D03*
D11*
X342138000Y-307086000D03*
D12*
X336438000Y-307086000D03*
X342138000Y-301586000D03*
X336438000Y-301586000D03*
G04 #@! TD*
D10*
G04 #@! TO.C,J9_3*
X745998000Y-314386000D03*
D11*
X748848000Y-307086000D03*
D12*
X743148000Y-307086000D03*
X748848000Y-301586000D03*
X743148000Y-301586000D03*
G04 #@! TD*
D13*
G04 #@! TO.C,J8_0_2*
X666260796Y-291089842D03*
X666260796Y-278389842D03*
X658005796Y-291089842D03*
X658005796Y-278389842D03*
X649750796Y-291089842D03*
X649750796Y-278389842D03*
X641495796Y-291089842D03*
X641495796Y-278389842D03*
G04 #@! TD*
G04 #@! TO.C,J9_0_2*
X747370870Y-291059870D03*
X747370870Y-278359870D03*
X739115870Y-291059870D03*
X739115870Y-278359870D03*
X730860870Y-291059870D03*
X730860870Y-278359870D03*
X722605870Y-291059870D03*
X722605870Y-278359870D03*
G04 #@! TD*
D10*
G04 #@! TO.C,J2_1*
X114864000Y-314429000D03*
D11*
X117714000Y-307129000D03*
D12*
X112014000Y-307129000D03*
X117714000Y-301629000D03*
X112014000Y-301629000D03*
G04 #@! TD*
D14*
G04 #@! TO.C,J1*
X456184000Y-170180000D03*
X454914000Y-172720000D03*
X453644000Y-170180000D03*
X452374000Y-172720000D03*
X451104000Y-170180000D03*
X449834000Y-172720000D03*
X448564000Y-170180000D03*
X447294000Y-172720000D03*
X447294000Y-179324000D03*
X448564000Y-176784000D03*
X449834000Y-179324000D03*
X451104000Y-176784000D03*
X452374000Y-179324000D03*
X453644000Y-176784000D03*
X454914000Y-179324000D03*
X456184000Y-176784000D03*
X442214000Y-170180000D03*
X440944000Y-172720000D03*
X439674000Y-170180000D03*
X438404000Y-172720000D03*
X437134000Y-170180000D03*
X435864000Y-172720000D03*
X434594000Y-170180000D03*
X433324000Y-172720000D03*
X433324000Y-179324000D03*
X434594000Y-176784000D03*
X435864000Y-179324000D03*
X437134000Y-176784000D03*
X438404000Y-179324000D03*
X439674000Y-176784000D03*
X440944000Y-179324000D03*
X442214000Y-176784000D03*
X428244000Y-170180000D03*
X426974000Y-172720000D03*
X425704000Y-170180000D03*
X424434000Y-172720000D03*
X423164000Y-170180000D03*
X421894000Y-172720000D03*
X420624000Y-170180000D03*
X419354000Y-172720000D03*
X419354000Y-179324000D03*
X420624000Y-176784000D03*
X421894000Y-179324000D03*
X423164000Y-176784000D03*
X424434000Y-179324000D03*
X425704000Y-176784000D03*
X426974000Y-179324000D03*
X428244000Y-176784000D03*
X414274000Y-170180000D03*
X413004000Y-172720000D03*
X411734000Y-170180000D03*
X410464000Y-172720000D03*
X409194000Y-170180000D03*
X407924000Y-172720000D03*
X406654000Y-170180000D03*
X405384000Y-172720000D03*
X405384000Y-179324000D03*
X406654000Y-176784000D03*
X407924000Y-179324000D03*
X409194000Y-176784000D03*
X410464000Y-179324000D03*
X411734000Y-176784000D03*
X413004000Y-179324000D03*
X414274000Y-176784000D03*
D15*
X457454000Y-163830000D03*
X404114000Y-163830000D03*
D16*
X460248000Y-179324000D03*
X444119000Y-180594000D03*
X430149000Y-180594000D03*
X416179000Y-180594000D03*
X401320000Y-175260000D03*
X459613000Y-172974000D03*
X444119000Y-173990000D03*
X430149000Y-173990000D03*
X416179000Y-173990000D03*
X401955000Y-169672000D03*
X460248000Y-159258000D03*
X401320000Y-159258000D03*
G04 #@! TD*
D10*
G04 #@! TO.C,J7_2*
X544240000Y-313624000D03*
X561340000Y-313624000D03*
D11*
X561340000Y-306324000D03*
D12*
X555640000Y-306324000D03*
X549940000Y-306324000D03*
X544240000Y-306324000D03*
X561340000Y-300824000D03*
X555640000Y-300824000D03*
X549940000Y-300824000D03*
X544240000Y-300824000D03*
G04 #@! TD*
D10*
G04 #@! TO.C,J5_3*
X420370000Y-314429000D03*
D11*
X423220000Y-307129000D03*
D12*
X417520000Y-307129000D03*
X423220000Y-301629000D03*
X417520000Y-301629000D03*
G04 #@! TD*
D13*
G04 #@! TO.C,J5_0_1*
X382860042Y-290930076D03*
X382860042Y-278230076D03*
X374605042Y-290930076D03*
X374605042Y-278230076D03*
X366350042Y-290930076D03*
X366350042Y-278230076D03*
X358095042Y-290930076D03*
X358095042Y-278230076D03*
G04 #@! TD*
D10*
G04 #@! TO.C,J6_1*
X440690000Y-314429000D03*
D11*
X443540000Y-307129000D03*
D12*
X437840000Y-307129000D03*
X443540000Y-301629000D03*
X437840000Y-301629000D03*
G04 #@! TD*
D17*
G04 #@! TO.C,*
X81320000Y-325634000D03*
G04 #@! TD*
D13*
G04 #@! TO.C,J4_0_2*
X340400640Y-290969700D03*
X340400640Y-278269700D03*
X332145640Y-290969700D03*
X332145640Y-278269700D03*
X323890640Y-290969700D03*
X323890640Y-278269700D03*
X315635640Y-290969700D03*
X315635640Y-278269700D03*
G04 #@! TD*
G04 #@! TO.C,J4_0_1*
X301510700Y-290969700D03*
X301510700Y-278269700D03*
X293255700Y-290969700D03*
X293255700Y-278269700D03*
X285000700Y-290969700D03*
X285000700Y-278269700D03*
X276745700Y-290969700D03*
X276745700Y-278269700D03*
G04 #@! TD*
D10*
G04 #@! TO.C,J8_1*
X603814000Y-314429000D03*
D11*
X606664000Y-307129000D03*
D12*
X600964000Y-307129000D03*
X606664000Y-301629000D03*
X600964000Y-301629000D03*
G04 #@! TD*
D13*
G04 #@! TO.C,J3_0_1*
X219650742Y-290869878D03*
X219650742Y-278169878D03*
X211395742Y-290869878D03*
X211395742Y-278169878D03*
X203140742Y-290869878D03*
X203140742Y-278169878D03*
X194885742Y-290869878D03*
X194885742Y-278169878D03*
G04 #@! TD*
D10*
G04 #@! TO.C,J3_2*
X235006000Y-314386000D03*
X217906000Y-314386000D03*
D11*
X235006000Y-307086000D03*
D12*
X229306000Y-307086000D03*
X223606000Y-307086000D03*
X217906000Y-307086000D03*
X235006000Y-301586000D03*
X229306000Y-301586000D03*
X223606000Y-301586000D03*
X217906000Y-301586000D03*
G04 #@! TD*
D10*
G04 #@! TO.C,J4_2*
X299638000Y-314386000D03*
X316738000Y-314386000D03*
D11*
X316738000Y-307086000D03*
D12*
X311038000Y-307086000D03*
X305338000Y-307086000D03*
X299638000Y-307086000D03*
X316738000Y-301586000D03*
X311038000Y-301586000D03*
X305338000Y-301586000D03*
X299638000Y-301586000D03*
G04 #@! TD*
D13*
G04 #@! TO.C,J6_0_2*
X503590814Y-290949888D03*
X503590814Y-278249888D03*
X495335814Y-290949888D03*
X495335814Y-278249888D03*
X487080814Y-290949888D03*
X487080814Y-278249888D03*
X478825814Y-290949888D03*
X478825814Y-278249888D03*
G04 #@! TD*
D17*
G04 #@! TO.C,*
X81320000Y-154946000D03*
G04 #@! TD*
D10*
G04 #@! TO.C,J6_3*
X501650000Y-314429000D03*
D11*
X504500000Y-307129000D03*
D12*
X498800000Y-307129000D03*
X504500000Y-301629000D03*
X498800000Y-301629000D03*
G04 #@! TD*
D13*
G04 #@! TO.C,J9_0_1*
X708480676Y-291059870D03*
X708480676Y-278359870D03*
X700225676Y-291059870D03*
X700225676Y-278359870D03*
X691970676Y-291059870D03*
X691970676Y-278359870D03*
X683715676Y-291059870D03*
X683715676Y-278359870D03*
G04 #@! TD*
D10*
G04 #@! TO.C,J7_3*
X583184000Y-314429000D03*
D11*
X586034000Y-307129000D03*
D12*
X580334000Y-307129000D03*
X586034000Y-301629000D03*
X580334000Y-301629000D03*
G04 #@! TD*
D13*
G04 #@! TO.C,J7_0_1*
X545610034Y-290910010D03*
X545610034Y-278210010D03*
X537355034Y-290910010D03*
X537355034Y-278210010D03*
X529100034Y-290910010D03*
X529100034Y-278210010D03*
X520845034Y-290910010D03*
X520845034Y-278210010D03*
G04 #@! TD*
G04 #@! TO.C,J2_0_1*
X138489995Y-290880038D03*
X138489995Y-278180038D03*
X130234995Y-290880038D03*
X130234995Y-278180038D03*
X121979995Y-290880038D03*
X121979995Y-278180038D03*
X113724995Y-290880038D03*
X113724995Y-278180038D03*
G04 #@! TD*
D10*
G04 #@! TO.C,J8_3*
X664774000Y-314175000D03*
D11*
X667624000Y-306875000D03*
D12*
X661924000Y-306875000D03*
X667624000Y-301375000D03*
X661924000Y-301375000D03*
G04 #@! TD*
D13*
G04 #@! TO.C,J2_0_2*
X177380000Y-290880000D03*
X177380000Y-278180000D03*
X169125000Y-290880000D03*
X169125000Y-278180000D03*
X160870000Y-290880000D03*
X160870000Y-278180000D03*
X152615000Y-290880000D03*
X152615000Y-278180000D03*
G04 #@! TD*
G04 #@! TO.C,J5_0_2*
X421749982Y-290930076D03*
X421749982Y-278230076D03*
X413494982Y-290930076D03*
X413494982Y-278230076D03*
X405239982Y-290930076D03*
X405239982Y-278230076D03*
X396984982Y-290930076D03*
X396984982Y-278230076D03*
G04 #@! TD*
D17*
G04 #@! TO.C,*
X757468000Y-154946000D03*
G04 #@! TD*
D10*
G04 #@! TO.C,J6_2*
X479725000Y-314175000D03*
X462625000Y-314175000D03*
D11*
X479725000Y-306875000D03*
D12*
X474025000Y-306875000D03*
X468325000Y-306875000D03*
X462625000Y-306875000D03*
X479725000Y-301375000D03*
X474025000Y-301375000D03*
X468325000Y-301375000D03*
X462625000Y-301375000D03*
G04 #@! TD*
D10*
G04 #@! TO.C,J8_2*
X642930000Y-314386000D03*
X625830000Y-314386000D03*
D11*
X642930000Y-307086000D03*
D12*
X637230000Y-307086000D03*
X631530000Y-307086000D03*
X625830000Y-307086000D03*
X642930000Y-301586000D03*
X637230000Y-301586000D03*
X631530000Y-301586000D03*
X625830000Y-301586000D03*
G04 #@! TD*
D10*
G04 #@! TO.C,J2_2*
X153980000Y-314386000D03*
X136880000Y-314386000D03*
D11*
X153980000Y-307086000D03*
D12*
X148280000Y-307086000D03*
X142580000Y-307086000D03*
X136880000Y-307086000D03*
X153980000Y-301586000D03*
X148280000Y-301586000D03*
X142580000Y-301586000D03*
X136880000Y-301586000D03*
G04 #@! TD*
D10*
G04 #@! TO.C,J7_1*
X521970000Y-314429000D03*
D11*
X524820000Y-307129000D03*
D12*
X519120000Y-307129000D03*
X524820000Y-301629000D03*
X519120000Y-301629000D03*
G04 #@! TD*
D10*
G04 #@! TO.C,J9_2*
X723875000Y-314429000D03*
X706775000Y-314429000D03*
D11*
X723875000Y-307129000D03*
D12*
X718175000Y-307129000D03*
X712475000Y-307129000D03*
X706775000Y-307129000D03*
X723875000Y-301629000D03*
X718175000Y-301629000D03*
X712475000Y-301629000D03*
X706775000Y-301629000D03*
G04 #@! TD*
D10*
G04 #@! TO.C,J5_2*
X380837000Y-314429000D03*
X397937000Y-314429000D03*
D11*
X397937000Y-307129000D03*
D12*
X392237000Y-307129000D03*
X386537000Y-307129000D03*
X380837000Y-307129000D03*
X397937000Y-301629000D03*
X392237000Y-301629000D03*
X386537000Y-301629000D03*
X380837000Y-301629000D03*
G04 #@! TD*
D10*
G04 #@! TO.C,J4_1*
X278074000Y-314386000D03*
D11*
X280924000Y-307086000D03*
D12*
X275224000Y-307086000D03*
X280924000Y-301586000D03*
X275224000Y-301586000D03*
G04 #@! TD*
D17*
G04 #@! TO.C,*
X757468000Y-325634000D03*
G04 #@! TD*
D13*
G04 #@! TO.C,J3_0_2*
X258540758Y-290869878D03*
X258540758Y-278169878D03*
X250285758Y-290869878D03*
X250285758Y-278169878D03*
X242030758Y-290869878D03*
X242030758Y-278169878D03*
X233775758Y-290869878D03*
X233775758Y-278169878D03*
G04 #@! TD*
M02*
