G04 #@! TF.GenerationSoftware,KiCad,Pcbnew,(5.99.0-9973-gfb99c55869)*
G04 #@! TF.CreationDate,2021-09-10T21:28:04-07:00*
G04 #@! TF.ProjectId,2E1,3245312e-6b69-4636-9164-5f7063625858,rev?*
G04 #@! TF.SameCoordinates,Original*
G04 #@! TF.FileFunction,Legend,Bot*
G04 #@! TF.FilePolarity,Positive*
%FSLAX46Y46*%
G04 Gerber Fmt 4.6, Leading zero omitted, Abs format (unit mm)*
G04 Created by KiCad (PCBNEW (5.99.0-9973-gfb99c55869)) date 2021-09-10 21:28:04*
%MOMM*%
%LPD*%
G01*
G04 APERTURE LIST*
%ADD10C,0.150000*%
%ADD11C,0.120000*%
G04 APERTURE END LIST*
D10*
X288400000Y-223660000D02*
X329000000Y-223660000D01*
X329000000Y-223660000D02*
X329000000Y-323660000D01*
X329000000Y-323660000D02*
X288400000Y-323660000D01*
X288400000Y-323660000D02*
X288400000Y-223660000D01*
X674100000Y-223630000D02*
X694400000Y-223630000D01*
X694400000Y-223630000D02*
X694400000Y-323630000D01*
X694400000Y-323630000D02*
X674100000Y-323630000D01*
X674100000Y-323630000D02*
X674100000Y-223630000D01*
X85400000Y-223670000D02*
X105700000Y-223670000D01*
X105700000Y-223670000D02*
X105700000Y-323670000D01*
X105700000Y-323670000D02*
X85400000Y-323670000D01*
X85400000Y-323670000D02*
X85400000Y-223670000D01*
X410200000Y-223650000D02*
X430500000Y-223650000D01*
X430500000Y-223650000D02*
X430500000Y-323650000D01*
X430500000Y-323650000D02*
X410200000Y-323650000D01*
X410200000Y-323650000D02*
X410200000Y-223650000D01*
X653800000Y-223640000D02*
X674100000Y-223640000D01*
X674100000Y-223640000D02*
X674100000Y-323640000D01*
X674100000Y-323640000D02*
X653800000Y-323640000D01*
X653800000Y-323640000D02*
X653800000Y-223640000D01*
X268100000Y-223660000D02*
X288400000Y-223660000D01*
X288400000Y-223660000D02*
X288400000Y-323660000D01*
X288400000Y-323660000D02*
X268100000Y-323660000D01*
X268100000Y-323660000D02*
X268100000Y-223660000D01*
X186900000Y-223660000D02*
X207200000Y-223660000D01*
X207200000Y-223660000D02*
X207200000Y-323660000D01*
X207200000Y-323660000D02*
X186900000Y-323660000D01*
X186900000Y-323660000D02*
X186900000Y-223660000D01*
X491400000Y-223650000D02*
X511700000Y-223650000D01*
X511700000Y-223650000D02*
X511700000Y-323650000D01*
X511700000Y-323650000D02*
X491400000Y-323650000D01*
X491400000Y-323650000D02*
X491400000Y-223650000D01*
X450800000Y-223650000D02*
X491400000Y-223650000D01*
X491400000Y-223650000D02*
X491400000Y-323650000D01*
X491400000Y-323650000D02*
X450800000Y-323650000D01*
X450800000Y-323650000D02*
X450800000Y-223650000D01*
X247800000Y-223660000D02*
X268100000Y-223660000D01*
X268100000Y-223660000D02*
X268100000Y-323660000D01*
X268100000Y-323660000D02*
X247800000Y-323660000D01*
X247800000Y-323660000D02*
X247800000Y-223660000D01*
X369600000Y-223650000D02*
X410200000Y-223650000D01*
X410200000Y-223650000D02*
X410200000Y-323650000D01*
X410200000Y-323650000D02*
X369600000Y-323650000D01*
X369600000Y-323650000D02*
X369600000Y-223650000D01*
X532000000Y-223640000D02*
X572600000Y-223640000D01*
X572600000Y-223640000D02*
X572600000Y-323640000D01*
X572600000Y-323640000D02*
X532000000Y-323640000D01*
X532000000Y-323640000D02*
X532000000Y-223640000D01*
X511700000Y-223640000D02*
X532000000Y-223640000D01*
X532000000Y-223640000D02*
X532000000Y-323640000D01*
X532000000Y-323640000D02*
X511700000Y-323640000D01*
X511700000Y-323640000D02*
X511700000Y-223640000D01*
X592900000Y-223640000D02*
X613200000Y-223640000D01*
X613200000Y-223640000D02*
X613200000Y-323640000D01*
X613200000Y-323640000D02*
X592900000Y-323640000D01*
X592900000Y-323640000D02*
X592900000Y-223640000D01*
X735000000Y-223630000D02*
X755300000Y-223630000D01*
X755300000Y-223630000D02*
X755300000Y-323630000D01*
X755300000Y-323630000D02*
X735000000Y-323630000D01*
X735000000Y-323630000D02*
X735000000Y-223630000D01*
X105700000Y-223670000D02*
X126000000Y-223670000D01*
X126000000Y-223670000D02*
X126000000Y-323670000D01*
X126000000Y-323670000D02*
X105700000Y-323670000D01*
X105700000Y-323670000D02*
X105700000Y-223670000D01*
X126000000Y-223670000D02*
X166600000Y-223670000D01*
X166600000Y-223670000D02*
X166600000Y-323670000D01*
X166600000Y-323670000D02*
X126000000Y-323670000D01*
X126000000Y-323670000D02*
X126000000Y-223670000D01*
X329000000Y-223660000D02*
X349300000Y-223660000D01*
X349300000Y-223660000D02*
X349300000Y-323660000D01*
X349300000Y-323660000D02*
X329000000Y-323660000D01*
X329000000Y-323660000D02*
X329000000Y-223660000D01*
X207200000Y-223660000D02*
X247800000Y-223660000D01*
X247800000Y-223660000D02*
X247800000Y-323660000D01*
X247800000Y-323660000D02*
X207200000Y-323660000D01*
X207200000Y-323660000D02*
X207200000Y-223660000D01*
X166600000Y-223670000D02*
X186900000Y-223670000D01*
X186900000Y-223670000D02*
X186900000Y-323670000D01*
X186900000Y-323670000D02*
X166600000Y-323670000D01*
X166600000Y-323670000D02*
X166600000Y-223670000D01*
X613200000Y-223640000D02*
X653800000Y-223640000D01*
X653800000Y-223640000D02*
X653800000Y-323640000D01*
X653800000Y-323640000D02*
X613200000Y-323640000D01*
X613200000Y-323640000D02*
X613200000Y-223640000D01*
X349300000Y-223650000D02*
X369600000Y-223650000D01*
X369600000Y-223650000D02*
X369600000Y-323650000D01*
X369600000Y-323650000D02*
X349300000Y-323650000D01*
X349300000Y-323650000D02*
X349300000Y-223650000D01*
X572600000Y-223640000D02*
X592900000Y-223640000D01*
X592900000Y-223640000D02*
X592900000Y-323640000D01*
X592900000Y-323640000D02*
X572600000Y-323640000D01*
X572600000Y-323640000D02*
X572600000Y-223640000D01*
X430500000Y-223650000D02*
X450800000Y-223650000D01*
X450800000Y-223650000D02*
X450800000Y-323650000D01*
X450800000Y-323650000D02*
X430500000Y-323650000D01*
X430500000Y-323650000D02*
X430500000Y-223650000D01*
X694400000Y-223630000D02*
X735000000Y-223630000D01*
X735000000Y-223630000D02*
X735000000Y-323630000D01*
X735000000Y-323630000D02*
X694400000Y-323630000D01*
X694400000Y-323630000D02*
X694400000Y-223630000D01*
D11*
G04 #@! TO.C,J6_0_1*
X472066874Y-290949888D02*
G75*
G03*
X472066874Y-290949888I-381000J0D01*
G01*
G04 #@! TO.C,J8_0_1*
X634736856Y-291089842D02*
G75*
G03*
X634736856Y-291089842I-381000J0D01*
G01*
G04 #@! TO.C,J7_0_2*
X591865974Y-290910010D02*
G75*
G03*
X591865974Y-290910010I-381000J0D01*
G01*
G04 #@! TO.C,J8_0_2*
X673626796Y-291089842D02*
G75*
G03*
X673626796Y-291089842I-381000J0D01*
G01*
G04 #@! TO.C,J9_0_2*
X754736870Y-291059870D02*
G75*
G03*
X754736870Y-291059870I-381000J0D01*
G01*
G04 #@! TO.C,J1*
X462838800Y-170180000D02*
G75*
G03*
X462838800Y-170180000I-381000J0D01*
G01*
G04 #@! TO.C,J5_0_1*
X390226042Y-290930076D02*
G75*
G03*
X390226042Y-290930076I-381000J0D01*
G01*
G04 #@! TO.C,J4_0_2*
X347766640Y-290969700D02*
G75*
G03*
X347766640Y-290969700I-381000J0D01*
G01*
G04 #@! TO.C,J4_0_1*
X308876700Y-290969700D02*
G75*
G03*
X308876700Y-290969700I-381000J0D01*
G01*
G04 #@! TO.C,J3_0_1*
X227016742Y-290869878D02*
G75*
G03*
X227016742Y-290869878I-381000J0D01*
G01*
G04 #@! TO.C,J6_0_2*
X510956814Y-290949888D02*
G75*
G03*
X510956814Y-290949888I-381000J0D01*
G01*
G04 #@! TO.C,J9_0_1*
X715846676Y-291059870D02*
G75*
G03*
X715846676Y-291059870I-381000J0D01*
G01*
G04 #@! TO.C,J7_0_1*
X552976034Y-290910010D02*
G75*
G03*
X552976034Y-290910010I-381000J0D01*
G01*
G04 #@! TO.C,J2_0_1*
X145855995Y-290880038D02*
G75*
G03*
X145855995Y-290880038I-381000J0D01*
G01*
G04 #@! TO.C,J2_0_2*
X184746000Y-290880000D02*
G75*
G03*
X184746000Y-290880000I-381000J0D01*
G01*
G04 #@! TO.C,J5_0_2*
X429115982Y-290930076D02*
G75*
G03*
X429115982Y-290930076I-381000J0D01*
G01*
G04 #@! TO.C,J3_0_2*
X265906758Y-290869878D02*
G75*
G03*
X265906758Y-290869878I-381000J0D01*
G01*
G04 #@! TD*
M02*
