M48
METRIC,TZ
T1C3.000
T2C4.826
%
G90
G05
T1
X114864Y-314429
X136880Y-314386
X153980Y-314386
X175824Y-314429
X196088Y-314386
X217906Y-314386
X235006Y-314386
X257810Y-314386
X278074Y-314386
X299638Y-314386
X316738Y-314386
X339288Y-314386
X359664Y-314429
X380837Y-314429
X397937Y-314429
X420370Y-314429
X440690Y-314429
X462625Y-314175
X479725Y-314175
X501650Y-314429
X521970Y-314429
X544240Y-313624
X561340Y-313624
X583184Y-314429
X603814Y-314429
X625830Y-314386
X642930Y-314386
X664774Y-314175
X685094Y-314175
X706775Y-314429
X723875Y-314429
X745998Y-314386
T2
X81320Y-154946
X81320Y-325634
X757468Y-154946
X757468Y-325634
T0
M30
