M48
METRIC,TZ
T1C0.400
T2C0.965
T3C1.575
T4C1.800
T5C1.981
T6C3.251
%
G90
G05
T1
X129934Y-230238
X129970Y-259470
X137600Y-260210
X140913Y-230943
X153810Y-261000
X164084Y-231648
X178400Y-261660
X186135Y-232965
X288415Y-262365
X290750Y-233670
X296620Y-263070
X300685Y-234405
X313050Y-263770
X319150Y-235090
X337830Y-264470
X344260Y-235850
X519176Y-239268
X527812Y-264160
X530860Y-238252
X536251Y-263455
X545592Y-237236
X553212Y-262636
X568960Y-236220
X576891Y-261931
X677672Y-235204
X681736Y-260604
X694436Y-234188
X697287Y-259899
X708660Y-233172
X713740Y-259080
X733044Y-232156
X740156Y-258572
T2
X405384Y-172720
X405384Y-179324
X406654Y-170180
X406654Y-176784
X407924Y-172720
X407924Y-179324
X409194Y-170180
X409194Y-176784
X410464Y-172720
X410464Y-179324
X411734Y-170180
X411734Y-176784
X413004Y-172720
X413004Y-179324
X414274Y-170180
X414274Y-176784
X419354Y-172720
X419354Y-179324
X420624Y-170180
X420624Y-176784
X421894Y-172720
X421894Y-179324
X423164Y-170180
X423164Y-176784
X424434Y-172720
X424434Y-179324
X425704Y-170180
X425704Y-176784
X426974Y-172720
X426974Y-179324
X428244Y-170180
X428244Y-176784
X433324Y-172720
X433324Y-179324
X434594Y-170180
X434594Y-176784
X435864Y-172720
X435864Y-179324
X437134Y-170180
X437134Y-176784
X438404Y-172720
X438404Y-179324
X439674Y-170180
X439674Y-176784
X440944Y-172720
X440944Y-179324
X442214Y-170180
X442214Y-176784
X447294Y-172720
X447294Y-179324
X448564Y-170180
X448564Y-176784
X449834Y-172720
X449834Y-179324
X451104Y-170180
X451104Y-176784
X452374Y-172720
X452374Y-179324
X453644Y-170180
X453644Y-176784
X454914Y-172720
X454914Y-179324
X456184Y-170180
X456184Y-176784
T3
X401320Y-159258
X401320Y-175260
X401955Y-169672
X416179Y-173990
X416179Y-180594
X430149Y-173990
X430149Y-180594
X444119Y-173990
X444119Y-180594
X459613Y-172974
X460248Y-159258
X460248Y-179324
T4
X112014Y-301629
X112014Y-307129
X117714Y-301629
X117714Y-307129
X136880Y-301586
X136880Y-307086
X142580Y-301586
X142580Y-307086
X148280Y-301586
X148280Y-307086
X153980Y-301586
X153980Y-307086
X172974Y-301629
X172974Y-307129
X178674Y-301629
X178674Y-307129
X193238Y-301586
X193238Y-307086
X198938Y-301586
X198938Y-307086
X217906Y-301586
X217906Y-307086
X223606Y-301586
X223606Y-307086
X229306Y-301586
X229306Y-307086
X235006Y-301586
X235006Y-307086
X254960Y-301586
X254960Y-307086
X260660Y-301586
X260660Y-307086
X275224Y-301586
X275224Y-307086
X280924Y-301586
X280924Y-307086
X299638Y-301586
X299638Y-307086
X305338Y-301586
X305338Y-307086
X311038Y-301586
X311038Y-307086
X316738Y-301586
X316738Y-307086
X336438Y-301586
X336438Y-307086
X342138Y-301586
X342138Y-307086
X356814Y-301629
X356814Y-307129
X362514Y-301629
X362514Y-307129
X380837Y-301629
X380837Y-307129
X386537Y-301629
X386537Y-307129
X392237Y-301629
X392237Y-307129
X397937Y-301629
X397937Y-307129
X417520Y-301629
X417520Y-307129
X423220Y-301629
X423220Y-307129
X437840Y-301629
X437840Y-307129
X443540Y-301629
X443540Y-307129
X462625Y-301375
X462625Y-306875
X468325Y-301375
X468325Y-306875
X474025Y-301375
X474025Y-306875
X479725Y-301375
X479725Y-306875
X498800Y-301629
X498800Y-307129
X504500Y-301629
X504500Y-307129
X519120Y-301629
X519120Y-307129
X524820Y-301629
X524820Y-307129
X544240Y-300824
X544240Y-306324
X549940Y-300824
X549940Y-306324
X555640Y-300824
X555640Y-306324
X561340Y-300824
X561340Y-306324
X580334Y-301629
X580334Y-307129
X586034Y-301629
X586034Y-307129
X600964Y-301629
X600964Y-307129
X606664Y-301629
X606664Y-307129
X625830Y-301586
X625830Y-307086
X631530Y-301586
X631530Y-307086
X637230Y-301586
X637230Y-307086
X642930Y-301586
X642930Y-307086
X661924Y-301375
X661924Y-306875
X667624Y-301375
X667624Y-306875
X682244Y-301375
X682244Y-306875
X687944Y-301375
X687944Y-306875
X706775Y-301629
X706775Y-307129
X712475Y-301629
X712475Y-307129
X718175Y-301629
X718175Y-307129
X723875Y-301629
X723875Y-307129
X743148Y-301586
X743148Y-307086
X748848Y-301586
X748848Y-307086
T5
X113725Y-278180
X113725Y-290880
X121980Y-278180
X121980Y-290880
X130235Y-278180
X130235Y-290880
X138490Y-278180
X138490Y-290880
X152615Y-278180
X152615Y-290880
X160870Y-278180
X160870Y-290880
X169125Y-278180
X169125Y-290880
X177380Y-278180
X177380Y-290880
X194886Y-278170
X194886Y-290870
X203141Y-278170
X203141Y-290870
X211396Y-278170
X211396Y-290870
X219651Y-278170
X219651Y-290870
X233776Y-278170
X233776Y-290870
X242031Y-278170
X242031Y-290870
X250286Y-278170
X250286Y-290870
X258541Y-278170
X258541Y-290870
X276746Y-278270
X276746Y-290970
X285001Y-278270
X285001Y-290970
X293256Y-278270
X293256Y-290970
X301511Y-278270
X301511Y-290970
X315636Y-278270
X315636Y-290970
X323891Y-278270
X323891Y-290970
X332146Y-278270
X332146Y-290970
X340401Y-278270
X340401Y-290970
X358095Y-278230
X358095Y-290930
X366350Y-278230
X366350Y-290930
X374605Y-278230
X374605Y-290930
X382860Y-278230
X382860Y-290930
X396985Y-278230
X396985Y-290930
X405240Y-278230
X405240Y-290930
X413495Y-278230
X413495Y-290930
X421750Y-278230
X421750Y-290930
X439936Y-278250
X439936Y-290950
X448191Y-278250
X448191Y-290950
X456446Y-278250
X456446Y-290950
X464701Y-278250
X464701Y-290950
X478826Y-278250
X478826Y-290950
X487081Y-278250
X487081Y-290950
X495336Y-278250
X495336Y-290950
X503591Y-278250
X503591Y-290950
X520845Y-278210
X520845Y-290910
X529100Y-278210
X529100Y-290910
X537355Y-278210
X537355Y-290910
X545610Y-278210
X545610Y-290910
X559735Y-278210
X559735Y-290910
X567990Y-278210
X567990Y-290910
X576245Y-278210
X576245Y-290910
X584500Y-278210
X584500Y-290910
X602606Y-278390
X602606Y-291090
X610861Y-278390
X610861Y-291090
X619116Y-278390
X619116Y-291090
X627371Y-278390
X627371Y-291090
X641496Y-278390
X641496Y-291090
X649751Y-278390
X649751Y-291090
X658006Y-278390
X658006Y-291090
X666261Y-278390
X666261Y-291090
X683716Y-278360
X683716Y-291060
X691971Y-278360
X691971Y-291060
X700226Y-278360
X700226Y-291060
X708481Y-278360
X708481Y-291060
X722606Y-278360
X722606Y-291060
X730861Y-278360
X730861Y-291060
X739116Y-278360
X739116Y-291060
X747371Y-278360
X747371Y-291060
T6
X404114Y-163830
X457454Y-163830
T0
M30
