G04 #@! TF.GenerationSoftware,KiCad,Pcbnew,(5.99.0-9973-gfb99c55869)*
G04 #@! TF.CreationDate,2022-03-18T17:34:01-07:00*
G04 #@! TF.ProjectId,v1,76312e6b-6963-4616-945f-706362585858,rev?*
G04 #@! TF.SameCoordinates,Original*
G04 #@! TF.FileFunction,Copper,L2,Bot*
G04 #@! TF.FilePolarity,Positive*
%FSLAX46Y46*%
G04 Gerber Fmt 4.6, Leading zero omitted, Abs format (unit mm)*
G04 Created by KiCad (PCBNEW (5.99.0-9973-gfb99c55869)) date 2022-03-18 17:34:01*
%MOMM*%
%LPD*%
G01*
G04 APERTURE LIST*
G04 #@! TA.AperFunction,ComponentPad*
%ADD10R,1.350000X1.350000*%
G04 #@! TD*
G04 #@! TA.AperFunction,ComponentPad*
%ADD11C,1.350000*%
G04 #@! TD*
G04 #@! TA.AperFunction,ComponentPad*
%ADD12R,2.100000X2.100000*%
G04 #@! TD*
G04 #@! TA.AperFunction,ComponentPad*
%ADD13C,2.100000*%
G04 #@! TD*
G04 #@! TA.AperFunction,ComponentPad*
%ADD14C,1.000000*%
G04 #@! TD*
G04 #@! TA.AperFunction,ComponentPad*
%ADD15C,1.489990*%
G04 #@! TD*
G04 #@! TA.AperFunction,ViaPad*
%ADD16C,0.800000*%
G04 #@! TD*
G04 #@! TA.AperFunction,Conductor*
%ADD17C,0.076200*%
G04 #@! TD*
G04 APERTURE END LIST*
D10*
X85869501Y-134847508D03*
D11*
X85869501Y-137387508D03*
X88409501Y-134847508D03*
X88409501Y-137387508D03*
X90949501Y-134847508D03*
X90949501Y-137387508D03*
X93489501Y-134847508D03*
X93489501Y-137387508D03*
D12*
X103912000Y-105518500D03*
D13*
X108912000Y-105518500D03*
X113912000Y-105518500D03*
X118912000Y-105518500D03*
X123912000Y-105518500D03*
X128912000Y-105518500D03*
X133912000Y-105518500D03*
X138912000Y-105518500D03*
D14*
X192387000Y-138640000D03*
X202837000Y-138640000D03*
X174607000Y-138640000D03*
X185057000Y-138640000D03*
D12*
X152172000Y-105664000D03*
D13*
X157172000Y-105664000D03*
X162172000Y-105664000D03*
X167172000Y-105664000D03*
X172172000Y-105664000D03*
X177172000Y-105664000D03*
X182172000Y-105664000D03*
X187172000Y-105664000D03*
D15*
X166553000Y-139192000D03*
X166553000Y-137192004D03*
X164553000Y-139192000D03*
X164553000Y-137192004D03*
X162553000Y-139192000D03*
X162553000Y-137192004D03*
X160553000Y-139192000D03*
X160553000Y-137192004D03*
X158553000Y-139192000D03*
X158553000Y-137192004D03*
X156553000Y-139192000D03*
X156553000Y-137192004D03*
X154553000Y-139192000D03*
X154553000Y-137192004D03*
X152553000Y-139192000D03*
X152553000Y-137192004D03*
X150553010Y-139192000D03*
X150553010Y-137192004D03*
X148552990Y-139192000D03*
X148552990Y-137192004D03*
X146552990Y-139192000D03*
X146552990Y-137192004D03*
X144553000Y-139192000D03*
X144553000Y-137192004D03*
X142553000Y-139192000D03*
X142553000Y-137192004D03*
X140553000Y-139192000D03*
X140553000Y-137192004D03*
X138553010Y-139192000D03*
X138553010Y-137192004D03*
X136553010Y-139192000D03*
X136553010Y-137192004D03*
X134552990Y-139192000D03*
X134552990Y-137192004D03*
X132553000Y-139192000D03*
X132553000Y-137192004D03*
X130553000Y-139192000D03*
X130553000Y-137192004D03*
X128553000Y-139192000D03*
X128553000Y-137192004D03*
X126553000Y-139192000D03*
X126553000Y-137192004D03*
X124553000Y-139192000D03*
X124553000Y-137192004D03*
X122553000Y-139192000D03*
X122553000Y-137192004D03*
X120553000Y-139192000D03*
X120553000Y-137192004D03*
X118553000Y-139192000D03*
X118553000Y-137192004D03*
D16*
X179451000Y-112903000D03*
X128778000Y-114808000D03*
X200279000Y-105664000D03*
D17*
X172974000Y-112903000D02*
X179451000Y-112903000D01*
X172593000Y-112522000D02*
X172974000Y-112903000D01*
X172172000Y-105664000D02*
X172172000Y-112101000D01*
X172172000Y-112101000D02*
X172593000Y-112522000D01*
X126553000Y-115636000D02*
X127381000Y-114808000D01*
X126553000Y-137192004D02*
X126553000Y-115636000D01*
X127381000Y-114808000D02*
X128778000Y-114808000D01*
X187172000Y-105664000D02*
X200279000Y-105664000D01*
X138553010Y-129924990D02*
X138553010Y-137192004D01*
X108912000Y-105518500D02*
X114100500Y-100330000D01*
X114100500Y-100330000D02*
X138811000Y-100330000D01*
X138811000Y-100330000D02*
X141859000Y-103378000D01*
X141859000Y-103378000D02*
X141859000Y-126619000D01*
X141859000Y-126619000D02*
X138553010Y-129924990D01*
X126553000Y-137192004D02*
X126553000Y-139192000D01*
X128553000Y-132813000D02*
X128553000Y-137192004D01*
X133912000Y-105518500D02*
X133912000Y-131137000D01*
X133912000Y-131137000D02*
X133350000Y-131699000D01*
X133350000Y-131699000D02*
X129667000Y-131699000D01*
X129667000Y-131699000D02*
X128553000Y-132813000D01*
X119761000Y-111506000D02*
X89916000Y-111506000D01*
X119761000Y-111506000D02*
X122936000Y-111506000D01*
X119830905Y-111506000D02*
X119761000Y-111506000D01*
X123178500Y-111263500D02*
X122936000Y-111506000D01*
X123178500Y-111252000D02*
X123178500Y-111263500D01*
X128912000Y-105518500D02*
X123178500Y-111252000D01*
X129140500Y-105518500D02*
X129159000Y-105537000D01*
X128912000Y-105518500D02*
X129140500Y-105518500D01*
X88409501Y-137387508D02*
X88409501Y-134847508D01*
X88409501Y-113012499D02*
X88409501Y-134847508D01*
X89916000Y-111506000D02*
X88409501Y-113012499D01*
X85869501Y-134847508D02*
X85869501Y-137387508D01*
X119575500Y-109855000D02*
X88900000Y-109855000D01*
X123912000Y-105518500D02*
X119575500Y-109855000D01*
X88900000Y-109855000D02*
X85869501Y-112885499D01*
X85869501Y-112885499D02*
X85869501Y-134847508D01*
G04 #@! TA.AperFunction,Conductor*
G36*
X205174121Y-98572002D02*
G01*
X205220614Y-98625658D01*
X205232000Y-98678000D01*
X205232000Y-143638000D01*
X205211998Y-143706121D01*
X205158342Y-143752614D01*
X205106000Y-143764000D01*
X81406000Y-143764000D01*
X81337879Y-143743998D01*
X81291386Y-143690342D01*
X81280000Y-143638000D01*
X81280000Y-134172508D01*
X84681001Y-134172508D01*
X84681001Y-135522508D01*
X84686228Y-135595587D01*
X84694396Y-135623404D01*
X84713335Y-135687904D01*
X84727405Y-135735824D01*
X84732276Y-135743403D01*
X84801552Y-135851199D01*
X84801554Y-135851202D01*
X84806424Y-135858779D01*
X84813234Y-135864680D01*
X84910070Y-135948590D01*
X84910073Y-135948592D01*
X84916882Y-135954492D01*
X84925080Y-135958236D01*
X85020851Y-136001973D01*
X85049831Y-136015208D01*
X85058746Y-136016490D01*
X85058747Y-136016490D01*
X85190053Y-136035369D01*
X85190060Y-136035370D01*
X85194501Y-136036008D01*
X85198995Y-136036008D01*
X85203487Y-136036329D01*
X85203374Y-136037909D01*
X85265022Y-136056010D01*
X85311515Y-136109666D01*
X85322901Y-136162008D01*
X85322901Y-136263920D01*
X85302899Y-136332041D01*
X85261324Y-136372205D01*
X85242754Y-136383253D01*
X85170918Y-136425991D01*
X85153210Y-136441521D01*
X85011739Y-136565588D01*
X85011736Y-136565591D01*
X85007394Y-136569399D01*
X84872741Y-136740205D01*
X84870052Y-136745316D01*
X84870050Y-136745319D01*
X84801072Y-136876425D01*
X84771470Y-136932689D01*
X84760151Y-136969144D01*
X84709564Y-137132062D01*
X84706973Y-137140405D01*
X84681408Y-137356397D01*
X84695633Y-137573430D01*
X84697054Y-137579026D01*
X84697055Y-137579031D01*
X84747751Y-137778642D01*
X84749172Y-137784237D01*
X84751589Y-137789480D01*
X84769100Y-137827464D01*
X84840230Y-137981758D01*
X84965759Y-138159377D01*
X85121554Y-138311146D01*
X85126350Y-138314351D01*
X85126353Y-138314353D01*
X85228835Y-138382829D01*
X85302398Y-138431982D01*
X85307701Y-138434260D01*
X85307704Y-138434262D01*
X85385570Y-138467716D01*
X85502234Y-138517839D01*
X85714371Y-138565840D01*
X85720145Y-138566067D01*
X85720146Y-138566067D01*
X85763094Y-138567754D01*
X85931702Y-138574379D01*
X86146951Y-138543170D01*
X86152415Y-138541315D01*
X86152420Y-138541314D01*
X86347436Y-138475115D01*
X86347441Y-138475113D01*
X86352908Y-138473257D01*
X86358760Y-138469980D01*
X86441727Y-138423516D01*
X86542675Y-138366982D01*
X86548245Y-138362350D01*
X86705465Y-138231590D01*
X86709897Y-138227904D01*
X86754723Y-138174007D01*
X86845281Y-138065124D01*
X86845283Y-138065121D01*
X86848975Y-138060682D01*
X86942055Y-137894476D01*
X86952426Y-137875958D01*
X86952427Y-137875956D01*
X86955250Y-137870915D01*
X87017920Y-137686294D01*
X87022125Y-137673908D01*
X87062962Y-137615832D01*
X87128715Y-137589054D01*
X87198507Y-137602075D01*
X87250181Y-137650762D01*
X87263561Y-137683395D01*
X87287750Y-137778640D01*
X87287751Y-137778642D01*
X87289172Y-137784237D01*
X87291589Y-137789480D01*
X87309100Y-137827464D01*
X87380230Y-137981758D01*
X87505759Y-138159377D01*
X87661554Y-138311146D01*
X87666350Y-138314351D01*
X87666353Y-138314353D01*
X87768835Y-138382829D01*
X87842398Y-138431982D01*
X87847701Y-138434260D01*
X87847704Y-138434262D01*
X87925570Y-138467716D01*
X88042234Y-138517839D01*
X88254371Y-138565840D01*
X88260145Y-138566067D01*
X88260146Y-138566067D01*
X88303094Y-138567754D01*
X88471702Y-138574379D01*
X88686951Y-138543170D01*
X88692415Y-138541315D01*
X88692420Y-138541314D01*
X88887436Y-138475115D01*
X88887441Y-138475113D01*
X88892908Y-138473257D01*
X88898760Y-138469980D01*
X88981727Y-138423516D01*
X89054378Y-138382829D01*
X90318540Y-138382829D01*
X90328422Y-138395318D01*
X90377832Y-138428333D01*
X90387945Y-138433824D01*
X90577086Y-138515085D01*
X90588019Y-138518637D01*
X90788799Y-138564069D01*
X90800209Y-138565571D01*
X91005908Y-138573653D01*
X91017390Y-138573051D01*
X91221120Y-138543512D01*
X91232303Y-138540827D01*
X91427236Y-138474656D01*
X91437739Y-138469980D01*
X91572589Y-138394461D01*
X91582452Y-138384386D01*
X91581852Y-138382829D01*
X92858540Y-138382829D01*
X92868422Y-138395318D01*
X92917832Y-138428333D01*
X92927945Y-138433824D01*
X93117086Y-138515085D01*
X93128019Y-138518637D01*
X93328799Y-138564069D01*
X93340209Y-138565571D01*
X93545908Y-138573653D01*
X93557390Y-138573051D01*
X93761120Y-138543512D01*
X93772303Y-138540827D01*
X93967236Y-138474656D01*
X93977739Y-138469980D01*
X94112589Y-138394461D01*
X94122452Y-138384386D01*
X94119496Y-138376714D01*
X93502312Y-137759529D01*
X93488369Y-137751916D01*
X93486535Y-137752047D01*
X93479921Y-137756298D01*
X92864733Y-138371487D01*
X92858540Y-138382829D01*
X91581852Y-138382829D01*
X91579496Y-138376714D01*
X90962312Y-137759529D01*
X90948369Y-137751916D01*
X90946535Y-137752047D01*
X90939921Y-137756298D01*
X90324733Y-138371487D01*
X90318540Y-138382829D01*
X89054378Y-138382829D01*
X89082675Y-138366982D01*
X89088245Y-138362350D01*
X89245465Y-138231590D01*
X89249897Y-138227904D01*
X89294723Y-138174007D01*
X89385281Y-138065124D01*
X89385283Y-138065121D01*
X89388975Y-138060682D01*
X89482055Y-137894476D01*
X89492426Y-137875958D01*
X89492427Y-137875956D01*
X89495250Y-137870915D01*
X89556624Y-137690112D01*
X89562419Y-137673042D01*
X89603256Y-137614966D01*
X89669009Y-137588188D01*
X89738801Y-137601209D01*
X89790475Y-137649896D01*
X89803855Y-137682529D01*
X89828221Y-137778471D01*
X89832062Y-137789318D01*
X89918245Y-137976263D01*
X89923996Y-137986224D01*
X89941523Y-138011024D01*
X89952113Y-138019413D01*
X89965412Y-138012386D01*
X90577480Y-137400319D01*
X90583857Y-137388640D01*
X91313909Y-137388640D01*
X91314040Y-137390474D01*
X91318291Y-137397088D01*
X91934796Y-138013592D01*
X91947171Y-138020349D01*
X91953751Y-138015423D01*
X92031973Y-137875746D01*
X92036649Y-137865243D01*
X92102193Y-137672155D01*
X92143030Y-137614079D01*
X92208782Y-137587300D01*
X92278575Y-137600321D01*
X92330248Y-137649008D01*
X92343629Y-137681641D01*
X92368221Y-137778471D01*
X92372062Y-137789318D01*
X92458245Y-137976263D01*
X92463996Y-137986224D01*
X92481523Y-138011024D01*
X92492113Y-138019413D01*
X92505412Y-138012386D01*
X93117480Y-137400319D01*
X93123857Y-137388640D01*
X93853909Y-137388640D01*
X93854040Y-137390474D01*
X93858291Y-137397088D01*
X94474796Y-138013592D01*
X94487171Y-138020349D01*
X94493751Y-138015423D01*
X94571973Y-137875746D01*
X94576649Y-137865243D01*
X94642820Y-137670310D01*
X94645505Y-137659127D01*
X94675340Y-137453357D01*
X94675970Y-137445974D01*
X94677404Y-137391212D01*
X94677161Y-137383813D01*
X94666280Y-137265388D01*
X117297634Y-137265388D01*
X117298336Y-137276540D01*
X117330469Y-137486532D01*
X117333135Y-137497385D01*
X117401945Y-137698365D01*
X117406496Y-137708585D01*
X117494484Y-137866668D01*
X117504537Y-137876559D01*
X117512140Y-137873653D01*
X118180979Y-137204815D01*
X118187356Y-137193136D01*
X118917408Y-137193136D01*
X118917539Y-137194970D01*
X118921790Y-137201584D01*
X119540192Y-137819985D01*
X119554130Y-137827596D01*
X119555966Y-137827464D01*
X119562578Y-137823215D01*
X120180979Y-137204815D01*
X120187356Y-137193136D01*
X120917408Y-137193136D01*
X120917539Y-137194970D01*
X120921790Y-137201584D01*
X121540192Y-137819985D01*
X121554130Y-137827596D01*
X121555966Y-137827464D01*
X121562578Y-137823215D01*
X122180979Y-137204815D01*
X122187356Y-137193136D01*
X122917408Y-137193136D01*
X122917539Y-137194970D01*
X122921790Y-137201584D01*
X123540192Y-137819985D01*
X123554130Y-137827596D01*
X123555966Y-137827464D01*
X123562578Y-137823215D01*
X124180979Y-137204815D01*
X124188592Y-137190872D01*
X124188461Y-137189038D01*
X124184210Y-137182424D01*
X123565808Y-136564023D01*
X123551870Y-136556412D01*
X123550034Y-136556544D01*
X123543422Y-136560793D01*
X122925021Y-137179193D01*
X122917408Y-137193136D01*
X122187356Y-137193136D01*
X122188592Y-137190872D01*
X122188461Y-137189038D01*
X122184210Y-137182424D01*
X121565808Y-136564023D01*
X121551870Y-136556412D01*
X121550034Y-136556544D01*
X121543422Y-136560793D01*
X120925021Y-137179193D01*
X120917408Y-137193136D01*
X120187356Y-137193136D01*
X120188592Y-137190872D01*
X120188461Y-137189038D01*
X120184210Y-137182424D01*
X119565808Y-136564023D01*
X119551870Y-136556412D01*
X119550034Y-136556544D01*
X119543422Y-136560793D01*
X118925021Y-137179193D01*
X118917408Y-137193136D01*
X118187356Y-137193136D01*
X118188592Y-137190872D01*
X118188461Y-137189038D01*
X118184210Y-137182424D01*
X117518381Y-136516596D01*
X117506006Y-136509839D01*
X117498034Y-136515807D01*
X117435097Y-136616137D01*
X117430025Y-136626093D01*
X117350793Y-136823189D01*
X117347558Y-136833904D01*
X117304480Y-137041917D01*
X117303195Y-137053024D01*
X117297634Y-137265388D01*
X94666280Y-137265388D01*
X94658137Y-137176769D01*
X94656039Y-137165448D01*
X94600164Y-136967331D01*
X94596039Y-136956584D01*
X94504992Y-136771958D01*
X94499109Y-136762358D01*
X94487911Y-136753955D01*
X94475495Y-136760725D01*
X93861522Y-137374697D01*
X93853909Y-137388640D01*
X93123857Y-137388640D01*
X93125093Y-137386376D01*
X93124962Y-137384542D01*
X93120711Y-137377928D01*
X92502555Y-136759773D01*
X92490180Y-136753016D01*
X92484214Y-136757482D01*
X92394624Y-136927764D01*
X92390219Y-136938398D01*
X92339123Y-137102953D01*
X92299820Y-137162078D01*
X92234790Y-137190569D01*
X92164681Y-137179379D01*
X92111751Y-137132062D01*
X92097521Y-137099790D01*
X92060164Y-136967331D01*
X92056039Y-136956584D01*
X91964992Y-136771958D01*
X91959109Y-136762358D01*
X91947911Y-136753955D01*
X91935495Y-136760725D01*
X91321522Y-137374697D01*
X91313909Y-137388640D01*
X90583857Y-137388640D01*
X90585093Y-137386376D01*
X90584962Y-137384542D01*
X90580711Y-137377928D01*
X89962555Y-136759773D01*
X89950180Y-136753016D01*
X89944214Y-136757482D01*
X89854624Y-136927764D01*
X89850219Y-136938398D01*
X89799394Y-137102081D01*
X89760091Y-137161206D01*
X89695061Y-137189697D01*
X89624952Y-137178507D01*
X89572022Y-137131190D01*
X89557792Y-137098918D01*
X89521192Y-136969144D01*
X89519061Y-136961588D01*
X89452984Y-136827596D01*
X89425419Y-136771698D01*
X89425416Y-136771694D01*
X89422864Y-136766518D01*
X89371885Y-136698248D01*
X89296182Y-136596870D01*
X89296181Y-136596869D01*
X89292729Y-136592246D01*
X89288493Y-136588330D01*
X89137255Y-136448528D01*
X89137253Y-136448526D01*
X89133014Y-136444608D01*
X89128136Y-136441530D01*
X89128124Y-136441521D01*
X89048864Y-136391512D01*
X90317618Y-136391512D01*
X90321104Y-136399900D01*
X90936690Y-137015487D01*
X90950633Y-137023100D01*
X90952467Y-137022969D01*
X90959081Y-137018718D01*
X91574114Y-136403684D01*
X91580760Y-136391512D01*
X92857618Y-136391512D01*
X92861104Y-136399900D01*
X93476690Y-137015487D01*
X93490633Y-137023100D01*
X93492467Y-137022969D01*
X93499081Y-137018718D01*
X94114114Y-136403684D01*
X94120871Y-136391309D01*
X94114841Y-136383253D01*
X94033722Y-136332071D01*
X94023479Y-136326853D01*
X93832275Y-136250570D01*
X93821249Y-136247304D01*
X93793765Y-136241837D01*
X93730856Y-136208929D01*
X93695724Y-136147234D01*
X93695954Y-136142949D01*
X117868499Y-136142949D01*
X117875130Y-136154923D01*
X118540189Y-136819983D01*
X118554132Y-136827596D01*
X118555966Y-136827465D01*
X118562580Y-136823214D01*
X119228255Y-136157538D01*
X119234476Y-136146145D01*
X119231954Y-136142949D01*
X119868499Y-136142949D01*
X119875130Y-136154923D01*
X120540189Y-136819983D01*
X120554132Y-136827596D01*
X120555966Y-136827465D01*
X120562580Y-136823214D01*
X121228255Y-136157538D01*
X121234476Y-136146145D01*
X121231954Y-136142949D01*
X121868499Y-136142949D01*
X121875130Y-136154923D01*
X122540189Y-136819983D01*
X122554132Y-136827596D01*
X122555966Y-136827465D01*
X122562580Y-136823214D01*
X123228255Y-136157538D01*
X123234476Y-136146145D01*
X123231954Y-136142949D01*
X123868499Y-136142949D01*
X123875130Y-136154923D01*
X124540189Y-136819983D01*
X124554132Y-136827596D01*
X124555966Y-136827465D01*
X124562580Y-136823214D01*
X125228255Y-136157538D01*
X125234476Y-136146145D01*
X125224664Y-136133710D01*
X125163704Y-136092746D01*
X125153904Y-136087359D01*
X124959391Y-136001973D01*
X124948792Y-135998406D01*
X124742229Y-135948814D01*
X124731167Y-135947181D01*
X124519092Y-135934953D01*
X124507908Y-135935305D01*
X124297020Y-135960825D01*
X124286086Y-135963149D01*
X124083039Y-136025614D01*
X124072695Y-136029835D01*
X123883919Y-136127271D01*
X123876516Y-136131969D01*
X123868499Y-136142949D01*
X123231954Y-136142949D01*
X123224664Y-136133710D01*
X123163704Y-136092746D01*
X123153904Y-136087359D01*
X122959391Y-136001973D01*
X122948792Y-135998406D01*
X122742229Y-135948814D01*
X122731167Y-135947181D01*
X122519092Y-135934953D01*
X122507908Y-135935305D01*
X122297020Y-135960825D01*
X122286086Y-135963149D01*
X122083039Y-136025614D01*
X122072695Y-136029835D01*
X121883919Y-136127271D01*
X121876516Y-136131969D01*
X121868499Y-136142949D01*
X121231954Y-136142949D01*
X121224664Y-136133710D01*
X121163704Y-136092746D01*
X121153904Y-136087359D01*
X120959391Y-136001973D01*
X120948792Y-135998406D01*
X120742229Y-135948814D01*
X120731167Y-135947181D01*
X120519092Y-135934953D01*
X120507908Y-135935305D01*
X120297020Y-135960825D01*
X120286086Y-135963149D01*
X120083039Y-136025614D01*
X120072695Y-136029835D01*
X119883919Y-136127271D01*
X119876516Y-136131969D01*
X119868499Y-136142949D01*
X119231954Y-136142949D01*
X119224664Y-136133710D01*
X119163704Y-136092746D01*
X119153904Y-136087359D01*
X118959391Y-136001973D01*
X118948792Y-135998406D01*
X118742229Y-135948814D01*
X118731167Y-135947181D01*
X118519092Y-135934953D01*
X118507908Y-135935305D01*
X118297020Y-135960825D01*
X118286086Y-135963149D01*
X118083039Y-136025614D01*
X118072695Y-136029835D01*
X117883919Y-136127271D01*
X117876516Y-136131969D01*
X117868499Y-136142949D01*
X93695954Y-136142949D01*
X93699524Y-136076340D01*
X93741050Y-136018754D01*
X93777846Y-135998945D01*
X93967236Y-135934656D01*
X93977739Y-135929980D01*
X94112589Y-135854461D01*
X94122452Y-135844386D01*
X94119496Y-135836714D01*
X93502312Y-135219529D01*
X93488369Y-135211916D01*
X93486535Y-135212047D01*
X93479921Y-135216298D01*
X92864733Y-135831487D01*
X92858540Y-135842829D01*
X92868422Y-135855318D01*
X92917832Y-135888333D01*
X92927945Y-135893824D01*
X93117086Y-135975085D01*
X93128017Y-135978636D01*
X93189987Y-135992659D01*
X93252013Y-136027202D01*
X93285517Y-136089796D01*
X93279863Y-136160567D01*
X93236844Y-136217046D01*
X93192828Y-136235764D01*
X93193297Y-136237515D01*
X93176601Y-136241989D01*
X92983470Y-136313239D01*
X92973092Y-136318189D01*
X92867216Y-136381179D01*
X92857618Y-136391512D01*
X91580760Y-136391512D01*
X91580871Y-136391309D01*
X91574841Y-136383253D01*
X91493722Y-136332071D01*
X91483479Y-136326853D01*
X91292275Y-136250570D01*
X91281249Y-136247304D01*
X91253765Y-136241837D01*
X91190856Y-136208929D01*
X91155724Y-136147234D01*
X91159524Y-136076340D01*
X91201050Y-136018754D01*
X91237846Y-135998945D01*
X91427236Y-135934656D01*
X91437739Y-135929980D01*
X91572589Y-135854461D01*
X91582452Y-135844386D01*
X91579496Y-135836714D01*
X90962312Y-135219529D01*
X90948369Y-135211916D01*
X90946535Y-135212047D01*
X90939921Y-135216298D01*
X90324733Y-135831487D01*
X90318540Y-135842829D01*
X90328422Y-135855318D01*
X90377832Y-135888333D01*
X90387945Y-135893824D01*
X90577086Y-135975085D01*
X90588017Y-135978636D01*
X90649987Y-135992659D01*
X90712013Y-136027202D01*
X90745517Y-136089796D01*
X90739863Y-136160567D01*
X90696844Y-136217046D01*
X90652828Y-136235764D01*
X90653297Y-136237515D01*
X90636601Y-136241989D01*
X90443470Y-136313239D01*
X90433092Y-136318189D01*
X90327216Y-136381179D01*
X90317618Y-136391512D01*
X89048864Y-136391512D01*
X89014865Y-136370060D01*
X88967927Y-136316794D01*
X88956101Y-136263499D01*
X88956101Y-135971716D01*
X88976103Y-135903595D01*
X89020532Y-135861784D01*
X89082675Y-135826982D01*
X89114965Y-135800127D01*
X89245465Y-135691590D01*
X89249897Y-135687904D01*
X89275701Y-135656878D01*
X89385281Y-135525124D01*
X89385283Y-135525121D01*
X89388975Y-135520682D01*
X89495250Y-135330915D01*
X89546846Y-135178918D01*
X89562419Y-135133042D01*
X89603256Y-135074966D01*
X89669009Y-135048188D01*
X89738801Y-135061209D01*
X89790475Y-135109896D01*
X89803855Y-135142529D01*
X89828221Y-135238471D01*
X89832062Y-135249318D01*
X89918245Y-135436263D01*
X89923996Y-135446224D01*
X89941523Y-135471024D01*
X89952113Y-135479413D01*
X89965412Y-135472386D01*
X90577480Y-134860319D01*
X90583857Y-134848640D01*
X91313909Y-134848640D01*
X91314040Y-134850474D01*
X91318291Y-134857088D01*
X91934796Y-135473592D01*
X91947171Y-135480349D01*
X91953751Y-135475423D01*
X92031973Y-135335746D01*
X92036649Y-135325243D01*
X92102193Y-135132155D01*
X92143030Y-135074079D01*
X92208782Y-135047300D01*
X92278575Y-135060321D01*
X92330248Y-135109008D01*
X92343629Y-135141641D01*
X92368221Y-135238471D01*
X92372062Y-135249318D01*
X92458245Y-135436263D01*
X92463996Y-135446224D01*
X92481523Y-135471024D01*
X92492113Y-135479413D01*
X92505412Y-135472386D01*
X93117480Y-134860319D01*
X93123857Y-134848640D01*
X93853909Y-134848640D01*
X93854040Y-134850474D01*
X93858291Y-134857088D01*
X94474796Y-135473592D01*
X94487171Y-135480349D01*
X94493751Y-135475423D01*
X94571973Y-135335746D01*
X94576649Y-135325243D01*
X94642820Y-135130310D01*
X94645505Y-135119127D01*
X94675340Y-134913357D01*
X94675970Y-134905974D01*
X94677404Y-134851212D01*
X94677161Y-134843813D01*
X94658137Y-134636769D01*
X94656039Y-134625448D01*
X94600164Y-134427331D01*
X94596039Y-134416584D01*
X94504992Y-134231958D01*
X94499109Y-134222358D01*
X94487911Y-134213955D01*
X94475495Y-134220725D01*
X93861522Y-134834697D01*
X93853909Y-134848640D01*
X93123857Y-134848640D01*
X93125093Y-134846376D01*
X93124962Y-134844542D01*
X93120711Y-134837928D01*
X92502555Y-134219773D01*
X92490180Y-134213016D01*
X92484214Y-134217482D01*
X92394624Y-134387764D01*
X92390219Y-134398398D01*
X92339123Y-134562953D01*
X92299820Y-134622078D01*
X92234790Y-134650569D01*
X92164681Y-134639379D01*
X92111751Y-134592062D01*
X92097521Y-134559790D01*
X92060164Y-134427331D01*
X92056039Y-134416584D01*
X91964992Y-134231958D01*
X91959109Y-134222358D01*
X91947911Y-134213955D01*
X91935495Y-134220725D01*
X91321522Y-134834697D01*
X91313909Y-134848640D01*
X90583857Y-134848640D01*
X90585093Y-134846376D01*
X90584962Y-134844542D01*
X90580711Y-134837928D01*
X89962555Y-134219773D01*
X89950180Y-134213016D01*
X89944214Y-134217482D01*
X89854624Y-134387764D01*
X89850219Y-134398398D01*
X89799394Y-134562081D01*
X89760091Y-134621206D01*
X89695061Y-134649697D01*
X89624952Y-134638507D01*
X89572022Y-134591190D01*
X89557792Y-134558918D01*
X89542102Y-134503287D01*
X89519061Y-134421588D01*
X89425547Y-134231958D01*
X89425419Y-134231698D01*
X89425416Y-134231694D01*
X89422864Y-134226518D01*
X89332995Y-134106168D01*
X89296182Y-134056870D01*
X89296181Y-134056869D01*
X89292729Y-134052246D01*
X89275970Y-134036754D01*
X89137255Y-133908528D01*
X89137253Y-133908526D01*
X89133014Y-133904608D01*
X89128136Y-133901530D01*
X89128124Y-133901521D01*
X89048864Y-133851512D01*
X90317618Y-133851512D01*
X90321104Y-133859900D01*
X90936690Y-134475487D01*
X90950633Y-134483100D01*
X90952467Y-134482969D01*
X90959081Y-134478718D01*
X91574114Y-133863684D01*
X91580760Y-133851512D01*
X92857618Y-133851512D01*
X92861104Y-133859900D01*
X93476690Y-134475487D01*
X93490633Y-134483100D01*
X93492467Y-134482969D01*
X93499081Y-134478718D01*
X94114114Y-133863684D01*
X94120871Y-133851309D01*
X94114841Y-133843253D01*
X94033722Y-133792071D01*
X94023479Y-133786853D01*
X93832275Y-133710570D01*
X93821247Y-133707303D01*
X93619348Y-133667143D01*
X93607902Y-133665940D01*
X93402074Y-133663246D01*
X93390594Y-133664149D01*
X93187721Y-133699009D01*
X93176601Y-133701989D01*
X92983470Y-133773239D01*
X92973092Y-133778189D01*
X92867216Y-133841179D01*
X92857618Y-133851512D01*
X91580760Y-133851512D01*
X91580871Y-133851309D01*
X91574841Y-133843253D01*
X91493722Y-133792071D01*
X91483479Y-133786853D01*
X91292275Y-133710570D01*
X91281247Y-133707303D01*
X91079348Y-133667143D01*
X91067902Y-133665940D01*
X90862074Y-133663246D01*
X90850594Y-133664149D01*
X90647721Y-133699009D01*
X90636601Y-133701989D01*
X90443470Y-133773239D01*
X90433092Y-133778189D01*
X90327216Y-133841179D01*
X90317618Y-133851512D01*
X89048864Y-133851512D01*
X89014865Y-133830060D01*
X88967927Y-133776794D01*
X88956101Y-133723499D01*
X88956101Y-113291098D01*
X88976103Y-113222977D01*
X88993006Y-113202003D01*
X90105504Y-112089505D01*
X90167816Y-112055479D01*
X90194599Y-112052600D01*
X122924388Y-112052600D01*
X122929663Y-112052711D01*
X122987910Y-112055152D01*
X123029933Y-112045296D01*
X123041589Y-112043136D01*
X123060639Y-112040526D01*
X123075826Y-112038446D01*
X123075827Y-112038446D01*
X123084336Y-112037280D01*
X123097956Y-112031387D01*
X123119224Y-112024353D01*
X123125309Y-112022926D01*
X123125312Y-112022925D01*
X123133676Y-112020963D01*
X123171487Y-112000176D01*
X123182145Y-111994955D01*
X123183187Y-111994504D01*
X123221744Y-111977819D01*
X123233282Y-111968476D01*
X123251866Y-111955988D01*
X123264878Y-111948834D01*
X123274357Y-111940652D01*
X123298275Y-111916734D01*
X123308076Y-111907909D01*
X123331424Y-111889002D01*
X123331427Y-111888999D01*
X123338099Y-111883596D01*
X123348397Y-111869105D01*
X123362004Y-111853005D01*
X123556772Y-111658237D01*
X123560580Y-111654584D01*
X123597197Y-111620913D01*
X123597198Y-111620912D01*
X123603515Y-111615103D01*
X123620489Y-111587727D01*
X123638480Y-111565029D01*
X128202910Y-107000599D01*
X128265222Y-106966573D01*
X128336384Y-106972378D01*
X128336437Y-106972206D01*
X128355716Y-106978100D01*
X128571413Y-107044045D01*
X128571415Y-107044045D01*
X128576261Y-107045527D01*
X128581282Y-107046215D01*
X128581283Y-107046215D01*
X128807881Y-107077255D01*
X128824723Y-107079562D01*
X128895902Y-107077822D01*
X129070369Y-107073559D01*
X129070373Y-107073559D01*
X129075430Y-107073435D01*
X129321933Y-107027303D01*
X129372178Y-107009214D01*
X129474494Y-106972378D01*
X129557889Y-106942354D01*
X129566585Y-106937534D01*
X129772797Y-106823228D01*
X129777228Y-106820772D01*
X129781206Y-106817642D01*
X129781210Y-106817639D01*
X129970330Y-106668816D01*
X129970331Y-106668815D01*
X129974306Y-106665687D01*
X129996475Y-106641579D01*
X130140632Y-106484810D01*
X130140635Y-106484806D01*
X130144055Y-106481087D01*
X130238435Y-106337952D01*
X130279316Y-106275952D01*
X130279317Y-106275951D01*
X130282105Y-106271722D01*
X130284181Y-106267103D01*
X130382833Y-106047595D01*
X130382835Y-106047589D01*
X130384907Y-106042979D01*
X130386215Y-106038098D01*
X130386217Y-106038092D01*
X130448506Y-105805624D01*
X130448506Y-105805623D01*
X130449814Y-105800742D01*
X130475157Y-105551243D01*
X130475500Y-105518500D01*
X130471926Y-105474073D01*
X130455794Y-105273567D01*
X130455793Y-105273562D01*
X130455388Y-105268526D01*
X130431307Y-105170483D01*
X130396775Y-105029896D01*
X130396774Y-105029893D01*
X130395568Y-105024983D01*
X130297579Y-104794137D01*
X130294881Y-104789852D01*
X130294878Y-104789847D01*
X130189078Y-104621841D01*
X130163943Y-104581927D01*
X129998098Y-104393812D01*
X129804311Y-104234633D01*
X129587566Y-104108485D01*
X129439589Y-104051682D01*
X129358165Y-104020426D01*
X129358161Y-104020425D01*
X129353441Y-104018613D01*
X129348491Y-104017579D01*
X129348488Y-104017578D01*
X129112910Y-103968363D01*
X129112906Y-103968363D01*
X129107959Y-103967329D01*
X128857435Y-103955952D01*
X128852415Y-103956533D01*
X128852411Y-103956533D01*
X128761088Y-103967100D01*
X128608315Y-103984777D01*
X128603441Y-103986156D01*
X128603437Y-103986157D01*
X128371877Y-104051682D01*
X128371875Y-104051683D01*
X128367008Y-104053060D01*
X128362433Y-104055194D01*
X128362426Y-104055196D01*
X128212642Y-104125042D01*
X128139722Y-104159045D01*
X128135542Y-104161886D01*
X128135538Y-104161888D01*
X128078434Y-104200696D01*
X127932305Y-104300005D01*
X127885169Y-104344579D01*
X127756506Y-104466250D01*
X127750093Y-104472314D01*
X127747015Y-104476340D01*
X127747014Y-104476341D01*
X127600847Y-104667519D01*
X127600844Y-104667523D01*
X127597774Y-104671539D01*
X127479267Y-104892554D01*
X127477621Y-104897335D01*
X127477619Y-104897339D01*
X127448725Y-104981254D01*
X127397620Y-105129673D01*
X127354935Y-105376796D01*
X127352309Y-105627564D01*
X127353066Y-105632567D01*
X127353066Y-105632572D01*
X127377738Y-105795712D01*
X127389809Y-105875527D01*
X127391355Y-105880344D01*
X127391356Y-105880346D01*
X127461605Y-106099146D01*
X127463385Y-106170121D01*
X127430732Y-106226759D01*
X122800228Y-110857263D01*
X122796420Y-110860916D01*
X122759806Y-110894584D01*
X122759804Y-110894586D01*
X122753485Y-110900397D01*
X122748960Y-110907695D01*
X122743980Y-110913715D01*
X122685146Y-110953453D01*
X122646895Y-110959400D01*
X89927605Y-110959400D01*
X89922328Y-110959289D01*
X89919309Y-110959162D01*
X89864090Y-110956848D01*
X89822067Y-110966704D01*
X89810411Y-110968864D01*
X89791361Y-110971474D01*
X89776174Y-110973554D01*
X89776173Y-110973554D01*
X89767664Y-110974720D01*
X89754046Y-110980613D01*
X89732776Y-110987647D01*
X89726691Y-110989074D01*
X89726688Y-110989075D01*
X89718324Y-110991037D01*
X89680514Y-111011823D01*
X89669857Y-111017044D01*
X89630256Y-111034181D01*
X89623582Y-111039586D01*
X89623581Y-111039586D01*
X89618718Y-111043524D01*
X89600134Y-111056012D01*
X89587122Y-111063166D01*
X89577643Y-111071348D01*
X89553725Y-111095266D01*
X89543924Y-111104091D01*
X89520576Y-111122998D01*
X89520573Y-111123001D01*
X89513901Y-111128404D01*
X89503603Y-111142895D01*
X89489996Y-111158995D01*
X88031229Y-112617762D01*
X88027421Y-112621415D01*
X87997945Y-112648520D01*
X87984486Y-112660896D01*
X87961739Y-112697583D01*
X87955035Y-112707338D01*
X87928940Y-112741717D01*
X87925777Y-112749706D01*
X87923477Y-112755514D01*
X87913415Y-112775520D01*
X87910118Y-112780838D01*
X87905589Y-112788143D01*
X87903192Y-112796394D01*
X87903191Y-112796396D01*
X87893551Y-112829579D01*
X87889705Y-112840812D01*
X87873823Y-112880924D01*
X87872419Y-112894283D01*
X87872271Y-112895690D01*
X87867960Y-112917662D01*
X87863818Y-112931920D01*
X87862901Y-112944408D01*
X87862901Y-112978235D01*
X87862211Y-112991406D01*
X87858173Y-113029825D01*
X87859605Y-113038290D01*
X87859605Y-113038300D01*
X87861136Y-113047349D01*
X87862901Y-113068362D01*
X87862901Y-133723920D01*
X87842899Y-133792041D01*
X87801324Y-133832205D01*
X87782754Y-133843253D01*
X87710918Y-133885991D01*
X87706575Y-133889800D01*
X87551739Y-134025588D01*
X87551736Y-134025591D01*
X87547394Y-134029399D01*
X87412741Y-134200205D01*
X87410052Y-134205316D01*
X87410050Y-134205319D01*
X87314165Y-134387566D01*
X87311470Y-134392689D01*
X87304334Y-134415671D01*
X87265031Y-134474796D01*
X87200002Y-134503287D01*
X87129892Y-134492097D01*
X87076962Y-134444780D01*
X87058001Y-134378307D01*
X87058001Y-134172508D01*
X87052774Y-134099429D01*
X87011597Y-133959192D01*
X86964553Y-133885991D01*
X86937450Y-133843817D01*
X86937448Y-133843814D01*
X86932578Y-133836237D01*
X86925449Y-133830060D01*
X86828932Y-133746426D01*
X86828929Y-133746424D01*
X86822120Y-133740524D01*
X86813922Y-133736780D01*
X86697365Y-133683550D01*
X86697364Y-133683550D01*
X86689171Y-133679808D01*
X86680256Y-133678526D01*
X86680255Y-133678526D01*
X86548949Y-133659647D01*
X86548942Y-133659646D01*
X86544501Y-133659008D01*
X86540007Y-133659008D01*
X86535515Y-133658687D01*
X86535628Y-133657107D01*
X86473980Y-133639006D01*
X86427487Y-133585350D01*
X86416101Y-133533008D01*
X86416101Y-113164098D01*
X86436103Y-113095977D01*
X86453006Y-113075003D01*
X89089504Y-110438505D01*
X89151816Y-110404479D01*
X89178599Y-110401600D01*
X119563888Y-110401600D01*
X119569163Y-110401711D01*
X119627410Y-110404152D01*
X119669433Y-110394296D01*
X119681089Y-110392136D01*
X119700139Y-110389526D01*
X119715326Y-110387446D01*
X119715327Y-110387446D01*
X119723836Y-110386280D01*
X119737456Y-110380387D01*
X119758724Y-110373353D01*
X119764809Y-110371926D01*
X119764812Y-110371925D01*
X119773176Y-110369963D01*
X119810987Y-110349176D01*
X119821645Y-110343955D01*
X119861244Y-110326819D01*
X119872782Y-110317476D01*
X119891366Y-110304988D01*
X119904378Y-110297834D01*
X119913857Y-110289652D01*
X119937775Y-110265734D01*
X119947576Y-110256909D01*
X119970924Y-110238002D01*
X119970927Y-110237999D01*
X119977599Y-110232596D01*
X119987897Y-110218105D01*
X120001504Y-110202005D01*
X123202910Y-107000599D01*
X123265222Y-106966573D01*
X123336384Y-106972378D01*
X123336437Y-106972206D01*
X123355716Y-106978100D01*
X123571413Y-107044045D01*
X123571415Y-107044045D01*
X123576261Y-107045527D01*
X123581282Y-107046215D01*
X123581283Y-107046215D01*
X123807881Y-107077255D01*
X123824723Y-107079562D01*
X123895902Y-107077822D01*
X124070369Y-107073559D01*
X124070373Y-107073559D01*
X124075430Y-107073435D01*
X124321933Y-107027303D01*
X124372178Y-107009214D01*
X124474494Y-106972378D01*
X124557889Y-106942354D01*
X124566585Y-106937534D01*
X124772797Y-106823228D01*
X124777228Y-106820772D01*
X124781206Y-106817642D01*
X124781210Y-106817639D01*
X124970330Y-106668816D01*
X124970331Y-106668815D01*
X124974306Y-106665687D01*
X124996475Y-106641579D01*
X125140632Y-106484810D01*
X125140635Y-106484806D01*
X125144055Y-106481087D01*
X125238435Y-106337952D01*
X125279316Y-106275952D01*
X125279317Y-106275951D01*
X125282105Y-106271722D01*
X125284181Y-106267103D01*
X125382833Y-106047595D01*
X125382835Y-106047589D01*
X125384907Y-106042979D01*
X125386215Y-106038098D01*
X125386217Y-106038092D01*
X125448506Y-105805624D01*
X125448506Y-105805623D01*
X125449814Y-105800742D01*
X125475157Y-105551243D01*
X125475500Y-105518500D01*
X125471926Y-105474073D01*
X125455794Y-105273567D01*
X125455793Y-105273562D01*
X125455388Y-105268526D01*
X125431307Y-105170483D01*
X125396775Y-105029896D01*
X125396774Y-105029893D01*
X125395568Y-105024983D01*
X125297579Y-104794137D01*
X125294881Y-104789852D01*
X125294878Y-104789847D01*
X125189078Y-104621841D01*
X125163943Y-104581927D01*
X124998098Y-104393812D01*
X124804311Y-104234633D01*
X124587566Y-104108485D01*
X124439589Y-104051682D01*
X124358165Y-104020426D01*
X124358161Y-104020425D01*
X124353441Y-104018613D01*
X124348491Y-104017579D01*
X124348488Y-104017578D01*
X124112910Y-103968363D01*
X124112906Y-103968363D01*
X124107959Y-103967329D01*
X123857435Y-103955952D01*
X123852415Y-103956533D01*
X123852411Y-103956533D01*
X123761088Y-103967100D01*
X123608315Y-103984777D01*
X123603441Y-103986156D01*
X123603437Y-103986157D01*
X123371877Y-104051682D01*
X123371875Y-104051683D01*
X123367008Y-104053060D01*
X123362433Y-104055194D01*
X123362426Y-104055196D01*
X123212642Y-104125042D01*
X123139722Y-104159045D01*
X123135542Y-104161886D01*
X123135538Y-104161888D01*
X123078434Y-104200696D01*
X122932305Y-104300005D01*
X122885169Y-104344579D01*
X122756506Y-104466250D01*
X122750093Y-104472314D01*
X122747015Y-104476340D01*
X122747014Y-104476341D01*
X122600847Y-104667519D01*
X122600844Y-104667523D01*
X122597774Y-104671539D01*
X122479267Y-104892554D01*
X122477621Y-104897335D01*
X122477619Y-104897339D01*
X122448725Y-104981254D01*
X122397620Y-105129673D01*
X122354935Y-105376796D01*
X122352309Y-105627564D01*
X122353066Y-105632567D01*
X122353066Y-105632572D01*
X122377738Y-105795712D01*
X122389809Y-105875527D01*
X122391355Y-105880344D01*
X122391356Y-105880346D01*
X122461605Y-106099146D01*
X122463385Y-106170121D01*
X122430732Y-106226759D01*
X119385996Y-109271495D01*
X119323684Y-109305521D01*
X119296901Y-109308400D01*
X88911612Y-109308400D01*
X88906336Y-109308289D01*
X88848090Y-109305848D01*
X88806067Y-109315704D01*
X88794411Y-109317864D01*
X88775361Y-109320474D01*
X88760174Y-109322554D01*
X88760173Y-109322554D01*
X88751664Y-109323720D01*
X88738046Y-109329613D01*
X88716776Y-109336647D01*
X88710691Y-109338074D01*
X88710688Y-109338075D01*
X88702324Y-109340037D01*
X88664514Y-109360823D01*
X88653857Y-109366044D01*
X88614256Y-109383181D01*
X88607582Y-109388586D01*
X88607581Y-109388586D01*
X88602718Y-109392524D01*
X88584134Y-109405012D01*
X88571122Y-109412166D01*
X88561643Y-109420348D01*
X88537725Y-109444266D01*
X88527924Y-109453091D01*
X88504576Y-109471998D01*
X88504573Y-109472001D01*
X88497901Y-109477404D01*
X88487603Y-109491895D01*
X88473996Y-109507995D01*
X85491229Y-112490762D01*
X85487421Y-112494415D01*
X85460119Y-112519521D01*
X85444486Y-112533896D01*
X85421739Y-112570583D01*
X85415035Y-112580338D01*
X85388940Y-112614717D01*
X85385777Y-112622706D01*
X85383477Y-112628514D01*
X85373415Y-112648520D01*
X85370118Y-112653838D01*
X85365589Y-112661143D01*
X85363192Y-112669394D01*
X85363191Y-112669396D01*
X85353551Y-112702579D01*
X85349705Y-112713812D01*
X85333823Y-112753924D01*
X85332557Y-112765968D01*
X85332271Y-112768690D01*
X85327960Y-112790662D01*
X85323818Y-112804920D01*
X85322901Y-112817408D01*
X85322901Y-112851235D01*
X85322211Y-112864406D01*
X85318173Y-112902825D01*
X85319605Y-112911290D01*
X85319605Y-112911300D01*
X85321136Y-112920349D01*
X85322901Y-112941362D01*
X85322901Y-133533008D01*
X85302899Y-133601129D01*
X85249243Y-133647622D01*
X85198985Y-133658555D01*
X85198998Y-133658928D01*
X85196929Y-133659002D01*
X85196901Y-133659008D01*
X85194501Y-133659008D01*
X85121422Y-133664235D01*
X85068385Y-133679808D01*
X84989831Y-133702873D01*
X84989829Y-133702874D01*
X84981185Y-133705412D01*
X84973606Y-133710283D01*
X84865810Y-133779559D01*
X84865807Y-133779561D01*
X84858230Y-133784431D01*
X84852329Y-133791241D01*
X84768419Y-133888077D01*
X84768417Y-133888080D01*
X84762517Y-133894889D01*
X84701801Y-134027838D01*
X84700519Y-134036753D01*
X84700519Y-134036754D01*
X84681640Y-134168060D01*
X84681639Y-134168067D01*
X84681001Y-134172508D01*
X81280000Y-134172508D01*
X81280000Y-104468500D01*
X102348500Y-104468500D01*
X102348500Y-106568500D01*
X102353727Y-106641579D01*
X102394904Y-106781816D01*
X102399775Y-106789395D01*
X102469051Y-106897191D01*
X102469053Y-106897194D01*
X102473923Y-106904771D01*
X102480733Y-106910672D01*
X102577569Y-106994582D01*
X102577572Y-106994584D01*
X102584381Y-107000484D01*
X102592579Y-107004228D01*
X102684518Y-107046215D01*
X102717330Y-107061200D01*
X102726245Y-107062482D01*
X102726246Y-107062482D01*
X102857552Y-107081361D01*
X102857559Y-107081362D01*
X102862000Y-107082000D01*
X104962000Y-107082000D01*
X105035079Y-107076773D01*
X105141494Y-107045527D01*
X105166670Y-107038135D01*
X105166672Y-107038134D01*
X105175316Y-107035596D01*
X105224125Y-107004228D01*
X105290691Y-106961449D01*
X105290694Y-106961447D01*
X105298271Y-106956577D01*
X105338048Y-106910672D01*
X105388082Y-106852931D01*
X105388084Y-106852928D01*
X105393984Y-106846119D01*
X105405560Y-106820772D01*
X105450958Y-106721364D01*
X105450958Y-106721363D01*
X105454700Y-106713170D01*
X105465962Y-106634840D01*
X105474861Y-106572948D01*
X105474862Y-106572941D01*
X105475500Y-106568500D01*
X105475500Y-105627564D01*
X107352309Y-105627564D01*
X107353066Y-105632567D01*
X107353066Y-105632572D01*
X107377738Y-105795712D01*
X107389809Y-105875527D01*
X107391355Y-105880344D01*
X107391356Y-105880346D01*
X107443572Y-106042979D01*
X107466472Y-106114304D01*
X107580325Y-106337752D01*
X107728438Y-106540123D01*
X107907002Y-106716210D01*
X108111421Y-106861484D01*
X108115959Y-106863717D01*
X108115964Y-106863720D01*
X108260611Y-106934895D01*
X108336437Y-106972206D01*
X108341283Y-106973687D01*
X108341284Y-106973688D01*
X108571413Y-107044045D01*
X108571415Y-107044045D01*
X108576261Y-107045527D01*
X108581282Y-107046215D01*
X108581283Y-107046215D01*
X108807881Y-107077255D01*
X108824723Y-107079562D01*
X108895902Y-107077822D01*
X109070369Y-107073559D01*
X109070373Y-107073559D01*
X109075430Y-107073435D01*
X109321933Y-107027303D01*
X109372178Y-107009214D01*
X109474494Y-106972378D01*
X109557889Y-106942354D01*
X109566585Y-106937534D01*
X109772797Y-106823228D01*
X109777228Y-106820772D01*
X109781206Y-106817642D01*
X109781210Y-106817639D01*
X109970330Y-106668816D01*
X109970331Y-106668815D01*
X109974306Y-106665687D01*
X109996475Y-106641579D01*
X110140632Y-106484810D01*
X110140635Y-106484806D01*
X110144055Y-106481087D01*
X110238435Y-106337952D01*
X110279316Y-106275952D01*
X110279317Y-106275951D01*
X110282105Y-106271722D01*
X110284181Y-106267103D01*
X110382833Y-106047595D01*
X110382835Y-106047589D01*
X110384907Y-106042979D01*
X110386215Y-106038098D01*
X110386217Y-106038092D01*
X110448506Y-105805624D01*
X110448506Y-105805623D01*
X110449814Y-105800742D01*
X110467405Y-105627564D01*
X112352309Y-105627564D01*
X112353066Y-105632567D01*
X112353066Y-105632572D01*
X112377738Y-105795712D01*
X112389809Y-105875527D01*
X112391355Y-105880344D01*
X112391356Y-105880346D01*
X112443572Y-106042979D01*
X112466472Y-106114304D01*
X112580325Y-106337752D01*
X112728438Y-106540123D01*
X112907002Y-106716210D01*
X113111421Y-106861484D01*
X113115959Y-106863717D01*
X113115964Y-106863720D01*
X113260611Y-106934895D01*
X113336437Y-106972206D01*
X113341283Y-106973687D01*
X113341284Y-106973688D01*
X113571413Y-107044045D01*
X113571415Y-107044045D01*
X113576261Y-107045527D01*
X113581282Y-107046215D01*
X113581283Y-107046215D01*
X113807881Y-107077255D01*
X113824723Y-107079562D01*
X113895902Y-107077822D01*
X114070369Y-107073559D01*
X114070373Y-107073559D01*
X114075430Y-107073435D01*
X114321933Y-107027303D01*
X114372178Y-107009214D01*
X114474494Y-106972378D01*
X114557889Y-106942354D01*
X114566585Y-106937534D01*
X114772797Y-106823228D01*
X114777228Y-106820772D01*
X114781206Y-106817642D01*
X114781210Y-106817639D01*
X114970330Y-106668816D01*
X114970331Y-106668815D01*
X114974306Y-106665687D01*
X114996475Y-106641579D01*
X115140632Y-106484810D01*
X115140635Y-106484806D01*
X115144055Y-106481087D01*
X115238435Y-106337952D01*
X115279316Y-106275952D01*
X115279317Y-106275951D01*
X115282105Y-106271722D01*
X115284181Y-106267103D01*
X115382833Y-106047595D01*
X115382835Y-106047589D01*
X115384907Y-106042979D01*
X115386215Y-106038098D01*
X115386217Y-106038092D01*
X115448506Y-105805624D01*
X115448506Y-105805623D01*
X115449814Y-105800742D01*
X115467405Y-105627564D01*
X117352309Y-105627564D01*
X117353066Y-105632567D01*
X117353066Y-105632572D01*
X117377738Y-105795712D01*
X117389809Y-105875527D01*
X117391355Y-105880344D01*
X117391356Y-105880346D01*
X117443572Y-106042979D01*
X117466472Y-106114304D01*
X117580325Y-106337752D01*
X117728438Y-106540123D01*
X117907002Y-106716210D01*
X118111421Y-106861484D01*
X118115959Y-106863717D01*
X118115964Y-106863720D01*
X118260611Y-106934895D01*
X118336437Y-106972206D01*
X118341283Y-106973687D01*
X118341284Y-106973688D01*
X118571413Y-107044045D01*
X118571415Y-107044045D01*
X118576261Y-107045527D01*
X118581282Y-107046215D01*
X118581283Y-107046215D01*
X118807881Y-107077255D01*
X118824723Y-107079562D01*
X118895902Y-107077822D01*
X119070369Y-107073559D01*
X119070373Y-107073559D01*
X119075430Y-107073435D01*
X119321933Y-107027303D01*
X119372178Y-107009214D01*
X119474494Y-106972378D01*
X119557889Y-106942354D01*
X119566585Y-106937534D01*
X119772797Y-106823228D01*
X119777228Y-106820772D01*
X119781206Y-106817642D01*
X119781210Y-106817639D01*
X119970330Y-106668816D01*
X119970331Y-106668815D01*
X119974306Y-106665687D01*
X119996475Y-106641579D01*
X120140632Y-106484810D01*
X120140635Y-106484806D01*
X120144055Y-106481087D01*
X120238435Y-106337952D01*
X120279316Y-106275952D01*
X120279317Y-106275951D01*
X120282105Y-106271722D01*
X120284181Y-106267103D01*
X120382833Y-106047595D01*
X120382835Y-106047589D01*
X120384907Y-106042979D01*
X120386215Y-106038098D01*
X120386217Y-106038092D01*
X120448506Y-105805624D01*
X120448506Y-105805623D01*
X120449814Y-105800742D01*
X120475157Y-105551243D01*
X120475500Y-105518500D01*
X120471926Y-105474073D01*
X120455794Y-105273567D01*
X120455793Y-105273562D01*
X120455388Y-105268526D01*
X120431307Y-105170483D01*
X120396775Y-105029896D01*
X120396774Y-105029893D01*
X120395568Y-105024983D01*
X120297579Y-104794137D01*
X120294881Y-104789852D01*
X120294878Y-104789847D01*
X120189078Y-104621841D01*
X120163943Y-104581927D01*
X119998098Y-104393812D01*
X119804311Y-104234633D01*
X119587566Y-104108485D01*
X119439589Y-104051682D01*
X119358165Y-104020426D01*
X119358161Y-104020425D01*
X119353441Y-104018613D01*
X119348491Y-104017579D01*
X119348488Y-104017578D01*
X119112910Y-103968363D01*
X119112906Y-103968363D01*
X119107959Y-103967329D01*
X118857435Y-103955952D01*
X118852415Y-103956533D01*
X118852411Y-103956533D01*
X118761088Y-103967100D01*
X118608315Y-103984777D01*
X118603441Y-103986156D01*
X118603437Y-103986157D01*
X118371877Y-104051682D01*
X118371875Y-104051683D01*
X118367008Y-104053060D01*
X118362433Y-104055194D01*
X118362426Y-104055196D01*
X118212642Y-104125042D01*
X118139722Y-104159045D01*
X118135542Y-104161886D01*
X118135538Y-104161888D01*
X118078434Y-104200696D01*
X117932305Y-104300005D01*
X117885169Y-104344579D01*
X117756506Y-104466250D01*
X117750093Y-104472314D01*
X117747015Y-104476340D01*
X117747014Y-104476341D01*
X117600847Y-104667519D01*
X117600844Y-104667523D01*
X117597774Y-104671539D01*
X117479267Y-104892554D01*
X117477621Y-104897335D01*
X117477619Y-104897339D01*
X117448725Y-104981254D01*
X117397620Y-105129673D01*
X117354935Y-105376796D01*
X117352309Y-105627564D01*
X115467405Y-105627564D01*
X115475157Y-105551243D01*
X115475500Y-105518500D01*
X115471926Y-105474073D01*
X115455794Y-105273567D01*
X115455793Y-105273562D01*
X115455388Y-105268526D01*
X115431307Y-105170483D01*
X115396775Y-105029896D01*
X115396774Y-105029893D01*
X115395568Y-105024983D01*
X115297579Y-104794137D01*
X115294881Y-104789852D01*
X115294878Y-104789847D01*
X115189078Y-104621841D01*
X115163943Y-104581927D01*
X114998098Y-104393812D01*
X114804311Y-104234633D01*
X114587566Y-104108485D01*
X114439589Y-104051682D01*
X114358165Y-104020426D01*
X114358161Y-104020425D01*
X114353441Y-104018613D01*
X114348491Y-104017579D01*
X114348488Y-104017578D01*
X114112910Y-103968363D01*
X114112906Y-103968363D01*
X114107959Y-103967329D01*
X113857435Y-103955952D01*
X113852415Y-103956533D01*
X113852411Y-103956533D01*
X113761088Y-103967100D01*
X113608315Y-103984777D01*
X113603441Y-103986156D01*
X113603437Y-103986157D01*
X113371877Y-104051682D01*
X113371875Y-104051683D01*
X113367008Y-104053060D01*
X113362433Y-104055194D01*
X113362426Y-104055196D01*
X113212642Y-104125042D01*
X113139722Y-104159045D01*
X113135542Y-104161886D01*
X113135538Y-104161888D01*
X113078434Y-104200696D01*
X112932305Y-104300005D01*
X112885169Y-104344579D01*
X112756506Y-104466250D01*
X112750093Y-104472314D01*
X112747015Y-104476340D01*
X112747014Y-104476341D01*
X112600847Y-104667519D01*
X112600844Y-104667523D01*
X112597774Y-104671539D01*
X112479267Y-104892554D01*
X112477621Y-104897335D01*
X112477619Y-104897339D01*
X112448725Y-104981254D01*
X112397620Y-105129673D01*
X112354935Y-105376796D01*
X112352309Y-105627564D01*
X110467405Y-105627564D01*
X110475157Y-105551243D01*
X110475500Y-105518500D01*
X110471926Y-105474073D01*
X110455794Y-105273567D01*
X110455793Y-105273562D01*
X110455388Y-105268526D01*
X110431307Y-105170483D01*
X110396775Y-105029896D01*
X110396774Y-105029893D01*
X110395568Y-105024983D01*
X110364099Y-104950847D01*
X110355895Y-104880327D01*
X110390988Y-104812521D01*
X114290004Y-100913505D01*
X114352316Y-100879479D01*
X114379099Y-100876600D01*
X138532401Y-100876600D01*
X138600522Y-100896602D01*
X138621496Y-100913505D01*
X141275495Y-103567504D01*
X141309521Y-103629816D01*
X141312400Y-103656599D01*
X141312400Y-126340401D01*
X141292398Y-126408522D01*
X141275495Y-126429496D01*
X138174738Y-129530253D01*
X138170931Y-129533905D01*
X138127995Y-129573387D01*
X138105248Y-129610074D01*
X138098544Y-129619829D01*
X138072449Y-129654208D01*
X138069286Y-129662197D01*
X138066986Y-129668005D01*
X138056924Y-129688011D01*
X138053627Y-129693329D01*
X138049098Y-129700634D01*
X138046701Y-129708885D01*
X138046700Y-129708887D01*
X138037060Y-129742070D01*
X138033214Y-129753303D01*
X138017332Y-129793415D01*
X138015780Y-129808181D01*
X138011469Y-129830153D01*
X138007327Y-129844411D01*
X138006410Y-129856899D01*
X138006410Y-129890726D01*
X138005720Y-129903897D01*
X138001682Y-129942316D01*
X138003114Y-129950781D01*
X138003114Y-129950791D01*
X138004645Y-129959840D01*
X138006410Y-129980853D01*
X138006410Y-135986733D01*
X137986408Y-136054854D01*
X137938202Y-136098698D01*
X137878675Y-136129422D01*
X137874224Y-136132837D01*
X137874223Y-136132838D01*
X137725047Y-136247304D01*
X137701165Y-136265629D01*
X137646759Y-136325421D01*
X137586120Y-136362343D01*
X137515144Y-136360620D01*
X137465881Y-136331105D01*
X137349040Y-136217878D01*
X137349038Y-136217877D01*
X137345007Y-136213970D01*
X137267680Y-136162008D01*
X137163955Y-136092307D01*
X137163952Y-136092305D01*
X137159295Y-136089176D01*
X136954419Y-135999242D01*
X136948968Y-135997933D01*
X136948964Y-135997932D01*
X136742312Y-135948320D01*
X136742311Y-135948320D01*
X136736855Y-135947010D01*
X136649941Y-135941998D01*
X136519087Y-135934453D01*
X136519084Y-135934453D01*
X136513480Y-135934130D01*
X136291354Y-135961010D01*
X136077499Y-136026800D01*
X136072509Y-136029376D01*
X136072508Y-136029376D01*
X135947522Y-136093887D01*
X135878675Y-136129422D01*
X135874233Y-136132831D01*
X135874229Y-136132833D01*
X135725047Y-136247304D01*
X135701165Y-136265629D01*
X135645456Y-136326853D01*
X135574375Y-136404970D01*
X135550581Y-136431119D01*
X135547604Y-136435865D01*
X135547600Y-136435870D01*
X135434668Y-136615900D01*
X135431683Y-136620659D01*
X135429499Y-136626093D01*
X135406424Y-136683493D01*
X135378612Y-136725593D01*
X134925011Y-137179193D01*
X134917398Y-137193136D01*
X134917529Y-137194970D01*
X134921780Y-137201584D01*
X135371858Y-137651661D01*
X135398197Y-137693895D01*
X135399216Y-137693441D01*
X135401500Y-137698571D01*
X135403318Y-137703880D01*
X135512133Y-137899383D01*
X135653850Y-138072527D01*
X135658118Y-138076172D01*
X135680474Y-138095266D01*
X135719284Y-138154716D01*
X135719791Y-138225711D01*
X135691839Y-138275874D01*
X135646749Y-138325428D01*
X135586108Y-138362350D01*
X135515132Y-138360625D01*
X135465871Y-138331111D01*
X135465855Y-138331095D01*
X135394776Y-138262215D01*
X135349020Y-138217874D01*
X135349018Y-138217873D01*
X135344987Y-138213966D01*
X135159275Y-138089172D01*
X135099797Y-138063063D01*
X135059180Y-138045233D01*
X135020731Y-138018955D01*
X134565802Y-137564026D01*
X134551858Y-137556412D01*
X134550025Y-137556543D01*
X134543410Y-137560794D01*
X134091207Y-138012998D01*
X134059902Y-138035868D01*
X133878655Y-138129418D01*
X133701145Y-138265625D01*
X133646742Y-138325413D01*
X133586103Y-138362334D01*
X133515128Y-138360611D01*
X133465867Y-138331097D01*
X133357117Y-138225711D01*
X133349030Y-138217874D01*
X133349028Y-138217873D01*
X133344997Y-138213966D01*
X133159285Y-138089172D01*
X133099807Y-138063063D01*
X133059190Y-138045233D01*
X133020741Y-138018955D01*
X132565812Y-137564026D01*
X132551868Y-137556412D01*
X132550035Y-137556543D01*
X132543420Y-137560794D01*
X132091217Y-138012998D01*
X132059912Y-138035868D01*
X131878665Y-138129418D01*
X131701155Y-138265625D01*
X131697387Y-138269766D01*
X131697383Y-138269770D01*
X131685058Y-138283315D01*
X131646749Y-138325417D01*
X131586110Y-138362339D01*
X131515134Y-138360616D01*
X131465871Y-138331101D01*
X131349030Y-138217874D01*
X131349028Y-138217873D01*
X131344997Y-138213966D01*
X131159285Y-138089172D01*
X131099807Y-138063063D01*
X131059190Y-138045233D01*
X131020741Y-138018955D01*
X130565812Y-137564026D01*
X130551868Y-137556412D01*
X130550035Y-137556543D01*
X130543420Y-137560794D01*
X130091217Y-138012998D01*
X130059912Y-138035868D01*
X129878665Y-138129418D01*
X129701155Y-138265625D01*
X129697387Y-138269766D01*
X129697383Y-138269770D01*
X129685058Y-138283315D01*
X129646749Y-138325417D01*
X129586110Y-138362339D01*
X129515134Y-138360616D01*
X129465871Y-138331101D01*
X129416561Y-138283316D01*
X129381561Y-138221545D01*
X129385513Y-138150659D01*
X129421417Y-138097883D01*
X129457108Y-138066748D01*
X129457109Y-138066747D01*
X129461332Y-138063063D01*
X129552723Y-137948987D01*
X129597720Y-137892822D01*
X129597722Y-137892819D01*
X129601227Y-137888444D01*
X129660938Y-137778471D01*
X129705311Y-137696748D01*
X129705314Y-137696742D01*
X129707990Y-137691813D01*
X129708899Y-137689064D01*
X129734716Y-137651078D01*
X130180978Y-137204816D01*
X130187356Y-137193136D01*
X130917408Y-137193136D01*
X130917539Y-137194970D01*
X130921790Y-137201584D01*
X131540192Y-137819985D01*
X131554130Y-137827596D01*
X131555966Y-137827464D01*
X131562578Y-137823215D01*
X132180979Y-137204815D01*
X132187356Y-137193136D01*
X132917408Y-137193136D01*
X132917539Y-137194970D01*
X132921790Y-137201584D01*
X133540187Y-137819980D01*
X133554125Y-137827591D01*
X133555961Y-137827459D01*
X133562573Y-137823210D01*
X134180969Y-137204815D01*
X134188582Y-137190872D01*
X134188451Y-137189038D01*
X134184200Y-137182424D01*
X133565803Y-136564028D01*
X133551865Y-136556417D01*
X133550029Y-136556549D01*
X133543417Y-136560798D01*
X132925021Y-137179193D01*
X132917408Y-137193136D01*
X132187356Y-137193136D01*
X132188592Y-137190872D01*
X132188461Y-137189038D01*
X132184210Y-137182424D01*
X131565808Y-136564023D01*
X131551870Y-136556412D01*
X131550034Y-136556544D01*
X131543422Y-136560793D01*
X130925021Y-137179193D01*
X130917408Y-137193136D01*
X130187356Y-137193136D01*
X130188592Y-137190872D01*
X130188461Y-137189039D01*
X130184210Y-137182424D01*
X129727312Y-136725527D01*
X129702681Y-136690675D01*
X129638657Y-136556445D01*
X129638656Y-136556444D01*
X129636240Y-136551378D01*
X129612195Y-136517916D01*
X129508951Y-136374237D01*
X129508949Y-136374235D01*
X129505674Y-136369677D01*
X129373910Y-136241989D01*
X129349030Y-136217878D01*
X129349028Y-136217877D01*
X129344997Y-136213970D01*
X129239307Y-136142949D01*
X129868499Y-136142949D01*
X129875130Y-136154923D01*
X130540189Y-136819983D01*
X130554132Y-136827596D01*
X130555966Y-136827465D01*
X130562580Y-136823214D01*
X131228255Y-136157538D01*
X131234476Y-136146145D01*
X131231954Y-136142949D01*
X131868499Y-136142949D01*
X131875130Y-136154923D01*
X132540189Y-136819983D01*
X132554132Y-136827596D01*
X132555966Y-136827465D01*
X132562580Y-136823214D01*
X133228255Y-136157538D01*
X133234476Y-136146145D01*
X133231954Y-136142949D01*
X133868489Y-136142949D01*
X133875120Y-136154923D01*
X134540179Y-136819983D01*
X134554122Y-136827596D01*
X134555956Y-136827465D01*
X134562570Y-136823214D01*
X135228245Y-136157538D01*
X135234466Y-136146145D01*
X135224654Y-136133710D01*
X135163694Y-136092746D01*
X135153894Y-136087359D01*
X134959381Y-136001973D01*
X134948782Y-135998406D01*
X134742219Y-135948814D01*
X134731157Y-135947181D01*
X134519082Y-135934953D01*
X134507898Y-135935305D01*
X134297010Y-135960825D01*
X134286076Y-135963149D01*
X134083029Y-136025614D01*
X134072685Y-136029835D01*
X133883909Y-136127271D01*
X133876506Y-136131969D01*
X133868489Y-136142949D01*
X133231954Y-136142949D01*
X133224664Y-136133710D01*
X133163704Y-136092746D01*
X133153904Y-136087359D01*
X132959391Y-136001973D01*
X132948792Y-135998406D01*
X132742229Y-135948814D01*
X132731167Y-135947181D01*
X132519092Y-135934953D01*
X132507908Y-135935305D01*
X132297020Y-135960825D01*
X132286086Y-135963149D01*
X132083039Y-136025614D01*
X132072695Y-136029835D01*
X131883919Y-136127271D01*
X131876516Y-136131969D01*
X131868499Y-136142949D01*
X131231954Y-136142949D01*
X131224664Y-136133710D01*
X131163704Y-136092746D01*
X131153904Y-136087359D01*
X130959391Y-136001973D01*
X130948792Y-135998406D01*
X130742229Y-135948814D01*
X130731167Y-135947181D01*
X130519092Y-135934953D01*
X130507908Y-135935305D01*
X130297020Y-135960825D01*
X130286086Y-135963149D01*
X130083039Y-136025614D01*
X130072695Y-136029835D01*
X129883919Y-136127271D01*
X129876516Y-136131969D01*
X129868499Y-136142949D01*
X129239307Y-136142949D01*
X129159285Y-136089176D01*
X129160082Y-136087990D01*
X129114836Y-136042477D01*
X129099600Y-135982417D01*
X129099600Y-133091599D01*
X129119602Y-133023478D01*
X129136505Y-133002504D01*
X129856504Y-132282505D01*
X129918816Y-132248479D01*
X129945599Y-132245600D01*
X133338388Y-132245600D01*
X133343663Y-132245711D01*
X133401910Y-132248152D01*
X133443933Y-132238296D01*
X133455589Y-132236136D01*
X133474639Y-132233526D01*
X133489826Y-132231446D01*
X133489827Y-132231446D01*
X133498336Y-132230280D01*
X133511956Y-132224387D01*
X133533224Y-132217353D01*
X133539309Y-132215926D01*
X133539312Y-132215925D01*
X133547676Y-132213963D01*
X133585487Y-132193176D01*
X133596145Y-132187955D01*
X133635744Y-132170819D01*
X133647282Y-132161476D01*
X133665866Y-132148988D01*
X133678878Y-132141834D01*
X133688357Y-132133652D01*
X133712275Y-132109734D01*
X133722076Y-132100909D01*
X133745424Y-132082002D01*
X133745427Y-132081999D01*
X133752099Y-132076596D01*
X133762397Y-132062105D01*
X133776004Y-132046005D01*
X134290272Y-131531737D01*
X134294080Y-131528084D01*
X134330697Y-131494413D01*
X134330698Y-131494412D01*
X134337015Y-131488603D01*
X134359762Y-131451916D01*
X134366466Y-131442161D01*
X134392561Y-131407782D01*
X134398024Y-131393985D01*
X134408086Y-131373979D01*
X134411383Y-131368661D01*
X134411384Y-131368659D01*
X134415912Y-131361356D01*
X134423311Y-131335890D01*
X134427950Y-131319920D01*
X134431796Y-131308687D01*
X134444516Y-131276561D01*
X134447678Y-131268575D01*
X134449230Y-131253808D01*
X134453541Y-131231837D01*
X134457683Y-131217579D01*
X134458600Y-131205091D01*
X134458600Y-131171264D01*
X134459290Y-131158093D01*
X134462430Y-131128216D01*
X134463328Y-131119674D01*
X134461896Y-131111209D01*
X134461896Y-131111199D01*
X134460365Y-131102150D01*
X134458600Y-131081137D01*
X134458600Y-107066655D01*
X134478602Y-106998534D01*
X134532258Y-106952041D01*
X134541916Y-106948105D01*
X134546963Y-106946288D01*
X134557889Y-106942354D01*
X134566585Y-106937534D01*
X134772797Y-106823228D01*
X134777228Y-106820772D01*
X134781206Y-106817642D01*
X134781210Y-106817639D01*
X134970330Y-106668816D01*
X134970331Y-106668815D01*
X134974306Y-106665687D01*
X134996475Y-106641579D01*
X135140632Y-106484810D01*
X135140635Y-106484806D01*
X135144055Y-106481087D01*
X135238435Y-106337952D01*
X135279316Y-106275952D01*
X135279317Y-106275951D01*
X135282105Y-106271722D01*
X135284181Y-106267103D01*
X135382833Y-106047595D01*
X135382835Y-106047589D01*
X135384907Y-106042979D01*
X135386215Y-106038098D01*
X135386217Y-106038092D01*
X135448506Y-105805624D01*
X135448506Y-105805623D01*
X135449814Y-105800742D01*
X135467405Y-105627564D01*
X137352309Y-105627564D01*
X137353066Y-105632567D01*
X137353066Y-105632572D01*
X137377738Y-105795712D01*
X137389809Y-105875527D01*
X137391355Y-105880344D01*
X137391356Y-105880346D01*
X137443572Y-106042979D01*
X137466472Y-106114304D01*
X137580325Y-106337752D01*
X137728438Y-106540123D01*
X137907002Y-106716210D01*
X138111421Y-106861484D01*
X138115959Y-106863717D01*
X138115964Y-106863720D01*
X138260611Y-106934895D01*
X138336437Y-106972206D01*
X138341283Y-106973687D01*
X138341284Y-106973688D01*
X138571413Y-107044045D01*
X138571415Y-107044045D01*
X138576261Y-107045527D01*
X138581282Y-107046215D01*
X138581283Y-107046215D01*
X138807881Y-107077255D01*
X138824723Y-107079562D01*
X138895902Y-107077822D01*
X139070369Y-107073559D01*
X139070373Y-107073559D01*
X139075430Y-107073435D01*
X139321933Y-107027303D01*
X139372178Y-107009214D01*
X139474494Y-106972378D01*
X139557889Y-106942354D01*
X139566585Y-106937534D01*
X139772797Y-106823228D01*
X139777228Y-106820772D01*
X139781206Y-106817642D01*
X139781210Y-106817639D01*
X139970330Y-106668816D01*
X139970331Y-106668815D01*
X139974306Y-106665687D01*
X139996475Y-106641579D01*
X140140632Y-106484810D01*
X140140635Y-106484806D01*
X140144055Y-106481087D01*
X140238435Y-106337952D01*
X140279316Y-106275952D01*
X140279317Y-106275951D01*
X140282105Y-106271722D01*
X140284181Y-106267103D01*
X140382833Y-106047595D01*
X140382835Y-106047589D01*
X140384907Y-106042979D01*
X140386215Y-106038098D01*
X140386217Y-106038092D01*
X140448506Y-105805624D01*
X140448506Y-105805623D01*
X140449814Y-105800742D01*
X140475157Y-105551243D01*
X140475500Y-105518500D01*
X140471926Y-105474073D01*
X140455794Y-105273567D01*
X140455793Y-105273562D01*
X140455388Y-105268526D01*
X140431307Y-105170483D01*
X140396775Y-105029896D01*
X140396774Y-105029893D01*
X140395568Y-105024983D01*
X140297579Y-104794137D01*
X140294881Y-104789852D01*
X140294878Y-104789847D01*
X140189078Y-104621841D01*
X140163943Y-104581927D01*
X139998098Y-104393812D01*
X139804311Y-104234633D01*
X139587566Y-104108485D01*
X139439589Y-104051682D01*
X139358165Y-104020426D01*
X139358161Y-104020425D01*
X139353441Y-104018613D01*
X139348491Y-104017579D01*
X139348488Y-104017578D01*
X139112910Y-103968363D01*
X139112906Y-103968363D01*
X139107959Y-103967329D01*
X138857435Y-103955952D01*
X138852415Y-103956533D01*
X138852411Y-103956533D01*
X138761088Y-103967100D01*
X138608315Y-103984777D01*
X138603441Y-103986156D01*
X138603437Y-103986157D01*
X138371877Y-104051682D01*
X138371875Y-104051683D01*
X138367008Y-104053060D01*
X138362433Y-104055194D01*
X138362426Y-104055196D01*
X138212642Y-104125042D01*
X138139722Y-104159045D01*
X138135542Y-104161886D01*
X138135538Y-104161888D01*
X138078434Y-104200696D01*
X137932305Y-104300005D01*
X137885169Y-104344579D01*
X137756506Y-104466250D01*
X137750093Y-104472314D01*
X137747015Y-104476340D01*
X137747014Y-104476341D01*
X137600847Y-104667519D01*
X137600844Y-104667523D01*
X137597774Y-104671539D01*
X137479267Y-104892554D01*
X137477621Y-104897335D01*
X137477619Y-104897339D01*
X137448725Y-104981254D01*
X137397620Y-105129673D01*
X137354935Y-105376796D01*
X137352309Y-105627564D01*
X135467405Y-105627564D01*
X135475157Y-105551243D01*
X135475500Y-105518500D01*
X135471926Y-105474073D01*
X135455794Y-105273567D01*
X135455793Y-105273562D01*
X135455388Y-105268526D01*
X135431307Y-105170483D01*
X135396775Y-105029896D01*
X135396774Y-105029893D01*
X135395568Y-105024983D01*
X135297579Y-104794137D01*
X135294881Y-104789852D01*
X135294878Y-104789847D01*
X135189078Y-104621841D01*
X135163943Y-104581927D01*
X134998098Y-104393812D01*
X134804311Y-104234633D01*
X134587566Y-104108485D01*
X134439589Y-104051682D01*
X134358165Y-104020426D01*
X134358161Y-104020425D01*
X134353441Y-104018613D01*
X134348491Y-104017579D01*
X134348488Y-104017578D01*
X134112910Y-103968363D01*
X134112906Y-103968363D01*
X134107959Y-103967329D01*
X133857435Y-103955952D01*
X133852415Y-103956533D01*
X133852411Y-103956533D01*
X133761088Y-103967100D01*
X133608315Y-103984777D01*
X133603441Y-103986156D01*
X133603437Y-103986157D01*
X133371877Y-104051682D01*
X133371875Y-104051683D01*
X133367008Y-104053060D01*
X133362433Y-104055194D01*
X133362426Y-104055196D01*
X133212642Y-104125042D01*
X133139722Y-104159045D01*
X133135542Y-104161886D01*
X133135538Y-104161888D01*
X133078434Y-104200696D01*
X132932305Y-104300005D01*
X132885169Y-104344579D01*
X132756506Y-104466250D01*
X132750093Y-104472314D01*
X132747015Y-104476340D01*
X132747014Y-104476341D01*
X132600847Y-104667519D01*
X132600844Y-104667523D01*
X132597774Y-104671539D01*
X132479267Y-104892554D01*
X132477621Y-104897335D01*
X132477619Y-104897339D01*
X132448725Y-104981254D01*
X132397620Y-105129673D01*
X132354935Y-105376796D01*
X132352309Y-105627564D01*
X132353066Y-105632567D01*
X132353066Y-105632572D01*
X132377738Y-105795712D01*
X132389809Y-105875527D01*
X132391355Y-105880344D01*
X132391356Y-105880346D01*
X132443572Y-106042979D01*
X132466472Y-106114304D01*
X132580325Y-106337752D01*
X132728438Y-106540123D01*
X132907002Y-106716210D01*
X133111421Y-106861484D01*
X133295033Y-106951832D01*
X133347321Y-106999853D01*
X133365400Y-107064885D01*
X133365400Y-130858401D01*
X133345398Y-130926522D01*
X133328495Y-130947496D01*
X133160496Y-131115495D01*
X133098184Y-131149521D01*
X133071401Y-131152400D01*
X129678612Y-131152400D01*
X129673336Y-131152289D01*
X129615090Y-131149848D01*
X129573067Y-131159704D01*
X129561411Y-131161864D01*
X129542361Y-131164474D01*
X129527174Y-131166554D01*
X129527173Y-131166554D01*
X129518664Y-131167720D01*
X129505046Y-131173613D01*
X129483776Y-131180647D01*
X129477691Y-131182074D01*
X129477688Y-131182075D01*
X129469324Y-131184037D01*
X129435245Y-131202772D01*
X129431514Y-131204823D01*
X129420857Y-131210044D01*
X129381256Y-131227181D01*
X129374582Y-131232586D01*
X129374581Y-131232586D01*
X129369718Y-131236524D01*
X129351134Y-131249012D01*
X129338122Y-131256166D01*
X129328643Y-131264348D01*
X129304725Y-131288266D01*
X129294924Y-131297091D01*
X129271576Y-131315998D01*
X129271573Y-131316001D01*
X129264901Y-131321404D01*
X129254603Y-131335895D01*
X129240996Y-131351995D01*
X128174728Y-132418263D01*
X128170921Y-132421915D01*
X128127985Y-132461397D01*
X128105238Y-132498084D01*
X128098534Y-132507839D01*
X128072439Y-132542218D01*
X128069276Y-132550207D01*
X128066976Y-132556015D01*
X128056914Y-132576021D01*
X128053617Y-132581339D01*
X128049088Y-132588644D01*
X128046691Y-132596895D01*
X128046690Y-132596897D01*
X128037050Y-132630080D01*
X128033204Y-132641313D01*
X128017322Y-132681425D01*
X128015770Y-132696191D01*
X128011459Y-132718163D01*
X128007317Y-132732421D01*
X128006400Y-132744909D01*
X128006400Y-132778736D01*
X128005710Y-132791907D01*
X128001672Y-132830326D01*
X128003104Y-132838791D01*
X128003104Y-132838801D01*
X128004635Y-132847850D01*
X128006400Y-132868863D01*
X128006400Y-135986733D01*
X127986398Y-136054854D01*
X127938192Y-136098698D01*
X127878665Y-136129422D01*
X127874214Y-136132837D01*
X127874213Y-136132838D01*
X127725037Y-136247304D01*
X127701155Y-136265629D01*
X127646749Y-136325421D01*
X127586110Y-136362343D01*
X127515134Y-136360620D01*
X127465871Y-136331105D01*
X127349030Y-136217878D01*
X127349028Y-136217877D01*
X127344997Y-136213970D01*
X127159285Y-136089176D01*
X127160082Y-136087990D01*
X127114836Y-136042477D01*
X127099600Y-135982417D01*
X127099600Y-115914599D01*
X127119602Y-115846478D01*
X127136505Y-115825504D01*
X127570504Y-115391505D01*
X127632816Y-115357479D01*
X127659599Y-115354600D01*
X127991561Y-115354600D01*
X128059682Y-115374602D01*
X128085196Y-115396289D01*
X128166749Y-115486863D01*
X128172091Y-115490744D01*
X128172093Y-115490746D01*
X128315908Y-115595233D01*
X128321250Y-115599114D01*
X128327278Y-115601798D01*
X128327280Y-115601799D01*
X128489682Y-115674105D01*
X128495713Y-115676790D01*
X128589113Y-115696643D01*
X128676056Y-115715124D01*
X128676061Y-115715124D01*
X128682513Y-115716496D01*
X128873487Y-115716496D01*
X128879939Y-115715124D01*
X128879944Y-115715124D01*
X128966887Y-115696643D01*
X129060287Y-115676790D01*
X129066318Y-115674105D01*
X129228720Y-115601799D01*
X129228722Y-115601798D01*
X129234750Y-115599114D01*
X129240092Y-115595233D01*
X129383907Y-115490746D01*
X129383909Y-115490744D01*
X129389251Y-115486863D01*
X129449547Y-115419897D01*
X129512618Y-115349850D01*
X129512619Y-115349849D01*
X129517037Y-115344942D01*
X129612524Y-115179554D01*
X129671538Y-114997927D01*
X129691500Y-114808000D01*
X129671538Y-114618073D01*
X129612524Y-114436446D01*
X129605915Y-114424998D01*
X129554636Y-114336181D01*
X129517037Y-114271058D01*
X129389251Y-114129137D01*
X129383909Y-114125256D01*
X129383907Y-114125254D01*
X129240092Y-114020767D01*
X129240091Y-114020766D01*
X129234750Y-114016886D01*
X129228722Y-114014202D01*
X129228720Y-114014201D01*
X129066318Y-113941895D01*
X129066317Y-113941895D01*
X129060287Y-113939210D01*
X128966887Y-113919357D01*
X128879944Y-113900876D01*
X128879939Y-113900876D01*
X128873487Y-113899504D01*
X128682513Y-113899504D01*
X128676061Y-113900876D01*
X128676056Y-113900876D01*
X128589113Y-113919357D01*
X128495713Y-113939210D01*
X128489683Y-113941895D01*
X128489682Y-113941895D01*
X128327280Y-114014201D01*
X128327278Y-114014202D01*
X128321250Y-114016886D01*
X128315909Y-114020766D01*
X128315908Y-114020767D01*
X128172093Y-114125254D01*
X128172091Y-114125256D01*
X128166749Y-114129137D01*
X128162328Y-114134047D01*
X128162327Y-114134048D01*
X128085197Y-114219710D01*
X128024751Y-114256950D01*
X127991561Y-114261400D01*
X127392612Y-114261400D01*
X127387336Y-114261289D01*
X127329090Y-114258848D01*
X127287067Y-114268704D01*
X127275411Y-114270864D01*
X127256361Y-114273474D01*
X127241174Y-114275554D01*
X127241173Y-114275554D01*
X127232664Y-114276720D01*
X127219046Y-114282613D01*
X127197776Y-114289647D01*
X127191691Y-114291074D01*
X127191688Y-114291075D01*
X127183324Y-114293037D01*
X127145514Y-114313823D01*
X127134857Y-114319044D01*
X127095256Y-114336181D01*
X127088582Y-114341586D01*
X127088581Y-114341586D01*
X127083718Y-114345524D01*
X127065134Y-114358012D01*
X127052122Y-114365166D01*
X127042643Y-114373348D01*
X127018725Y-114397266D01*
X127008924Y-114406091D01*
X126985576Y-114424998D01*
X126985573Y-114425001D01*
X126978901Y-114430404D01*
X126968603Y-114444895D01*
X126954996Y-114460995D01*
X126174728Y-115241263D01*
X126170921Y-115244915D01*
X126127985Y-115284397D01*
X126105238Y-115321084D01*
X126098534Y-115330839D01*
X126072439Y-115365218D01*
X126068120Y-115376126D01*
X126066976Y-115379015D01*
X126056914Y-115399021D01*
X126053617Y-115404339D01*
X126049088Y-115411644D01*
X126046691Y-115419895D01*
X126046690Y-115419897D01*
X126037050Y-115453080D01*
X126033204Y-115464313D01*
X126017322Y-115504425D01*
X126015770Y-115519191D01*
X126011459Y-115541163D01*
X126007317Y-115555421D01*
X126006400Y-115567909D01*
X126006400Y-115601736D01*
X126005710Y-115614907D01*
X126001672Y-115653326D01*
X126003104Y-115661791D01*
X126003104Y-115661801D01*
X126004635Y-115670850D01*
X126006400Y-115691863D01*
X126006400Y-135986733D01*
X125986398Y-136054854D01*
X125938192Y-136098698D01*
X125878665Y-136129422D01*
X125874214Y-136132837D01*
X125874213Y-136132838D01*
X125725037Y-136247304D01*
X125701155Y-136265629D01*
X125645446Y-136326853D01*
X125574365Y-136404970D01*
X125550571Y-136431119D01*
X125547594Y-136435865D01*
X125547590Y-136435870D01*
X125501400Y-136509505D01*
X125431673Y-136620659D01*
X125429579Y-136625868D01*
X125429578Y-136625870D01*
X125406399Y-136683529D01*
X125378587Y-136725627D01*
X124925022Y-137179192D01*
X124917408Y-137193136D01*
X124917539Y-137194969D01*
X124921790Y-137201584D01*
X125371838Y-137651631D01*
X125398196Y-137693892D01*
X125399207Y-137693442D01*
X125401489Y-137698567D01*
X125403308Y-137703880D01*
X125512123Y-137899383D01*
X125653840Y-138072527D01*
X125658108Y-138076172D01*
X125680464Y-138095266D01*
X125719274Y-138154716D01*
X125719781Y-138225711D01*
X125691828Y-138275875D01*
X125646749Y-138325417D01*
X125586109Y-138362339D01*
X125515133Y-138360616D01*
X125465871Y-138331101D01*
X125349030Y-138217874D01*
X125349028Y-138217873D01*
X125344997Y-138213966D01*
X125159285Y-138089172D01*
X125099807Y-138063063D01*
X125059190Y-138045233D01*
X125020741Y-138018955D01*
X124565812Y-137564026D01*
X124551868Y-137556412D01*
X124550035Y-137556543D01*
X124543420Y-137560794D01*
X124091217Y-138012998D01*
X124059912Y-138035868D01*
X123878665Y-138129418D01*
X123701155Y-138265625D01*
X123697387Y-138269766D01*
X123697383Y-138269770D01*
X123685058Y-138283315D01*
X123646749Y-138325417D01*
X123586110Y-138362339D01*
X123515134Y-138360616D01*
X123465871Y-138331101D01*
X123349030Y-138217874D01*
X123349028Y-138217873D01*
X123344997Y-138213966D01*
X123159285Y-138089172D01*
X123099807Y-138063063D01*
X123059190Y-138045233D01*
X123020741Y-138018955D01*
X122565812Y-137564026D01*
X122551868Y-137556412D01*
X122550035Y-137556543D01*
X122543420Y-137560794D01*
X122091217Y-138012998D01*
X122059912Y-138035868D01*
X121878665Y-138129418D01*
X121701155Y-138265625D01*
X121697387Y-138269766D01*
X121697383Y-138269770D01*
X121685058Y-138283315D01*
X121646749Y-138325417D01*
X121586110Y-138362339D01*
X121515134Y-138360616D01*
X121465871Y-138331101D01*
X121349030Y-138217874D01*
X121349028Y-138217873D01*
X121344997Y-138213966D01*
X121159285Y-138089172D01*
X121099807Y-138063063D01*
X121059190Y-138045233D01*
X121020741Y-138018955D01*
X120565812Y-137564026D01*
X120551868Y-137556412D01*
X120550035Y-137556543D01*
X120543420Y-137560794D01*
X120091217Y-138012998D01*
X120059912Y-138035868D01*
X119878665Y-138129418D01*
X119701155Y-138265625D01*
X119697387Y-138269766D01*
X119697383Y-138269770D01*
X119685058Y-138283315D01*
X119646749Y-138325417D01*
X119586110Y-138362339D01*
X119515134Y-138360616D01*
X119465871Y-138331101D01*
X119349030Y-138217874D01*
X119349028Y-138217873D01*
X119344997Y-138213966D01*
X119159285Y-138089172D01*
X119099807Y-138063063D01*
X119059190Y-138045233D01*
X119020741Y-138018955D01*
X118565812Y-137564026D01*
X118551868Y-137556412D01*
X118550035Y-137556543D01*
X118543420Y-137560794D01*
X118091217Y-138012998D01*
X118059912Y-138035868D01*
X117878665Y-138129418D01*
X117701155Y-138265625D01*
X117619631Y-138355218D01*
X117557486Y-138423516D01*
X117550571Y-138431115D01*
X117547594Y-138435861D01*
X117547590Y-138435866D01*
X117497897Y-138515085D01*
X117431673Y-138620655D01*
X117429579Y-138625864D01*
X117429578Y-138625866D01*
X117425088Y-138637035D01*
X117348218Y-138828255D01*
X117347081Y-138833746D01*
X117347080Y-138833749D01*
X117310162Y-139012022D01*
X117302845Y-139047352D01*
X117296988Y-139271022D01*
X117330832Y-139492193D01*
X117403308Y-139703876D01*
X117512123Y-139899379D01*
X117653840Y-140072523D01*
X117658108Y-140076168D01*
X117819713Y-140214192D01*
X117819717Y-140214195D01*
X117823978Y-140217834D01*
X118017159Y-140330720D01*
X118022429Y-140332649D01*
X118022430Y-140332649D01*
X118222014Y-140405687D01*
X118222018Y-140405688D01*
X118227278Y-140407613D01*
X118232794Y-140408576D01*
X118232799Y-140408577D01*
X118405971Y-140438800D01*
X118447692Y-140446081D01*
X118453297Y-140446052D01*
X118453301Y-140446052D01*
X118555069Y-140445519D01*
X118671435Y-140444910D01*
X118891434Y-140404135D01*
X119100736Y-140325047D01*
X119292725Y-140210144D01*
X119296945Y-140206462D01*
X119296950Y-140206459D01*
X119450483Y-140072523D01*
X119461332Y-140063059D01*
X119463072Y-140060887D01*
X119523885Y-140026010D01*
X119594791Y-140029592D01*
X119645461Y-140065047D01*
X119646357Y-140064169D01*
X119650286Y-140068181D01*
X119653840Y-140072523D01*
X119658108Y-140076168D01*
X119819713Y-140214192D01*
X119819717Y-140214195D01*
X119823978Y-140217834D01*
X120017159Y-140330720D01*
X120022429Y-140332649D01*
X120022430Y-140332649D01*
X120222014Y-140405687D01*
X120222018Y-140405688D01*
X120227278Y-140407613D01*
X120232794Y-140408576D01*
X120232799Y-140408577D01*
X120405971Y-140438800D01*
X120447692Y-140446081D01*
X120453297Y-140446052D01*
X120453301Y-140446052D01*
X120555069Y-140445519D01*
X120671435Y-140444910D01*
X120891434Y-140404135D01*
X121100736Y-140325047D01*
X121292725Y-140210144D01*
X121296945Y-140206462D01*
X121296950Y-140206459D01*
X121450483Y-140072523D01*
X121461332Y-140063059D01*
X121463072Y-140060887D01*
X121523885Y-140026010D01*
X121594791Y-140029592D01*
X121645461Y-140065047D01*
X121646357Y-140064169D01*
X121650286Y-140068181D01*
X121653840Y-140072523D01*
X121658108Y-140076168D01*
X121819713Y-140214192D01*
X121819717Y-140214195D01*
X121823978Y-140217834D01*
X122017159Y-140330720D01*
X122022429Y-140332649D01*
X122022430Y-140332649D01*
X122222014Y-140405687D01*
X122222018Y-140405688D01*
X122227278Y-140407613D01*
X122232794Y-140408576D01*
X122232799Y-140408577D01*
X122405971Y-140438800D01*
X122447692Y-140446081D01*
X122453297Y-140446052D01*
X122453301Y-140446052D01*
X122555069Y-140445519D01*
X122671435Y-140444910D01*
X122891434Y-140404135D01*
X123100736Y-140325047D01*
X123292725Y-140210144D01*
X123296945Y-140206462D01*
X123296950Y-140206459D01*
X123450483Y-140072523D01*
X123461332Y-140063059D01*
X123463072Y-140060887D01*
X123523885Y-140026010D01*
X123594791Y-140029592D01*
X123645461Y-140065047D01*
X123646357Y-140064169D01*
X123650286Y-140068181D01*
X123653840Y-140072523D01*
X123658108Y-140076168D01*
X123819713Y-140214192D01*
X123819717Y-140214195D01*
X123823978Y-140217834D01*
X124017159Y-140330720D01*
X124022429Y-140332649D01*
X124022430Y-140332649D01*
X124222014Y-140405687D01*
X124222018Y-140405688D01*
X124227278Y-140407613D01*
X124232794Y-140408576D01*
X124232799Y-140408577D01*
X124405971Y-140438800D01*
X124447692Y-140446081D01*
X124453297Y-140446052D01*
X124453301Y-140446052D01*
X124555069Y-140445519D01*
X124671435Y-140444910D01*
X124891434Y-140404135D01*
X125100736Y-140325047D01*
X125292725Y-140210144D01*
X125296945Y-140206462D01*
X125296950Y-140206459D01*
X125450483Y-140072523D01*
X125461332Y-140063059D01*
X125463072Y-140060887D01*
X125523885Y-140026010D01*
X125594791Y-140029592D01*
X125645461Y-140065047D01*
X125646357Y-140064169D01*
X125650286Y-140068181D01*
X125653840Y-140072523D01*
X125658108Y-140076168D01*
X125819713Y-140214192D01*
X125819717Y-140214195D01*
X125823978Y-140217834D01*
X126017159Y-140330720D01*
X126022429Y-140332649D01*
X126022430Y-140332649D01*
X126222014Y-140405687D01*
X126222018Y-140405688D01*
X126227278Y-140407613D01*
X126232794Y-140408576D01*
X126232799Y-140408577D01*
X126405971Y-140438800D01*
X126447692Y-140446081D01*
X126453297Y-140446052D01*
X126453301Y-140446052D01*
X126555069Y-140445519D01*
X126671435Y-140444910D01*
X126891434Y-140404135D01*
X127100736Y-140325047D01*
X127292725Y-140210144D01*
X127296945Y-140206462D01*
X127296950Y-140206459D01*
X127450483Y-140072523D01*
X127461332Y-140063059D01*
X127463072Y-140060887D01*
X127523885Y-140026010D01*
X127594791Y-140029592D01*
X127645461Y-140065047D01*
X127646357Y-140064169D01*
X127650286Y-140068181D01*
X127653840Y-140072523D01*
X127658108Y-140076168D01*
X127819713Y-140214192D01*
X127819717Y-140214195D01*
X127823978Y-140217834D01*
X128017159Y-140330720D01*
X128022429Y-140332649D01*
X128022430Y-140332649D01*
X128222014Y-140405687D01*
X128222018Y-140405688D01*
X128227278Y-140407613D01*
X128232794Y-140408576D01*
X128232799Y-140408577D01*
X128405971Y-140438800D01*
X128447692Y-140446081D01*
X128453297Y-140446052D01*
X128453301Y-140446052D01*
X128555069Y-140445519D01*
X128671435Y-140444910D01*
X128891434Y-140404135D01*
X129100736Y-140325047D01*
X129292725Y-140210144D01*
X129296945Y-140206462D01*
X129296950Y-140206459D01*
X129450483Y-140072523D01*
X129461332Y-140063059D01*
X129463072Y-140060887D01*
X129523885Y-140026010D01*
X129594791Y-140029592D01*
X129645461Y-140065047D01*
X129646357Y-140064169D01*
X129650286Y-140068181D01*
X129653840Y-140072523D01*
X129658108Y-140076168D01*
X129819713Y-140214192D01*
X129819717Y-140214195D01*
X129823978Y-140217834D01*
X130017159Y-140330720D01*
X130022429Y-140332649D01*
X130022430Y-140332649D01*
X130222014Y-140405687D01*
X130222018Y-140405688D01*
X130227278Y-140407613D01*
X130232794Y-140408576D01*
X130232799Y-140408577D01*
X130405971Y-140438800D01*
X130447692Y-140446081D01*
X130453297Y-140446052D01*
X130453301Y-140446052D01*
X130555069Y-140445519D01*
X130671435Y-140444910D01*
X130891434Y-140404135D01*
X131100736Y-140325047D01*
X131292725Y-140210144D01*
X131296945Y-140206462D01*
X131296950Y-140206459D01*
X131450483Y-140072523D01*
X131461332Y-140063059D01*
X131463072Y-140060887D01*
X131523885Y-140026010D01*
X131594791Y-140029592D01*
X131645461Y-140065047D01*
X131646357Y-140064169D01*
X131650286Y-140068181D01*
X131653840Y-140072523D01*
X131658108Y-140076168D01*
X131819713Y-140214192D01*
X131819717Y-140214195D01*
X131823978Y-140217834D01*
X132017159Y-140330720D01*
X132022429Y-140332649D01*
X132022430Y-140332649D01*
X132222014Y-140405687D01*
X132222018Y-140405688D01*
X132227278Y-140407613D01*
X132232794Y-140408576D01*
X132232799Y-140408577D01*
X132405971Y-140438800D01*
X132447692Y-140446081D01*
X132453297Y-140446052D01*
X132453301Y-140446052D01*
X132555069Y-140445519D01*
X132671435Y-140444910D01*
X132891434Y-140404135D01*
X133100736Y-140325047D01*
X133292725Y-140210144D01*
X133296945Y-140206462D01*
X133296950Y-140206459D01*
X133457101Y-140066750D01*
X133457102Y-140066749D01*
X133461332Y-140063059D01*
X133463068Y-140060893D01*
X133523877Y-140026016D01*
X133594783Y-140029597D01*
X133645452Y-140065045D01*
X133646347Y-140064169D01*
X133650276Y-140068181D01*
X133653830Y-140072523D01*
X133658098Y-140076168D01*
X133819703Y-140214192D01*
X133819707Y-140214195D01*
X133823968Y-140217834D01*
X134017149Y-140330720D01*
X134022419Y-140332649D01*
X134022420Y-140332649D01*
X134222004Y-140405687D01*
X134222008Y-140405688D01*
X134227268Y-140407613D01*
X134232784Y-140408576D01*
X134232789Y-140408577D01*
X134405961Y-140438800D01*
X134447682Y-140446081D01*
X134453287Y-140446052D01*
X134453291Y-140446052D01*
X134555059Y-140445519D01*
X134671425Y-140444910D01*
X134891424Y-140404135D01*
X135100726Y-140325047D01*
X135292715Y-140210144D01*
X135296935Y-140206462D01*
X135296940Y-140206459D01*
X135457090Y-140066751D01*
X135457092Y-140066749D01*
X135461322Y-140063059D01*
X135463068Y-140060880D01*
X135523881Y-140026000D01*
X135594787Y-140029580D01*
X135645476Y-140065041D01*
X135646367Y-140064169D01*
X135650296Y-140068181D01*
X135653850Y-140072523D01*
X135658118Y-140076168D01*
X135819723Y-140214192D01*
X135819727Y-140214195D01*
X135823988Y-140217834D01*
X136017169Y-140330720D01*
X136022439Y-140332649D01*
X136022440Y-140332649D01*
X136222024Y-140405687D01*
X136222028Y-140405688D01*
X136227288Y-140407613D01*
X136232804Y-140408576D01*
X136232809Y-140408577D01*
X136405981Y-140438800D01*
X136447702Y-140446081D01*
X136453307Y-140446052D01*
X136453311Y-140446052D01*
X136555079Y-140445519D01*
X136671445Y-140444910D01*
X136891444Y-140404135D01*
X137100746Y-140325047D01*
X137292735Y-140210144D01*
X137296955Y-140206462D01*
X137296960Y-140206459D01*
X137450493Y-140072523D01*
X137461342Y-140063059D01*
X137463082Y-140060887D01*
X137523895Y-140026010D01*
X137594801Y-140029592D01*
X137645471Y-140065047D01*
X137646367Y-140064169D01*
X137650296Y-140068181D01*
X137653850Y-140072523D01*
X137658118Y-140076168D01*
X137819723Y-140214192D01*
X137819727Y-140214195D01*
X137823988Y-140217834D01*
X138017169Y-140330720D01*
X138022439Y-140332649D01*
X138022440Y-140332649D01*
X138222024Y-140405687D01*
X138222028Y-140405688D01*
X138227288Y-140407613D01*
X138232804Y-140408576D01*
X138232809Y-140408577D01*
X138405981Y-140438800D01*
X138447702Y-140446081D01*
X138453307Y-140446052D01*
X138453311Y-140446052D01*
X138555079Y-140445519D01*
X138671445Y-140444910D01*
X138891444Y-140404135D01*
X139100746Y-140325047D01*
X139292735Y-140210144D01*
X139296955Y-140206462D01*
X139296960Y-140206459D01*
X139457111Y-140066750D01*
X139457112Y-140066749D01*
X139461342Y-140063059D01*
X139463078Y-140060893D01*
X139523887Y-140026016D01*
X139594793Y-140029597D01*
X139645462Y-140065045D01*
X139646357Y-140064169D01*
X139650286Y-140068181D01*
X139653840Y-140072523D01*
X139658108Y-140076168D01*
X139819713Y-140214192D01*
X139819717Y-140214195D01*
X139823978Y-140217834D01*
X140017159Y-140330720D01*
X140022429Y-140332649D01*
X140022430Y-140332649D01*
X140222014Y-140405687D01*
X140222018Y-140405688D01*
X140227278Y-140407613D01*
X140232794Y-140408576D01*
X140232799Y-140408577D01*
X140405971Y-140438800D01*
X140447692Y-140446081D01*
X140453297Y-140446052D01*
X140453301Y-140446052D01*
X140555069Y-140445519D01*
X140671435Y-140444910D01*
X140891434Y-140404135D01*
X141100736Y-140325047D01*
X141292725Y-140210144D01*
X141296945Y-140206462D01*
X141296950Y-140206459D01*
X141450483Y-140072523D01*
X141461332Y-140063059D01*
X141463072Y-140060887D01*
X141523885Y-140026010D01*
X141594791Y-140029592D01*
X141645461Y-140065047D01*
X141646357Y-140064169D01*
X141650286Y-140068181D01*
X141653840Y-140072523D01*
X141658108Y-140076168D01*
X141819713Y-140214192D01*
X141819717Y-140214195D01*
X141823978Y-140217834D01*
X142017159Y-140330720D01*
X142022429Y-140332649D01*
X142022430Y-140332649D01*
X142222014Y-140405687D01*
X142222018Y-140405688D01*
X142227278Y-140407613D01*
X142232794Y-140408576D01*
X142232799Y-140408577D01*
X142405971Y-140438800D01*
X142447692Y-140446081D01*
X142453297Y-140446052D01*
X142453301Y-140446052D01*
X142555069Y-140445519D01*
X142671435Y-140444910D01*
X142891434Y-140404135D01*
X143100736Y-140325047D01*
X143292725Y-140210144D01*
X143296945Y-140206462D01*
X143296950Y-140206459D01*
X143450483Y-140072523D01*
X143461332Y-140063059D01*
X143463072Y-140060887D01*
X143523885Y-140026010D01*
X143594791Y-140029592D01*
X143645461Y-140065047D01*
X143646357Y-140064169D01*
X143650286Y-140068181D01*
X143653840Y-140072523D01*
X143658108Y-140076168D01*
X143819713Y-140214192D01*
X143819717Y-140214195D01*
X143823978Y-140217834D01*
X144017159Y-140330720D01*
X144022429Y-140332649D01*
X144022430Y-140332649D01*
X144222014Y-140405687D01*
X144222018Y-140405688D01*
X144227278Y-140407613D01*
X144232794Y-140408576D01*
X144232799Y-140408577D01*
X144405971Y-140438800D01*
X144447692Y-140446081D01*
X144453297Y-140446052D01*
X144453301Y-140446052D01*
X144555069Y-140445519D01*
X144671435Y-140444910D01*
X144891434Y-140404135D01*
X145100736Y-140325047D01*
X145292725Y-140210144D01*
X145296945Y-140206462D01*
X145296950Y-140206459D01*
X145457101Y-140066750D01*
X145457102Y-140066749D01*
X145461332Y-140063059D01*
X145463068Y-140060893D01*
X145523877Y-140026016D01*
X145594783Y-140029597D01*
X145645452Y-140065045D01*
X145646347Y-140064169D01*
X145650276Y-140068181D01*
X145653830Y-140072523D01*
X145658098Y-140076168D01*
X145819703Y-140214192D01*
X145819707Y-140214195D01*
X145823968Y-140217834D01*
X146017149Y-140330720D01*
X146022419Y-140332649D01*
X146022420Y-140332649D01*
X146222004Y-140405687D01*
X146222008Y-140405688D01*
X146227268Y-140407613D01*
X146232784Y-140408576D01*
X146232789Y-140408577D01*
X146405961Y-140438800D01*
X146447682Y-140446081D01*
X146453287Y-140446052D01*
X146453291Y-140446052D01*
X146555059Y-140445519D01*
X146671425Y-140444910D01*
X146891424Y-140404135D01*
X147100726Y-140325047D01*
X147292715Y-140210144D01*
X147296935Y-140206462D01*
X147296940Y-140206459D01*
X147450473Y-140072523D01*
X147461322Y-140063059D01*
X147463062Y-140060887D01*
X147523875Y-140026010D01*
X147594781Y-140029592D01*
X147645451Y-140065047D01*
X147646347Y-140064169D01*
X147650276Y-140068181D01*
X147653830Y-140072523D01*
X147658098Y-140076168D01*
X147819703Y-140214192D01*
X147819707Y-140214195D01*
X147823968Y-140217834D01*
X148017149Y-140330720D01*
X148022419Y-140332649D01*
X148022420Y-140332649D01*
X148222004Y-140405687D01*
X148222008Y-140405688D01*
X148227268Y-140407613D01*
X148232784Y-140408576D01*
X148232789Y-140408577D01*
X148405961Y-140438800D01*
X148447682Y-140446081D01*
X148453287Y-140446052D01*
X148453291Y-140446052D01*
X148555059Y-140445519D01*
X148671425Y-140444910D01*
X148891424Y-140404135D01*
X149100726Y-140325047D01*
X149292715Y-140210144D01*
X149296935Y-140206462D01*
X149296940Y-140206459D01*
X149457090Y-140066751D01*
X149457092Y-140066749D01*
X149461322Y-140063059D01*
X149463068Y-140060880D01*
X149523881Y-140026000D01*
X149594787Y-140029580D01*
X149645476Y-140065041D01*
X149646367Y-140064169D01*
X149650296Y-140068181D01*
X149653850Y-140072523D01*
X149658118Y-140076168D01*
X149819723Y-140214192D01*
X149819727Y-140214195D01*
X149823988Y-140217834D01*
X150017169Y-140330720D01*
X150022439Y-140332649D01*
X150022440Y-140332649D01*
X150222024Y-140405687D01*
X150222028Y-140405688D01*
X150227288Y-140407613D01*
X150232804Y-140408576D01*
X150232809Y-140408577D01*
X150405981Y-140438800D01*
X150447702Y-140446081D01*
X150453307Y-140446052D01*
X150453311Y-140446052D01*
X150555079Y-140445519D01*
X150671445Y-140444910D01*
X150891444Y-140404135D01*
X151100746Y-140325047D01*
X151292735Y-140210144D01*
X151296955Y-140206462D01*
X151296960Y-140206459D01*
X151457111Y-140066750D01*
X151457112Y-140066749D01*
X151461342Y-140063059D01*
X151463078Y-140060893D01*
X151523887Y-140026016D01*
X151594793Y-140029597D01*
X151645462Y-140065045D01*
X151646357Y-140064169D01*
X151650286Y-140068181D01*
X151653840Y-140072523D01*
X151658108Y-140076168D01*
X151819713Y-140214192D01*
X151819717Y-140214195D01*
X151823978Y-140217834D01*
X152017159Y-140330720D01*
X152022429Y-140332649D01*
X152022430Y-140332649D01*
X152222014Y-140405687D01*
X152222018Y-140405688D01*
X152227278Y-140407613D01*
X152232794Y-140408576D01*
X152232799Y-140408577D01*
X152405971Y-140438800D01*
X152447692Y-140446081D01*
X152453297Y-140446052D01*
X152453301Y-140446052D01*
X152555069Y-140445519D01*
X152671435Y-140444910D01*
X152891434Y-140404135D01*
X153100736Y-140325047D01*
X153292725Y-140210144D01*
X153296945Y-140206462D01*
X153296950Y-140206459D01*
X153450483Y-140072523D01*
X153461332Y-140063059D01*
X153463072Y-140060887D01*
X153523885Y-140026010D01*
X153594791Y-140029592D01*
X153645461Y-140065047D01*
X153646357Y-140064169D01*
X153650286Y-140068181D01*
X153653840Y-140072523D01*
X153658108Y-140076168D01*
X153819713Y-140214192D01*
X153819717Y-140214195D01*
X153823978Y-140217834D01*
X154017159Y-140330720D01*
X154022429Y-140332649D01*
X154022430Y-140332649D01*
X154222014Y-140405687D01*
X154222018Y-140405688D01*
X154227278Y-140407613D01*
X154232794Y-140408576D01*
X154232799Y-140408577D01*
X154405971Y-140438800D01*
X154447692Y-140446081D01*
X154453297Y-140446052D01*
X154453301Y-140446052D01*
X154555069Y-140445519D01*
X154671435Y-140444910D01*
X154891434Y-140404135D01*
X155100736Y-140325047D01*
X155292725Y-140210144D01*
X155296945Y-140206462D01*
X155296950Y-140206459D01*
X155450483Y-140072523D01*
X155461332Y-140063059D01*
X155463072Y-140060887D01*
X155523885Y-140026010D01*
X155594791Y-140029592D01*
X155645461Y-140065047D01*
X155646357Y-140064169D01*
X155650286Y-140068181D01*
X155653840Y-140072523D01*
X155658108Y-140076168D01*
X155819713Y-140214192D01*
X155819717Y-140214195D01*
X155823978Y-140217834D01*
X156017159Y-140330720D01*
X156022429Y-140332649D01*
X156022430Y-140332649D01*
X156222014Y-140405687D01*
X156222018Y-140405688D01*
X156227278Y-140407613D01*
X156232794Y-140408576D01*
X156232799Y-140408577D01*
X156405971Y-140438800D01*
X156447692Y-140446081D01*
X156453297Y-140446052D01*
X156453301Y-140446052D01*
X156555069Y-140445519D01*
X156671435Y-140444910D01*
X156891434Y-140404135D01*
X157100736Y-140325047D01*
X157292725Y-140210144D01*
X157296945Y-140206462D01*
X157296950Y-140206459D01*
X157450483Y-140072523D01*
X157461332Y-140063059D01*
X157463072Y-140060887D01*
X157523885Y-140026010D01*
X157594791Y-140029592D01*
X157645461Y-140065047D01*
X157646357Y-140064169D01*
X157650286Y-140068181D01*
X157653840Y-140072523D01*
X157658108Y-140076168D01*
X157819713Y-140214192D01*
X157819717Y-140214195D01*
X157823978Y-140217834D01*
X158017159Y-140330720D01*
X158022429Y-140332649D01*
X158022430Y-140332649D01*
X158222014Y-140405687D01*
X158222018Y-140405688D01*
X158227278Y-140407613D01*
X158232794Y-140408576D01*
X158232799Y-140408577D01*
X158405971Y-140438800D01*
X158447692Y-140446081D01*
X158453297Y-140446052D01*
X158453301Y-140446052D01*
X158555069Y-140445519D01*
X158671435Y-140444910D01*
X158891434Y-140404135D01*
X159100736Y-140325047D01*
X159292725Y-140210144D01*
X159296945Y-140206462D01*
X159296950Y-140206459D01*
X159450483Y-140072523D01*
X159461332Y-140063059D01*
X159463072Y-140060887D01*
X159523885Y-140026010D01*
X159594791Y-140029592D01*
X159645461Y-140065047D01*
X159646357Y-140064169D01*
X159650286Y-140068181D01*
X159653840Y-140072523D01*
X159658108Y-140076168D01*
X159819713Y-140214192D01*
X159819717Y-140214195D01*
X159823978Y-140217834D01*
X160017159Y-140330720D01*
X160022429Y-140332649D01*
X160022430Y-140332649D01*
X160222014Y-140405687D01*
X160222018Y-140405688D01*
X160227278Y-140407613D01*
X160232794Y-140408576D01*
X160232799Y-140408577D01*
X160405971Y-140438800D01*
X160447692Y-140446081D01*
X160453297Y-140446052D01*
X160453301Y-140446052D01*
X160555069Y-140445519D01*
X160671435Y-140444910D01*
X160891434Y-140404135D01*
X161100736Y-140325047D01*
X161292725Y-140210144D01*
X161296945Y-140206462D01*
X161296950Y-140206459D01*
X161450483Y-140072523D01*
X161461332Y-140063059D01*
X161463072Y-140060887D01*
X161523885Y-140026010D01*
X161594791Y-140029592D01*
X161645461Y-140065047D01*
X161646357Y-140064169D01*
X161650286Y-140068181D01*
X161653840Y-140072523D01*
X161658108Y-140076168D01*
X161819713Y-140214192D01*
X161819717Y-140214195D01*
X161823978Y-140217834D01*
X162017159Y-140330720D01*
X162022429Y-140332649D01*
X162022430Y-140332649D01*
X162222014Y-140405687D01*
X162222018Y-140405688D01*
X162227278Y-140407613D01*
X162232794Y-140408576D01*
X162232799Y-140408577D01*
X162405971Y-140438800D01*
X162447692Y-140446081D01*
X162453297Y-140446052D01*
X162453301Y-140446052D01*
X162555069Y-140445519D01*
X162671435Y-140444910D01*
X162891434Y-140404135D01*
X163100736Y-140325047D01*
X163292725Y-140210144D01*
X163296945Y-140206462D01*
X163296950Y-140206459D01*
X163450483Y-140072523D01*
X163461332Y-140063059D01*
X163463072Y-140060887D01*
X163523885Y-140026010D01*
X163594791Y-140029592D01*
X163645461Y-140065047D01*
X163646357Y-140064169D01*
X163650286Y-140068181D01*
X163653840Y-140072523D01*
X163658108Y-140076168D01*
X163819713Y-140214192D01*
X163819717Y-140214195D01*
X163823978Y-140217834D01*
X164017159Y-140330720D01*
X164022429Y-140332649D01*
X164022430Y-140332649D01*
X164222014Y-140405687D01*
X164222018Y-140405688D01*
X164227278Y-140407613D01*
X164232794Y-140408576D01*
X164232799Y-140408577D01*
X164405971Y-140438800D01*
X164447692Y-140446081D01*
X164453297Y-140446052D01*
X164453301Y-140446052D01*
X164555069Y-140445519D01*
X164671435Y-140444910D01*
X164891434Y-140404135D01*
X165100736Y-140325047D01*
X165292725Y-140210144D01*
X165296945Y-140206462D01*
X165296950Y-140206459D01*
X165450483Y-140072523D01*
X165461332Y-140063059D01*
X165463072Y-140060887D01*
X165523885Y-140026010D01*
X165594791Y-140029592D01*
X165645461Y-140065047D01*
X165646357Y-140064169D01*
X165650286Y-140068181D01*
X165653840Y-140072523D01*
X165658108Y-140076168D01*
X165819713Y-140214192D01*
X165819717Y-140214195D01*
X165823978Y-140217834D01*
X166017159Y-140330720D01*
X166022429Y-140332649D01*
X166022430Y-140332649D01*
X166222014Y-140405687D01*
X166222018Y-140405688D01*
X166227278Y-140407613D01*
X166232794Y-140408576D01*
X166232799Y-140408577D01*
X166405971Y-140438800D01*
X166447692Y-140446081D01*
X166453297Y-140446052D01*
X166453301Y-140446052D01*
X166555069Y-140445519D01*
X166671435Y-140444910D01*
X166891434Y-140404135D01*
X167100736Y-140325047D01*
X167292725Y-140210144D01*
X167296945Y-140206462D01*
X167296950Y-140206459D01*
X167457108Y-140066744D01*
X167457109Y-140066743D01*
X167461332Y-140063059D01*
X167588984Y-139903722D01*
X167597720Y-139892818D01*
X167597722Y-139892815D01*
X167601227Y-139888440D01*
X167639676Y-139817626D01*
X167705316Y-139696735D01*
X167705318Y-139696729D01*
X167707990Y-139691809D01*
X167768374Y-139509222D01*
X174102608Y-139509222D01*
X174107517Y-139515780D01*
X174196066Y-139565268D01*
X174207307Y-139570179D01*
X174383614Y-139627465D01*
X174395588Y-139630098D01*
X174579673Y-139652049D01*
X174591922Y-139652306D01*
X174776765Y-139638083D01*
X174788838Y-139635954D01*
X174967394Y-139586100D01*
X174978827Y-139581666D01*
X175102597Y-139519145D01*
X175112883Y-139509498D01*
X175112790Y-139509222D01*
X184552608Y-139509222D01*
X184557517Y-139515780D01*
X184646066Y-139565268D01*
X184657307Y-139570179D01*
X184833614Y-139627465D01*
X184845588Y-139630098D01*
X185029673Y-139652049D01*
X185041922Y-139652306D01*
X185226765Y-139638083D01*
X185238838Y-139635954D01*
X185417394Y-139586100D01*
X185428827Y-139581666D01*
X185552597Y-139519145D01*
X185562883Y-139509498D01*
X185562790Y-139509222D01*
X191882608Y-139509222D01*
X191887517Y-139515780D01*
X191976066Y-139565268D01*
X191987307Y-139570179D01*
X192163614Y-139627465D01*
X192175588Y-139630098D01*
X192359673Y-139652049D01*
X192371922Y-139652306D01*
X192556765Y-139638083D01*
X192568838Y-139635954D01*
X192747394Y-139586100D01*
X192758827Y-139581666D01*
X192882597Y-139519145D01*
X192892883Y-139509498D01*
X192892790Y-139509222D01*
X202332608Y-139509222D01*
X202337517Y-139515780D01*
X202426066Y-139565268D01*
X202437307Y-139570179D01*
X202613614Y-139627465D01*
X202625588Y-139630098D01*
X202809673Y-139652049D01*
X202821922Y-139652306D01*
X203006765Y-139638083D01*
X203018838Y-139635954D01*
X203197394Y-139586100D01*
X203208827Y-139581666D01*
X203332597Y-139519145D01*
X203342883Y-139509498D01*
X203340645Y-139502855D01*
X202849812Y-139012022D01*
X202835868Y-139004408D01*
X202834035Y-139004539D01*
X202827420Y-139008790D01*
X202339368Y-139496842D01*
X202332608Y-139509222D01*
X192892790Y-139509222D01*
X192890645Y-139502855D01*
X192399812Y-139012022D01*
X192385868Y-139004408D01*
X192384035Y-139004539D01*
X192377420Y-139008790D01*
X191889368Y-139496842D01*
X191882608Y-139509222D01*
X185562790Y-139509222D01*
X185560645Y-139502855D01*
X185069812Y-139012022D01*
X185055868Y-139004408D01*
X185054035Y-139004539D01*
X185047420Y-139008790D01*
X184559368Y-139496842D01*
X184552608Y-139509222D01*
X175112790Y-139509222D01*
X175110645Y-139502855D01*
X174619812Y-139012022D01*
X174605868Y-139004408D01*
X174604035Y-139004539D01*
X174597420Y-139008790D01*
X174109368Y-139496842D01*
X174102608Y-139509222D01*
X167768374Y-139509222D01*
X167778244Y-139479378D01*
X167807108Y-139276568D01*
X167809259Y-139261457D01*
X167809259Y-139261453D01*
X167809770Y-139257865D01*
X167811495Y-139192000D01*
X167791605Y-138969140D01*
X167732565Y-138753324D01*
X167690323Y-138664760D01*
X167674697Y-138632000D01*
X173594615Y-138632000D01*
X173610126Y-138816725D01*
X173612341Y-138828790D01*
X173663436Y-139006983D01*
X173667955Y-139018394D01*
X173728057Y-139135339D01*
X173737776Y-139145558D01*
X173744576Y-139143214D01*
X174234978Y-138652812D01*
X174242592Y-138638868D01*
X174242461Y-138637035D01*
X174238210Y-138630420D01*
X173750030Y-138142240D01*
X173737650Y-138135480D01*
X173731262Y-138140262D01*
X173678882Y-138235542D01*
X173674054Y-138246806D01*
X173617998Y-138423516D01*
X173615450Y-138435503D01*
X173594786Y-138619731D01*
X173594615Y-138632000D01*
X167674697Y-138632000D01*
X167638657Y-138556441D01*
X167638656Y-138556440D01*
X167636240Y-138551374D01*
X167552086Y-138434262D01*
X167508951Y-138374233D01*
X167508949Y-138374231D01*
X167505674Y-138369673D01*
X167394786Y-138262215D01*
X167349030Y-138217874D01*
X167349028Y-138217873D01*
X167344997Y-138213966D01*
X167159285Y-138089172D01*
X167099807Y-138063063D01*
X167059190Y-138045233D01*
X167020741Y-138018955D01*
X166565812Y-137564026D01*
X166551868Y-137556412D01*
X166550035Y-137556543D01*
X166543420Y-137560794D01*
X166091217Y-138012998D01*
X166059912Y-138035868D01*
X165878665Y-138129418D01*
X165701155Y-138265625D01*
X165697387Y-138269766D01*
X165697383Y-138269770D01*
X165685058Y-138283315D01*
X165646749Y-138325417D01*
X165586110Y-138362339D01*
X165515134Y-138360616D01*
X165465871Y-138331101D01*
X165349030Y-138217874D01*
X165349028Y-138217873D01*
X165344997Y-138213966D01*
X165159285Y-138089172D01*
X165099807Y-138063063D01*
X165059190Y-138045233D01*
X165020741Y-138018955D01*
X164565812Y-137564026D01*
X164551868Y-137556412D01*
X164550035Y-137556543D01*
X164543420Y-137560794D01*
X164091217Y-138012998D01*
X164059912Y-138035868D01*
X163878665Y-138129418D01*
X163701155Y-138265625D01*
X163697387Y-138269766D01*
X163697383Y-138269770D01*
X163685058Y-138283315D01*
X163646749Y-138325417D01*
X163586110Y-138362339D01*
X163515134Y-138360616D01*
X163465871Y-138331101D01*
X163349030Y-138217874D01*
X163349028Y-138217873D01*
X163344997Y-138213966D01*
X163159285Y-138089172D01*
X163099807Y-138063063D01*
X163059190Y-138045233D01*
X163020741Y-138018955D01*
X162565812Y-137564026D01*
X162551868Y-137556412D01*
X162550035Y-137556543D01*
X162543420Y-137560794D01*
X162091217Y-138012998D01*
X162059912Y-138035868D01*
X161878665Y-138129418D01*
X161701155Y-138265625D01*
X161697387Y-138269766D01*
X161697383Y-138269770D01*
X161685058Y-138283315D01*
X161646749Y-138325417D01*
X161586110Y-138362339D01*
X161515134Y-138360616D01*
X161465871Y-138331101D01*
X161349030Y-138217874D01*
X161349028Y-138217873D01*
X161344997Y-138213966D01*
X161159285Y-138089172D01*
X161099807Y-138063063D01*
X161059190Y-138045233D01*
X161020741Y-138018955D01*
X160565812Y-137564026D01*
X160551868Y-137556412D01*
X160550035Y-137556543D01*
X160543420Y-137560794D01*
X160091217Y-138012998D01*
X160059912Y-138035868D01*
X159878665Y-138129418D01*
X159701155Y-138265625D01*
X159697387Y-138269766D01*
X159697383Y-138269770D01*
X159685058Y-138283315D01*
X159646749Y-138325417D01*
X159586110Y-138362339D01*
X159515134Y-138360616D01*
X159465871Y-138331101D01*
X159349030Y-138217874D01*
X159349028Y-138217873D01*
X159344997Y-138213966D01*
X159159285Y-138089172D01*
X159099807Y-138063063D01*
X159059190Y-138045233D01*
X159020741Y-138018955D01*
X158565812Y-137564026D01*
X158551868Y-137556412D01*
X158550035Y-137556543D01*
X158543420Y-137560794D01*
X158091217Y-138012998D01*
X158059912Y-138035868D01*
X157878665Y-138129418D01*
X157701155Y-138265625D01*
X157697387Y-138269766D01*
X157697383Y-138269770D01*
X157685058Y-138283315D01*
X157646749Y-138325417D01*
X157586110Y-138362339D01*
X157515134Y-138360616D01*
X157465871Y-138331101D01*
X157349030Y-138217874D01*
X157349028Y-138217873D01*
X157344997Y-138213966D01*
X157159285Y-138089172D01*
X157099807Y-138063063D01*
X157059190Y-138045233D01*
X157020741Y-138018955D01*
X156565812Y-137564026D01*
X156551868Y-137556412D01*
X156550035Y-137556543D01*
X156543420Y-137560794D01*
X156091217Y-138012998D01*
X156059912Y-138035868D01*
X155878665Y-138129418D01*
X155701155Y-138265625D01*
X155697387Y-138269766D01*
X155697383Y-138269770D01*
X155685058Y-138283315D01*
X155646749Y-138325417D01*
X155586110Y-138362339D01*
X155515134Y-138360616D01*
X155465871Y-138331101D01*
X155349030Y-138217874D01*
X155349028Y-138217873D01*
X155344997Y-138213966D01*
X155159285Y-138089172D01*
X155099807Y-138063063D01*
X155059190Y-138045233D01*
X155020741Y-138018955D01*
X154565812Y-137564026D01*
X154551868Y-137556412D01*
X154550035Y-137556543D01*
X154543420Y-137560794D01*
X154091217Y-138012998D01*
X154059912Y-138035868D01*
X153878665Y-138129418D01*
X153701155Y-138265625D01*
X153697387Y-138269766D01*
X153697383Y-138269770D01*
X153685058Y-138283315D01*
X153646749Y-138325417D01*
X153586110Y-138362339D01*
X153515134Y-138360616D01*
X153465871Y-138331101D01*
X153349030Y-138217874D01*
X153349028Y-138217873D01*
X153344997Y-138213966D01*
X153159285Y-138089172D01*
X153099807Y-138063063D01*
X153059190Y-138045233D01*
X153020741Y-138018955D01*
X152565812Y-137564026D01*
X152551868Y-137556412D01*
X152550035Y-137556543D01*
X152543420Y-137560794D01*
X152091217Y-138012998D01*
X152059912Y-138035868D01*
X151878665Y-138129418D01*
X151701155Y-138265625D01*
X151646752Y-138325413D01*
X151586113Y-138362334D01*
X151515138Y-138360611D01*
X151465877Y-138331097D01*
X151357127Y-138225711D01*
X151349040Y-138217874D01*
X151349038Y-138217873D01*
X151345007Y-138213966D01*
X151159295Y-138089172D01*
X151099817Y-138063063D01*
X151059200Y-138045233D01*
X151020751Y-138018955D01*
X150565822Y-137564026D01*
X150551878Y-137556412D01*
X150550045Y-137556543D01*
X150543430Y-137560794D01*
X150091227Y-138012998D01*
X150059922Y-138035868D01*
X149878675Y-138129418D01*
X149701165Y-138265625D01*
X149697397Y-138269766D01*
X149697392Y-138269771D01*
X149646749Y-138325427D01*
X149586109Y-138362349D01*
X149515133Y-138360626D01*
X149465871Y-138331111D01*
X149465855Y-138331095D01*
X149394776Y-138262215D01*
X149349020Y-138217874D01*
X149349018Y-138217873D01*
X149344987Y-138213966D01*
X149159275Y-138089172D01*
X149099797Y-138063063D01*
X149059180Y-138045233D01*
X149020731Y-138018955D01*
X148565802Y-137564026D01*
X148551858Y-137556412D01*
X148550025Y-137556543D01*
X148543410Y-137560794D01*
X148091207Y-138012998D01*
X148059902Y-138035868D01*
X147878655Y-138129418D01*
X147701145Y-138265625D01*
X147697377Y-138269766D01*
X147697373Y-138269770D01*
X147685048Y-138283315D01*
X147646739Y-138325417D01*
X147586100Y-138362339D01*
X147515124Y-138360616D01*
X147465861Y-138331101D01*
X147349020Y-138217874D01*
X147349018Y-138217873D01*
X147344987Y-138213966D01*
X147159275Y-138089172D01*
X147099797Y-138063063D01*
X147059180Y-138045233D01*
X147020731Y-138018955D01*
X146565802Y-137564026D01*
X146551858Y-137556412D01*
X146550025Y-137556543D01*
X146543410Y-137560794D01*
X146091207Y-138012998D01*
X146059902Y-138035868D01*
X145878655Y-138129418D01*
X145701145Y-138265625D01*
X145646742Y-138325413D01*
X145586103Y-138362334D01*
X145515128Y-138360611D01*
X145465867Y-138331097D01*
X145357117Y-138225711D01*
X145349030Y-138217874D01*
X145349028Y-138217873D01*
X145344997Y-138213966D01*
X145159285Y-138089172D01*
X145099807Y-138063063D01*
X145059190Y-138045233D01*
X145020741Y-138018955D01*
X144565812Y-137564026D01*
X144551868Y-137556412D01*
X144550035Y-137556543D01*
X144543420Y-137560794D01*
X144091217Y-138012998D01*
X144059912Y-138035868D01*
X143878665Y-138129418D01*
X143701155Y-138265625D01*
X143697387Y-138269766D01*
X143697383Y-138269770D01*
X143685058Y-138283315D01*
X143646749Y-138325417D01*
X143586110Y-138362339D01*
X143515134Y-138360616D01*
X143465871Y-138331101D01*
X143349030Y-138217874D01*
X143349028Y-138217873D01*
X143344997Y-138213966D01*
X143159285Y-138089172D01*
X143099807Y-138063063D01*
X143059190Y-138045233D01*
X143020741Y-138018955D01*
X142565812Y-137564026D01*
X142551868Y-137556412D01*
X142550035Y-137556543D01*
X142543420Y-137560794D01*
X142091217Y-138012998D01*
X142059912Y-138035868D01*
X141878665Y-138129418D01*
X141701155Y-138265625D01*
X141697387Y-138269766D01*
X141697383Y-138269770D01*
X141685058Y-138283315D01*
X141646749Y-138325417D01*
X141586110Y-138362339D01*
X141515134Y-138360616D01*
X141465871Y-138331101D01*
X141349030Y-138217874D01*
X141349028Y-138217873D01*
X141344997Y-138213966D01*
X141159285Y-138089172D01*
X141099807Y-138063063D01*
X141059190Y-138045233D01*
X141020741Y-138018955D01*
X140565812Y-137564026D01*
X140551868Y-137556412D01*
X140550035Y-137556543D01*
X140543420Y-137560794D01*
X140091217Y-138012998D01*
X140059912Y-138035868D01*
X139878665Y-138129418D01*
X139701155Y-138265625D01*
X139646752Y-138325413D01*
X139586113Y-138362334D01*
X139515138Y-138360611D01*
X139465876Y-138331096D01*
X139416570Y-138283315D01*
X139381571Y-138221544D01*
X139385524Y-138150658D01*
X139421427Y-138097883D01*
X139457118Y-138066748D01*
X139457119Y-138066747D01*
X139461342Y-138063063D01*
X139552733Y-137948987D01*
X139597730Y-137892822D01*
X139597732Y-137892819D01*
X139601237Y-137888444D01*
X139694147Y-137717327D01*
X139705324Y-137696742D01*
X139705325Y-137696740D01*
X139708000Y-137691813D01*
X139708913Y-137689053D01*
X139734734Y-137651060D01*
X140180978Y-137204816D01*
X140187356Y-137193136D01*
X140917408Y-137193136D01*
X140917539Y-137194970D01*
X140921790Y-137201584D01*
X141540192Y-137819985D01*
X141554130Y-137827596D01*
X141555966Y-137827464D01*
X141562578Y-137823215D01*
X142180979Y-137204815D01*
X142187356Y-137193136D01*
X142917408Y-137193136D01*
X142917539Y-137194970D01*
X142921790Y-137201584D01*
X143540192Y-137819985D01*
X143554130Y-137827596D01*
X143555966Y-137827464D01*
X143562578Y-137823215D01*
X144180979Y-137204815D01*
X144187356Y-137193136D01*
X144917408Y-137193136D01*
X144917539Y-137194970D01*
X144921790Y-137201584D01*
X145540187Y-137819980D01*
X145554125Y-137827591D01*
X145555961Y-137827459D01*
X145562573Y-137823210D01*
X146180969Y-137204815D01*
X146187346Y-137193136D01*
X146917398Y-137193136D01*
X146917529Y-137194970D01*
X146921780Y-137201584D01*
X147540182Y-137819985D01*
X147554120Y-137827596D01*
X147555956Y-137827464D01*
X147562568Y-137823215D01*
X148180969Y-137204815D01*
X148187346Y-137193136D01*
X148917398Y-137193136D01*
X148917529Y-137194970D01*
X148921780Y-137201584D01*
X149540192Y-137819995D01*
X149554130Y-137827606D01*
X149555966Y-137827474D01*
X149562578Y-137823225D01*
X150180989Y-137204815D01*
X150187366Y-137193136D01*
X150917418Y-137193136D01*
X150917549Y-137194970D01*
X150921800Y-137201584D01*
X151540197Y-137819980D01*
X151554135Y-137827591D01*
X151555971Y-137827459D01*
X151562583Y-137823210D01*
X152180979Y-137204815D01*
X152187356Y-137193136D01*
X152917408Y-137193136D01*
X152917539Y-137194970D01*
X152921790Y-137201584D01*
X153540192Y-137819985D01*
X153554130Y-137827596D01*
X153555966Y-137827464D01*
X153562578Y-137823215D01*
X154180979Y-137204815D01*
X154187356Y-137193136D01*
X154917408Y-137193136D01*
X154917539Y-137194970D01*
X154921790Y-137201584D01*
X155540192Y-137819985D01*
X155554130Y-137827596D01*
X155555966Y-137827464D01*
X155562578Y-137823215D01*
X156180979Y-137204815D01*
X156187356Y-137193136D01*
X156917408Y-137193136D01*
X156917539Y-137194970D01*
X156921790Y-137201584D01*
X157540192Y-137819985D01*
X157554130Y-137827596D01*
X157555966Y-137827464D01*
X157562578Y-137823215D01*
X158180979Y-137204815D01*
X158187356Y-137193136D01*
X158917408Y-137193136D01*
X158917539Y-137194970D01*
X158921790Y-137201584D01*
X159540192Y-137819985D01*
X159554130Y-137827596D01*
X159555966Y-137827464D01*
X159562578Y-137823215D01*
X160180979Y-137204815D01*
X160187356Y-137193136D01*
X160917408Y-137193136D01*
X160917539Y-137194970D01*
X160921790Y-137201584D01*
X161540192Y-137819985D01*
X161554130Y-137827596D01*
X161555966Y-137827464D01*
X161562578Y-137823215D01*
X162180979Y-137204815D01*
X162187356Y-137193136D01*
X162917408Y-137193136D01*
X162917539Y-137194970D01*
X162921790Y-137201584D01*
X163540192Y-137819985D01*
X163554130Y-137827596D01*
X163555966Y-137827464D01*
X163562578Y-137823215D01*
X164180979Y-137204815D01*
X164187356Y-137193136D01*
X164917408Y-137193136D01*
X164917539Y-137194970D01*
X164921790Y-137201584D01*
X165540192Y-137819985D01*
X165554130Y-137827596D01*
X165555966Y-137827464D01*
X165562578Y-137823215D01*
X166180979Y-137204815D01*
X166187356Y-137193136D01*
X166917408Y-137193136D01*
X166917539Y-137194970D01*
X166921790Y-137201584D01*
X167590665Y-137870458D01*
X167603040Y-137877215D01*
X167609305Y-137872526D01*
X167664423Y-137771009D01*
X174101728Y-137771009D01*
X174104183Y-137777973D01*
X175463751Y-139137541D01*
X175476131Y-139144301D01*
X175482865Y-139139260D01*
X175529374Y-139057389D01*
X175534370Y-139046167D01*
X175592878Y-138870285D01*
X175595599Y-138858307D01*
X175619162Y-138671789D01*
X175619654Y-138664760D01*
X175619951Y-138643505D01*
X175619658Y-138636512D01*
X175601309Y-138449374D01*
X175598926Y-138437339D01*
X175545346Y-138259876D01*
X175540673Y-138248538D01*
X175501044Y-138174007D01*
X175486724Y-138104469D01*
X175512272Y-138038229D01*
X175557457Y-138001413D01*
X175603489Y-137979161D01*
X175603496Y-137979157D01*
X175609240Y-137976380D01*
X175614309Y-137972504D01*
X175614313Y-137972502D01*
X175740586Y-137875958D01*
X175763138Y-137858716D01*
X175890233Y-137712510D01*
X175895096Y-137703880D01*
X175982203Y-137549292D01*
X175982204Y-137549290D01*
X175985334Y-137543735D01*
X176044554Y-137359283D01*
X176056043Y-137253533D01*
X183603075Y-137253533D01*
X183641366Y-137443436D01*
X183643859Y-137449310D01*
X183643860Y-137449312D01*
X183688784Y-137555147D01*
X183717060Y-137621761D01*
X183720679Y-137627006D01*
X183720680Y-137627009D01*
X183769906Y-137698365D01*
X183827066Y-137781223D01*
X183966888Y-137915308D01*
X183972284Y-137918706D01*
X184117524Y-138010169D01*
X184164508Y-138063394D01*
X184175258Y-138133572D01*
X184160796Y-138177490D01*
X184128882Y-138235542D01*
X184124054Y-138246806D01*
X184067998Y-138423516D01*
X184065450Y-138435503D01*
X184044786Y-138619731D01*
X184044615Y-138632000D01*
X184060126Y-138816725D01*
X184062341Y-138828790D01*
X184113436Y-139006983D01*
X184117955Y-139018394D01*
X184178057Y-139135339D01*
X184187776Y-139145558D01*
X184194576Y-139143214D01*
X184696658Y-138641132D01*
X185421408Y-138641132D01*
X185421539Y-138642965D01*
X185425790Y-138649580D01*
X185913751Y-139137541D01*
X185926131Y-139144301D01*
X185932865Y-139139260D01*
X185979374Y-139057389D01*
X185984370Y-139046167D01*
X186042878Y-138870285D01*
X186045599Y-138858307D01*
X186069162Y-138671789D01*
X186069654Y-138664760D01*
X186069951Y-138643505D01*
X186069658Y-138636512D01*
X186069216Y-138632000D01*
X191374615Y-138632000D01*
X191390126Y-138816725D01*
X191392341Y-138828790D01*
X191443436Y-139006983D01*
X191447955Y-139018394D01*
X191508057Y-139135339D01*
X191517776Y-139145558D01*
X191524576Y-139143214D01*
X192014978Y-138652812D01*
X192022592Y-138638868D01*
X192022461Y-138637035D01*
X192018210Y-138630420D01*
X191530030Y-138142240D01*
X191517650Y-138135480D01*
X191511262Y-138140262D01*
X191458882Y-138235542D01*
X191454054Y-138246806D01*
X191397998Y-138423516D01*
X191395450Y-138435503D01*
X191374786Y-138619731D01*
X191374615Y-138632000D01*
X186069216Y-138632000D01*
X186051309Y-138449374D01*
X186048926Y-138437339D01*
X185995346Y-138259877D01*
X185990673Y-138248537D01*
X185935652Y-138145057D01*
X185925793Y-138134976D01*
X185918665Y-138137545D01*
X185429022Y-138627188D01*
X185421408Y-138641132D01*
X184696658Y-138641132D01*
X185554924Y-137782866D01*
X185561398Y-137771009D01*
X191881728Y-137771009D01*
X191884183Y-137777973D01*
X193243751Y-139137541D01*
X193256131Y-139144301D01*
X193262865Y-139139260D01*
X193309374Y-139057389D01*
X193314370Y-139046167D01*
X193372878Y-138870285D01*
X193375599Y-138858307D01*
X193399162Y-138671789D01*
X193399654Y-138664760D01*
X193399951Y-138643505D01*
X193399658Y-138636512D01*
X193381309Y-138449374D01*
X193378926Y-138437339D01*
X193325346Y-138259876D01*
X193320673Y-138248538D01*
X193281044Y-138174007D01*
X193266724Y-138104469D01*
X193292272Y-138038229D01*
X193337457Y-138001413D01*
X193383489Y-137979161D01*
X193383496Y-137979157D01*
X193389240Y-137976380D01*
X193394309Y-137972504D01*
X193394313Y-137972502D01*
X193520586Y-137875958D01*
X193543138Y-137858716D01*
X193670233Y-137712510D01*
X193675096Y-137703880D01*
X193762203Y-137549292D01*
X193762204Y-137549290D01*
X193765334Y-137543735D01*
X193824554Y-137359283D01*
X193836043Y-137253533D01*
X201383075Y-137253533D01*
X201421366Y-137443436D01*
X201423859Y-137449310D01*
X201423860Y-137449312D01*
X201468784Y-137555147D01*
X201497060Y-137621761D01*
X201500679Y-137627006D01*
X201500680Y-137627009D01*
X201549906Y-137698365D01*
X201607066Y-137781223D01*
X201746888Y-137915308D01*
X201752284Y-137918706D01*
X201897524Y-138010169D01*
X201944508Y-138063394D01*
X201955258Y-138133572D01*
X201940796Y-138177490D01*
X201908882Y-138235542D01*
X201904054Y-138246806D01*
X201847998Y-138423516D01*
X201845450Y-138435503D01*
X201824786Y-138619731D01*
X201824615Y-138632000D01*
X201840126Y-138816725D01*
X201842341Y-138828790D01*
X201893436Y-139006983D01*
X201897955Y-139018394D01*
X201958057Y-139135339D01*
X201967776Y-139145558D01*
X201974576Y-139143214D01*
X202476658Y-138641132D01*
X203201408Y-138641132D01*
X203201539Y-138642965D01*
X203205790Y-138649580D01*
X203693751Y-139137541D01*
X203706131Y-139144301D01*
X203712865Y-139139260D01*
X203759374Y-139057389D01*
X203764370Y-139046167D01*
X203822878Y-138870285D01*
X203825599Y-138858307D01*
X203849162Y-138671789D01*
X203849654Y-138664760D01*
X203849951Y-138643505D01*
X203849658Y-138636512D01*
X203831309Y-138449374D01*
X203828926Y-138437339D01*
X203775346Y-138259877D01*
X203770673Y-138248537D01*
X203715652Y-138145057D01*
X203705793Y-138134976D01*
X203698665Y-138137545D01*
X203209022Y-138627188D01*
X203201408Y-138641132D01*
X202476658Y-138641132D01*
X203334924Y-137782866D01*
X203341684Y-137770486D01*
X203337026Y-137764264D01*
X203261295Y-137723316D01*
X203210886Y-137673321D01*
X203195509Y-137604010D01*
X203210050Y-137555324D01*
X203209645Y-137555147D01*
X203211094Y-137551831D01*
X203211456Y-137550618D01*
X203212202Y-137549295D01*
X203212205Y-137549288D01*
X203215334Y-137543735D01*
X203274554Y-137359283D01*
X203295477Y-137166692D01*
X203295500Y-137160000D01*
X203294093Y-137146142D01*
X203276568Y-136973616D01*
X203276568Y-136973615D01*
X203275923Y-136967267D01*
X203217991Y-136782407D01*
X203124072Y-136612971D01*
X202998000Y-136465881D01*
X202966596Y-136441521D01*
X202877234Y-136372205D01*
X202844928Y-136347146D01*
X202839205Y-136344330D01*
X202839202Y-136344328D01*
X202676833Y-136264433D01*
X202671106Y-136261615D01*
X202664928Y-136260006D01*
X202664926Y-136260005D01*
X202489819Y-136214393D01*
X202489816Y-136214393D01*
X202483637Y-136212783D01*
X202392914Y-136208028D01*
X202296558Y-136202978D01*
X202296554Y-136202978D01*
X202290177Y-136202644D01*
X202098631Y-136231613D01*
X201916821Y-136298506D01*
X201911405Y-136301864D01*
X201911401Y-136301866D01*
X201834498Y-136349548D01*
X201752176Y-136400590D01*
X201747545Y-136404969D01*
X201747544Y-136404970D01*
X201678011Y-136470724D01*
X201611420Y-136533696D01*
X201607758Y-136538926D01*
X201607757Y-136538927D01*
X201506506Y-136683529D01*
X201500304Y-136692387D01*
X201423367Y-136870178D01*
X201422062Y-136876425D01*
X201386353Y-137047356D01*
X201383751Y-137059809D01*
X201383075Y-137253533D01*
X193836043Y-137253533D01*
X193845477Y-137166692D01*
X193845500Y-137160000D01*
X193844093Y-137146142D01*
X193826568Y-136973616D01*
X193826568Y-136973615D01*
X193825923Y-136967267D01*
X193767991Y-136782407D01*
X193674072Y-136612971D01*
X193548000Y-136465881D01*
X193516596Y-136441521D01*
X193427234Y-136372205D01*
X193394928Y-136347146D01*
X193389205Y-136344330D01*
X193389202Y-136344328D01*
X193226833Y-136264433D01*
X193221106Y-136261615D01*
X193214928Y-136260006D01*
X193214926Y-136260005D01*
X193039819Y-136214393D01*
X193039816Y-136214393D01*
X193033637Y-136212783D01*
X192942914Y-136208028D01*
X192846558Y-136202978D01*
X192846554Y-136202978D01*
X192840177Y-136202644D01*
X192648631Y-136231613D01*
X192466821Y-136298506D01*
X192461405Y-136301864D01*
X192461401Y-136301866D01*
X192384498Y-136349548D01*
X192302176Y-136400590D01*
X192297545Y-136404969D01*
X192297544Y-136404970D01*
X192228011Y-136470724D01*
X192161420Y-136533696D01*
X192157758Y-136538926D01*
X192157757Y-136538927D01*
X192056506Y-136683529D01*
X192050304Y-136692387D01*
X191973367Y-136870178D01*
X191972062Y-136876425D01*
X191936353Y-137047356D01*
X191933751Y-137059809D01*
X191933075Y-137253533D01*
X191971366Y-137443436D01*
X191973859Y-137449310D01*
X191973860Y-137449312D01*
X192021894Y-137562474D01*
X192030098Y-137632995D01*
X191998874Y-137696757D01*
X191964285Y-137723368D01*
X191891877Y-137761222D01*
X191881728Y-137771009D01*
X185561398Y-137771009D01*
X185561684Y-137770486D01*
X185557026Y-137764264D01*
X185481295Y-137723316D01*
X185430886Y-137673321D01*
X185415509Y-137604010D01*
X185430050Y-137555324D01*
X185429645Y-137555147D01*
X185431094Y-137551831D01*
X185431456Y-137550618D01*
X185432202Y-137549295D01*
X185432205Y-137549288D01*
X185435334Y-137543735D01*
X185494554Y-137359283D01*
X185515477Y-137166692D01*
X185515500Y-137160000D01*
X185514093Y-137146142D01*
X185496568Y-136973616D01*
X185496568Y-136973615D01*
X185495923Y-136967267D01*
X185437991Y-136782407D01*
X185344072Y-136612971D01*
X185218000Y-136465881D01*
X185186596Y-136441521D01*
X185097234Y-136372205D01*
X185064928Y-136347146D01*
X185059205Y-136344330D01*
X185059202Y-136344328D01*
X184896833Y-136264433D01*
X184891106Y-136261615D01*
X184884928Y-136260006D01*
X184884926Y-136260005D01*
X184709819Y-136214393D01*
X184709816Y-136214393D01*
X184703637Y-136212783D01*
X184612914Y-136208028D01*
X184516558Y-136202978D01*
X184516554Y-136202978D01*
X184510177Y-136202644D01*
X184318631Y-136231613D01*
X184136821Y-136298506D01*
X184131405Y-136301864D01*
X184131401Y-136301866D01*
X184054498Y-136349548D01*
X183972176Y-136400590D01*
X183967545Y-136404969D01*
X183967544Y-136404970D01*
X183898011Y-136470724D01*
X183831420Y-136533696D01*
X183827758Y-136538926D01*
X183827757Y-136538927D01*
X183726506Y-136683529D01*
X183720304Y-136692387D01*
X183643367Y-136870178D01*
X183642062Y-136876425D01*
X183606353Y-137047356D01*
X183603751Y-137059809D01*
X183603075Y-137253533D01*
X176056043Y-137253533D01*
X176065477Y-137166692D01*
X176065500Y-137160000D01*
X176064093Y-137146142D01*
X176046568Y-136973616D01*
X176046568Y-136973615D01*
X176045923Y-136967267D01*
X175987991Y-136782407D01*
X175894072Y-136612971D01*
X175768000Y-136465881D01*
X175736596Y-136441521D01*
X175647234Y-136372205D01*
X175614928Y-136347146D01*
X175609205Y-136344330D01*
X175609202Y-136344328D01*
X175446833Y-136264433D01*
X175441106Y-136261615D01*
X175434928Y-136260006D01*
X175434926Y-136260005D01*
X175259819Y-136214393D01*
X175259816Y-136214393D01*
X175253637Y-136212783D01*
X175162914Y-136208028D01*
X175066558Y-136202978D01*
X175066554Y-136202978D01*
X175060177Y-136202644D01*
X174868631Y-136231613D01*
X174686821Y-136298506D01*
X174681405Y-136301864D01*
X174681401Y-136301866D01*
X174604498Y-136349548D01*
X174522176Y-136400590D01*
X174517545Y-136404969D01*
X174517544Y-136404970D01*
X174448011Y-136470724D01*
X174381420Y-136533696D01*
X174377758Y-136538926D01*
X174377757Y-136538927D01*
X174276506Y-136683529D01*
X174270304Y-136692387D01*
X174193367Y-136870178D01*
X174192062Y-136876425D01*
X174156353Y-137047356D01*
X174153751Y-137059809D01*
X174153075Y-137253533D01*
X174191366Y-137443436D01*
X174193859Y-137449310D01*
X174193860Y-137449312D01*
X174241894Y-137562474D01*
X174250098Y-137632995D01*
X174218874Y-137696757D01*
X174184285Y-137723368D01*
X174111877Y-137761222D01*
X174101728Y-137771009D01*
X167664423Y-137771009D01*
X167704856Y-137696540D01*
X167709290Y-137686294D01*
X167775997Y-137484590D01*
X167778547Y-137473717D01*
X167808760Y-137261433D01*
X167809366Y-137254217D01*
X167810900Y-137195635D01*
X167810672Y-137188383D01*
X167791612Y-136974827D01*
X167789630Y-136963813D01*
X167733576Y-136758913D01*
X167729682Y-136748440D01*
X167638222Y-136556691D01*
X167632538Y-136547080D01*
X167611581Y-136517916D01*
X167600790Y-136509505D01*
X167587757Y-136516458D01*
X166925021Y-137179193D01*
X166917408Y-137193136D01*
X166187356Y-137193136D01*
X166188592Y-137190872D01*
X166188461Y-137189038D01*
X166184210Y-137182424D01*
X165565808Y-136564023D01*
X165551870Y-136556412D01*
X165550034Y-136556544D01*
X165543422Y-136560793D01*
X164925021Y-137179193D01*
X164917408Y-137193136D01*
X164187356Y-137193136D01*
X164188592Y-137190872D01*
X164188461Y-137189038D01*
X164184210Y-137182424D01*
X163565808Y-136564023D01*
X163551870Y-136556412D01*
X163550034Y-136556544D01*
X163543422Y-136560793D01*
X162925021Y-137179193D01*
X162917408Y-137193136D01*
X162187356Y-137193136D01*
X162188592Y-137190872D01*
X162188461Y-137189038D01*
X162184210Y-137182424D01*
X161565808Y-136564023D01*
X161551870Y-136556412D01*
X161550034Y-136556544D01*
X161543422Y-136560793D01*
X160925021Y-137179193D01*
X160917408Y-137193136D01*
X160187356Y-137193136D01*
X160188592Y-137190872D01*
X160188461Y-137189038D01*
X160184210Y-137182424D01*
X159565808Y-136564023D01*
X159551870Y-136556412D01*
X159550034Y-136556544D01*
X159543422Y-136560793D01*
X158925021Y-137179193D01*
X158917408Y-137193136D01*
X158187356Y-137193136D01*
X158188592Y-137190872D01*
X158188461Y-137189038D01*
X158184210Y-137182424D01*
X157565808Y-136564023D01*
X157551870Y-136556412D01*
X157550034Y-136556544D01*
X157543422Y-136560793D01*
X156925021Y-137179193D01*
X156917408Y-137193136D01*
X156187356Y-137193136D01*
X156188592Y-137190872D01*
X156188461Y-137189038D01*
X156184210Y-137182424D01*
X155565808Y-136564023D01*
X155551870Y-136556412D01*
X155550034Y-136556544D01*
X155543422Y-136560793D01*
X154925021Y-137179193D01*
X154917408Y-137193136D01*
X154187356Y-137193136D01*
X154188592Y-137190872D01*
X154188461Y-137189038D01*
X154184210Y-137182424D01*
X153565808Y-136564023D01*
X153551870Y-136556412D01*
X153550034Y-136556544D01*
X153543422Y-136560793D01*
X152925021Y-137179193D01*
X152917408Y-137193136D01*
X152187356Y-137193136D01*
X152188592Y-137190872D01*
X152188461Y-137189038D01*
X152184210Y-137182424D01*
X151565813Y-136564028D01*
X151551875Y-136556417D01*
X151550039Y-136556549D01*
X151543427Y-136560798D01*
X150925031Y-137179193D01*
X150917418Y-137193136D01*
X150187366Y-137193136D01*
X150188602Y-137190872D01*
X150188471Y-137189038D01*
X150184220Y-137182424D01*
X149565808Y-136564013D01*
X149551870Y-136556402D01*
X149550034Y-136556534D01*
X149543422Y-136560783D01*
X148925011Y-137179193D01*
X148917398Y-137193136D01*
X148187346Y-137193136D01*
X148188582Y-137190872D01*
X148188451Y-137189038D01*
X148184200Y-137182424D01*
X147565798Y-136564023D01*
X147551860Y-136556412D01*
X147550024Y-136556544D01*
X147543412Y-136560793D01*
X146925011Y-137179193D01*
X146917398Y-137193136D01*
X146187346Y-137193136D01*
X146188582Y-137190872D01*
X146188451Y-137189038D01*
X146184200Y-137182424D01*
X145565803Y-136564028D01*
X145551865Y-136556417D01*
X145550029Y-136556549D01*
X145543417Y-136560798D01*
X144925021Y-137179193D01*
X144917408Y-137193136D01*
X144187356Y-137193136D01*
X144188592Y-137190872D01*
X144188461Y-137189038D01*
X144184210Y-137182424D01*
X143565808Y-136564023D01*
X143551870Y-136556412D01*
X143550034Y-136556544D01*
X143543422Y-136560793D01*
X142925021Y-137179193D01*
X142917408Y-137193136D01*
X142187356Y-137193136D01*
X142188592Y-137190872D01*
X142188461Y-137189038D01*
X142184210Y-137182424D01*
X141565808Y-136564023D01*
X141551870Y-136556412D01*
X141550034Y-136556544D01*
X141543422Y-136560793D01*
X140925021Y-137179193D01*
X140917408Y-137193136D01*
X140187356Y-137193136D01*
X140188592Y-137190872D01*
X140188461Y-137189039D01*
X140184210Y-137182424D01*
X139727331Y-136725546D01*
X139702700Y-136690694D01*
X139699283Y-136683529D01*
X139638784Y-136556691D01*
X139638667Y-136556445D01*
X139638666Y-136556444D01*
X139636250Y-136551378D01*
X139612205Y-136517916D01*
X139508961Y-136374237D01*
X139508959Y-136374235D01*
X139505684Y-136369677D01*
X139373920Y-136241989D01*
X139349040Y-136217878D01*
X139349038Y-136217877D01*
X139345007Y-136213970D01*
X139239317Y-136142949D01*
X139868499Y-136142949D01*
X139875130Y-136154923D01*
X140540189Y-136819983D01*
X140554132Y-136827596D01*
X140555966Y-136827465D01*
X140562580Y-136823214D01*
X141228255Y-136157538D01*
X141234476Y-136146145D01*
X141231954Y-136142949D01*
X141868499Y-136142949D01*
X141875130Y-136154923D01*
X142540189Y-136819983D01*
X142554132Y-136827596D01*
X142555966Y-136827465D01*
X142562580Y-136823214D01*
X143228255Y-136157538D01*
X143234476Y-136146145D01*
X143231954Y-136142949D01*
X143868499Y-136142949D01*
X143875130Y-136154923D01*
X144540189Y-136819983D01*
X144554132Y-136827596D01*
X144555966Y-136827465D01*
X144562580Y-136823214D01*
X145228255Y-136157538D01*
X145234476Y-136146145D01*
X145231954Y-136142949D01*
X145868489Y-136142949D01*
X145875120Y-136154923D01*
X146540179Y-136819983D01*
X146554122Y-136827596D01*
X146555956Y-136827465D01*
X146562570Y-136823214D01*
X147228245Y-136157538D01*
X147234466Y-136146145D01*
X147231944Y-136142949D01*
X147868489Y-136142949D01*
X147875120Y-136154923D01*
X148540179Y-136819983D01*
X148554122Y-136827596D01*
X148555956Y-136827465D01*
X148562570Y-136823214D01*
X149228245Y-136157538D01*
X149234466Y-136146145D01*
X149231944Y-136142949D01*
X149868509Y-136142949D01*
X149875140Y-136154923D01*
X150540199Y-136819983D01*
X150554142Y-136827596D01*
X150555976Y-136827465D01*
X150562590Y-136823214D01*
X151228265Y-136157538D01*
X151234486Y-136146145D01*
X151231964Y-136142949D01*
X151868499Y-136142949D01*
X151875130Y-136154923D01*
X152540189Y-136819983D01*
X152554132Y-136827596D01*
X152555966Y-136827465D01*
X152562580Y-136823214D01*
X153228255Y-136157538D01*
X153234476Y-136146145D01*
X153231954Y-136142949D01*
X153868499Y-136142949D01*
X153875130Y-136154923D01*
X154540189Y-136819983D01*
X154554132Y-136827596D01*
X154555966Y-136827465D01*
X154562580Y-136823214D01*
X155228255Y-136157538D01*
X155234476Y-136146145D01*
X155231954Y-136142949D01*
X155868499Y-136142949D01*
X155875130Y-136154923D01*
X156540189Y-136819983D01*
X156554132Y-136827596D01*
X156555966Y-136827465D01*
X156562580Y-136823214D01*
X157228255Y-136157538D01*
X157234476Y-136146145D01*
X157231954Y-136142949D01*
X157868499Y-136142949D01*
X157875130Y-136154923D01*
X158540189Y-136819983D01*
X158554132Y-136827596D01*
X158555966Y-136827465D01*
X158562580Y-136823214D01*
X159228255Y-136157538D01*
X159234476Y-136146145D01*
X159231954Y-136142949D01*
X159868499Y-136142949D01*
X159875130Y-136154923D01*
X160540189Y-136819983D01*
X160554132Y-136827596D01*
X160555966Y-136827465D01*
X160562580Y-136823214D01*
X161228255Y-136157538D01*
X161234476Y-136146145D01*
X161231954Y-136142949D01*
X161868499Y-136142949D01*
X161875130Y-136154923D01*
X162540189Y-136819983D01*
X162554132Y-136827596D01*
X162555966Y-136827465D01*
X162562580Y-136823214D01*
X163228255Y-136157538D01*
X163234476Y-136146145D01*
X163231954Y-136142949D01*
X163868499Y-136142949D01*
X163875130Y-136154923D01*
X164540189Y-136819983D01*
X164554132Y-136827596D01*
X164555966Y-136827465D01*
X164562580Y-136823214D01*
X165228255Y-136157538D01*
X165234476Y-136146145D01*
X165231954Y-136142949D01*
X165868499Y-136142949D01*
X165875130Y-136154923D01*
X166540189Y-136819983D01*
X166554132Y-136827596D01*
X166555966Y-136827465D01*
X166562580Y-136823214D01*
X167228255Y-136157538D01*
X167234476Y-136146145D01*
X167224664Y-136133710D01*
X167163704Y-136092746D01*
X167153904Y-136087359D01*
X166959391Y-136001973D01*
X166948792Y-135998406D01*
X166742229Y-135948814D01*
X166731167Y-135947181D01*
X166519092Y-135934953D01*
X166507908Y-135935305D01*
X166297020Y-135960825D01*
X166286086Y-135963149D01*
X166083039Y-136025614D01*
X166072695Y-136029835D01*
X165883919Y-136127271D01*
X165876516Y-136131969D01*
X165868499Y-136142949D01*
X165231954Y-136142949D01*
X165224664Y-136133710D01*
X165163704Y-136092746D01*
X165153904Y-136087359D01*
X164959391Y-136001973D01*
X164948792Y-135998406D01*
X164742229Y-135948814D01*
X164731167Y-135947181D01*
X164519092Y-135934953D01*
X164507908Y-135935305D01*
X164297020Y-135960825D01*
X164286086Y-135963149D01*
X164083039Y-136025614D01*
X164072695Y-136029835D01*
X163883919Y-136127271D01*
X163876516Y-136131969D01*
X163868499Y-136142949D01*
X163231954Y-136142949D01*
X163224664Y-136133710D01*
X163163704Y-136092746D01*
X163153904Y-136087359D01*
X162959391Y-136001973D01*
X162948792Y-135998406D01*
X162742229Y-135948814D01*
X162731167Y-135947181D01*
X162519092Y-135934953D01*
X162507908Y-135935305D01*
X162297020Y-135960825D01*
X162286086Y-135963149D01*
X162083039Y-136025614D01*
X162072695Y-136029835D01*
X161883919Y-136127271D01*
X161876516Y-136131969D01*
X161868499Y-136142949D01*
X161231954Y-136142949D01*
X161224664Y-136133710D01*
X161163704Y-136092746D01*
X161153904Y-136087359D01*
X160959391Y-136001973D01*
X160948792Y-135998406D01*
X160742229Y-135948814D01*
X160731167Y-135947181D01*
X160519092Y-135934953D01*
X160507908Y-135935305D01*
X160297020Y-135960825D01*
X160286086Y-135963149D01*
X160083039Y-136025614D01*
X160072695Y-136029835D01*
X159883919Y-136127271D01*
X159876516Y-136131969D01*
X159868499Y-136142949D01*
X159231954Y-136142949D01*
X159224664Y-136133710D01*
X159163704Y-136092746D01*
X159153904Y-136087359D01*
X158959391Y-136001973D01*
X158948792Y-135998406D01*
X158742229Y-135948814D01*
X158731167Y-135947181D01*
X158519092Y-135934953D01*
X158507908Y-135935305D01*
X158297020Y-135960825D01*
X158286086Y-135963149D01*
X158083039Y-136025614D01*
X158072695Y-136029835D01*
X157883919Y-136127271D01*
X157876516Y-136131969D01*
X157868499Y-136142949D01*
X157231954Y-136142949D01*
X157224664Y-136133710D01*
X157163704Y-136092746D01*
X157153904Y-136087359D01*
X156959391Y-136001973D01*
X156948792Y-135998406D01*
X156742229Y-135948814D01*
X156731167Y-135947181D01*
X156519092Y-135934953D01*
X156507908Y-135935305D01*
X156297020Y-135960825D01*
X156286086Y-135963149D01*
X156083039Y-136025614D01*
X156072695Y-136029835D01*
X155883919Y-136127271D01*
X155876516Y-136131969D01*
X155868499Y-136142949D01*
X155231954Y-136142949D01*
X155224664Y-136133710D01*
X155163704Y-136092746D01*
X155153904Y-136087359D01*
X154959391Y-136001973D01*
X154948792Y-135998406D01*
X154742229Y-135948814D01*
X154731167Y-135947181D01*
X154519092Y-135934953D01*
X154507908Y-135935305D01*
X154297020Y-135960825D01*
X154286086Y-135963149D01*
X154083039Y-136025614D01*
X154072695Y-136029835D01*
X153883919Y-136127271D01*
X153876516Y-136131969D01*
X153868499Y-136142949D01*
X153231954Y-136142949D01*
X153224664Y-136133710D01*
X153163704Y-136092746D01*
X153153904Y-136087359D01*
X152959391Y-136001973D01*
X152948792Y-135998406D01*
X152742229Y-135948814D01*
X152731167Y-135947181D01*
X152519092Y-135934953D01*
X152507908Y-135935305D01*
X152297020Y-135960825D01*
X152286086Y-135963149D01*
X152083039Y-136025614D01*
X152072695Y-136029835D01*
X151883919Y-136127271D01*
X151876516Y-136131969D01*
X151868499Y-136142949D01*
X151231964Y-136142949D01*
X151224674Y-136133710D01*
X151163714Y-136092746D01*
X151153914Y-136087359D01*
X150959401Y-136001973D01*
X150948802Y-135998406D01*
X150742239Y-135948814D01*
X150731177Y-135947181D01*
X150519102Y-135934953D01*
X150507918Y-135935305D01*
X150297030Y-135960825D01*
X150286096Y-135963149D01*
X150083049Y-136025614D01*
X150072705Y-136029835D01*
X149883929Y-136127271D01*
X149876526Y-136131969D01*
X149868509Y-136142949D01*
X149231944Y-136142949D01*
X149224654Y-136133710D01*
X149163694Y-136092746D01*
X149153894Y-136087359D01*
X148959381Y-136001973D01*
X148948782Y-135998406D01*
X148742219Y-135948814D01*
X148731157Y-135947181D01*
X148519082Y-135934953D01*
X148507898Y-135935305D01*
X148297010Y-135960825D01*
X148286076Y-135963149D01*
X148083029Y-136025614D01*
X148072685Y-136029835D01*
X147883909Y-136127271D01*
X147876506Y-136131969D01*
X147868489Y-136142949D01*
X147231944Y-136142949D01*
X147224654Y-136133710D01*
X147163694Y-136092746D01*
X147153894Y-136087359D01*
X146959381Y-136001973D01*
X146948782Y-135998406D01*
X146742219Y-135948814D01*
X146731157Y-135947181D01*
X146519082Y-135934953D01*
X146507898Y-135935305D01*
X146297010Y-135960825D01*
X146286076Y-135963149D01*
X146083029Y-136025614D01*
X146072685Y-136029835D01*
X145883909Y-136127271D01*
X145876506Y-136131969D01*
X145868489Y-136142949D01*
X145231954Y-136142949D01*
X145224664Y-136133710D01*
X145163704Y-136092746D01*
X145153904Y-136087359D01*
X144959391Y-136001973D01*
X144948792Y-135998406D01*
X144742229Y-135948814D01*
X144731167Y-135947181D01*
X144519092Y-135934953D01*
X144507908Y-135935305D01*
X144297020Y-135960825D01*
X144286086Y-135963149D01*
X144083039Y-136025614D01*
X144072695Y-136029835D01*
X143883919Y-136127271D01*
X143876516Y-136131969D01*
X143868499Y-136142949D01*
X143231954Y-136142949D01*
X143224664Y-136133710D01*
X143163704Y-136092746D01*
X143153904Y-136087359D01*
X142959391Y-136001973D01*
X142948792Y-135998406D01*
X142742229Y-135948814D01*
X142731167Y-135947181D01*
X142519092Y-135934953D01*
X142507908Y-135935305D01*
X142297020Y-135960825D01*
X142286086Y-135963149D01*
X142083039Y-136025614D01*
X142072695Y-136029835D01*
X141883919Y-136127271D01*
X141876516Y-136131969D01*
X141868499Y-136142949D01*
X141231954Y-136142949D01*
X141224664Y-136133710D01*
X141163704Y-136092746D01*
X141153904Y-136087359D01*
X140959391Y-136001973D01*
X140948792Y-135998406D01*
X140742229Y-135948814D01*
X140731167Y-135947181D01*
X140519092Y-135934953D01*
X140507908Y-135935305D01*
X140297020Y-135960825D01*
X140286086Y-135963149D01*
X140083039Y-136025614D01*
X140072695Y-136029835D01*
X139883919Y-136127271D01*
X139876516Y-136131969D01*
X139868499Y-136142949D01*
X139239317Y-136142949D01*
X139159295Y-136089176D01*
X139160092Y-136087990D01*
X139114846Y-136042477D01*
X139099610Y-135982417D01*
X139099610Y-130203589D01*
X139119612Y-130135468D01*
X139136515Y-130114494D01*
X142237272Y-127013737D01*
X142241080Y-127010084D01*
X142277697Y-126976413D01*
X142277698Y-126976412D01*
X142284015Y-126970603D01*
X142306762Y-126933916D01*
X142313466Y-126924161D01*
X142339561Y-126889782D01*
X142345024Y-126875985D01*
X142355086Y-126855979D01*
X142358383Y-126850661D01*
X142358384Y-126850659D01*
X142362912Y-126843356D01*
X142374950Y-126801920D01*
X142378796Y-126790687D01*
X142391516Y-126758561D01*
X142394678Y-126750575D01*
X142396230Y-126735808D01*
X142400541Y-126713837D01*
X142404683Y-126699579D01*
X142405600Y-126687091D01*
X142405600Y-126653264D01*
X142406290Y-126640093D01*
X142409430Y-126610216D01*
X142410328Y-126601674D01*
X142408896Y-126593209D01*
X142408896Y-126593199D01*
X142407365Y-126584150D01*
X142405600Y-126563137D01*
X142405600Y-104614000D01*
X150608500Y-104614000D01*
X150608500Y-106714000D01*
X150613727Y-106787079D01*
X150636229Y-106863714D01*
X150646059Y-106897191D01*
X150654904Y-106927316D01*
X150670658Y-106951830D01*
X150729051Y-107042691D01*
X150729053Y-107042694D01*
X150733923Y-107050271D01*
X150740733Y-107056172D01*
X150837569Y-107140082D01*
X150837572Y-107140084D01*
X150844381Y-107145984D01*
X150852579Y-107149728D01*
X150944518Y-107191715D01*
X150977330Y-107206700D01*
X150986245Y-107207982D01*
X150986246Y-107207982D01*
X151117552Y-107226861D01*
X151117559Y-107226862D01*
X151122000Y-107227500D01*
X153222000Y-107227500D01*
X153295079Y-107222273D01*
X153401494Y-107191027D01*
X153426670Y-107183635D01*
X153426672Y-107183634D01*
X153435316Y-107181096D01*
X153499135Y-107140082D01*
X153550691Y-107106949D01*
X153550694Y-107106947D01*
X153558271Y-107102077D01*
X153575668Y-107082000D01*
X153648082Y-106998431D01*
X153648084Y-106998428D01*
X153653984Y-106991619D01*
X153665560Y-106966272D01*
X153710958Y-106866864D01*
X153710958Y-106866863D01*
X153714700Y-106858670D01*
X153726993Y-106773170D01*
X153734861Y-106718448D01*
X153734862Y-106718441D01*
X153735500Y-106714000D01*
X153735500Y-105773064D01*
X155612309Y-105773064D01*
X155613066Y-105778067D01*
X155613066Y-105778072D01*
X155628533Y-105880346D01*
X155649809Y-106021027D01*
X155651355Y-106025844D01*
X155651356Y-106025846D01*
X155724923Y-106254980D01*
X155726472Y-106259804D01*
X155840325Y-106483252D01*
X155843310Y-106487331D01*
X155843311Y-106487332D01*
X155905642Y-106572496D01*
X155988438Y-106685623D01*
X156024682Y-106721364D01*
X156158100Y-106852931D01*
X156167002Y-106861710D01*
X156371421Y-107006984D01*
X156375959Y-107009217D01*
X156375964Y-107009220D01*
X156509381Y-107074869D01*
X156596437Y-107117706D01*
X156601283Y-107119187D01*
X156601284Y-107119188D01*
X156831413Y-107189545D01*
X156831415Y-107189545D01*
X156836261Y-107191027D01*
X156841282Y-107191715D01*
X156841283Y-107191715D01*
X157067881Y-107222755D01*
X157084723Y-107225062D01*
X157155902Y-107223322D01*
X157330369Y-107219059D01*
X157330373Y-107219059D01*
X157335430Y-107218935D01*
X157581933Y-107172803D01*
X157672820Y-107140082D01*
X157730855Y-107119188D01*
X157817889Y-107087854D01*
X157841315Y-107074869D01*
X157925446Y-107028234D01*
X158037228Y-106966272D01*
X158041206Y-106963142D01*
X158041210Y-106963139D01*
X158230330Y-106814316D01*
X158230331Y-106814315D01*
X158234306Y-106811187D01*
X158261314Y-106781816D01*
X158400632Y-106630310D01*
X158400635Y-106630306D01*
X158404055Y-106626587D01*
X158497539Y-106484810D01*
X158539316Y-106421452D01*
X158539319Y-106421447D01*
X158542105Y-106417222D01*
X158544181Y-106412603D01*
X158642833Y-106193095D01*
X158642835Y-106193089D01*
X158644907Y-106188479D01*
X158646215Y-106183598D01*
X158646217Y-106183592D01*
X158708506Y-105951124D01*
X158708506Y-105951123D01*
X158709814Y-105946242D01*
X158727405Y-105773064D01*
X160612309Y-105773064D01*
X160613066Y-105778067D01*
X160613066Y-105778072D01*
X160628533Y-105880346D01*
X160649809Y-106021027D01*
X160651355Y-106025844D01*
X160651356Y-106025846D01*
X160724923Y-106254980D01*
X160726472Y-106259804D01*
X160840325Y-106483252D01*
X160843310Y-106487331D01*
X160843311Y-106487332D01*
X160905642Y-106572496D01*
X160988438Y-106685623D01*
X161024682Y-106721364D01*
X161158100Y-106852931D01*
X161167002Y-106861710D01*
X161371421Y-107006984D01*
X161375959Y-107009217D01*
X161375964Y-107009220D01*
X161509381Y-107074869D01*
X161596437Y-107117706D01*
X161601283Y-107119187D01*
X161601284Y-107119188D01*
X161831413Y-107189545D01*
X161831415Y-107189545D01*
X161836261Y-107191027D01*
X161841282Y-107191715D01*
X161841283Y-107191715D01*
X162067881Y-107222755D01*
X162084723Y-107225062D01*
X162155902Y-107223322D01*
X162330369Y-107219059D01*
X162330373Y-107219059D01*
X162335430Y-107218935D01*
X162581933Y-107172803D01*
X162672820Y-107140082D01*
X162730855Y-107119188D01*
X162817889Y-107087854D01*
X162841315Y-107074869D01*
X162925446Y-107028234D01*
X163037228Y-106966272D01*
X163041206Y-106963142D01*
X163041210Y-106963139D01*
X163230330Y-106814316D01*
X163230331Y-106814315D01*
X163234306Y-106811187D01*
X163261314Y-106781816D01*
X163400632Y-106630310D01*
X163400635Y-106630306D01*
X163404055Y-106626587D01*
X163497539Y-106484810D01*
X163539316Y-106421452D01*
X163539319Y-106421447D01*
X163542105Y-106417222D01*
X163544181Y-106412603D01*
X163642833Y-106193095D01*
X163642835Y-106193089D01*
X163644907Y-106188479D01*
X163646215Y-106183598D01*
X163646217Y-106183592D01*
X163708506Y-105951124D01*
X163708506Y-105951123D01*
X163709814Y-105946242D01*
X163727405Y-105773064D01*
X165612309Y-105773064D01*
X165613066Y-105778067D01*
X165613066Y-105778072D01*
X165628533Y-105880346D01*
X165649809Y-106021027D01*
X165651355Y-106025844D01*
X165651356Y-106025846D01*
X165724923Y-106254980D01*
X165726472Y-106259804D01*
X165840325Y-106483252D01*
X165843310Y-106487331D01*
X165843311Y-106487332D01*
X165905642Y-106572496D01*
X165988438Y-106685623D01*
X166024682Y-106721364D01*
X166158100Y-106852931D01*
X166167002Y-106861710D01*
X166371421Y-107006984D01*
X166375959Y-107009217D01*
X166375964Y-107009220D01*
X166509381Y-107074869D01*
X166596437Y-107117706D01*
X166601283Y-107119187D01*
X166601284Y-107119188D01*
X166831413Y-107189545D01*
X166831415Y-107189545D01*
X166836261Y-107191027D01*
X166841282Y-107191715D01*
X166841283Y-107191715D01*
X167067881Y-107222755D01*
X167084723Y-107225062D01*
X167155902Y-107223322D01*
X167330369Y-107219059D01*
X167330373Y-107219059D01*
X167335430Y-107218935D01*
X167581933Y-107172803D01*
X167672820Y-107140082D01*
X167730855Y-107119188D01*
X167817889Y-107087854D01*
X167841315Y-107074869D01*
X167925446Y-107028234D01*
X168037228Y-106966272D01*
X168041206Y-106963142D01*
X168041210Y-106963139D01*
X168230330Y-106814316D01*
X168230331Y-106814315D01*
X168234306Y-106811187D01*
X168261314Y-106781816D01*
X168400632Y-106630310D01*
X168400635Y-106630306D01*
X168404055Y-106626587D01*
X168497539Y-106484810D01*
X168539316Y-106421452D01*
X168539319Y-106421447D01*
X168542105Y-106417222D01*
X168544181Y-106412603D01*
X168642833Y-106193095D01*
X168642835Y-106193089D01*
X168644907Y-106188479D01*
X168646215Y-106183598D01*
X168646217Y-106183592D01*
X168708506Y-105951124D01*
X168708506Y-105951123D01*
X168709814Y-105946242D01*
X168727405Y-105773064D01*
X170612309Y-105773064D01*
X170613066Y-105778067D01*
X170613066Y-105778072D01*
X170628533Y-105880346D01*
X170649809Y-106021027D01*
X170651355Y-106025844D01*
X170651356Y-106025846D01*
X170724923Y-106254980D01*
X170726472Y-106259804D01*
X170840325Y-106483252D01*
X170843310Y-106487331D01*
X170843311Y-106487332D01*
X170905642Y-106572496D01*
X170988438Y-106685623D01*
X171024682Y-106721364D01*
X171158100Y-106852931D01*
X171167002Y-106861710D01*
X171371421Y-107006984D01*
X171555033Y-107097332D01*
X171607321Y-107145353D01*
X171625400Y-107210385D01*
X171625400Y-112089388D01*
X171625289Y-112094663D01*
X171622848Y-112152910D01*
X171632704Y-112194933D01*
X171634864Y-112206589D01*
X171640720Y-112249336D01*
X171644131Y-112257218D01*
X171646613Y-112262954D01*
X171653647Y-112284224D01*
X171657037Y-112298676D01*
X171661177Y-112306206D01*
X171677823Y-112336486D01*
X171683044Y-112347143D01*
X171700181Y-112386744D01*
X171705586Y-112393418D01*
X171705586Y-112393419D01*
X171709524Y-112398282D01*
X171722012Y-112416866D01*
X171729166Y-112429878D01*
X171737348Y-112439357D01*
X171761266Y-112463275D01*
X171770091Y-112473076D01*
X171788998Y-112496424D01*
X171789001Y-112496427D01*
X171794404Y-112503099D01*
X171808895Y-112513397D01*
X171824995Y-112527004D01*
X172579263Y-113281272D01*
X172582915Y-113285079D01*
X172622397Y-113328015D01*
X172629692Y-113332538D01*
X172629693Y-113332539D01*
X172659069Y-113350753D01*
X172668851Y-113357476D01*
X172703217Y-113383561D01*
X172717023Y-113389027D01*
X172737028Y-113399090D01*
X172742340Y-113402384D01*
X172742343Y-113402385D01*
X172749644Y-113406912D01*
X172757892Y-113409308D01*
X172757896Y-113409310D01*
X172791076Y-113418949D01*
X172802309Y-113422795D01*
X172834435Y-113435515D01*
X172834438Y-113435516D01*
X172842425Y-113438678D01*
X172850964Y-113439576D01*
X172850974Y-113439578D01*
X172857189Y-113440231D01*
X172879165Y-113444542D01*
X172887079Y-113446841D01*
X172887082Y-113446842D01*
X172893421Y-113448683D01*
X172905909Y-113449600D01*
X172939743Y-113449600D01*
X172952912Y-113450290D01*
X172967125Y-113451784D01*
X172991326Y-113454327D01*
X172999793Y-113452895D01*
X172999794Y-113452895D01*
X173008845Y-113451364D01*
X173029857Y-113449600D01*
X178664561Y-113449600D01*
X178732682Y-113469602D01*
X178758196Y-113491289D01*
X178839749Y-113581863D01*
X178845091Y-113585744D01*
X178845093Y-113585746D01*
X178988908Y-113690233D01*
X178994250Y-113694114D01*
X179000278Y-113696798D01*
X179000280Y-113696799D01*
X179162682Y-113769105D01*
X179168713Y-113771790D01*
X179262113Y-113791643D01*
X179349056Y-113810124D01*
X179349061Y-113810124D01*
X179355513Y-113811496D01*
X179546487Y-113811496D01*
X179552939Y-113810124D01*
X179552944Y-113810124D01*
X179639887Y-113791643D01*
X179733287Y-113771790D01*
X179739318Y-113769105D01*
X179901720Y-113696799D01*
X179901722Y-113696798D01*
X179907750Y-113694114D01*
X179913092Y-113690233D01*
X180056907Y-113585746D01*
X180056909Y-113585744D01*
X180062251Y-113581863D01*
X180190037Y-113439942D01*
X180279447Y-113285080D01*
X180282220Y-113280277D01*
X180282221Y-113280276D01*
X180285524Y-113274554D01*
X180344538Y-113092927D01*
X180350280Y-113038300D01*
X180363810Y-112909565D01*
X180364500Y-112903000D01*
X180350384Y-112768690D01*
X180345228Y-112719637D01*
X180345228Y-112719636D01*
X180344538Y-112713073D01*
X180325292Y-112653838D01*
X180287566Y-112537731D01*
X180285524Y-112531446D01*
X180190037Y-112366058D01*
X180121833Y-112290309D01*
X180066673Y-112229048D01*
X180066672Y-112229047D01*
X180062251Y-112224137D01*
X180056909Y-112220256D01*
X180056907Y-112220254D01*
X179913092Y-112115767D01*
X179913091Y-112115766D01*
X179907750Y-112111886D01*
X179901722Y-112109202D01*
X179901720Y-112109201D01*
X179739318Y-112036895D01*
X179739317Y-112036895D01*
X179733287Y-112034210D01*
X179639887Y-112014357D01*
X179552944Y-111995876D01*
X179552939Y-111995876D01*
X179546487Y-111994504D01*
X179355513Y-111994504D01*
X179349061Y-111995876D01*
X179349056Y-111995876D01*
X179262113Y-112014357D01*
X179168713Y-112034210D01*
X179162683Y-112036895D01*
X179162682Y-112036895D01*
X179000280Y-112109201D01*
X179000278Y-112109202D01*
X178994250Y-112111886D01*
X178988909Y-112115766D01*
X178988908Y-112115767D01*
X178845093Y-112220254D01*
X178845091Y-112220256D01*
X178839749Y-112224137D01*
X178785647Y-112284224D01*
X178758197Y-112314710D01*
X178697751Y-112351950D01*
X178664561Y-112356400D01*
X173252599Y-112356400D01*
X173184478Y-112336398D01*
X173163504Y-112319495D01*
X172755505Y-111911496D01*
X172721479Y-111849184D01*
X172718600Y-111822401D01*
X172718600Y-107212155D01*
X172738602Y-107144034D01*
X172792258Y-107097541D01*
X172801916Y-107093605D01*
X172806963Y-107091788D01*
X172817889Y-107087854D01*
X172841315Y-107074869D01*
X172925446Y-107028234D01*
X173037228Y-106966272D01*
X173041206Y-106963142D01*
X173041210Y-106963139D01*
X173230330Y-106814316D01*
X173230331Y-106814315D01*
X173234306Y-106811187D01*
X173261314Y-106781816D01*
X173400632Y-106630310D01*
X173400635Y-106630306D01*
X173404055Y-106626587D01*
X173497539Y-106484810D01*
X173539316Y-106421452D01*
X173539319Y-106421447D01*
X173542105Y-106417222D01*
X173544181Y-106412603D01*
X173642833Y-106193095D01*
X173642835Y-106193089D01*
X173644907Y-106188479D01*
X173646215Y-106183598D01*
X173646217Y-106183592D01*
X173708506Y-105951124D01*
X173708506Y-105951123D01*
X173709814Y-105946242D01*
X173727405Y-105773064D01*
X175612309Y-105773064D01*
X175613066Y-105778067D01*
X175613066Y-105778072D01*
X175628533Y-105880346D01*
X175649809Y-106021027D01*
X175651355Y-106025844D01*
X175651356Y-106025846D01*
X175724923Y-106254980D01*
X175726472Y-106259804D01*
X175840325Y-106483252D01*
X175843310Y-106487331D01*
X175843311Y-106487332D01*
X175905642Y-106572496D01*
X175988438Y-106685623D01*
X176024682Y-106721364D01*
X176158100Y-106852931D01*
X176167002Y-106861710D01*
X176371421Y-107006984D01*
X176375959Y-107009217D01*
X176375964Y-107009220D01*
X176509381Y-107074869D01*
X176596437Y-107117706D01*
X176601283Y-107119187D01*
X176601284Y-107119188D01*
X176831413Y-107189545D01*
X176831415Y-107189545D01*
X176836261Y-107191027D01*
X176841282Y-107191715D01*
X176841283Y-107191715D01*
X177067881Y-107222755D01*
X177084723Y-107225062D01*
X177155902Y-107223322D01*
X177330369Y-107219059D01*
X177330373Y-107219059D01*
X177335430Y-107218935D01*
X177581933Y-107172803D01*
X177672820Y-107140082D01*
X177730855Y-107119188D01*
X177817889Y-107087854D01*
X177841315Y-107074869D01*
X177925446Y-107028234D01*
X178037228Y-106966272D01*
X178041206Y-106963142D01*
X178041210Y-106963139D01*
X178230330Y-106814316D01*
X178230331Y-106814315D01*
X178234306Y-106811187D01*
X178261314Y-106781816D01*
X178400632Y-106630310D01*
X178400635Y-106630306D01*
X178404055Y-106626587D01*
X178497539Y-106484810D01*
X178539316Y-106421452D01*
X178539319Y-106421447D01*
X178542105Y-106417222D01*
X178544181Y-106412603D01*
X178642833Y-106193095D01*
X178642835Y-106193089D01*
X178644907Y-106188479D01*
X178646215Y-106183598D01*
X178646217Y-106183592D01*
X178708506Y-105951124D01*
X178708506Y-105951123D01*
X178709814Y-105946242D01*
X178727405Y-105773064D01*
X180612309Y-105773064D01*
X180613066Y-105778067D01*
X180613066Y-105778072D01*
X180628533Y-105880346D01*
X180649809Y-106021027D01*
X180651355Y-106025844D01*
X180651356Y-106025846D01*
X180724923Y-106254980D01*
X180726472Y-106259804D01*
X180840325Y-106483252D01*
X180843310Y-106487331D01*
X180843311Y-106487332D01*
X180905642Y-106572496D01*
X180988438Y-106685623D01*
X181024682Y-106721364D01*
X181158100Y-106852931D01*
X181167002Y-106861710D01*
X181371421Y-107006984D01*
X181375959Y-107009217D01*
X181375964Y-107009220D01*
X181509381Y-107074869D01*
X181596437Y-107117706D01*
X181601283Y-107119187D01*
X181601284Y-107119188D01*
X181831413Y-107189545D01*
X181831415Y-107189545D01*
X181836261Y-107191027D01*
X181841282Y-107191715D01*
X181841283Y-107191715D01*
X182067881Y-107222755D01*
X182084723Y-107225062D01*
X182155902Y-107223322D01*
X182330369Y-107219059D01*
X182330373Y-107219059D01*
X182335430Y-107218935D01*
X182581933Y-107172803D01*
X182672820Y-107140082D01*
X182730855Y-107119188D01*
X182817889Y-107087854D01*
X182841315Y-107074869D01*
X182925446Y-107028234D01*
X183037228Y-106966272D01*
X183041206Y-106963142D01*
X183041210Y-106963139D01*
X183230330Y-106814316D01*
X183230331Y-106814315D01*
X183234306Y-106811187D01*
X183261314Y-106781816D01*
X183400632Y-106630310D01*
X183400635Y-106630306D01*
X183404055Y-106626587D01*
X183497539Y-106484810D01*
X183539316Y-106421452D01*
X183539319Y-106421447D01*
X183542105Y-106417222D01*
X183544181Y-106412603D01*
X183642833Y-106193095D01*
X183642835Y-106193089D01*
X183644907Y-106188479D01*
X183646215Y-106183598D01*
X183646217Y-106183592D01*
X183708506Y-105951124D01*
X183708506Y-105951123D01*
X183709814Y-105946242D01*
X183727405Y-105773064D01*
X185612309Y-105773064D01*
X185613066Y-105778067D01*
X185613066Y-105778072D01*
X185628533Y-105880346D01*
X185649809Y-106021027D01*
X185651355Y-106025844D01*
X185651356Y-106025846D01*
X185724923Y-106254980D01*
X185726472Y-106259804D01*
X185840325Y-106483252D01*
X185843310Y-106487331D01*
X185843311Y-106487332D01*
X185905642Y-106572496D01*
X185988438Y-106685623D01*
X186024682Y-106721364D01*
X186158100Y-106852931D01*
X186167002Y-106861710D01*
X186371421Y-107006984D01*
X186375959Y-107009217D01*
X186375964Y-107009220D01*
X186509381Y-107074869D01*
X186596437Y-107117706D01*
X186601283Y-107119187D01*
X186601284Y-107119188D01*
X186831413Y-107189545D01*
X186831415Y-107189545D01*
X186836261Y-107191027D01*
X186841282Y-107191715D01*
X186841283Y-107191715D01*
X187067881Y-107222755D01*
X187084723Y-107225062D01*
X187155902Y-107223322D01*
X187330369Y-107219059D01*
X187330373Y-107219059D01*
X187335430Y-107218935D01*
X187581933Y-107172803D01*
X187672820Y-107140082D01*
X187730855Y-107119188D01*
X187817889Y-107087854D01*
X187841315Y-107074869D01*
X187925446Y-107028234D01*
X188037228Y-106966272D01*
X188041206Y-106963142D01*
X188041210Y-106963139D01*
X188230330Y-106814316D01*
X188230331Y-106814315D01*
X188234306Y-106811187D01*
X188261314Y-106781816D01*
X188400632Y-106630310D01*
X188400635Y-106630306D01*
X188404055Y-106626587D01*
X188542105Y-106417222D01*
X188601551Y-106284949D01*
X188647720Y-106231014D01*
X188716478Y-106210600D01*
X199492561Y-106210600D01*
X199560682Y-106230602D01*
X199586196Y-106252289D01*
X199607502Y-106275952D01*
X199659093Y-106333249D01*
X199667749Y-106342863D01*
X199673091Y-106346744D01*
X199673093Y-106346746D01*
X199770096Y-106417222D01*
X199822250Y-106455114D01*
X199828278Y-106457798D01*
X199828280Y-106457799D01*
X199990682Y-106530105D01*
X199996713Y-106532790D01*
X200090113Y-106552643D01*
X200177056Y-106571124D01*
X200177061Y-106571124D01*
X200183513Y-106572496D01*
X200374487Y-106572496D01*
X200380939Y-106571124D01*
X200380944Y-106571124D01*
X200467887Y-106552643D01*
X200561287Y-106532790D01*
X200567318Y-106530105D01*
X200729720Y-106457799D01*
X200729722Y-106457798D01*
X200735750Y-106455114D01*
X200787904Y-106417222D01*
X200884907Y-106346746D01*
X200884909Y-106346744D01*
X200890251Y-106342863D01*
X200894853Y-106337752D01*
X201013618Y-106205850D01*
X201013619Y-106205849D01*
X201018037Y-106200942D01*
X201113524Y-106035554D01*
X201142543Y-105946242D01*
X201170498Y-105860206D01*
X201170498Y-105860205D01*
X201172538Y-105853927D01*
X201192500Y-105664000D01*
X201177508Y-105521357D01*
X201173228Y-105480637D01*
X201173228Y-105480636D01*
X201172538Y-105474073D01*
X201113524Y-105292446D01*
X201103552Y-105275173D01*
X201021338Y-105132776D01*
X201018037Y-105127058D01*
X200926129Y-105024983D01*
X200894673Y-104990048D01*
X200894672Y-104990047D01*
X200890251Y-104985137D01*
X200884909Y-104981256D01*
X200884907Y-104981254D01*
X200741092Y-104876767D01*
X200741091Y-104876766D01*
X200735750Y-104872886D01*
X200729722Y-104870202D01*
X200729720Y-104870201D01*
X200567318Y-104797895D01*
X200567317Y-104797895D01*
X200561287Y-104795210D01*
X200467887Y-104775357D01*
X200380944Y-104756876D01*
X200380939Y-104756876D01*
X200374487Y-104755504D01*
X200183513Y-104755504D01*
X200177061Y-104756876D01*
X200177056Y-104756876D01*
X200090113Y-104775357D01*
X199996713Y-104795210D01*
X199990683Y-104797895D01*
X199990682Y-104797895D01*
X199828280Y-104870201D01*
X199828278Y-104870202D01*
X199822250Y-104872886D01*
X199816909Y-104876766D01*
X199816908Y-104876767D01*
X199673093Y-104981254D01*
X199673091Y-104981256D01*
X199667749Y-104985137D01*
X199663328Y-104990047D01*
X199663327Y-104990048D01*
X199586197Y-105075710D01*
X199525751Y-105112950D01*
X199492561Y-105117400D01*
X188716433Y-105117400D01*
X188648312Y-105097398D01*
X188600449Y-105040632D01*
X188559555Y-104944292D01*
X188559555Y-104944291D01*
X188557579Y-104939637D01*
X188423943Y-104727427D01*
X188258098Y-104539312D01*
X188064311Y-104380133D01*
X187847566Y-104253985D01*
X187699589Y-104197182D01*
X187618165Y-104165926D01*
X187618161Y-104165925D01*
X187613441Y-104164113D01*
X187608491Y-104163079D01*
X187608488Y-104163078D01*
X187372910Y-104113863D01*
X187372906Y-104113863D01*
X187367959Y-104112829D01*
X187117435Y-104101452D01*
X187112415Y-104102033D01*
X187112411Y-104102033D01*
X187021088Y-104112600D01*
X186868315Y-104130277D01*
X186863441Y-104131656D01*
X186863437Y-104131657D01*
X186631877Y-104197182D01*
X186631875Y-104197183D01*
X186627008Y-104198560D01*
X186622433Y-104200694D01*
X186622426Y-104200696D01*
X186469884Y-104271828D01*
X186399722Y-104304545D01*
X186395542Y-104307386D01*
X186395538Y-104307388D01*
X186307773Y-104367033D01*
X186192305Y-104445505D01*
X186167637Y-104468832D01*
X186016506Y-104611750D01*
X186010093Y-104617814D01*
X186007015Y-104621840D01*
X186007014Y-104621841D01*
X185860847Y-104813019D01*
X185860844Y-104813023D01*
X185857774Y-104817039D01*
X185739267Y-105038054D01*
X185657620Y-105275173D01*
X185614935Y-105522296D01*
X185612309Y-105773064D01*
X183727405Y-105773064D01*
X183735157Y-105696743D01*
X183735500Y-105664000D01*
X183734972Y-105657435D01*
X183715794Y-105419067D01*
X183715793Y-105419062D01*
X183715388Y-105414026D01*
X183707487Y-105381856D01*
X183656775Y-105175396D01*
X183656774Y-105175393D01*
X183655568Y-105170483D01*
X183557579Y-104939637D01*
X183554881Y-104935352D01*
X183554878Y-104935347D01*
X183477530Y-104812521D01*
X183423943Y-104727427D01*
X183258098Y-104539312D01*
X183064311Y-104380133D01*
X182847566Y-104253985D01*
X182699589Y-104197182D01*
X182618165Y-104165926D01*
X182618161Y-104165925D01*
X182613441Y-104164113D01*
X182608491Y-104163079D01*
X182608488Y-104163078D01*
X182372910Y-104113863D01*
X182372906Y-104113863D01*
X182367959Y-104112829D01*
X182117435Y-104101452D01*
X182112415Y-104102033D01*
X182112411Y-104102033D01*
X182021088Y-104112600D01*
X181868315Y-104130277D01*
X181863441Y-104131656D01*
X181863437Y-104131657D01*
X181631877Y-104197182D01*
X181631875Y-104197183D01*
X181627008Y-104198560D01*
X181622433Y-104200694D01*
X181622426Y-104200696D01*
X181469884Y-104271828D01*
X181399722Y-104304545D01*
X181395542Y-104307386D01*
X181395538Y-104307388D01*
X181307773Y-104367033D01*
X181192305Y-104445505D01*
X181167637Y-104468832D01*
X181016506Y-104611750D01*
X181010093Y-104617814D01*
X181007015Y-104621840D01*
X181007014Y-104621841D01*
X180860847Y-104813019D01*
X180860844Y-104813023D01*
X180857774Y-104817039D01*
X180739267Y-105038054D01*
X180657620Y-105275173D01*
X180614935Y-105522296D01*
X180612309Y-105773064D01*
X178727405Y-105773064D01*
X178735157Y-105696743D01*
X178735500Y-105664000D01*
X178734972Y-105657435D01*
X178715794Y-105419067D01*
X178715793Y-105419062D01*
X178715388Y-105414026D01*
X178707487Y-105381856D01*
X178656775Y-105175396D01*
X178656774Y-105175393D01*
X178655568Y-105170483D01*
X178557579Y-104939637D01*
X178554881Y-104935352D01*
X178554878Y-104935347D01*
X178477530Y-104812521D01*
X178423943Y-104727427D01*
X178258098Y-104539312D01*
X178064311Y-104380133D01*
X177847566Y-104253985D01*
X177699589Y-104197182D01*
X177618165Y-104165926D01*
X177618161Y-104165925D01*
X177613441Y-104164113D01*
X177608491Y-104163079D01*
X177608488Y-104163078D01*
X177372910Y-104113863D01*
X177372906Y-104113863D01*
X177367959Y-104112829D01*
X177117435Y-104101452D01*
X177112415Y-104102033D01*
X177112411Y-104102033D01*
X177021088Y-104112600D01*
X176868315Y-104130277D01*
X176863441Y-104131656D01*
X176863437Y-104131657D01*
X176631877Y-104197182D01*
X176631875Y-104197183D01*
X176627008Y-104198560D01*
X176622433Y-104200694D01*
X176622426Y-104200696D01*
X176469884Y-104271828D01*
X176399722Y-104304545D01*
X176395542Y-104307386D01*
X176395538Y-104307388D01*
X176307773Y-104367033D01*
X176192305Y-104445505D01*
X176167637Y-104468832D01*
X176016506Y-104611750D01*
X176010093Y-104617814D01*
X176007015Y-104621840D01*
X176007014Y-104621841D01*
X175860847Y-104813019D01*
X175860844Y-104813023D01*
X175857774Y-104817039D01*
X175739267Y-105038054D01*
X175657620Y-105275173D01*
X175614935Y-105522296D01*
X175612309Y-105773064D01*
X173727405Y-105773064D01*
X173735157Y-105696743D01*
X173735500Y-105664000D01*
X173734972Y-105657435D01*
X173715794Y-105419067D01*
X173715793Y-105419062D01*
X173715388Y-105414026D01*
X173707487Y-105381856D01*
X173656775Y-105175396D01*
X173656774Y-105175393D01*
X173655568Y-105170483D01*
X173557579Y-104939637D01*
X173554881Y-104935352D01*
X173554878Y-104935347D01*
X173477530Y-104812521D01*
X173423943Y-104727427D01*
X173258098Y-104539312D01*
X173064311Y-104380133D01*
X172847566Y-104253985D01*
X172699589Y-104197182D01*
X172618165Y-104165926D01*
X172618161Y-104165925D01*
X172613441Y-104164113D01*
X172608491Y-104163079D01*
X172608488Y-104163078D01*
X172372910Y-104113863D01*
X172372906Y-104113863D01*
X172367959Y-104112829D01*
X172117435Y-104101452D01*
X172112415Y-104102033D01*
X172112411Y-104102033D01*
X172021088Y-104112600D01*
X171868315Y-104130277D01*
X171863441Y-104131656D01*
X171863437Y-104131657D01*
X171631877Y-104197182D01*
X171631875Y-104197183D01*
X171627008Y-104198560D01*
X171622433Y-104200694D01*
X171622426Y-104200696D01*
X171469884Y-104271828D01*
X171399722Y-104304545D01*
X171395542Y-104307386D01*
X171395538Y-104307388D01*
X171307773Y-104367033D01*
X171192305Y-104445505D01*
X171167637Y-104468832D01*
X171016506Y-104611750D01*
X171010093Y-104617814D01*
X171007015Y-104621840D01*
X171007014Y-104621841D01*
X170860847Y-104813019D01*
X170860844Y-104813023D01*
X170857774Y-104817039D01*
X170739267Y-105038054D01*
X170657620Y-105275173D01*
X170614935Y-105522296D01*
X170612309Y-105773064D01*
X168727405Y-105773064D01*
X168735157Y-105696743D01*
X168735500Y-105664000D01*
X168734972Y-105657435D01*
X168715794Y-105419067D01*
X168715793Y-105419062D01*
X168715388Y-105414026D01*
X168707487Y-105381856D01*
X168656775Y-105175396D01*
X168656774Y-105175393D01*
X168655568Y-105170483D01*
X168557579Y-104939637D01*
X168554881Y-104935352D01*
X168554878Y-104935347D01*
X168477530Y-104812521D01*
X168423943Y-104727427D01*
X168258098Y-104539312D01*
X168064311Y-104380133D01*
X167847566Y-104253985D01*
X167699589Y-104197182D01*
X167618165Y-104165926D01*
X167618161Y-104165925D01*
X167613441Y-104164113D01*
X167608491Y-104163079D01*
X167608488Y-104163078D01*
X167372910Y-104113863D01*
X167372906Y-104113863D01*
X167367959Y-104112829D01*
X167117435Y-104101452D01*
X167112415Y-104102033D01*
X167112411Y-104102033D01*
X167021088Y-104112600D01*
X166868315Y-104130277D01*
X166863441Y-104131656D01*
X166863437Y-104131657D01*
X166631877Y-104197182D01*
X166631875Y-104197183D01*
X166627008Y-104198560D01*
X166622433Y-104200694D01*
X166622426Y-104200696D01*
X166469884Y-104271828D01*
X166399722Y-104304545D01*
X166395542Y-104307386D01*
X166395538Y-104307388D01*
X166307773Y-104367033D01*
X166192305Y-104445505D01*
X166167637Y-104468832D01*
X166016506Y-104611750D01*
X166010093Y-104617814D01*
X166007015Y-104621840D01*
X166007014Y-104621841D01*
X165860847Y-104813019D01*
X165860844Y-104813023D01*
X165857774Y-104817039D01*
X165739267Y-105038054D01*
X165657620Y-105275173D01*
X165614935Y-105522296D01*
X165612309Y-105773064D01*
X163727405Y-105773064D01*
X163735157Y-105696743D01*
X163735500Y-105664000D01*
X163734972Y-105657435D01*
X163715794Y-105419067D01*
X163715793Y-105419062D01*
X163715388Y-105414026D01*
X163707487Y-105381856D01*
X163656775Y-105175396D01*
X163656774Y-105175393D01*
X163655568Y-105170483D01*
X163557579Y-104939637D01*
X163554881Y-104935352D01*
X163554878Y-104935347D01*
X163477530Y-104812521D01*
X163423943Y-104727427D01*
X163258098Y-104539312D01*
X163064311Y-104380133D01*
X162847566Y-104253985D01*
X162699589Y-104197182D01*
X162618165Y-104165926D01*
X162618161Y-104165925D01*
X162613441Y-104164113D01*
X162608491Y-104163079D01*
X162608488Y-104163078D01*
X162372910Y-104113863D01*
X162372906Y-104113863D01*
X162367959Y-104112829D01*
X162117435Y-104101452D01*
X162112415Y-104102033D01*
X162112411Y-104102033D01*
X162021088Y-104112600D01*
X161868315Y-104130277D01*
X161863441Y-104131656D01*
X161863437Y-104131657D01*
X161631877Y-104197182D01*
X161631875Y-104197183D01*
X161627008Y-104198560D01*
X161622433Y-104200694D01*
X161622426Y-104200696D01*
X161469884Y-104271828D01*
X161399722Y-104304545D01*
X161395542Y-104307386D01*
X161395538Y-104307388D01*
X161307773Y-104367033D01*
X161192305Y-104445505D01*
X161167637Y-104468832D01*
X161016506Y-104611750D01*
X161010093Y-104617814D01*
X161007015Y-104621840D01*
X161007014Y-104621841D01*
X160860847Y-104813019D01*
X160860844Y-104813023D01*
X160857774Y-104817039D01*
X160739267Y-105038054D01*
X160657620Y-105275173D01*
X160614935Y-105522296D01*
X160612309Y-105773064D01*
X158727405Y-105773064D01*
X158735157Y-105696743D01*
X158735500Y-105664000D01*
X158734972Y-105657435D01*
X158715794Y-105419067D01*
X158715793Y-105419062D01*
X158715388Y-105414026D01*
X158707487Y-105381856D01*
X158656775Y-105175396D01*
X158656774Y-105175393D01*
X158655568Y-105170483D01*
X158557579Y-104939637D01*
X158554881Y-104935352D01*
X158554878Y-104935347D01*
X158477530Y-104812521D01*
X158423943Y-104727427D01*
X158258098Y-104539312D01*
X158064311Y-104380133D01*
X157847566Y-104253985D01*
X157699589Y-104197182D01*
X157618165Y-104165926D01*
X157618161Y-104165925D01*
X157613441Y-104164113D01*
X157608491Y-104163079D01*
X157608488Y-104163078D01*
X157372910Y-104113863D01*
X157372906Y-104113863D01*
X157367959Y-104112829D01*
X157117435Y-104101452D01*
X157112415Y-104102033D01*
X157112411Y-104102033D01*
X157021088Y-104112600D01*
X156868315Y-104130277D01*
X156863441Y-104131656D01*
X156863437Y-104131657D01*
X156631877Y-104197182D01*
X156631875Y-104197183D01*
X156627008Y-104198560D01*
X156622433Y-104200694D01*
X156622426Y-104200696D01*
X156469884Y-104271828D01*
X156399722Y-104304545D01*
X156395542Y-104307386D01*
X156395538Y-104307388D01*
X156307773Y-104367033D01*
X156192305Y-104445505D01*
X156167637Y-104468832D01*
X156016506Y-104611750D01*
X156010093Y-104617814D01*
X156007015Y-104621840D01*
X156007014Y-104621841D01*
X155860847Y-104813019D01*
X155860844Y-104813023D01*
X155857774Y-104817039D01*
X155739267Y-105038054D01*
X155657620Y-105275173D01*
X155614935Y-105522296D01*
X155612309Y-105773064D01*
X153735500Y-105773064D01*
X153735500Y-104614000D01*
X153730273Y-104540921D01*
X153689096Y-104400684D01*
X153627311Y-104304545D01*
X153614949Y-104285309D01*
X153614947Y-104285306D01*
X153610077Y-104277729D01*
X153580581Y-104252170D01*
X153506431Y-104187918D01*
X153506428Y-104187916D01*
X153499619Y-104182016D01*
X153386327Y-104130277D01*
X153374864Y-104125042D01*
X153374863Y-104125042D01*
X153366670Y-104121300D01*
X153357755Y-104120018D01*
X153357754Y-104120018D01*
X153226448Y-104101139D01*
X153226441Y-104101138D01*
X153222000Y-104100500D01*
X151122000Y-104100500D01*
X151048921Y-104105727D01*
X150995884Y-104121300D01*
X150917330Y-104144365D01*
X150917328Y-104144366D01*
X150908684Y-104146904D01*
X150870528Y-104171426D01*
X150793309Y-104221051D01*
X150793306Y-104221053D01*
X150785729Y-104225923D01*
X150779828Y-104232733D01*
X150695918Y-104329569D01*
X150695916Y-104329572D01*
X150690016Y-104336381D01*
X150686272Y-104344579D01*
X150640181Y-104445505D01*
X150629300Y-104469330D01*
X150628018Y-104478245D01*
X150628018Y-104478246D01*
X150609139Y-104609552D01*
X150609138Y-104609559D01*
X150608500Y-104614000D01*
X142405600Y-104614000D01*
X142405600Y-103389612D01*
X142405711Y-103384336D01*
X142407792Y-103334675D01*
X142408152Y-103326090D01*
X142398296Y-103284067D01*
X142396135Y-103272406D01*
X142391446Y-103238174D01*
X142391446Y-103238173D01*
X142390280Y-103229664D01*
X142384387Y-103216044D01*
X142377353Y-103194776D01*
X142375926Y-103188691D01*
X142375925Y-103188688D01*
X142373963Y-103180324D01*
X142353176Y-103142513D01*
X142347955Y-103131855D01*
X142334230Y-103100139D01*
X142330819Y-103092256D01*
X142321476Y-103080718D01*
X142308988Y-103062134D01*
X142301834Y-103049122D01*
X142293652Y-103039643D01*
X142269734Y-103015725D01*
X142260909Y-103005924D01*
X142242002Y-102982576D01*
X142241999Y-102982573D01*
X142236596Y-102975901D01*
X142222105Y-102965603D01*
X142206005Y-102951996D01*
X139205737Y-99951728D01*
X139202084Y-99947920D01*
X139168413Y-99911303D01*
X139168412Y-99911302D01*
X139162603Y-99904985D01*
X139125916Y-99882238D01*
X139116161Y-99875534D01*
X139081782Y-99849439D01*
X139067985Y-99843976D01*
X139047979Y-99833914D01*
X139042661Y-99830617D01*
X139042659Y-99830616D01*
X139035356Y-99826088D01*
X139027105Y-99823691D01*
X139027103Y-99823690D01*
X138993920Y-99814050D01*
X138982687Y-99810204D01*
X138950561Y-99797484D01*
X138942575Y-99794322D01*
X138927808Y-99792770D01*
X138905837Y-99788459D01*
X138891579Y-99784317D01*
X138879091Y-99783400D01*
X138845264Y-99783400D01*
X138832093Y-99782710D01*
X138793674Y-99778672D01*
X138785209Y-99780104D01*
X138785199Y-99780104D01*
X138776150Y-99781635D01*
X138755137Y-99783400D01*
X114112112Y-99783400D01*
X114106836Y-99783289D01*
X114048590Y-99780848D01*
X114006567Y-99790704D01*
X113994911Y-99792864D01*
X113975861Y-99795474D01*
X113960674Y-99797554D01*
X113960673Y-99797554D01*
X113952164Y-99798720D01*
X113938546Y-99804613D01*
X113917276Y-99811647D01*
X113911191Y-99813074D01*
X113911188Y-99813075D01*
X113902824Y-99815037D01*
X113865014Y-99835823D01*
X113854357Y-99841044D01*
X113814756Y-99858181D01*
X113808082Y-99863586D01*
X113808081Y-99863586D01*
X113803218Y-99867524D01*
X113784634Y-99880012D01*
X113771622Y-99887166D01*
X113762143Y-99895348D01*
X113738225Y-99919266D01*
X113728424Y-99928091D01*
X113705076Y-99946998D01*
X113705073Y-99947001D01*
X113698401Y-99952404D01*
X113688103Y-99966895D01*
X113674496Y-99982995D01*
X109617561Y-104039930D01*
X109555249Y-104073956D01*
X109483313Y-104068466D01*
X109353441Y-104018613D01*
X109348491Y-104017579D01*
X109348488Y-104017578D01*
X109112910Y-103968363D01*
X109112906Y-103968363D01*
X109107959Y-103967329D01*
X108857435Y-103955952D01*
X108852415Y-103956533D01*
X108852411Y-103956533D01*
X108761088Y-103967100D01*
X108608315Y-103984777D01*
X108603441Y-103986156D01*
X108603437Y-103986157D01*
X108371877Y-104051682D01*
X108371875Y-104051683D01*
X108367008Y-104053060D01*
X108362433Y-104055194D01*
X108362426Y-104055196D01*
X108212642Y-104125042D01*
X108139722Y-104159045D01*
X108135542Y-104161886D01*
X108135538Y-104161888D01*
X108078434Y-104200696D01*
X107932305Y-104300005D01*
X107885169Y-104344579D01*
X107756506Y-104466250D01*
X107750093Y-104472314D01*
X107747015Y-104476340D01*
X107747014Y-104476341D01*
X107600847Y-104667519D01*
X107600844Y-104667523D01*
X107597774Y-104671539D01*
X107479267Y-104892554D01*
X107477621Y-104897335D01*
X107477619Y-104897339D01*
X107448725Y-104981254D01*
X107397620Y-105129673D01*
X107354935Y-105376796D01*
X107352309Y-105627564D01*
X105475500Y-105627564D01*
X105475500Y-104468500D01*
X105470273Y-104395421D01*
X105443279Y-104303488D01*
X105431635Y-104263830D01*
X105431634Y-104263828D01*
X105429096Y-104255184D01*
X105404574Y-104217028D01*
X105354949Y-104139809D01*
X105354947Y-104139806D01*
X105350077Y-104132229D01*
X105328882Y-104113863D01*
X105246431Y-104042418D01*
X105246428Y-104042416D01*
X105239619Y-104036516D01*
X105126327Y-103984777D01*
X105114864Y-103979542D01*
X105114863Y-103979542D01*
X105106670Y-103975800D01*
X105097755Y-103974518D01*
X105097754Y-103974518D01*
X104966448Y-103955639D01*
X104966441Y-103955638D01*
X104962000Y-103955000D01*
X102862000Y-103955000D01*
X102788921Y-103960227D01*
X102735884Y-103975800D01*
X102657330Y-103998865D01*
X102657328Y-103998866D01*
X102648684Y-104001404D01*
X102610528Y-104025926D01*
X102533309Y-104075551D01*
X102533306Y-104075553D01*
X102525729Y-104080423D01*
X102519828Y-104087233D01*
X102435918Y-104184069D01*
X102435916Y-104184072D01*
X102430016Y-104190881D01*
X102426272Y-104199079D01*
X102380181Y-104300005D01*
X102369300Y-104323830D01*
X102368018Y-104332745D01*
X102368018Y-104332746D01*
X102349139Y-104464052D01*
X102349138Y-104464059D01*
X102348500Y-104468500D01*
X81280000Y-104468500D01*
X81280000Y-98678000D01*
X81300002Y-98609879D01*
X81353658Y-98563386D01*
X81406000Y-98552000D01*
X205106000Y-98552000D01*
X205174121Y-98572002D01*
G37*
G04 #@! TD.AperFunction*
M02*
