G04 #@! TF.GenerationSoftware,KiCad,Pcbnew,(5.99.0-9973-gfb99c55869)*
G04 #@! TF.CreationDate,2022-03-18T17:34:01-07:00*
G04 #@! TF.ProjectId,v1,76312e6b-6963-4616-945f-706362585858,rev?*
G04 #@! TF.SameCoordinates,Original*
G04 #@! TF.FileFunction,Soldermask,Bot*
G04 #@! TF.FilePolarity,Negative*
%FSLAX46Y46*%
G04 Gerber Fmt 4.6, Leading zero omitted, Abs format (unit mm)*
G04 Created by KiCad (PCBNEW (5.99.0-9973-gfb99c55869)) date 2022-03-18 17:34:01*
%MOMM*%
%LPD*%
G01*
G04 APERTURE LIST*
%ADD10C,0.795985*%
%ADD11R,1.350000X1.350000*%
%ADD12C,1.350000*%
%ADD13R,2.100000X2.100000*%
%ADD14C,2.100000*%
%ADD15C,1.000000*%
%ADD16C,0.890000*%
G04 APERTURE END LIST*
D10*
X140950992Y-139192000D02*
G75*
G03*
X140950992Y-139192000I-397992J0D01*
G01*
X120950992Y-137192004D02*
G75*
G03*
X120950992Y-137192004I-397992J0D01*
G01*
X152950992Y-137192004D02*
G75*
G03*
X152950992Y-137192004I-397992J0D01*
G01*
X148950982Y-137192004D02*
G75*
G03*
X148950982Y-137192004I-397992J0D01*
G01*
X160950992Y-137192004D02*
G75*
G03*
X160950992Y-137192004I-397992J0D01*
G01*
X162950992Y-139192000D02*
G75*
G03*
X162950992Y-139192000I-397992J0D01*
G01*
X136951002Y-137192004D02*
G75*
G03*
X136951002Y-137192004I-397992J0D01*
G01*
X162950992Y-137192004D02*
G75*
G03*
X162950992Y-137192004I-397992J0D01*
G01*
X150951002Y-139192000D02*
G75*
G03*
X150951002Y-139192000I-397992J0D01*
G01*
X118950992Y-137192004D02*
G75*
G03*
X118950992Y-137192004I-397992J0D01*
G01*
X142950992Y-139192000D02*
G75*
G03*
X142950992Y-139192000I-397992J0D01*
G01*
X156950992Y-139192000D02*
G75*
G03*
X156950992Y-139192000I-397992J0D01*
G01*
X142950992Y-137192004D02*
G75*
G03*
X142950992Y-137192004I-397992J0D01*
G01*
X130950992Y-139192000D02*
G75*
G03*
X130950992Y-139192000I-397992J0D01*
G01*
X154950992Y-139192000D02*
G75*
G03*
X154950992Y-139192000I-397992J0D01*
G01*
X128950992Y-137192004D02*
G75*
G03*
X128950992Y-137192004I-397992J0D01*
G01*
X132950992Y-137192004D02*
G75*
G03*
X132950992Y-137192004I-397992J0D01*
G01*
X146950982Y-139192000D02*
G75*
G03*
X146950982Y-139192000I-397992J0D01*
G01*
X124950992Y-139192000D02*
G75*
G03*
X124950992Y-139192000I-397992J0D01*
G01*
X158950992Y-139192000D02*
G75*
G03*
X158950992Y-139192000I-397992J0D01*
G01*
X122950992Y-137192004D02*
G75*
G03*
X122950992Y-137192004I-397992J0D01*
G01*
X128950992Y-139192000D02*
G75*
G03*
X128950992Y-139192000I-397992J0D01*
G01*
X158950992Y-137192004D02*
G75*
G03*
X158950992Y-137192004I-397992J0D01*
G01*
X166950992Y-137192004D02*
G75*
G03*
X166950992Y-137192004I-397992J0D01*
G01*
X126950992Y-137192004D02*
G75*
G03*
X126950992Y-137192004I-397992J0D01*
G01*
X122950992Y-139192000D02*
G75*
G03*
X122950992Y-139192000I-397992J0D01*
G01*
X152950992Y-139192000D02*
G75*
G03*
X152950992Y-139192000I-397992J0D01*
G01*
X124950992Y-137192004D02*
G75*
G03*
X124950992Y-137192004I-397992J0D01*
G01*
X154950992Y-137192004D02*
G75*
G03*
X154950992Y-137192004I-397992J0D01*
G01*
X156950992Y-137192004D02*
G75*
G03*
X156950992Y-137192004I-397992J0D01*
G01*
X120950992Y-139192000D02*
G75*
G03*
X120950992Y-139192000I-397992J0D01*
G01*
X130950992Y-137192004D02*
G75*
G03*
X130950992Y-137192004I-397992J0D01*
G01*
X136951002Y-139192000D02*
G75*
G03*
X136951002Y-139192000I-397992J0D01*
G01*
X150951002Y-137192004D02*
G75*
G03*
X150951002Y-137192004I-397992J0D01*
G01*
X144950992Y-137192004D02*
G75*
G03*
X144950992Y-137192004I-397992J0D01*
G01*
X126950992Y-139192000D02*
G75*
G03*
X126950992Y-139192000I-397992J0D01*
G01*
X144950992Y-139192000D02*
G75*
G03*
X144950992Y-139192000I-397992J0D01*
G01*
X138951002Y-137192004D02*
G75*
G03*
X138951002Y-137192004I-397992J0D01*
G01*
X146950982Y-137192004D02*
G75*
G03*
X146950982Y-137192004I-397992J0D01*
G01*
X148950982Y-139192000D02*
G75*
G03*
X148950982Y-139192000I-397992J0D01*
G01*
X166950992Y-139192000D02*
G75*
G03*
X166950992Y-139192000I-397992J0D01*
G01*
X134950982Y-137192004D02*
G75*
G03*
X134950982Y-137192004I-397992J0D01*
G01*
X132950992Y-139192000D02*
G75*
G03*
X132950992Y-139192000I-397992J0D01*
G01*
X164950992Y-139192000D02*
G75*
G03*
X164950992Y-139192000I-397992J0D01*
G01*
X140950992Y-137192004D02*
G75*
G03*
X140950992Y-137192004I-397992J0D01*
G01*
X138951002Y-139192000D02*
G75*
G03*
X138951002Y-139192000I-397992J0D01*
G01*
X164950992Y-137192004D02*
G75*
G03*
X164950992Y-137192004I-397992J0D01*
G01*
X134950982Y-139192000D02*
G75*
G03*
X134950982Y-139192000I-397992J0D01*
G01*
X160950992Y-139192000D02*
G75*
G03*
X160950992Y-139192000I-397992J0D01*
G01*
X118950992Y-139192000D02*
G75*
G03*
X118950992Y-139192000I-397992J0D01*
G01*
D11*
X85869501Y-134847508D03*
D12*
X85869501Y-137387508D03*
X88409501Y-134847508D03*
X88409501Y-137387508D03*
X90949501Y-134847508D03*
X90949501Y-137387508D03*
X93489501Y-134847508D03*
X93489501Y-137387508D03*
D13*
X103912000Y-105518500D03*
D14*
X108912000Y-105518500D03*
X113912000Y-105518500D03*
X118912000Y-105518500D03*
X123912000Y-105518500D03*
X128912000Y-105518500D03*
X133912000Y-105518500D03*
X138912000Y-105518500D03*
D15*
X192387000Y-138640000D03*
X202837000Y-138640000D03*
D16*
X192887000Y-137160000D03*
X202337000Y-137160000D03*
D15*
X174607000Y-138640000D03*
X185057000Y-138640000D03*
D16*
X184557000Y-137160000D03*
X175107000Y-137160000D03*
D13*
X152172000Y-105664000D03*
D14*
X157172000Y-105664000D03*
X162172000Y-105664000D03*
X167172000Y-105664000D03*
X172172000Y-105664000D03*
X177172000Y-105664000D03*
X182172000Y-105664000D03*
X187172000Y-105664000D03*
M02*
