G04 #@! TF.GenerationSoftware,KiCad,Pcbnew,(5.99.0-9973-gfb99c55869)*
G04 #@! TF.CreationDate,2022-03-18T17:34:01-07:00*
G04 #@! TF.ProjectId,v1,76312e6b-6963-4616-945f-706362585858,rev?*
G04 #@! TF.SameCoordinates,Original*
G04 #@! TF.FileFunction,Soldermask,Top*
G04 #@! TF.FilePolarity,Negative*
%FSLAX46Y46*%
G04 Gerber Fmt 4.6, Leading zero omitted, Abs format (unit mm)*
G04 Created by KiCad (PCBNEW (5.99.0-9973-gfb99c55869)) date 2022-03-18 17:34:01*
%MOMM*%
%LPD*%
G01*
G04 APERTURE LIST*
%ADD10C,0.795985*%
%ADD11R,1.350000X1.350000*%
%ADD12C,1.350000*%
%ADD13R,2.100000X2.100000*%
%ADD14C,2.100000*%
%ADD15R,0.300000X0.850000*%
%ADD16C,1.000000*%
%ADD17C,0.890000*%
G04 APERTURE END LIST*
G36*
X192456000Y-137407000D02*
G01*
X192478000Y-137445000D01*
X192491000Y-137462000D01*
X192504000Y-137480000D01*
X192518000Y-137497000D01*
X192533000Y-137513000D01*
X192548000Y-137528000D01*
X192564000Y-137543000D01*
X192581000Y-137557000D01*
X192598000Y-137570000D01*
X192616000Y-137583000D01*
X192634000Y-137595000D01*
X192653000Y-137606000D01*
X192672000Y-137616000D01*
X192712000Y-137634000D01*
X192732000Y-137641000D01*
X192753000Y-137648000D01*
X192774000Y-137654000D01*
X192796000Y-137658000D01*
X192817000Y-137662000D01*
X192839000Y-137665000D01*
X192860000Y-137667000D01*
X192882000Y-137668000D01*
X192926000Y-137668000D01*
X192947000Y-137666000D01*
X192969000Y-137663000D01*
X192987000Y-137660000D01*
X192987000Y-138640000D01*
X192986000Y-138671000D01*
X192984000Y-138703000D01*
X192980000Y-138734000D01*
X192974000Y-138765000D01*
X192967000Y-138795000D01*
X192958000Y-138825000D01*
X192947000Y-138855000D01*
X192935000Y-138884000D01*
X192922000Y-138912000D01*
X192907000Y-138940000D01*
X192890000Y-138967000D01*
X192872000Y-138993000D01*
X192853000Y-139018000D01*
X192833000Y-139041000D01*
X192811000Y-139064000D01*
X192788000Y-139086000D01*
X192765000Y-139106000D01*
X192740000Y-139125000D01*
X192714000Y-139143000D01*
X192687000Y-139160000D01*
X192659000Y-139175000D01*
X192631000Y-139188000D01*
X192602000Y-139200000D01*
X192572000Y-139211000D01*
X192542000Y-139220000D01*
X192512000Y-139227000D01*
X192481000Y-139233000D01*
X192450000Y-139237000D01*
X192418000Y-139239000D01*
X192387000Y-139240000D01*
X192356000Y-139239000D01*
X192324000Y-139237000D01*
X192293000Y-139233000D01*
X192262000Y-139227000D01*
X192232000Y-139220000D01*
X192202000Y-139211000D01*
X192172000Y-139200000D01*
X192143000Y-139188000D01*
X192115000Y-139175000D01*
X192087000Y-139160000D01*
X192060000Y-139143000D01*
X192034000Y-139125000D01*
X192009000Y-139106000D01*
X191986000Y-139086000D01*
X191963000Y-139064000D01*
X191941000Y-139041000D01*
X191921000Y-139018000D01*
X191902000Y-138993000D01*
X191884000Y-138967000D01*
X191867000Y-138940000D01*
X191852000Y-138912000D01*
X191839000Y-138884000D01*
X191827000Y-138855000D01*
X191816000Y-138825000D01*
X191807000Y-138795000D01*
X191800000Y-138765000D01*
X191794000Y-138734000D01*
X191790000Y-138703000D01*
X191788000Y-138671000D01*
X191787000Y-138640000D01*
X191787000Y-137390000D01*
X192447000Y-137390000D01*
X192456000Y-137407000D01*
G37*
G36*
X203437000Y-138640000D02*
G01*
X203436000Y-138671000D01*
X203434000Y-138703000D01*
X203430000Y-138734000D01*
X203424000Y-138765000D01*
X203417000Y-138795000D01*
X203408000Y-138825000D01*
X203397000Y-138855000D01*
X203385000Y-138884000D01*
X203372000Y-138912000D01*
X203357000Y-138940000D01*
X203340000Y-138967000D01*
X203322000Y-138993000D01*
X203303000Y-139018000D01*
X203283000Y-139041000D01*
X203261000Y-139064000D01*
X203238000Y-139086000D01*
X203215000Y-139106000D01*
X203190000Y-139125000D01*
X203164000Y-139143000D01*
X203137000Y-139160000D01*
X203109000Y-139175000D01*
X203081000Y-139188000D01*
X203052000Y-139200000D01*
X203022000Y-139211000D01*
X202992000Y-139220000D01*
X202962000Y-139227000D01*
X202931000Y-139233000D01*
X202900000Y-139237000D01*
X202868000Y-139239000D01*
X202837000Y-139240000D01*
X202806000Y-139239000D01*
X202774000Y-139237000D01*
X202743000Y-139233000D01*
X202712000Y-139227000D01*
X202682000Y-139220000D01*
X202652000Y-139211000D01*
X202622000Y-139200000D01*
X202593000Y-139188000D01*
X202565000Y-139175000D01*
X202537000Y-139160000D01*
X202510000Y-139143000D01*
X202484000Y-139125000D01*
X202459000Y-139106000D01*
X202436000Y-139086000D01*
X202413000Y-139064000D01*
X202391000Y-139041000D01*
X202371000Y-139018000D01*
X202352000Y-138993000D01*
X202334000Y-138967000D01*
X202317000Y-138940000D01*
X202302000Y-138912000D01*
X202289000Y-138884000D01*
X202277000Y-138855000D01*
X202266000Y-138825000D01*
X202257000Y-138795000D01*
X202250000Y-138765000D01*
X202244000Y-138734000D01*
X202240000Y-138703000D01*
X202238000Y-138671000D01*
X202237000Y-138640000D01*
X202237000Y-137660000D01*
X202255000Y-137663000D01*
X202277000Y-137666000D01*
X202298000Y-137668000D01*
X202342000Y-137668000D01*
X202364000Y-137667000D01*
X202385000Y-137665000D01*
X202407000Y-137662000D01*
X202428000Y-137658000D01*
X202450000Y-137654000D01*
X202471000Y-137648000D01*
X202492000Y-137641000D01*
X202512000Y-137634000D01*
X202552000Y-137616000D01*
X202571000Y-137606000D01*
X202590000Y-137595000D01*
X202608000Y-137583000D01*
X202626000Y-137570000D01*
X202643000Y-137557000D01*
X202660000Y-137543000D01*
X202676000Y-137528000D01*
X202691000Y-137513000D01*
X202706000Y-137497000D01*
X202720000Y-137480000D01*
X202733000Y-137462000D01*
X202746000Y-137445000D01*
X202768000Y-137407000D01*
X202777000Y-137390000D01*
X203437000Y-137390000D01*
X203437000Y-138640000D01*
G37*
G36*
X185657000Y-138640000D02*
G01*
X185656000Y-138671000D01*
X185654000Y-138703000D01*
X185650000Y-138734000D01*
X185644000Y-138765000D01*
X185637000Y-138795000D01*
X185628000Y-138825000D01*
X185617000Y-138855000D01*
X185605000Y-138884000D01*
X185592000Y-138912000D01*
X185577000Y-138940000D01*
X185560000Y-138967000D01*
X185542000Y-138993000D01*
X185523000Y-139018000D01*
X185503000Y-139041000D01*
X185481000Y-139064000D01*
X185458000Y-139086000D01*
X185435000Y-139106000D01*
X185410000Y-139125000D01*
X185384000Y-139143000D01*
X185357000Y-139160000D01*
X185329000Y-139175000D01*
X185301000Y-139188000D01*
X185272000Y-139200000D01*
X185242000Y-139211000D01*
X185212000Y-139220000D01*
X185182000Y-139227000D01*
X185151000Y-139233000D01*
X185120000Y-139237000D01*
X185088000Y-139239000D01*
X185057000Y-139240000D01*
X185026000Y-139239000D01*
X184994000Y-139237000D01*
X184963000Y-139233000D01*
X184932000Y-139227000D01*
X184902000Y-139220000D01*
X184872000Y-139211000D01*
X184842000Y-139200000D01*
X184813000Y-139188000D01*
X184785000Y-139175000D01*
X184757000Y-139160000D01*
X184730000Y-139143000D01*
X184704000Y-139125000D01*
X184679000Y-139106000D01*
X184656000Y-139086000D01*
X184633000Y-139064000D01*
X184611000Y-139041000D01*
X184591000Y-139018000D01*
X184572000Y-138993000D01*
X184554000Y-138967000D01*
X184537000Y-138940000D01*
X184522000Y-138912000D01*
X184509000Y-138884000D01*
X184497000Y-138855000D01*
X184486000Y-138825000D01*
X184477000Y-138795000D01*
X184470000Y-138765000D01*
X184464000Y-138734000D01*
X184460000Y-138703000D01*
X184458000Y-138671000D01*
X184457000Y-138640000D01*
X184457000Y-137660000D01*
X184475000Y-137663000D01*
X184497000Y-137666000D01*
X184518000Y-137668000D01*
X184562000Y-137668000D01*
X184584000Y-137667000D01*
X184605000Y-137665000D01*
X184627000Y-137662000D01*
X184648000Y-137658000D01*
X184670000Y-137654000D01*
X184691000Y-137648000D01*
X184712000Y-137641000D01*
X184732000Y-137634000D01*
X184772000Y-137616000D01*
X184791000Y-137606000D01*
X184810000Y-137595000D01*
X184828000Y-137583000D01*
X184846000Y-137570000D01*
X184863000Y-137557000D01*
X184880000Y-137543000D01*
X184896000Y-137528000D01*
X184911000Y-137513000D01*
X184926000Y-137497000D01*
X184940000Y-137480000D01*
X184953000Y-137462000D01*
X184966000Y-137445000D01*
X184988000Y-137407000D01*
X184997000Y-137390000D01*
X185657000Y-137390000D01*
X185657000Y-138640000D01*
G37*
G36*
X174676000Y-137407000D02*
G01*
X174698000Y-137445000D01*
X174711000Y-137462000D01*
X174724000Y-137480000D01*
X174738000Y-137497000D01*
X174753000Y-137513000D01*
X174768000Y-137528000D01*
X174784000Y-137543000D01*
X174801000Y-137557000D01*
X174818000Y-137570000D01*
X174836000Y-137583000D01*
X174854000Y-137595000D01*
X174873000Y-137606000D01*
X174892000Y-137616000D01*
X174932000Y-137634000D01*
X174952000Y-137641000D01*
X174973000Y-137648000D01*
X174994000Y-137654000D01*
X175016000Y-137658000D01*
X175037000Y-137662000D01*
X175059000Y-137665000D01*
X175080000Y-137667000D01*
X175102000Y-137668000D01*
X175146000Y-137668000D01*
X175167000Y-137666000D01*
X175189000Y-137663000D01*
X175207000Y-137660000D01*
X175207000Y-138640000D01*
X175206000Y-138671000D01*
X175204000Y-138703000D01*
X175200000Y-138734000D01*
X175194000Y-138765000D01*
X175187000Y-138795000D01*
X175178000Y-138825000D01*
X175167000Y-138855000D01*
X175155000Y-138884000D01*
X175142000Y-138912000D01*
X175127000Y-138940000D01*
X175110000Y-138967000D01*
X175092000Y-138993000D01*
X175073000Y-139018000D01*
X175053000Y-139041000D01*
X175031000Y-139064000D01*
X175008000Y-139086000D01*
X174985000Y-139106000D01*
X174960000Y-139125000D01*
X174934000Y-139143000D01*
X174907000Y-139160000D01*
X174879000Y-139175000D01*
X174851000Y-139188000D01*
X174822000Y-139200000D01*
X174792000Y-139211000D01*
X174762000Y-139220000D01*
X174732000Y-139227000D01*
X174701000Y-139233000D01*
X174670000Y-139237000D01*
X174638000Y-139239000D01*
X174607000Y-139240000D01*
X174576000Y-139239000D01*
X174544000Y-139237000D01*
X174513000Y-139233000D01*
X174482000Y-139227000D01*
X174452000Y-139220000D01*
X174422000Y-139211000D01*
X174392000Y-139200000D01*
X174363000Y-139188000D01*
X174335000Y-139175000D01*
X174307000Y-139160000D01*
X174280000Y-139143000D01*
X174254000Y-139125000D01*
X174229000Y-139106000D01*
X174206000Y-139086000D01*
X174183000Y-139064000D01*
X174161000Y-139041000D01*
X174141000Y-139018000D01*
X174122000Y-138993000D01*
X174104000Y-138967000D01*
X174087000Y-138940000D01*
X174072000Y-138912000D01*
X174059000Y-138884000D01*
X174047000Y-138855000D01*
X174036000Y-138825000D01*
X174027000Y-138795000D01*
X174020000Y-138765000D01*
X174014000Y-138734000D01*
X174010000Y-138703000D01*
X174008000Y-138671000D01*
X174007000Y-138640000D01*
X174007000Y-137390000D01*
X174667000Y-137390000D01*
X174676000Y-137407000D01*
G37*
D10*
X126950992Y-137192004D02*
G75*
G03*
X126950992Y-137192004I-397992J0D01*
G01*
X122950992Y-137192004D02*
G75*
G03*
X122950992Y-137192004I-397992J0D01*
G01*
X166950992Y-139192000D02*
G75*
G03*
X166950992Y-139192000I-397992J0D01*
G01*
X124950992Y-137192004D02*
G75*
G03*
X124950992Y-137192004I-397992J0D01*
G01*
X164950992Y-139192000D02*
G75*
G03*
X164950992Y-139192000I-397992J0D01*
G01*
X152950992Y-137192004D02*
G75*
G03*
X152950992Y-137192004I-397992J0D01*
G01*
X160950992Y-139192000D02*
G75*
G03*
X160950992Y-139192000I-397992J0D01*
G01*
X144950992Y-137192004D02*
G75*
G03*
X144950992Y-137192004I-397992J0D01*
G01*
X146950982Y-137192004D02*
G75*
G03*
X146950982Y-137192004I-397992J0D01*
G01*
X126950992Y-139192000D02*
G75*
G03*
X126950992Y-139192000I-397992J0D01*
G01*
X156950992Y-139192000D02*
G75*
G03*
X156950992Y-139192000I-397992J0D01*
G01*
X130950992Y-139192000D02*
G75*
G03*
X130950992Y-139192000I-397992J0D01*
G01*
X124950992Y-139192000D02*
G75*
G03*
X124950992Y-139192000I-397992J0D01*
G01*
X150951002Y-137192004D02*
G75*
G03*
X150951002Y-137192004I-397992J0D01*
G01*
X138951002Y-137192004D02*
G75*
G03*
X138951002Y-137192004I-397992J0D01*
G01*
X130950992Y-137192004D02*
G75*
G03*
X130950992Y-137192004I-397992J0D01*
G01*
X136951002Y-139192000D02*
G75*
G03*
X136951002Y-139192000I-397992J0D01*
G01*
X134950982Y-137192004D02*
G75*
G03*
X134950982Y-137192004I-397992J0D01*
G01*
X150951002Y-139192000D02*
G75*
G03*
X150951002Y-139192000I-397992J0D01*
G01*
X146950982Y-139192000D02*
G75*
G03*
X146950982Y-139192000I-397992J0D01*
G01*
X120950992Y-139192000D02*
G75*
G03*
X120950992Y-139192000I-397992J0D01*
G01*
X140950992Y-139192000D02*
G75*
G03*
X140950992Y-139192000I-397992J0D01*
G01*
X162950992Y-137192004D02*
G75*
G03*
X162950992Y-137192004I-397992J0D01*
G01*
X142950992Y-137192004D02*
G75*
G03*
X142950992Y-137192004I-397992J0D01*
G01*
X152950992Y-139192000D02*
G75*
G03*
X152950992Y-139192000I-397992J0D01*
G01*
X158950992Y-139192000D02*
G75*
G03*
X158950992Y-139192000I-397992J0D01*
G01*
X148950982Y-139192000D02*
G75*
G03*
X148950982Y-139192000I-397992J0D01*
G01*
X132950992Y-139192000D02*
G75*
G03*
X132950992Y-139192000I-397992J0D01*
G01*
X144950992Y-139192000D02*
G75*
G03*
X144950992Y-139192000I-397992J0D01*
G01*
X128950992Y-137192004D02*
G75*
G03*
X128950992Y-137192004I-397992J0D01*
G01*
X134950982Y-139192000D02*
G75*
G03*
X134950982Y-139192000I-397992J0D01*
G01*
X148950982Y-137192004D02*
G75*
G03*
X148950982Y-137192004I-397992J0D01*
G01*
X160950992Y-137192004D02*
G75*
G03*
X160950992Y-137192004I-397992J0D01*
G01*
X154950992Y-139192000D02*
G75*
G03*
X154950992Y-139192000I-397992J0D01*
G01*
X162950992Y-139192000D02*
G75*
G03*
X162950992Y-139192000I-397992J0D01*
G01*
X142950992Y-139192000D02*
G75*
G03*
X142950992Y-139192000I-397992J0D01*
G01*
X140950992Y-137192004D02*
G75*
G03*
X140950992Y-137192004I-397992J0D01*
G01*
X136951002Y-137192004D02*
G75*
G03*
X136951002Y-137192004I-397992J0D01*
G01*
X164950992Y-137192004D02*
G75*
G03*
X164950992Y-137192004I-397992J0D01*
G01*
X156950992Y-137192004D02*
G75*
G03*
X156950992Y-137192004I-397992J0D01*
G01*
X128950992Y-139192000D02*
G75*
G03*
X128950992Y-139192000I-397992J0D01*
G01*
X138951002Y-139192000D02*
G75*
G03*
X138951002Y-139192000I-397992J0D01*
G01*
X122950992Y-139192000D02*
G75*
G03*
X122950992Y-139192000I-397992J0D01*
G01*
X118950992Y-137192004D02*
G75*
G03*
X118950992Y-137192004I-397992J0D01*
G01*
X158950992Y-137192004D02*
G75*
G03*
X158950992Y-137192004I-397992J0D01*
G01*
X118950992Y-139192000D02*
G75*
G03*
X118950992Y-139192000I-397992J0D01*
G01*
X120950992Y-137192004D02*
G75*
G03*
X120950992Y-137192004I-397992J0D01*
G01*
X154950992Y-137192004D02*
G75*
G03*
X154950992Y-137192004I-397992J0D01*
G01*
X166950992Y-137192004D02*
G75*
G03*
X166950992Y-137192004I-397992J0D01*
G01*
X132950992Y-137192004D02*
G75*
G03*
X132950992Y-137192004I-397992J0D01*
G01*
D11*
X85869501Y-134847508D03*
D12*
X85869501Y-137387508D03*
X88409501Y-134847508D03*
X88409501Y-137387508D03*
X90949501Y-134847508D03*
X90949501Y-137387508D03*
X93489501Y-134847508D03*
X93489501Y-137387508D03*
D13*
X103912000Y-105518500D03*
D14*
X108912000Y-105518500D03*
X113912000Y-105518500D03*
X118912000Y-105518500D03*
X123912000Y-105518500D03*
X128912000Y-105518500D03*
X133912000Y-105518500D03*
X138912000Y-105518500D03*
D15*
X192997000Y-134335000D03*
X193497000Y-134335000D03*
X193997000Y-134335000D03*
X194497000Y-134335000D03*
X194997000Y-134335000D03*
X195497000Y-134335000D03*
X195997000Y-134335000D03*
X196497000Y-134335000D03*
X196997000Y-134335000D03*
X197497000Y-134335000D03*
X197997000Y-134335000D03*
X198497000Y-134335000D03*
X198997000Y-134335000D03*
X199497000Y-134335000D03*
X199997000Y-134335000D03*
X200497000Y-134335000D03*
X200997000Y-134335000D03*
X201497000Y-134335000D03*
X201997000Y-134335000D03*
X193227000Y-135585000D03*
X193727000Y-135585000D03*
X194227000Y-135585000D03*
X194727000Y-135585000D03*
X195227000Y-135585000D03*
X195727000Y-135585000D03*
X196227000Y-135585000D03*
X196727000Y-135585000D03*
X197227000Y-135585000D03*
X197727000Y-135585000D03*
X198227000Y-135585000D03*
X198727000Y-135585000D03*
X199227000Y-135585000D03*
X199727000Y-135585000D03*
X200227000Y-135585000D03*
X200727000Y-135585000D03*
X201227000Y-135585000D03*
X201727000Y-135585000D03*
X202227000Y-135585000D03*
D16*
X192387000Y-138640000D03*
X202837000Y-138640000D03*
D17*
X192887000Y-137160000D03*
X202337000Y-137160000D03*
D15*
X175217000Y-134335000D03*
X175717000Y-134335000D03*
X176217000Y-134335000D03*
X176717000Y-134335000D03*
X177217000Y-134335000D03*
X177717000Y-134335000D03*
X178217000Y-134335000D03*
X178717000Y-134335000D03*
X179217000Y-134335000D03*
X179717000Y-134335000D03*
X180217000Y-134335000D03*
X180717000Y-134335000D03*
X181217000Y-134335000D03*
X181717000Y-134335000D03*
X182217000Y-134335000D03*
X182717000Y-134335000D03*
X183217000Y-134335000D03*
X183717000Y-134335000D03*
X184217000Y-134335000D03*
X175447000Y-135585000D03*
X175947000Y-135585000D03*
X176447000Y-135585000D03*
X176947000Y-135585000D03*
X177447000Y-135585000D03*
X177947000Y-135585000D03*
X178447000Y-135585000D03*
X178947000Y-135585000D03*
X179447000Y-135585000D03*
X179947000Y-135585000D03*
X180447000Y-135585000D03*
X180947000Y-135585000D03*
X181447000Y-135585000D03*
X181947000Y-135585000D03*
X182447000Y-135585000D03*
X182947000Y-135585000D03*
X183447000Y-135585000D03*
X183947000Y-135585000D03*
X184447000Y-135585000D03*
D16*
X174607000Y-138640000D03*
X185057000Y-138640000D03*
D17*
X184557000Y-137160000D03*
X175107000Y-137160000D03*
D13*
X152172000Y-105664000D03*
D14*
X157172000Y-105664000D03*
X162172000Y-105664000D03*
X167172000Y-105664000D03*
X172172000Y-105664000D03*
X177172000Y-105664000D03*
X182172000Y-105664000D03*
X187172000Y-105664000D03*
M02*
