M48
METRIC,TZ
T1C0.400
T2C0.750
T3C0.890
T4C1.000
T5C1.400
%
G90
G05
T1
X128778Y-114808
X179451Y-112903
X200279Y-105664
T2
X174607Y-138640
X185057Y-138640
X192387Y-138640
X202837Y-138640
T3
X118553Y-137192
X118553Y-139192
X120553Y-137192
X120553Y-139192
X122553Y-137192
X122553Y-139192
X124553Y-137192
X124553Y-139192
X126553Y-137192
X126553Y-139192
X128553Y-137192
X128553Y-139192
X130553Y-137192
X130553Y-139192
X132553Y-137192
X132553Y-139192
X134553Y-137192
X134553Y-139192
X136553Y-137192
X136553Y-139192
X138553Y-137192
X138553Y-139192
X140553Y-137192
X140553Y-139192
X142553Y-137192
X142553Y-139192
X144553Y-137192
X144553Y-139192
X146553Y-137192
X146553Y-139192
X148553Y-137192
X148553Y-139192
X150553Y-137192
X150553Y-139192
X152553Y-137192
X152553Y-139192
X154553Y-137192
X154553Y-139192
X156553Y-137192
X156553Y-139192
X158553Y-137192
X158553Y-139192
X160553Y-137192
X160553Y-139192
X162553Y-137192
X162553Y-139192
X164553Y-137192
X164553Y-139192
X166553Y-137192
X166553Y-139192
T4
X85870Y-134848
X85870Y-137388
X88410Y-134848
X88410Y-137388
X90950Y-134848
X90950Y-137388
X93490Y-134848
X93490Y-137388
T5
X103912Y-105518
X108912Y-105518
X113912Y-105518
X118912Y-105518
X123912Y-105518
X128912Y-105518
X133912Y-105518
X138912Y-105518
X152172Y-105664
X157172Y-105664
X162172Y-105664
X167172Y-105664
X172172Y-105664
X177172Y-105664
X182172Y-105664
X187172Y-105664
T0
M30
