G04 #@! TF.GenerationSoftware,KiCad,Pcbnew,(5.99.0-9973-gfb99c55869)*
G04 #@! TF.CreationDate,2022-03-18T17:34:01-07:00*
G04 #@! TF.ProjectId,v1,76312e6b-6963-4616-945f-706362585858,rev?*
G04 #@! TF.SameCoordinates,Original*
G04 #@! TF.FileFunction,Paste,Top*
G04 #@! TF.FilePolarity,Positive*
%FSLAX46Y46*%
G04 Gerber Fmt 4.6, Leading zero omitted, Abs format (unit mm)*
G04 Created by KiCad (PCBNEW (5.99.0-9973-gfb99c55869)) date 2022-03-18 17:34:01*
%MOMM*%
%LPD*%
G01*
G04 APERTURE LIST*
%ADD10R,0.300000X0.850000*%
G04 APERTURE END LIST*
G36*
X203337000Y-139840000D02*
G01*
X200717000Y-139840000D01*
X200717000Y-138140000D01*
X202337000Y-138140000D01*
X202337000Y-137760000D01*
X202356000Y-137760000D01*
X202375000Y-137759000D01*
X202415000Y-137755000D01*
X202435000Y-137752000D01*
X202454000Y-137748000D01*
X202474000Y-137744000D01*
X202493000Y-137739000D01*
X202531000Y-137727000D01*
X202550000Y-137720000D01*
X202568000Y-137713000D01*
X202587000Y-137705000D01*
X202605000Y-137696000D01*
X202622000Y-137687000D01*
X202640000Y-137677000D01*
X202657000Y-137667000D01*
X202689000Y-137645000D01*
X202705000Y-137633000D01*
X202721000Y-137620000D01*
X202736000Y-137607000D01*
X202750000Y-137594000D01*
X202765000Y-137580000D01*
X202778000Y-137565000D01*
X202792000Y-137550000D01*
X202804000Y-137535000D01*
X202828000Y-137503000D01*
X202837000Y-137490000D01*
X203337000Y-137490000D01*
X203337000Y-139840000D01*
G37*
G36*
X192396000Y-137503000D02*
G01*
X192420000Y-137535000D01*
X192432000Y-137550000D01*
X192446000Y-137565000D01*
X192459000Y-137580000D01*
X192474000Y-137594000D01*
X192488000Y-137607000D01*
X192503000Y-137620000D01*
X192519000Y-137633000D01*
X192535000Y-137645000D01*
X192567000Y-137667000D01*
X192584000Y-137677000D01*
X192602000Y-137687000D01*
X192619000Y-137696000D01*
X192637000Y-137705000D01*
X192656000Y-137713000D01*
X192674000Y-137721000D01*
X192731000Y-137739000D01*
X192750000Y-137744000D01*
X192770000Y-137748000D01*
X192789000Y-137752000D01*
X192809000Y-137755000D01*
X192829000Y-137757000D01*
X192848000Y-137759000D01*
X192868000Y-137760000D01*
X192887000Y-137760000D01*
X192887000Y-138140000D01*
X194507000Y-138140000D01*
X194507000Y-139840000D01*
X191887000Y-139840000D01*
X191887000Y-137490000D01*
X192387000Y-137490000D01*
X192396000Y-137503000D01*
G37*
G36*
X185557000Y-139840000D02*
G01*
X182937000Y-139840000D01*
X182937000Y-138140000D01*
X184557000Y-138140000D01*
X184557000Y-137760000D01*
X184576000Y-137760000D01*
X184595000Y-137759000D01*
X184635000Y-137755000D01*
X184655000Y-137752000D01*
X184674000Y-137748000D01*
X184694000Y-137744000D01*
X184713000Y-137739000D01*
X184751000Y-137727000D01*
X184770000Y-137720000D01*
X184788000Y-137713000D01*
X184807000Y-137705000D01*
X184825000Y-137696000D01*
X184842000Y-137687000D01*
X184860000Y-137677000D01*
X184877000Y-137667000D01*
X184909000Y-137645000D01*
X184925000Y-137633000D01*
X184941000Y-137620000D01*
X184956000Y-137607000D01*
X184970000Y-137594000D01*
X184985000Y-137580000D01*
X184998000Y-137565000D01*
X185012000Y-137550000D01*
X185024000Y-137535000D01*
X185048000Y-137503000D01*
X185057000Y-137490000D01*
X185557000Y-137490000D01*
X185557000Y-139840000D01*
G37*
G36*
X174616000Y-137503000D02*
G01*
X174640000Y-137535000D01*
X174652000Y-137550000D01*
X174666000Y-137565000D01*
X174679000Y-137580000D01*
X174694000Y-137594000D01*
X174708000Y-137607000D01*
X174723000Y-137620000D01*
X174739000Y-137633000D01*
X174755000Y-137645000D01*
X174787000Y-137667000D01*
X174804000Y-137677000D01*
X174822000Y-137687000D01*
X174839000Y-137696000D01*
X174857000Y-137705000D01*
X174876000Y-137713000D01*
X174894000Y-137721000D01*
X174951000Y-137739000D01*
X174970000Y-137744000D01*
X174990000Y-137748000D01*
X175009000Y-137752000D01*
X175029000Y-137755000D01*
X175049000Y-137757000D01*
X175068000Y-137759000D01*
X175088000Y-137760000D01*
X175107000Y-137760000D01*
X175107000Y-138140000D01*
X176727000Y-138140000D01*
X176727000Y-139840000D01*
X174107000Y-139840000D01*
X174107000Y-137490000D01*
X174607000Y-137490000D01*
X174616000Y-137503000D01*
G37*
D10*
X192997000Y-134335000D03*
X193497000Y-134335000D03*
X193997000Y-134335000D03*
X194497000Y-134335000D03*
X194997000Y-134335000D03*
X195497000Y-134335000D03*
X195997000Y-134335000D03*
X196497000Y-134335000D03*
X196997000Y-134335000D03*
X197497000Y-134335000D03*
X197997000Y-134335000D03*
X198497000Y-134335000D03*
X198997000Y-134335000D03*
X199497000Y-134335000D03*
X199997000Y-134335000D03*
X200497000Y-134335000D03*
X200997000Y-134335000D03*
X201497000Y-134335000D03*
X201997000Y-134335000D03*
X193227000Y-135585000D03*
X193727000Y-135585000D03*
X194227000Y-135585000D03*
X194727000Y-135585000D03*
X195227000Y-135585000D03*
X195727000Y-135585000D03*
X196227000Y-135585000D03*
X196727000Y-135585000D03*
X197227000Y-135585000D03*
X197727000Y-135585000D03*
X198227000Y-135585000D03*
X198727000Y-135585000D03*
X199227000Y-135585000D03*
X199727000Y-135585000D03*
X200227000Y-135585000D03*
X200727000Y-135585000D03*
X201227000Y-135585000D03*
X201727000Y-135585000D03*
X202227000Y-135585000D03*
X175217000Y-134335000D03*
X175717000Y-134335000D03*
X176217000Y-134335000D03*
X176717000Y-134335000D03*
X177217000Y-134335000D03*
X177717000Y-134335000D03*
X178217000Y-134335000D03*
X178717000Y-134335000D03*
X179217000Y-134335000D03*
X179717000Y-134335000D03*
X180217000Y-134335000D03*
X180717000Y-134335000D03*
X181217000Y-134335000D03*
X181717000Y-134335000D03*
X182217000Y-134335000D03*
X182717000Y-134335000D03*
X183217000Y-134335000D03*
X183717000Y-134335000D03*
X184217000Y-134335000D03*
X175447000Y-135585000D03*
X175947000Y-135585000D03*
X176447000Y-135585000D03*
X176947000Y-135585000D03*
X177447000Y-135585000D03*
X177947000Y-135585000D03*
X178447000Y-135585000D03*
X178947000Y-135585000D03*
X179447000Y-135585000D03*
X179947000Y-135585000D03*
X180447000Y-135585000D03*
X180947000Y-135585000D03*
X181447000Y-135585000D03*
X181947000Y-135585000D03*
X182447000Y-135585000D03*
X182947000Y-135585000D03*
X183447000Y-135585000D03*
X183947000Y-135585000D03*
X184447000Y-135585000D03*
M02*
