G04 #@! TF.GenerationSoftware,KiCad,Pcbnew,(5.99.0-9973-gfb99c55869)*
G04 #@! TF.CreationDate,2022-08-18T17:51:10-07:00*
G04 #@! TF.ProjectId,RB_v3_2,52425f76-335f-4322-9e6b-696361645f70,rev?*
G04 #@! TF.SameCoordinates,Original*
G04 #@! TF.FileFunction,Soldermask,Top*
G04 #@! TF.FilePolarity,Negative*
%FSLAX46Y46*%
G04 Gerber Fmt 4.6, Leading zero omitted, Abs format (unit mm)*
G04 Created by KiCad (PCBNEW (5.99.0-9973-gfb99c55869)) date 2022-08-18 17:51:10*
%MOMM*%
%LPD*%
G01*
G04 APERTURE LIST*
%ADD10C,5.700000*%
%ADD11C,1.397000*%
%ADD12C,3.251200*%
%ADD13C,2.082800*%
G04 APERTURE END LIST*
D10*
X53213000Y-151968200D03*
X53213000Y-87757000D03*
X178816000Y-151968200D03*
X178816000Y-87757000D03*
D11*
X133128850Y-103124000D03*
X131858850Y-105664000D03*
X130588850Y-103124000D03*
X129318850Y-105664000D03*
X128048850Y-103124000D03*
X126778850Y-105664000D03*
X125508850Y-103124000D03*
X124238850Y-105664000D03*
D12*
X134333849Y-95374000D03*
X123033851Y-95374000D03*
D13*
X136123850Y-99184000D03*
X121243850Y-99184000D03*
D11*
X154399150Y-136024000D03*
X155669150Y-133484000D03*
X156939150Y-136024000D03*
X158209150Y-133484000D03*
X159479150Y-136024000D03*
X160749150Y-133484000D03*
X162019150Y-136024000D03*
X163289150Y-133484000D03*
D12*
X153194151Y-143774000D03*
X164494149Y-143774000D03*
D13*
X151404150Y-139964000D03*
X166284150Y-139964000D03*
D11*
X78146000Y-136024000D03*
X79416000Y-133484000D03*
X80686000Y-136024000D03*
X81956000Y-133484000D03*
X83226000Y-136024000D03*
X84496000Y-133484000D03*
X85766000Y-136024000D03*
X87036000Y-133484000D03*
D12*
X76941001Y-143774000D03*
X88240999Y-143774000D03*
D13*
X75151000Y-139964000D03*
X90031000Y-139964000D03*
D11*
X102448000Y-103124000D03*
X101178000Y-105664000D03*
X99908000Y-103124000D03*
X98638000Y-105664000D03*
X97368000Y-103124000D03*
X96098000Y-105664000D03*
X94828000Y-103124000D03*
X93558000Y-105664000D03*
D12*
X103652999Y-95374000D03*
X92353001Y-95374000D03*
D13*
X105443000Y-99184000D03*
X90563000Y-99184000D03*
D11*
X163322000Y-103124000D03*
X162052000Y-105664000D03*
X160782000Y-103124000D03*
X159512000Y-105664000D03*
X158242000Y-103124000D03*
X156972000Y-105664000D03*
X155702000Y-103124000D03*
X154432000Y-105664000D03*
D12*
X164526999Y-95374000D03*
X153227001Y-95374000D03*
D13*
X166317000Y-99184000D03*
X151437000Y-99184000D03*
D11*
X124238850Y-136024000D03*
X125508850Y-133484000D03*
X126778850Y-136024000D03*
X128048850Y-133484000D03*
X129318850Y-136024000D03*
X130588850Y-133484000D03*
X131858850Y-136024000D03*
X133128850Y-133484000D03*
D12*
X123033851Y-143774000D03*
X134333849Y-143774000D03*
D13*
X121243850Y-139964000D03*
X136123850Y-139964000D03*
D11*
X71628000Y-103124000D03*
X70358000Y-105664000D03*
X69088000Y-103124000D03*
X67818000Y-105664000D03*
X66548000Y-103124000D03*
X65278000Y-105664000D03*
X64008000Y-103124000D03*
X62738000Y-105664000D03*
D12*
X72832999Y-95374000D03*
X61533001Y-95374000D03*
D13*
X74623000Y-99184000D03*
X59743000Y-99184000D03*
M02*
