G04 #@! TF.GenerationSoftware,KiCad,Pcbnew,(5.99.0-9973-gfb99c55869)*
G04 #@! TF.CreationDate,2022-08-18T17:51:10-07:00*
G04 #@! TF.ProjectId,RB_v3_2,52425f76-335f-4322-9e6b-696361645f70,rev?*
G04 #@! TF.SameCoordinates,Original*
G04 #@! TF.FileFunction,Copper,L2,Bot*
G04 #@! TF.FilePolarity,Positive*
%FSLAX46Y46*%
G04 Gerber Fmt 4.6, Leading zero omitted, Abs format (unit mm)*
G04 Created by KiCad (PCBNEW (5.99.0-9973-gfb99c55869)) date 2022-08-18 17:51:10*
%MOMM*%
%LPD*%
G01*
G04 APERTURE LIST*
G04 #@! TA.AperFunction,ComponentPad*
%ADD10C,5.700000*%
G04 #@! TD*
G04 #@! TA.AperFunction,ComponentPad*
%ADD11C,1.397000*%
G04 #@! TD*
G04 #@! TA.AperFunction,ComponentPad*
%ADD12C,2.082800*%
G04 #@! TD*
G04 #@! TA.AperFunction,Conductor*
%ADD13C,0.152400*%
G04 #@! TD*
G04 APERTURE END LIST*
D10*
X53213000Y-151968200D03*
X53213000Y-87757000D03*
X178816000Y-151968200D03*
X178816000Y-87757000D03*
D11*
X133128850Y-103124000D03*
X131858850Y-105664000D03*
X130588850Y-103124000D03*
X129318850Y-105664000D03*
X128048850Y-103124000D03*
X126778850Y-105664000D03*
X125508850Y-103124000D03*
X124238850Y-105664000D03*
D12*
X136123850Y-99184000D03*
X121243850Y-99184000D03*
D11*
X154399150Y-136024000D03*
X155669150Y-133484000D03*
X156939150Y-136024000D03*
X158209150Y-133484000D03*
X159479150Y-136024000D03*
X160749150Y-133484000D03*
X162019150Y-136024000D03*
X163289150Y-133484000D03*
D12*
X151404150Y-139964000D03*
X166284150Y-139964000D03*
D11*
X78146000Y-136024000D03*
X79416000Y-133484000D03*
X80686000Y-136024000D03*
X81956000Y-133484000D03*
X83226000Y-136024000D03*
X84496000Y-133484000D03*
X85766000Y-136024000D03*
X87036000Y-133484000D03*
D12*
X75151000Y-139964000D03*
X90031000Y-139964000D03*
D11*
X102448000Y-103124000D03*
X101178000Y-105664000D03*
X99908000Y-103124000D03*
X98638000Y-105664000D03*
X97368000Y-103124000D03*
X96098000Y-105664000D03*
X94828000Y-103124000D03*
X93558000Y-105664000D03*
D12*
X105443000Y-99184000D03*
X90563000Y-99184000D03*
D11*
X163322000Y-103124000D03*
X162052000Y-105664000D03*
X160782000Y-103124000D03*
X159512000Y-105664000D03*
X158242000Y-103124000D03*
X156972000Y-105664000D03*
X155702000Y-103124000D03*
X154432000Y-105664000D03*
D12*
X166317000Y-99184000D03*
X151437000Y-99184000D03*
D11*
X124238850Y-136024000D03*
X125508850Y-133484000D03*
X126778850Y-136024000D03*
X128048850Y-133484000D03*
X129318850Y-136024000D03*
X130588850Y-133484000D03*
X131858850Y-136024000D03*
X133128850Y-133484000D03*
D12*
X121243850Y-139964000D03*
X136123850Y-139964000D03*
D11*
X71628000Y-103124000D03*
X70358000Y-105664000D03*
X69088000Y-103124000D03*
X67818000Y-105664000D03*
X66548000Y-103124000D03*
X65278000Y-105664000D03*
X64008000Y-103124000D03*
X62738000Y-105664000D03*
D12*
X74623000Y-99184000D03*
X59743000Y-99184000D03*
D13*
X67818000Y-121886000D02*
X79416000Y-133484000D01*
X67818000Y-105664000D02*
X67818000Y-121886000D01*
X81956000Y-117262000D02*
X70358000Y-105664000D01*
X81956000Y-133484000D02*
X81956000Y-117262000D01*
X84496000Y-133484000D02*
X84496000Y-119806000D01*
X84496000Y-119806000D02*
X98638000Y-105664000D01*
X101178000Y-119342000D02*
X87036000Y-133484000D01*
X101178000Y-105664000D02*
X101178000Y-119342000D01*
X125508850Y-133484000D02*
X125508850Y-103124000D01*
X128048850Y-103124000D02*
X128048850Y-133484000D01*
X130588850Y-133484000D02*
X130588850Y-103124000D01*
X133128850Y-103124000D02*
X133128850Y-133484000D01*
X155702000Y-133451150D02*
X155669150Y-133484000D01*
X155702000Y-103124000D02*
X155702000Y-133451150D01*
X158209150Y-103156850D02*
X158242000Y-103124000D01*
X158209150Y-133484000D02*
X158209150Y-103156850D01*
X160782000Y-133451150D02*
X160749150Y-133484000D01*
X160782000Y-103124000D02*
X160782000Y-133451150D01*
X163322000Y-133451150D02*
X163289150Y-133484000D01*
X163322000Y-103124000D02*
X163322000Y-133451150D01*
G04 #@! TA.AperFunction,Conductor*
G36*
X183838121Y-82697002D02*
G01*
X183884614Y-82750658D01*
X183896000Y-82803000D01*
X183896000Y-156973000D01*
X183875998Y-157041121D01*
X183822342Y-157087614D01*
X183770000Y-157099000D01*
X48259000Y-157099000D01*
X48190879Y-157078998D01*
X48144386Y-157025342D01*
X48133000Y-156973000D01*
X48133000Y-154519993D01*
X51026747Y-154519993D01*
X51026823Y-154521063D01*
X51030008Y-154525897D01*
X51310304Y-154740976D01*
X51315934Y-154744831D01*
X51620897Y-154930252D01*
X51626899Y-154933470D01*
X51950114Y-155084874D01*
X51956419Y-155087422D01*
X52294099Y-155203036D01*
X52300650Y-155204889D01*
X52648827Y-155283354D01*
X52655546Y-155284491D01*
X53010170Y-155324896D01*
X53016960Y-155325299D01*
X53373869Y-155327167D01*
X53380670Y-155326835D01*
X53735697Y-155290147D01*
X53742425Y-155289081D01*
X54091419Y-155214262D01*
X54097968Y-155212483D01*
X54436845Y-155100411D01*
X54443187Y-155097925D01*
X54767949Y-154949923D01*
X54774008Y-154946756D01*
X55080888Y-154764543D01*
X55086552Y-154760751D01*
X55371962Y-154546459D01*
X55377188Y-154542074D01*
X55390037Y-154530050D01*
X55395969Y-154519993D01*
X176629747Y-154519993D01*
X176629823Y-154521063D01*
X176633008Y-154525897D01*
X176913304Y-154740976D01*
X176918934Y-154744831D01*
X177223897Y-154930252D01*
X177229899Y-154933470D01*
X177553114Y-155084874D01*
X177559419Y-155087422D01*
X177897099Y-155203036D01*
X177903650Y-155204889D01*
X178251827Y-155283354D01*
X178258546Y-155284491D01*
X178613170Y-155324896D01*
X178619960Y-155325299D01*
X178976869Y-155327167D01*
X178983670Y-155326835D01*
X179338697Y-155290147D01*
X179345425Y-155289081D01*
X179694419Y-155214262D01*
X179700968Y-155212483D01*
X180039845Y-155100411D01*
X180046187Y-155097925D01*
X180370949Y-154949923D01*
X180377008Y-154946756D01*
X180683888Y-154764543D01*
X180689552Y-154760751D01*
X180974962Y-154546459D01*
X180980188Y-154542074D01*
X180993037Y-154530050D01*
X181001105Y-154516372D01*
X181001077Y-154515646D01*
X180995935Y-154507345D01*
X178828812Y-152340222D01*
X178814868Y-152332608D01*
X178813035Y-152332739D01*
X178806420Y-152336990D01*
X176637361Y-154506049D01*
X176629747Y-154519993D01*
X55395969Y-154519993D01*
X55398105Y-154516372D01*
X55398077Y-154515646D01*
X55392935Y-154507345D01*
X53225812Y-152340222D01*
X53211868Y-152332608D01*
X53210035Y-152332739D01*
X53203420Y-152336990D01*
X51034361Y-154506049D01*
X51026747Y-154519993D01*
X48133000Y-154519993D01*
X48133000Y-151959857D01*
X49850192Y-151959857D01*
X49868251Y-152316334D01*
X49868961Y-152323090D01*
X49925411Y-152675519D01*
X49926850Y-152682174D01*
X50021030Y-153026437D01*
X50023179Y-153032898D01*
X50153991Y-153364984D01*
X50156822Y-153371167D01*
X50322734Y-153687184D01*
X50326217Y-153693026D01*
X50525292Y-153989281D01*
X50529385Y-153994711D01*
X50653892Y-154142569D01*
X50666631Y-154151013D01*
X50677074Y-154144916D01*
X52840978Y-151981012D01*
X52847356Y-151969332D01*
X53577408Y-151969332D01*
X53577539Y-151971165D01*
X53581790Y-151977780D01*
X55747511Y-154143501D01*
X55761108Y-154150926D01*
X55770717Y-154144229D01*
X55875251Y-154022698D01*
X55879400Y-154017310D01*
X56081561Y-153723164D01*
X56085108Y-153717353D01*
X56254311Y-153403108D01*
X56257218Y-153396930D01*
X56391499Y-153066238D01*
X56393713Y-153059808D01*
X56491493Y-152716546D01*
X56493000Y-152709916D01*
X56553141Y-152358081D01*
X56553921Y-152351341D01*
X56575808Y-151993475D01*
X56575924Y-151989873D01*
X56575994Y-151970020D01*
X56575902Y-151966393D01*
X56575548Y-151959857D01*
X175453192Y-151959857D01*
X175471251Y-152316334D01*
X175471961Y-152323090D01*
X175528411Y-152675519D01*
X175529850Y-152682174D01*
X175624030Y-153026437D01*
X175626179Y-153032898D01*
X175756991Y-153364984D01*
X175759822Y-153371167D01*
X175925734Y-153687184D01*
X175929217Y-153693026D01*
X176128292Y-153989281D01*
X176132385Y-153994711D01*
X176256892Y-154142569D01*
X176269631Y-154151013D01*
X176280074Y-154144916D01*
X178443978Y-151981012D01*
X178450356Y-151969332D01*
X179180408Y-151969332D01*
X179180539Y-151971165D01*
X179184790Y-151977780D01*
X181350511Y-154143501D01*
X181364108Y-154150926D01*
X181373717Y-154144229D01*
X181478251Y-154022698D01*
X181482400Y-154017310D01*
X181684561Y-153723164D01*
X181688108Y-153717353D01*
X181857311Y-153403108D01*
X181860218Y-153396930D01*
X181994499Y-153066238D01*
X181996713Y-153059808D01*
X182094493Y-152716546D01*
X182096000Y-152709916D01*
X182156141Y-152358081D01*
X182156921Y-152351341D01*
X182178808Y-151993475D01*
X182178924Y-151989873D01*
X182178994Y-151970020D01*
X182178902Y-151966393D01*
X182159514Y-151608400D01*
X182158779Y-151601634D01*
X182101101Y-151249418D01*
X182099634Y-151242746D01*
X182004258Y-150898834D01*
X182002084Y-150892370D01*
X181870115Y-150560747D01*
X181867259Y-150554567D01*
X181700249Y-150239139D01*
X181696749Y-150233314D01*
X181496637Y-149937750D01*
X181492523Y-149932330D01*
X181375089Y-149793856D01*
X181362263Y-149785419D01*
X181351938Y-149791472D01*
X179188022Y-151955388D01*
X179180408Y-151969332D01*
X178450356Y-151969332D01*
X178451592Y-151967068D01*
X178451461Y-151965235D01*
X178447210Y-151958620D01*
X176281479Y-149792889D01*
X176267942Y-149785497D01*
X176258241Y-149792284D01*
X176146595Y-149923006D01*
X176142461Y-149928414D01*
X175941336Y-150223251D01*
X175937801Y-150229088D01*
X175769694Y-150543925D01*
X175766813Y-150550104D01*
X175633689Y-150881260D01*
X175631498Y-150887695D01*
X175534913Y-151231306D01*
X175533430Y-151237942D01*
X175474521Y-151589965D01*
X175473762Y-151596737D01*
X175453216Y-151953062D01*
X175453192Y-151959857D01*
X56575548Y-151959857D01*
X56556514Y-151608400D01*
X56555779Y-151601634D01*
X56498101Y-151249418D01*
X56496634Y-151242746D01*
X56401258Y-150898834D01*
X56399084Y-150892370D01*
X56267115Y-150560747D01*
X56264259Y-150554567D01*
X56097249Y-150239139D01*
X56093749Y-150233314D01*
X55893637Y-149937750D01*
X55889523Y-149932330D01*
X55772089Y-149793856D01*
X55759263Y-149785419D01*
X55748938Y-149791472D01*
X53585022Y-151955388D01*
X53577408Y-151969332D01*
X52847356Y-151969332D01*
X52848592Y-151967068D01*
X52848461Y-151965235D01*
X52844210Y-151958620D01*
X50678479Y-149792889D01*
X50664942Y-149785497D01*
X50655241Y-149792284D01*
X50543595Y-149923006D01*
X50539461Y-149928414D01*
X50338336Y-150223251D01*
X50334801Y-150229088D01*
X50166694Y-150543925D01*
X50163813Y-150550104D01*
X50030689Y-150881260D01*
X50028498Y-150887695D01*
X49931913Y-151231306D01*
X49930430Y-151237942D01*
X49871521Y-151589965D01*
X49870762Y-151596737D01*
X49850216Y-151953062D01*
X49850192Y-151959857D01*
X48133000Y-151959857D01*
X48133000Y-149419646D01*
X51027532Y-149419646D01*
X51027567Y-149420486D01*
X51032618Y-149428608D01*
X53200188Y-151596178D01*
X53214132Y-151603792D01*
X53215965Y-151603661D01*
X53222580Y-151599410D01*
X55391214Y-149430776D01*
X55397291Y-149419646D01*
X176630532Y-149419646D01*
X176630567Y-149420486D01*
X176635618Y-149428608D01*
X178803188Y-151596178D01*
X178817132Y-151603792D01*
X178818965Y-151603661D01*
X178825580Y-151599410D01*
X180994214Y-149430776D01*
X181001828Y-149416832D01*
X181001760Y-149415877D01*
X180996817Y-149408402D01*
X180992915Y-149405081D01*
X180708993Y-149188790D01*
X180703369Y-149184968D01*
X180397755Y-149000609D01*
X180391738Y-148997410D01*
X180068006Y-148847139D01*
X180061670Y-148844605D01*
X179723612Y-148730179D01*
X179717044Y-148728345D01*
X179368606Y-148651099D01*
X179361867Y-148649983D01*
X179007109Y-148610817D01*
X179000328Y-148610438D01*
X178643391Y-148609815D01*
X178636618Y-148610170D01*
X178281704Y-148648099D01*
X178274994Y-148649186D01*
X177926271Y-148725220D01*
X177919696Y-148727031D01*
X177581225Y-148840282D01*
X177574903Y-148842785D01*
X177250649Y-148991925D01*
X177244606Y-148995111D01*
X176938362Y-149178395D01*
X176932716Y-149182203D01*
X176648038Y-149397503D01*
X176642848Y-149401890D01*
X176638555Y-149405935D01*
X176630532Y-149419646D01*
X55397291Y-149419646D01*
X55398828Y-149416832D01*
X55398760Y-149415877D01*
X55393817Y-149408402D01*
X55389915Y-149405081D01*
X55105993Y-149188790D01*
X55100369Y-149184968D01*
X54794755Y-149000609D01*
X54788738Y-148997410D01*
X54465006Y-148847139D01*
X54458670Y-148844605D01*
X54120612Y-148730179D01*
X54114044Y-148728345D01*
X53765606Y-148651099D01*
X53758867Y-148649983D01*
X53404109Y-148610817D01*
X53397328Y-148610438D01*
X53040391Y-148609815D01*
X53033618Y-148610170D01*
X52678704Y-148648099D01*
X52671994Y-148649186D01*
X52323271Y-148725220D01*
X52316696Y-148727031D01*
X51978225Y-148840282D01*
X51971903Y-148842785D01*
X51647649Y-148991925D01*
X51641606Y-148995111D01*
X51335362Y-149178395D01*
X51329716Y-149182203D01*
X51045038Y-149397503D01*
X51039848Y-149401890D01*
X51035555Y-149405935D01*
X51027532Y-149419646D01*
X48133000Y-149419646D01*
X48133000Y-143751600D01*
X74802018Y-143751600D01*
X74818768Y-144042100D01*
X74819593Y-144046307D01*
X74819594Y-144046312D01*
X74846089Y-144181358D01*
X74874789Y-144327640D01*
X74969044Y-144602935D01*
X75099788Y-144862890D01*
X75264602Y-145102697D01*
X75460438Y-145317917D01*
X75463727Y-145320667D01*
X75680378Y-145501816D01*
X75680383Y-145501820D01*
X75683670Y-145504568D01*
X75806919Y-145581882D01*
X75926528Y-145656913D01*
X75926532Y-145656915D01*
X75930168Y-145659196D01*
X75998429Y-145690017D01*
X76191459Y-145777174D01*
X76191463Y-145777176D01*
X76195371Y-145778940D01*
X76199490Y-145780160D01*
X76470258Y-145860366D01*
X76470263Y-145860367D01*
X76474371Y-145861584D01*
X76478605Y-145862232D01*
X76478610Y-145862233D01*
X76757764Y-145904949D01*
X76757766Y-145904949D01*
X76762006Y-145905598D01*
X76910198Y-145907926D01*
X77048662Y-145910101D01*
X77048668Y-145910101D01*
X77052953Y-145910168D01*
X77341828Y-145875211D01*
X77623287Y-145801371D01*
X77892120Y-145690017D01*
X78143354Y-145543208D01*
X78372338Y-145363661D01*
X78574837Y-145154699D01*
X78577370Y-145151251D01*
X78577374Y-145151246D01*
X78744565Y-144923642D01*
X78747103Y-144920187D01*
X78749149Y-144916419D01*
X78883898Y-144668242D01*
X78883899Y-144668240D01*
X78885948Y-144664466D01*
X78988803Y-144392268D01*
X79053765Y-144108629D01*
X79079632Y-143818798D01*
X79080101Y-143774000D01*
X79078574Y-143751600D01*
X86102016Y-143751600D01*
X86118766Y-144042100D01*
X86119591Y-144046307D01*
X86119592Y-144046312D01*
X86146087Y-144181358D01*
X86174787Y-144327640D01*
X86269042Y-144602935D01*
X86399786Y-144862890D01*
X86564600Y-145102697D01*
X86760436Y-145317917D01*
X86763725Y-145320667D01*
X86980376Y-145501816D01*
X86980381Y-145501820D01*
X86983668Y-145504568D01*
X87106917Y-145581882D01*
X87226526Y-145656913D01*
X87226530Y-145656915D01*
X87230166Y-145659196D01*
X87298427Y-145690017D01*
X87491457Y-145777174D01*
X87491461Y-145777176D01*
X87495369Y-145778940D01*
X87499488Y-145780160D01*
X87770256Y-145860366D01*
X87770261Y-145860367D01*
X87774369Y-145861584D01*
X87778603Y-145862232D01*
X87778608Y-145862233D01*
X88057762Y-145904949D01*
X88057764Y-145904949D01*
X88062004Y-145905598D01*
X88210196Y-145907926D01*
X88348660Y-145910101D01*
X88348666Y-145910101D01*
X88352951Y-145910168D01*
X88641826Y-145875211D01*
X88923285Y-145801371D01*
X89192118Y-145690017D01*
X89443352Y-145543208D01*
X89672336Y-145363661D01*
X89874835Y-145154699D01*
X89877368Y-145151251D01*
X89877372Y-145151246D01*
X90044563Y-144923642D01*
X90047101Y-144920187D01*
X90049147Y-144916419D01*
X90183896Y-144668242D01*
X90183897Y-144668240D01*
X90185946Y-144664466D01*
X90288801Y-144392268D01*
X90353763Y-144108629D01*
X90379630Y-143818798D01*
X90380099Y-143774000D01*
X90378572Y-143751600D01*
X120894868Y-143751600D01*
X120911618Y-144042100D01*
X120912443Y-144046307D01*
X120912444Y-144046312D01*
X120938939Y-144181358D01*
X120967639Y-144327640D01*
X121061894Y-144602935D01*
X121192638Y-144862890D01*
X121357452Y-145102697D01*
X121553288Y-145317917D01*
X121556577Y-145320667D01*
X121773228Y-145501816D01*
X121773233Y-145501820D01*
X121776520Y-145504568D01*
X121899769Y-145581882D01*
X122019378Y-145656913D01*
X122019382Y-145656915D01*
X122023018Y-145659196D01*
X122091279Y-145690017D01*
X122284309Y-145777174D01*
X122284313Y-145777176D01*
X122288221Y-145778940D01*
X122292340Y-145780160D01*
X122563108Y-145860366D01*
X122563113Y-145860367D01*
X122567221Y-145861584D01*
X122571455Y-145862232D01*
X122571460Y-145862233D01*
X122850614Y-145904949D01*
X122850616Y-145904949D01*
X122854856Y-145905598D01*
X123003048Y-145907926D01*
X123141512Y-145910101D01*
X123141518Y-145910101D01*
X123145803Y-145910168D01*
X123434678Y-145875211D01*
X123716137Y-145801371D01*
X123984970Y-145690017D01*
X124236204Y-145543208D01*
X124465188Y-145363661D01*
X124667687Y-145154699D01*
X124670220Y-145151251D01*
X124670224Y-145151246D01*
X124837415Y-144923642D01*
X124839953Y-144920187D01*
X124841999Y-144916419D01*
X124976748Y-144668242D01*
X124976749Y-144668240D01*
X124978798Y-144664466D01*
X125081653Y-144392268D01*
X125146615Y-144108629D01*
X125172482Y-143818798D01*
X125172951Y-143774000D01*
X125171424Y-143751600D01*
X132194866Y-143751600D01*
X132211616Y-144042100D01*
X132212441Y-144046307D01*
X132212442Y-144046312D01*
X132238937Y-144181358D01*
X132267637Y-144327640D01*
X132361892Y-144602935D01*
X132492636Y-144862890D01*
X132657450Y-145102697D01*
X132853286Y-145317917D01*
X132856575Y-145320667D01*
X133073226Y-145501816D01*
X133073231Y-145501820D01*
X133076518Y-145504568D01*
X133199767Y-145581882D01*
X133319376Y-145656913D01*
X133319380Y-145656915D01*
X133323016Y-145659196D01*
X133391277Y-145690017D01*
X133584307Y-145777174D01*
X133584311Y-145777176D01*
X133588219Y-145778940D01*
X133592338Y-145780160D01*
X133863106Y-145860366D01*
X133863111Y-145860367D01*
X133867219Y-145861584D01*
X133871453Y-145862232D01*
X133871458Y-145862233D01*
X134150612Y-145904949D01*
X134150614Y-145904949D01*
X134154854Y-145905598D01*
X134303046Y-145907926D01*
X134441510Y-145910101D01*
X134441516Y-145910101D01*
X134445801Y-145910168D01*
X134734676Y-145875211D01*
X135016135Y-145801371D01*
X135284968Y-145690017D01*
X135536202Y-145543208D01*
X135765186Y-145363661D01*
X135967685Y-145154699D01*
X135970218Y-145151251D01*
X135970222Y-145151246D01*
X136137413Y-144923642D01*
X136139951Y-144920187D01*
X136141997Y-144916419D01*
X136276746Y-144668242D01*
X136276747Y-144668240D01*
X136278796Y-144664466D01*
X136381651Y-144392268D01*
X136446613Y-144108629D01*
X136472480Y-143818798D01*
X136472949Y-143774000D01*
X136471422Y-143751600D01*
X151055168Y-143751600D01*
X151071918Y-144042100D01*
X151072743Y-144046307D01*
X151072744Y-144046312D01*
X151099239Y-144181358D01*
X151127939Y-144327640D01*
X151222194Y-144602935D01*
X151352938Y-144862890D01*
X151517752Y-145102697D01*
X151713588Y-145317917D01*
X151716877Y-145320667D01*
X151933528Y-145501816D01*
X151933533Y-145501820D01*
X151936820Y-145504568D01*
X152060069Y-145581882D01*
X152179678Y-145656913D01*
X152179682Y-145656915D01*
X152183318Y-145659196D01*
X152251579Y-145690017D01*
X152444609Y-145777174D01*
X152444613Y-145777176D01*
X152448521Y-145778940D01*
X152452640Y-145780160D01*
X152723408Y-145860366D01*
X152723413Y-145860367D01*
X152727521Y-145861584D01*
X152731755Y-145862232D01*
X152731760Y-145862233D01*
X153010914Y-145904949D01*
X153010916Y-145904949D01*
X153015156Y-145905598D01*
X153163348Y-145907926D01*
X153301812Y-145910101D01*
X153301818Y-145910101D01*
X153306103Y-145910168D01*
X153594978Y-145875211D01*
X153876437Y-145801371D01*
X154145270Y-145690017D01*
X154396504Y-145543208D01*
X154625488Y-145363661D01*
X154827987Y-145154699D01*
X154830520Y-145151251D01*
X154830524Y-145151246D01*
X154997715Y-144923642D01*
X155000253Y-144920187D01*
X155002299Y-144916419D01*
X155137048Y-144668242D01*
X155137049Y-144668240D01*
X155139098Y-144664466D01*
X155241953Y-144392268D01*
X155306915Y-144108629D01*
X155332782Y-143818798D01*
X155333251Y-143774000D01*
X155331724Y-143751600D01*
X162355166Y-143751600D01*
X162371916Y-144042100D01*
X162372741Y-144046307D01*
X162372742Y-144046312D01*
X162399237Y-144181358D01*
X162427937Y-144327640D01*
X162522192Y-144602935D01*
X162652936Y-144862890D01*
X162817750Y-145102697D01*
X163013586Y-145317917D01*
X163016875Y-145320667D01*
X163233526Y-145501816D01*
X163233531Y-145501820D01*
X163236818Y-145504568D01*
X163360067Y-145581882D01*
X163479676Y-145656913D01*
X163479680Y-145656915D01*
X163483316Y-145659196D01*
X163551577Y-145690017D01*
X163744607Y-145777174D01*
X163744611Y-145777176D01*
X163748519Y-145778940D01*
X163752638Y-145780160D01*
X164023406Y-145860366D01*
X164023411Y-145860367D01*
X164027519Y-145861584D01*
X164031753Y-145862232D01*
X164031758Y-145862233D01*
X164310912Y-145904949D01*
X164310914Y-145904949D01*
X164315154Y-145905598D01*
X164463346Y-145907926D01*
X164601810Y-145910101D01*
X164601816Y-145910101D01*
X164606101Y-145910168D01*
X164894976Y-145875211D01*
X165176435Y-145801371D01*
X165445268Y-145690017D01*
X165696502Y-145543208D01*
X165925486Y-145363661D01*
X166127985Y-145154699D01*
X166130518Y-145151251D01*
X166130522Y-145151246D01*
X166297713Y-144923642D01*
X166300251Y-144920187D01*
X166302297Y-144916419D01*
X166437046Y-144668242D01*
X166437047Y-144668240D01*
X166439096Y-144664466D01*
X166541951Y-144392268D01*
X166606913Y-144108629D01*
X166632780Y-143818798D01*
X166633249Y-143774000D01*
X166613458Y-143483691D01*
X166607999Y-143457328D01*
X166555319Y-143202951D01*
X166554450Y-143198754D01*
X166457318Y-142924461D01*
X166323859Y-142665888D01*
X166313110Y-142650593D01*
X166159009Y-142431331D01*
X166159008Y-142431330D01*
X166156542Y-142427821D01*
X165958464Y-142214663D01*
X165943630Y-142202521D01*
X165736607Y-142033076D01*
X165733289Y-142030360D01*
X165682215Y-141999062D01*
X165488836Y-141880558D01*
X165488828Y-141880554D01*
X165485186Y-141878322D01*
X165481269Y-141876603D01*
X165481266Y-141876601D01*
X165363798Y-141825037D01*
X165218743Y-141761362D01*
X165214615Y-141760186D01*
X165214612Y-141760185D01*
X164943021Y-141682820D01*
X164943022Y-141682820D01*
X164938893Y-141681644D01*
X164723064Y-141650928D01*
X164655065Y-141641250D01*
X164655063Y-141641250D01*
X164650813Y-141640645D01*
X164646524Y-141640623D01*
X164646517Y-141640622D01*
X164364120Y-141639143D01*
X164364113Y-141639143D01*
X164359834Y-141639121D01*
X164355590Y-141639680D01*
X164355586Y-141639680D01*
X164228568Y-141656403D01*
X164071340Y-141677102D01*
X164067200Y-141678235D01*
X164067198Y-141678235D01*
X163794815Y-141752751D01*
X163790670Y-141753885D01*
X163523018Y-141868048D01*
X163372291Y-141958256D01*
X163277018Y-142015276D01*
X163277014Y-142015279D01*
X163273336Y-142017480D01*
X163046244Y-142199415D01*
X163043300Y-142202517D01*
X163043296Y-142202521D01*
X163031774Y-142214663D01*
X162845944Y-142410486D01*
X162843445Y-142413964D01*
X162843444Y-142413965D01*
X162678652Y-142643298D01*
X162678649Y-142643303D01*
X162676144Y-142646789D01*
X162539984Y-142903950D01*
X162439985Y-143177210D01*
X162377997Y-143461514D01*
X162355166Y-143751600D01*
X155331724Y-143751600D01*
X155313460Y-143483691D01*
X155308001Y-143457328D01*
X155255321Y-143202951D01*
X155254452Y-143198754D01*
X155157320Y-142924461D01*
X155023861Y-142665888D01*
X155013112Y-142650593D01*
X154859011Y-142431331D01*
X154859010Y-142431330D01*
X154856544Y-142427821D01*
X154658466Y-142214663D01*
X154643632Y-142202521D01*
X154436609Y-142033076D01*
X154433291Y-142030360D01*
X154382217Y-141999062D01*
X154188838Y-141880558D01*
X154188830Y-141880554D01*
X154185188Y-141878322D01*
X154181271Y-141876603D01*
X154181268Y-141876601D01*
X154063800Y-141825037D01*
X153918745Y-141761362D01*
X153914617Y-141760186D01*
X153914614Y-141760185D01*
X153643023Y-141682820D01*
X153643024Y-141682820D01*
X153638895Y-141681644D01*
X153423066Y-141650928D01*
X153355067Y-141641250D01*
X153355065Y-141641250D01*
X153350815Y-141640645D01*
X153346526Y-141640623D01*
X153346519Y-141640622D01*
X153064122Y-141639143D01*
X153064115Y-141639143D01*
X153059836Y-141639121D01*
X153055592Y-141639680D01*
X153055588Y-141639680D01*
X152928570Y-141656403D01*
X152771342Y-141677102D01*
X152767202Y-141678235D01*
X152767200Y-141678235D01*
X152494817Y-141752751D01*
X152490672Y-141753885D01*
X152223020Y-141868048D01*
X152072293Y-141958256D01*
X151977020Y-142015276D01*
X151977016Y-142015279D01*
X151973338Y-142017480D01*
X151746246Y-142199415D01*
X151743302Y-142202517D01*
X151743298Y-142202521D01*
X151731776Y-142214663D01*
X151545946Y-142410486D01*
X151543447Y-142413964D01*
X151543446Y-142413965D01*
X151378654Y-142643298D01*
X151378651Y-142643303D01*
X151376146Y-142646789D01*
X151239986Y-142903950D01*
X151139987Y-143177210D01*
X151077999Y-143461514D01*
X151055168Y-143751600D01*
X136471422Y-143751600D01*
X136453158Y-143483691D01*
X136447699Y-143457328D01*
X136395019Y-143202951D01*
X136394150Y-143198754D01*
X136297018Y-142924461D01*
X136163559Y-142665888D01*
X136152810Y-142650593D01*
X135998709Y-142431331D01*
X135998708Y-142431330D01*
X135996242Y-142427821D01*
X135798164Y-142214663D01*
X135783330Y-142202521D01*
X135576307Y-142033076D01*
X135572989Y-142030360D01*
X135521915Y-141999062D01*
X135328536Y-141880558D01*
X135328528Y-141880554D01*
X135324886Y-141878322D01*
X135320969Y-141876603D01*
X135320966Y-141876601D01*
X135203498Y-141825037D01*
X135058443Y-141761362D01*
X135054315Y-141760186D01*
X135054312Y-141760185D01*
X134782721Y-141682820D01*
X134782722Y-141682820D01*
X134778593Y-141681644D01*
X134562764Y-141650928D01*
X134494765Y-141641250D01*
X134494763Y-141641250D01*
X134490513Y-141640645D01*
X134486224Y-141640623D01*
X134486217Y-141640622D01*
X134203820Y-141639143D01*
X134203813Y-141639143D01*
X134199534Y-141639121D01*
X134195290Y-141639680D01*
X134195286Y-141639680D01*
X134068268Y-141656403D01*
X133911040Y-141677102D01*
X133906900Y-141678235D01*
X133906898Y-141678235D01*
X133634515Y-141752751D01*
X133630370Y-141753885D01*
X133362718Y-141868048D01*
X133211991Y-141958256D01*
X133116718Y-142015276D01*
X133116714Y-142015279D01*
X133113036Y-142017480D01*
X132885944Y-142199415D01*
X132883000Y-142202517D01*
X132882996Y-142202521D01*
X132871474Y-142214663D01*
X132685644Y-142410486D01*
X132683145Y-142413964D01*
X132683144Y-142413965D01*
X132518352Y-142643298D01*
X132518349Y-142643303D01*
X132515844Y-142646789D01*
X132379684Y-142903950D01*
X132279685Y-143177210D01*
X132217697Y-143461514D01*
X132194866Y-143751600D01*
X125171424Y-143751600D01*
X125153160Y-143483691D01*
X125147701Y-143457328D01*
X125095021Y-143202951D01*
X125094152Y-143198754D01*
X124997020Y-142924461D01*
X124863561Y-142665888D01*
X124852812Y-142650593D01*
X124698711Y-142431331D01*
X124698710Y-142431330D01*
X124696244Y-142427821D01*
X124498166Y-142214663D01*
X124483332Y-142202521D01*
X124276309Y-142033076D01*
X124272991Y-142030360D01*
X124221917Y-141999062D01*
X124028538Y-141880558D01*
X124028530Y-141880554D01*
X124024888Y-141878322D01*
X124020971Y-141876603D01*
X124020968Y-141876601D01*
X123903500Y-141825037D01*
X123758445Y-141761362D01*
X123754317Y-141760186D01*
X123754314Y-141760185D01*
X123482723Y-141682820D01*
X123482724Y-141682820D01*
X123478595Y-141681644D01*
X123262766Y-141650928D01*
X123194767Y-141641250D01*
X123194765Y-141641250D01*
X123190515Y-141640645D01*
X123186226Y-141640623D01*
X123186219Y-141640622D01*
X122903822Y-141639143D01*
X122903815Y-141639143D01*
X122899536Y-141639121D01*
X122895292Y-141639680D01*
X122895288Y-141639680D01*
X122768270Y-141656403D01*
X122611042Y-141677102D01*
X122606902Y-141678235D01*
X122606900Y-141678235D01*
X122334517Y-141752751D01*
X122330372Y-141753885D01*
X122062720Y-141868048D01*
X121911993Y-141958256D01*
X121816720Y-142015276D01*
X121816716Y-142015279D01*
X121813038Y-142017480D01*
X121585946Y-142199415D01*
X121583002Y-142202517D01*
X121582998Y-142202521D01*
X121571476Y-142214663D01*
X121385646Y-142410486D01*
X121383147Y-142413964D01*
X121383146Y-142413965D01*
X121218354Y-142643298D01*
X121218351Y-142643303D01*
X121215846Y-142646789D01*
X121079686Y-142903950D01*
X120979687Y-143177210D01*
X120917699Y-143461514D01*
X120894868Y-143751600D01*
X90378572Y-143751600D01*
X90360308Y-143483691D01*
X90354849Y-143457328D01*
X90302169Y-143202951D01*
X90301300Y-143198754D01*
X90204168Y-142924461D01*
X90070709Y-142665888D01*
X90059960Y-142650593D01*
X89905859Y-142431331D01*
X89905858Y-142431330D01*
X89903392Y-142427821D01*
X89705314Y-142214663D01*
X89690480Y-142202521D01*
X89483457Y-142033076D01*
X89480139Y-142030360D01*
X89429065Y-141999062D01*
X89235686Y-141880558D01*
X89235678Y-141880554D01*
X89232036Y-141878322D01*
X89228119Y-141876603D01*
X89228116Y-141876601D01*
X89110648Y-141825037D01*
X88965593Y-141761362D01*
X88961465Y-141760186D01*
X88961462Y-141760185D01*
X88689871Y-141682820D01*
X88689872Y-141682820D01*
X88685743Y-141681644D01*
X88469914Y-141650928D01*
X88401915Y-141641250D01*
X88401913Y-141641250D01*
X88397663Y-141640645D01*
X88393374Y-141640623D01*
X88393367Y-141640622D01*
X88110970Y-141639143D01*
X88110963Y-141639143D01*
X88106684Y-141639121D01*
X88102440Y-141639680D01*
X88102436Y-141639680D01*
X87975418Y-141656403D01*
X87818190Y-141677102D01*
X87814050Y-141678235D01*
X87814048Y-141678235D01*
X87541665Y-141752751D01*
X87537520Y-141753885D01*
X87269868Y-141868048D01*
X87119141Y-141958256D01*
X87023868Y-142015276D01*
X87023864Y-142015279D01*
X87020186Y-142017480D01*
X86793094Y-142199415D01*
X86790150Y-142202517D01*
X86790146Y-142202521D01*
X86778624Y-142214663D01*
X86592794Y-142410486D01*
X86590295Y-142413964D01*
X86590294Y-142413965D01*
X86425502Y-142643298D01*
X86425499Y-142643303D01*
X86422994Y-142646789D01*
X86286834Y-142903950D01*
X86186835Y-143177210D01*
X86124847Y-143461514D01*
X86102016Y-143751600D01*
X79078574Y-143751600D01*
X79060310Y-143483691D01*
X79054851Y-143457328D01*
X79002171Y-143202951D01*
X79001302Y-143198754D01*
X78904170Y-142924461D01*
X78770711Y-142665888D01*
X78759962Y-142650593D01*
X78605861Y-142431331D01*
X78605860Y-142431330D01*
X78603394Y-142427821D01*
X78405316Y-142214663D01*
X78390482Y-142202521D01*
X78183459Y-142033076D01*
X78180141Y-142030360D01*
X78129067Y-141999062D01*
X77935688Y-141880558D01*
X77935680Y-141880554D01*
X77932038Y-141878322D01*
X77928121Y-141876603D01*
X77928118Y-141876601D01*
X77810650Y-141825037D01*
X77665595Y-141761362D01*
X77661467Y-141760186D01*
X77661464Y-141760185D01*
X77389873Y-141682820D01*
X77389874Y-141682820D01*
X77385745Y-141681644D01*
X77169916Y-141650928D01*
X77101917Y-141641250D01*
X77101915Y-141641250D01*
X77097665Y-141640645D01*
X77093376Y-141640623D01*
X77093369Y-141640622D01*
X76810972Y-141639143D01*
X76810965Y-141639143D01*
X76806686Y-141639121D01*
X76802442Y-141639680D01*
X76802438Y-141639680D01*
X76675420Y-141656403D01*
X76518192Y-141677102D01*
X76514052Y-141678235D01*
X76514050Y-141678235D01*
X76241667Y-141752751D01*
X76237522Y-141753885D01*
X75969870Y-141868048D01*
X75819143Y-141958256D01*
X75723870Y-142015276D01*
X75723866Y-142015279D01*
X75720188Y-142017480D01*
X75493096Y-142199415D01*
X75490152Y-142202517D01*
X75490148Y-142202521D01*
X75478626Y-142214663D01*
X75292796Y-142410486D01*
X75290297Y-142413964D01*
X75290296Y-142413965D01*
X75125504Y-142643298D01*
X75125501Y-142643303D01*
X75122996Y-142646789D01*
X74986836Y-142903950D01*
X74886837Y-143177210D01*
X74824849Y-143461514D01*
X74802018Y-143751600D01*
X48133000Y-143751600D01*
X48133000Y-140072464D01*
X73599888Y-140072464D01*
X73637182Y-140319063D01*
X73713423Y-140556526D01*
X73826650Y-140778746D01*
X73973948Y-140980004D01*
X74151530Y-141155123D01*
X74354825Y-141299597D01*
X74359355Y-141301826D01*
X74359360Y-141301829D01*
X74574062Y-141407475D01*
X74574067Y-141407477D01*
X74578603Y-141409709D01*
X74583447Y-141411190D01*
X74812260Y-141481146D01*
X74812262Y-141481147D01*
X74817108Y-141482628D01*
X75064203Y-141516476D01*
X75145626Y-141514486D01*
X75308469Y-141510506D01*
X75308472Y-141510506D01*
X75313531Y-141510382D01*
X75558678Y-141464504D01*
X75793336Y-141380022D01*
X76011469Y-141259109D01*
X76015447Y-141255979D01*
X76015451Y-141255976D01*
X76203487Y-141108006D01*
X76203488Y-141108005D01*
X76207463Y-141104877D01*
X76376278Y-140921292D01*
X76513569Y-140713079D01*
X76586095Y-140551702D01*
X76613731Y-140490210D01*
X76613733Y-140490204D01*
X76615805Y-140485594D01*
X76617114Y-140480709D01*
X76679047Y-140249571D01*
X76679047Y-140249570D01*
X76680355Y-140244689D01*
X76697849Y-140072464D01*
X88479888Y-140072464D01*
X88517182Y-140319063D01*
X88593423Y-140556526D01*
X88706650Y-140778746D01*
X88853948Y-140980004D01*
X89031530Y-141155123D01*
X89234825Y-141299597D01*
X89239355Y-141301826D01*
X89239360Y-141301829D01*
X89454062Y-141407475D01*
X89454067Y-141407477D01*
X89458603Y-141409709D01*
X89463447Y-141411190D01*
X89692260Y-141481146D01*
X89692262Y-141481147D01*
X89697108Y-141482628D01*
X89944203Y-141516476D01*
X90025626Y-141514486D01*
X90188469Y-141510506D01*
X90188472Y-141510506D01*
X90193531Y-141510382D01*
X90438678Y-141464504D01*
X90673336Y-141380022D01*
X90891469Y-141259109D01*
X90895447Y-141255979D01*
X90895451Y-141255976D01*
X91083487Y-141108006D01*
X91083488Y-141108005D01*
X91087463Y-141104877D01*
X91256278Y-140921292D01*
X91393569Y-140713079D01*
X91466095Y-140551702D01*
X91493731Y-140490210D01*
X91493733Y-140490204D01*
X91495805Y-140485594D01*
X91497114Y-140480709D01*
X91559047Y-140249571D01*
X91559047Y-140249570D01*
X91560355Y-140244689D01*
X91577849Y-140072464D01*
X119692738Y-140072464D01*
X119730032Y-140319063D01*
X119806273Y-140556526D01*
X119919500Y-140778746D01*
X120066798Y-140980004D01*
X120244380Y-141155123D01*
X120447675Y-141299597D01*
X120452205Y-141301826D01*
X120452210Y-141301829D01*
X120666912Y-141407475D01*
X120666917Y-141407477D01*
X120671453Y-141409709D01*
X120676297Y-141411190D01*
X120905110Y-141481146D01*
X120905112Y-141481147D01*
X120909958Y-141482628D01*
X121157053Y-141516476D01*
X121238476Y-141514486D01*
X121401319Y-141510506D01*
X121401322Y-141510506D01*
X121406381Y-141510382D01*
X121651528Y-141464504D01*
X121886186Y-141380022D01*
X122104319Y-141259109D01*
X122108297Y-141255979D01*
X122108301Y-141255976D01*
X122296337Y-141108006D01*
X122296338Y-141108005D01*
X122300313Y-141104877D01*
X122469128Y-140921292D01*
X122606419Y-140713079D01*
X122678945Y-140551702D01*
X122706581Y-140490210D01*
X122706583Y-140490204D01*
X122708655Y-140485594D01*
X122709964Y-140480709D01*
X122771897Y-140249571D01*
X122771897Y-140249570D01*
X122773205Y-140244689D01*
X122790699Y-140072464D01*
X134572738Y-140072464D01*
X134610032Y-140319063D01*
X134686273Y-140556526D01*
X134799500Y-140778746D01*
X134946798Y-140980004D01*
X135124380Y-141155123D01*
X135327675Y-141299597D01*
X135332205Y-141301826D01*
X135332210Y-141301829D01*
X135546912Y-141407475D01*
X135546917Y-141407477D01*
X135551453Y-141409709D01*
X135556297Y-141411190D01*
X135785110Y-141481146D01*
X135785112Y-141481147D01*
X135789958Y-141482628D01*
X136037053Y-141516476D01*
X136118476Y-141514486D01*
X136281319Y-141510506D01*
X136281322Y-141510506D01*
X136286381Y-141510382D01*
X136531528Y-141464504D01*
X136766186Y-141380022D01*
X136984319Y-141259109D01*
X136988297Y-141255979D01*
X136988301Y-141255976D01*
X137176337Y-141108006D01*
X137176338Y-141108005D01*
X137180313Y-141104877D01*
X137349128Y-140921292D01*
X137486419Y-140713079D01*
X137558945Y-140551702D01*
X137586581Y-140490210D01*
X137586583Y-140490204D01*
X137588655Y-140485594D01*
X137589964Y-140480709D01*
X137651897Y-140249571D01*
X137651897Y-140249570D01*
X137653205Y-140244689D01*
X137670699Y-140072464D01*
X149853038Y-140072464D01*
X149890332Y-140319063D01*
X149966573Y-140556526D01*
X150079800Y-140778746D01*
X150227098Y-140980004D01*
X150404680Y-141155123D01*
X150607975Y-141299597D01*
X150612505Y-141301826D01*
X150612510Y-141301829D01*
X150827212Y-141407475D01*
X150827217Y-141407477D01*
X150831753Y-141409709D01*
X150836597Y-141411190D01*
X151065410Y-141481146D01*
X151065412Y-141481147D01*
X151070258Y-141482628D01*
X151317353Y-141516476D01*
X151398776Y-141514486D01*
X151561619Y-141510506D01*
X151561622Y-141510506D01*
X151566681Y-141510382D01*
X151811828Y-141464504D01*
X152046486Y-141380022D01*
X152264619Y-141259109D01*
X152268597Y-141255979D01*
X152268601Y-141255976D01*
X152456637Y-141108006D01*
X152456638Y-141108005D01*
X152460613Y-141104877D01*
X152629428Y-140921292D01*
X152766719Y-140713079D01*
X152839245Y-140551702D01*
X152866881Y-140490210D01*
X152866883Y-140490204D01*
X152868955Y-140485594D01*
X152870264Y-140480709D01*
X152932197Y-140249571D01*
X152932197Y-140249570D01*
X152933505Y-140244689D01*
X152950999Y-140072464D01*
X164733038Y-140072464D01*
X164770332Y-140319063D01*
X164846573Y-140556526D01*
X164959800Y-140778746D01*
X165107098Y-140980004D01*
X165284680Y-141155123D01*
X165487975Y-141299597D01*
X165492505Y-141301826D01*
X165492510Y-141301829D01*
X165707212Y-141407475D01*
X165707217Y-141407477D01*
X165711753Y-141409709D01*
X165716597Y-141411190D01*
X165945410Y-141481146D01*
X165945412Y-141481147D01*
X165950258Y-141482628D01*
X166197353Y-141516476D01*
X166278776Y-141514486D01*
X166441619Y-141510506D01*
X166441622Y-141510506D01*
X166446681Y-141510382D01*
X166691828Y-141464504D01*
X166926486Y-141380022D01*
X167144619Y-141259109D01*
X167148597Y-141255979D01*
X167148601Y-141255976D01*
X167336637Y-141108006D01*
X167336638Y-141108005D01*
X167340613Y-141104877D01*
X167509428Y-140921292D01*
X167646719Y-140713079D01*
X167719245Y-140551702D01*
X167746881Y-140490210D01*
X167746883Y-140490204D01*
X167748955Y-140485594D01*
X167750264Y-140480709D01*
X167812197Y-140249571D01*
X167812197Y-140249570D01*
X167813505Y-140244689D01*
X167838709Y-139996563D01*
X167839050Y-139964000D01*
X167838821Y-139961152D01*
X167819454Y-139720443D01*
X167819453Y-139720439D01*
X167819048Y-139715401D01*
X167759557Y-139473197D01*
X167662108Y-139243621D01*
X167529207Y-139032578D01*
X167364274Y-138845499D01*
X167171553Y-138687195D01*
X166956000Y-138561741D01*
X166817970Y-138508756D01*
X166727887Y-138474176D01*
X166727883Y-138474175D01*
X166723163Y-138472363D01*
X166718213Y-138471329D01*
X166718210Y-138471328D01*
X166483982Y-138422395D01*
X166483978Y-138422395D01*
X166479031Y-138421361D01*
X166229885Y-138410047D01*
X166224865Y-138410628D01*
X166224861Y-138410628D01*
X165987162Y-138438131D01*
X165987158Y-138438132D01*
X165982135Y-138438713D01*
X165977270Y-138440090D01*
X165977268Y-138440090D01*
X165810219Y-138487360D01*
X165742155Y-138506620D01*
X165516120Y-138612022D01*
X165511940Y-138614863D01*
X165511936Y-138614865D01*
X165424477Y-138674303D01*
X165309844Y-138752207D01*
X165128634Y-138923569D01*
X165125556Y-138927595D01*
X165125555Y-138927596D01*
X164980226Y-139117678D01*
X164980223Y-139117682D01*
X164977153Y-139121698D01*
X164859298Y-139341497D01*
X164778100Y-139577312D01*
X164735649Y-139823075D01*
X164733038Y-140072464D01*
X152950999Y-140072464D01*
X152958709Y-139996563D01*
X152959050Y-139964000D01*
X152958821Y-139961152D01*
X152939454Y-139720443D01*
X152939453Y-139720439D01*
X152939048Y-139715401D01*
X152879557Y-139473197D01*
X152782108Y-139243621D01*
X152649207Y-139032578D01*
X152484274Y-138845499D01*
X152291553Y-138687195D01*
X152076000Y-138561741D01*
X151937970Y-138508756D01*
X151847887Y-138474176D01*
X151847883Y-138474175D01*
X151843163Y-138472363D01*
X151838213Y-138471329D01*
X151838210Y-138471328D01*
X151603982Y-138422395D01*
X151603978Y-138422395D01*
X151599031Y-138421361D01*
X151349885Y-138410047D01*
X151344865Y-138410628D01*
X151344861Y-138410628D01*
X151107162Y-138438131D01*
X151107158Y-138438132D01*
X151102135Y-138438713D01*
X151097270Y-138440090D01*
X151097268Y-138440090D01*
X150930219Y-138487360D01*
X150862155Y-138506620D01*
X150636120Y-138612022D01*
X150631940Y-138614863D01*
X150631936Y-138614865D01*
X150544477Y-138674303D01*
X150429844Y-138752207D01*
X150248634Y-138923569D01*
X150245556Y-138927595D01*
X150245555Y-138927596D01*
X150100226Y-139117678D01*
X150100223Y-139117682D01*
X150097153Y-139121698D01*
X149979298Y-139341497D01*
X149898100Y-139577312D01*
X149855649Y-139823075D01*
X149853038Y-140072464D01*
X137670699Y-140072464D01*
X137678409Y-139996563D01*
X137678750Y-139964000D01*
X137678521Y-139961152D01*
X137659154Y-139720443D01*
X137659153Y-139720439D01*
X137658748Y-139715401D01*
X137599257Y-139473197D01*
X137501808Y-139243621D01*
X137368907Y-139032578D01*
X137203974Y-138845499D01*
X137011253Y-138687195D01*
X136795700Y-138561741D01*
X136657670Y-138508756D01*
X136567587Y-138474176D01*
X136567583Y-138474175D01*
X136562863Y-138472363D01*
X136557913Y-138471329D01*
X136557910Y-138471328D01*
X136323682Y-138422395D01*
X136323678Y-138422395D01*
X136318731Y-138421361D01*
X136069585Y-138410047D01*
X136064565Y-138410628D01*
X136064561Y-138410628D01*
X135826862Y-138438131D01*
X135826858Y-138438132D01*
X135821835Y-138438713D01*
X135816970Y-138440090D01*
X135816968Y-138440090D01*
X135649919Y-138487360D01*
X135581855Y-138506620D01*
X135355820Y-138612022D01*
X135351640Y-138614863D01*
X135351636Y-138614865D01*
X135264177Y-138674303D01*
X135149544Y-138752207D01*
X134968334Y-138923569D01*
X134965256Y-138927595D01*
X134965255Y-138927596D01*
X134819926Y-139117678D01*
X134819923Y-139117682D01*
X134816853Y-139121698D01*
X134698998Y-139341497D01*
X134617800Y-139577312D01*
X134575349Y-139823075D01*
X134572738Y-140072464D01*
X122790699Y-140072464D01*
X122798409Y-139996563D01*
X122798750Y-139964000D01*
X122798521Y-139961152D01*
X122779154Y-139720443D01*
X122779153Y-139720439D01*
X122778748Y-139715401D01*
X122719257Y-139473197D01*
X122621808Y-139243621D01*
X122488907Y-139032578D01*
X122323974Y-138845499D01*
X122131253Y-138687195D01*
X121915700Y-138561741D01*
X121777670Y-138508756D01*
X121687587Y-138474176D01*
X121687583Y-138474175D01*
X121682863Y-138472363D01*
X121677913Y-138471329D01*
X121677910Y-138471328D01*
X121443682Y-138422395D01*
X121443678Y-138422395D01*
X121438731Y-138421361D01*
X121189585Y-138410047D01*
X121184565Y-138410628D01*
X121184561Y-138410628D01*
X120946862Y-138438131D01*
X120946858Y-138438132D01*
X120941835Y-138438713D01*
X120936970Y-138440090D01*
X120936968Y-138440090D01*
X120769919Y-138487360D01*
X120701855Y-138506620D01*
X120475820Y-138612022D01*
X120471640Y-138614863D01*
X120471636Y-138614865D01*
X120384177Y-138674303D01*
X120269544Y-138752207D01*
X120088334Y-138923569D01*
X120085256Y-138927595D01*
X120085255Y-138927596D01*
X119939926Y-139117678D01*
X119939923Y-139117682D01*
X119936853Y-139121698D01*
X119818998Y-139341497D01*
X119737800Y-139577312D01*
X119695349Y-139823075D01*
X119692738Y-140072464D01*
X91577849Y-140072464D01*
X91585559Y-139996563D01*
X91585900Y-139964000D01*
X91585671Y-139961152D01*
X91566304Y-139720443D01*
X91566303Y-139720439D01*
X91565898Y-139715401D01*
X91506407Y-139473197D01*
X91408958Y-139243621D01*
X91276057Y-139032578D01*
X91111124Y-138845499D01*
X90918403Y-138687195D01*
X90702850Y-138561741D01*
X90564820Y-138508756D01*
X90474737Y-138474176D01*
X90474733Y-138474175D01*
X90470013Y-138472363D01*
X90465063Y-138471329D01*
X90465060Y-138471328D01*
X90230832Y-138422395D01*
X90230828Y-138422395D01*
X90225881Y-138421361D01*
X89976735Y-138410047D01*
X89971715Y-138410628D01*
X89971711Y-138410628D01*
X89734012Y-138438131D01*
X89734008Y-138438132D01*
X89728985Y-138438713D01*
X89724120Y-138440090D01*
X89724118Y-138440090D01*
X89557069Y-138487360D01*
X89489005Y-138506620D01*
X89262970Y-138612022D01*
X89258790Y-138614863D01*
X89258786Y-138614865D01*
X89171327Y-138674303D01*
X89056694Y-138752207D01*
X88875484Y-138923569D01*
X88872406Y-138927595D01*
X88872405Y-138927596D01*
X88727076Y-139117678D01*
X88727073Y-139117682D01*
X88724003Y-139121698D01*
X88606148Y-139341497D01*
X88524950Y-139577312D01*
X88482499Y-139823075D01*
X88479888Y-140072464D01*
X76697849Y-140072464D01*
X76705559Y-139996563D01*
X76705900Y-139964000D01*
X76705671Y-139961152D01*
X76686304Y-139720443D01*
X76686303Y-139720439D01*
X76685898Y-139715401D01*
X76626407Y-139473197D01*
X76528958Y-139243621D01*
X76396057Y-139032578D01*
X76231124Y-138845499D01*
X76038403Y-138687195D01*
X75822850Y-138561741D01*
X75684820Y-138508756D01*
X75594737Y-138474176D01*
X75594733Y-138474175D01*
X75590013Y-138472363D01*
X75585063Y-138471329D01*
X75585060Y-138471328D01*
X75350832Y-138422395D01*
X75350828Y-138422395D01*
X75345881Y-138421361D01*
X75096735Y-138410047D01*
X75091715Y-138410628D01*
X75091711Y-138410628D01*
X74854012Y-138438131D01*
X74854008Y-138438132D01*
X74848985Y-138438713D01*
X74844120Y-138440090D01*
X74844118Y-138440090D01*
X74677069Y-138487360D01*
X74609005Y-138506620D01*
X74382970Y-138612022D01*
X74378790Y-138614863D01*
X74378786Y-138614865D01*
X74291327Y-138674303D01*
X74176694Y-138752207D01*
X73995484Y-138923569D01*
X73992406Y-138927595D01*
X73992405Y-138927596D01*
X73847076Y-139117678D01*
X73847073Y-139117682D01*
X73844003Y-139121698D01*
X73726148Y-139341497D01*
X73644950Y-139577312D01*
X73602499Y-139823075D01*
X73599888Y-140072464D01*
X48133000Y-140072464D01*
X48133000Y-136100102D01*
X76936392Y-136100102D01*
X76968985Y-136313103D01*
X77038783Y-136516965D01*
X77143578Y-136705245D01*
X77147133Y-136709588D01*
X77276506Y-136867652D01*
X77276511Y-136867657D01*
X77280059Y-136871992D01*
X77443911Y-137011935D01*
X77448756Y-137014766D01*
X77625108Y-137117818D01*
X77625111Y-137117819D01*
X77629955Y-137120650D01*
X77635225Y-137122579D01*
X77635226Y-137122579D01*
X77827047Y-137192776D01*
X77827051Y-137192777D01*
X77832311Y-137194702D01*
X77837827Y-137195665D01*
X77837832Y-137195666D01*
X78039058Y-137230785D01*
X78044582Y-137231749D01*
X78050188Y-137231720D01*
X78050192Y-137231720D01*
X78148809Y-137231203D01*
X78260059Y-137230621D01*
X78471931Y-137191353D01*
X78477180Y-137189370D01*
X78477182Y-137189369D01*
X78668253Y-137117169D01*
X78668256Y-137117168D01*
X78673500Y-137115186D01*
X78858396Y-137004529D01*
X79020773Y-136862878D01*
X79035455Y-136844553D01*
X79151995Y-136699088D01*
X79151998Y-136699083D01*
X79155501Y-136694711D01*
X79258319Y-136505343D01*
X79296261Y-136390617D01*
X79336641Y-136332222D01*
X79402182Y-136304928D01*
X79472074Y-136317400D01*
X79524128Y-136365680D01*
X79535095Y-136389365D01*
X79578783Y-136516965D01*
X79683578Y-136705245D01*
X79687133Y-136709588D01*
X79816506Y-136867652D01*
X79816511Y-136867657D01*
X79820059Y-136871992D01*
X79983911Y-137011935D01*
X79988756Y-137014766D01*
X80165108Y-137117818D01*
X80165111Y-137117819D01*
X80169955Y-137120650D01*
X80175225Y-137122579D01*
X80175226Y-137122579D01*
X80367047Y-137192776D01*
X80367051Y-137192777D01*
X80372311Y-137194702D01*
X80377827Y-137195665D01*
X80377832Y-137195666D01*
X80579058Y-137230785D01*
X80584582Y-137231749D01*
X80590188Y-137231720D01*
X80590192Y-137231720D01*
X80688809Y-137231203D01*
X80800059Y-137230621D01*
X81011931Y-137191353D01*
X81017180Y-137189370D01*
X81017182Y-137189369D01*
X81208253Y-137117169D01*
X81208256Y-137117168D01*
X81213500Y-137115186D01*
X81398396Y-137004529D01*
X81560773Y-136862878D01*
X81575455Y-136844553D01*
X81691995Y-136699088D01*
X81691998Y-136699083D01*
X81695501Y-136694711D01*
X81798319Y-136505343D01*
X81836261Y-136390617D01*
X81876641Y-136332222D01*
X81942182Y-136304928D01*
X82012074Y-136317400D01*
X82064128Y-136365680D01*
X82075095Y-136389365D01*
X82118783Y-136516965D01*
X82223578Y-136705245D01*
X82227133Y-136709588D01*
X82356506Y-136867652D01*
X82356511Y-136867657D01*
X82360059Y-136871992D01*
X82523911Y-137011935D01*
X82528756Y-137014766D01*
X82705108Y-137117818D01*
X82705111Y-137117819D01*
X82709955Y-137120650D01*
X82715225Y-137122579D01*
X82715226Y-137122579D01*
X82907047Y-137192776D01*
X82907051Y-137192777D01*
X82912311Y-137194702D01*
X82917827Y-137195665D01*
X82917832Y-137195666D01*
X83119058Y-137230785D01*
X83124582Y-137231749D01*
X83130188Y-137231720D01*
X83130192Y-137231720D01*
X83228809Y-137231203D01*
X83340059Y-137230621D01*
X83551931Y-137191353D01*
X83557180Y-137189370D01*
X83557182Y-137189369D01*
X83748253Y-137117169D01*
X83748256Y-137117168D01*
X83753500Y-137115186D01*
X83938396Y-137004529D01*
X84100773Y-136862878D01*
X84115455Y-136844553D01*
X84231995Y-136699088D01*
X84231998Y-136699083D01*
X84235501Y-136694711D01*
X84338319Y-136505343D01*
X84376261Y-136390617D01*
X84416641Y-136332222D01*
X84482182Y-136304928D01*
X84552074Y-136317400D01*
X84604128Y-136365680D01*
X84615095Y-136389365D01*
X84658783Y-136516965D01*
X84763578Y-136705245D01*
X84767133Y-136709588D01*
X84896506Y-136867652D01*
X84896511Y-136867657D01*
X84900059Y-136871992D01*
X85063911Y-137011935D01*
X85068756Y-137014766D01*
X85245108Y-137117818D01*
X85245111Y-137117819D01*
X85249955Y-137120650D01*
X85255225Y-137122579D01*
X85255226Y-137122579D01*
X85447047Y-137192776D01*
X85447051Y-137192777D01*
X85452311Y-137194702D01*
X85457827Y-137195665D01*
X85457832Y-137195666D01*
X85659058Y-137230785D01*
X85664582Y-137231749D01*
X85670188Y-137231720D01*
X85670192Y-137231720D01*
X85768809Y-137231203D01*
X85880059Y-137230621D01*
X86091931Y-137191353D01*
X86097180Y-137189370D01*
X86097182Y-137189369D01*
X86288253Y-137117169D01*
X86288256Y-137117168D01*
X86293500Y-137115186D01*
X86478396Y-137004529D01*
X86640773Y-136862878D01*
X86655455Y-136844553D01*
X86771995Y-136699088D01*
X86771998Y-136699083D01*
X86775501Y-136694711D01*
X86878319Y-136505343D01*
X86945978Y-136300761D01*
X86960401Y-136199420D01*
X86974536Y-136100102D01*
X123029242Y-136100102D01*
X123061835Y-136313103D01*
X123131633Y-136516965D01*
X123236428Y-136705245D01*
X123239983Y-136709588D01*
X123369356Y-136867652D01*
X123369361Y-136867657D01*
X123372909Y-136871992D01*
X123536761Y-137011935D01*
X123541606Y-137014766D01*
X123717958Y-137117818D01*
X123717961Y-137117819D01*
X123722805Y-137120650D01*
X123728075Y-137122579D01*
X123728076Y-137122579D01*
X123919897Y-137192776D01*
X123919901Y-137192777D01*
X123925161Y-137194702D01*
X123930677Y-137195665D01*
X123930682Y-137195666D01*
X124131908Y-137230785D01*
X124137432Y-137231749D01*
X124143038Y-137231720D01*
X124143042Y-137231720D01*
X124241659Y-137231203D01*
X124352909Y-137230621D01*
X124564781Y-137191353D01*
X124570030Y-137189370D01*
X124570032Y-137189369D01*
X124761103Y-137117169D01*
X124761106Y-137117168D01*
X124766350Y-137115186D01*
X124951246Y-137004529D01*
X125113623Y-136862878D01*
X125128305Y-136844553D01*
X125244845Y-136699088D01*
X125244848Y-136699083D01*
X125248351Y-136694711D01*
X125351169Y-136505343D01*
X125389111Y-136390617D01*
X125429491Y-136332222D01*
X125495032Y-136304928D01*
X125564924Y-136317400D01*
X125616978Y-136365680D01*
X125627945Y-136389365D01*
X125671633Y-136516965D01*
X125776428Y-136705245D01*
X125779983Y-136709588D01*
X125909356Y-136867652D01*
X125909361Y-136867657D01*
X125912909Y-136871992D01*
X126076761Y-137011935D01*
X126081606Y-137014766D01*
X126257958Y-137117818D01*
X126257961Y-137117819D01*
X126262805Y-137120650D01*
X126268075Y-137122579D01*
X126268076Y-137122579D01*
X126459897Y-137192776D01*
X126459901Y-137192777D01*
X126465161Y-137194702D01*
X126470677Y-137195665D01*
X126470682Y-137195666D01*
X126671908Y-137230785D01*
X126677432Y-137231749D01*
X126683038Y-137231720D01*
X126683042Y-137231720D01*
X126781659Y-137231203D01*
X126892909Y-137230621D01*
X127104781Y-137191353D01*
X127110030Y-137189370D01*
X127110032Y-137189369D01*
X127301103Y-137117169D01*
X127301106Y-137117168D01*
X127306350Y-137115186D01*
X127491246Y-137004529D01*
X127653623Y-136862878D01*
X127668305Y-136844553D01*
X127784845Y-136699088D01*
X127784848Y-136699083D01*
X127788351Y-136694711D01*
X127891169Y-136505343D01*
X127929111Y-136390617D01*
X127969491Y-136332222D01*
X128035032Y-136304928D01*
X128104924Y-136317400D01*
X128156978Y-136365680D01*
X128167945Y-136389365D01*
X128211633Y-136516965D01*
X128316428Y-136705245D01*
X128319983Y-136709588D01*
X128449356Y-136867652D01*
X128449361Y-136867657D01*
X128452909Y-136871992D01*
X128616761Y-137011935D01*
X128621606Y-137014766D01*
X128797958Y-137117818D01*
X128797961Y-137117819D01*
X128802805Y-137120650D01*
X128808075Y-137122579D01*
X128808076Y-137122579D01*
X128999897Y-137192776D01*
X128999901Y-137192777D01*
X129005161Y-137194702D01*
X129010677Y-137195665D01*
X129010682Y-137195666D01*
X129211908Y-137230785D01*
X129217432Y-137231749D01*
X129223038Y-137231720D01*
X129223042Y-137231720D01*
X129321659Y-137231203D01*
X129432909Y-137230621D01*
X129644781Y-137191353D01*
X129650030Y-137189370D01*
X129650032Y-137189369D01*
X129841103Y-137117169D01*
X129841106Y-137117168D01*
X129846350Y-137115186D01*
X130031246Y-137004529D01*
X130193623Y-136862878D01*
X130208305Y-136844553D01*
X130324845Y-136699088D01*
X130324848Y-136699083D01*
X130328351Y-136694711D01*
X130431169Y-136505343D01*
X130469111Y-136390617D01*
X130509491Y-136332222D01*
X130575032Y-136304928D01*
X130644924Y-136317400D01*
X130696978Y-136365680D01*
X130707945Y-136389365D01*
X130751633Y-136516965D01*
X130856428Y-136705245D01*
X130859983Y-136709588D01*
X130989356Y-136867652D01*
X130989361Y-136867657D01*
X130992909Y-136871992D01*
X131156761Y-137011935D01*
X131161606Y-137014766D01*
X131337958Y-137117818D01*
X131337961Y-137117819D01*
X131342805Y-137120650D01*
X131348075Y-137122579D01*
X131348076Y-137122579D01*
X131539897Y-137192776D01*
X131539901Y-137192777D01*
X131545161Y-137194702D01*
X131550677Y-137195665D01*
X131550682Y-137195666D01*
X131751908Y-137230785D01*
X131757432Y-137231749D01*
X131763038Y-137231720D01*
X131763042Y-137231720D01*
X131861659Y-137231203D01*
X131972909Y-137230621D01*
X132184781Y-137191353D01*
X132190030Y-137189370D01*
X132190032Y-137189369D01*
X132381103Y-137117169D01*
X132381106Y-137117168D01*
X132386350Y-137115186D01*
X132571246Y-137004529D01*
X132733623Y-136862878D01*
X132748305Y-136844553D01*
X132864845Y-136699088D01*
X132864848Y-136699083D01*
X132868351Y-136694711D01*
X132971169Y-136505343D01*
X133038828Y-136300761D01*
X133053251Y-136199420D01*
X133067386Y-136100102D01*
X153189542Y-136100102D01*
X153222135Y-136313103D01*
X153291933Y-136516965D01*
X153396728Y-136705245D01*
X153400283Y-136709588D01*
X153529656Y-136867652D01*
X153529661Y-136867657D01*
X153533209Y-136871992D01*
X153697061Y-137011935D01*
X153701906Y-137014766D01*
X153878258Y-137117818D01*
X153878261Y-137117819D01*
X153883105Y-137120650D01*
X153888375Y-137122579D01*
X153888376Y-137122579D01*
X154080197Y-137192776D01*
X154080201Y-137192777D01*
X154085461Y-137194702D01*
X154090977Y-137195665D01*
X154090982Y-137195666D01*
X154292208Y-137230785D01*
X154297732Y-137231749D01*
X154303338Y-137231720D01*
X154303342Y-137231720D01*
X154401959Y-137231203D01*
X154513209Y-137230621D01*
X154725081Y-137191353D01*
X154730330Y-137189370D01*
X154730332Y-137189369D01*
X154921403Y-137117169D01*
X154921406Y-137117168D01*
X154926650Y-137115186D01*
X155111546Y-137004529D01*
X155273923Y-136862878D01*
X155288605Y-136844553D01*
X155405145Y-136699088D01*
X155405148Y-136699083D01*
X155408651Y-136694711D01*
X155511469Y-136505343D01*
X155549411Y-136390617D01*
X155589791Y-136332222D01*
X155655332Y-136304928D01*
X155725224Y-136317400D01*
X155777278Y-136365680D01*
X155788245Y-136389365D01*
X155831933Y-136516965D01*
X155936728Y-136705245D01*
X155940283Y-136709588D01*
X156069656Y-136867652D01*
X156069661Y-136867657D01*
X156073209Y-136871992D01*
X156237061Y-137011935D01*
X156241906Y-137014766D01*
X156418258Y-137117818D01*
X156418261Y-137117819D01*
X156423105Y-137120650D01*
X156428375Y-137122579D01*
X156428376Y-137122579D01*
X156620197Y-137192776D01*
X156620201Y-137192777D01*
X156625461Y-137194702D01*
X156630977Y-137195665D01*
X156630982Y-137195666D01*
X156832208Y-137230785D01*
X156837732Y-137231749D01*
X156843338Y-137231720D01*
X156843342Y-137231720D01*
X156941959Y-137231203D01*
X157053209Y-137230621D01*
X157265081Y-137191353D01*
X157270330Y-137189370D01*
X157270332Y-137189369D01*
X157461403Y-137117169D01*
X157461406Y-137117168D01*
X157466650Y-137115186D01*
X157651546Y-137004529D01*
X157813923Y-136862878D01*
X157828605Y-136844553D01*
X157945145Y-136699088D01*
X157945148Y-136699083D01*
X157948651Y-136694711D01*
X158051469Y-136505343D01*
X158089411Y-136390617D01*
X158129791Y-136332222D01*
X158195332Y-136304928D01*
X158265224Y-136317400D01*
X158317278Y-136365680D01*
X158328245Y-136389365D01*
X158371933Y-136516965D01*
X158476728Y-136705245D01*
X158480283Y-136709588D01*
X158609656Y-136867652D01*
X158609661Y-136867657D01*
X158613209Y-136871992D01*
X158777061Y-137011935D01*
X158781906Y-137014766D01*
X158958258Y-137117818D01*
X158958261Y-137117819D01*
X158963105Y-137120650D01*
X158968375Y-137122579D01*
X158968376Y-137122579D01*
X159160197Y-137192776D01*
X159160201Y-137192777D01*
X159165461Y-137194702D01*
X159170977Y-137195665D01*
X159170982Y-137195666D01*
X159372208Y-137230785D01*
X159377732Y-137231749D01*
X159383338Y-137231720D01*
X159383342Y-137231720D01*
X159481959Y-137231203D01*
X159593209Y-137230621D01*
X159805081Y-137191353D01*
X159810330Y-137189370D01*
X159810332Y-137189369D01*
X160001403Y-137117169D01*
X160001406Y-137117168D01*
X160006650Y-137115186D01*
X160191546Y-137004529D01*
X160353923Y-136862878D01*
X160368605Y-136844553D01*
X160485145Y-136699088D01*
X160485148Y-136699083D01*
X160488651Y-136694711D01*
X160591469Y-136505343D01*
X160629411Y-136390617D01*
X160669791Y-136332222D01*
X160735332Y-136304928D01*
X160805224Y-136317400D01*
X160857278Y-136365680D01*
X160868245Y-136389365D01*
X160911933Y-136516965D01*
X161016728Y-136705245D01*
X161020283Y-136709588D01*
X161149656Y-136867652D01*
X161149661Y-136867657D01*
X161153209Y-136871992D01*
X161317061Y-137011935D01*
X161321906Y-137014766D01*
X161498258Y-137117818D01*
X161498261Y-137117819D01*
X161503105Y-137120650D01*
X161508375Y-137122579D01*
X161508376Y-137122579D01*
X161700197Y-137192776D01*
X161700201Y-137192777D01*
X161705461Y-137194702D01*
X161710977Y-137195665D01*
X161710982Y-137195666D01*
X161912208Y-137230785D01*
X161917732Y-137231749D01*
X161923338Y-137231720D01*
X161923342Y-137231720D01*
X162021959Y-137231203D01*
X162133209Y-137230621D01*
X162345081Y-137191353D01*
X162350330Y-137189370D01*
X162350332Y-137189369D01*
X162541403Y-137117169D01*
X162541406Y-137117168D01*
X162546650Y-137115186D01*
X162731546Y-137004529D01*
X162893923Y-136862878D01*
X162908605Y-136844553D01*
X163025145Y-136699088D01*
X163025148Y-136699083D01*
X163028651Y-136694711D01*
X163131469Y-136505343D01*
X163199128Y-136300761D01*
X163213551Y-136199420D01*
X163228978Y-136091025D01*
X163228979Y-136091017D01*
X163229489Y-136087431D01*
X163231150Y-136024000D01*
X163211995Y-135809373D01*
X163166792Y-135644138D01*
X163156618Y-135606947D01*
X163156617Y-135606943D01*
X163155136Y-135601531D01*
X163062369Y-135407042D01*
X162936628Y-135232054D01*
X162781886Y-135082099D01*
X162603035Y-134961916D01*
X162405729Y-134875305D01*
X162400278Y-134873996D01*
X162400274Y-134873995D01*
X162201660Y-134826312D01*
X162201659Y-134826312D01*
X162196203Y-134825002D01*
X162112918Y-134820200D01*
X161986687Y-134812921D01*
X161986684Y-134812921D01*
X161981080Y-134812598D01*
X161767161Y-134838485D01*
X161561207Y-134901845D01*
X161556227Y-134904415D01*
X161556223Y-134904417D01*
X161449187Y-134959663D01*
X161369728Y-135000675D01*
X161365280Y-135004088D01*
X161263613Y-135082099D01*
X161198776Y-135131850D01*
X161053756Y-135291226D01*
X161050775Y-135295977D01*
X161050775Y-135295978D01*
X160977931Y-135412102D01*
X160939250Y-135473764D01*
X160937156Y-135478974D01*
X160865233Y-135657887D01*
X160821267Y-135713632D01*
X160754142Y-135736757D01*
X160685170Y-135719920D01*
X160636250Y-135668468D01*
X160626792Y-135644138D01*
X160616619Y-135606950D01*
X160616617Y-135606945D01*
X160615136Y-135601531D01*
X160522369Y-135407042D01*
X160396628Y-135232054D01*
X160241886Y-135082099D01*
X160063035Y-134961916D01*
X159865729Y-134875305D01*
X159860278Y-134873996D01*
X159860274Y-134873995D01*
X159661660Y-134826312D01*
X159661659Y-134826312D01*
X159656203Y-134825002D01*
X159572918Y-134820200D01*
X159446687Y-134812921D01*
X159446684Y-134812921D01*
X159441080Y-134812598D01*
X159227161Y-134838485D01*
X159021207Y-134901845D01*
X159016227Y-134904415D01*
X159016223Y-134904417D01*
X158909187Y-134959663D01*
X158829728Y-135000675D01*
X158825280Y-135004088D01*
X158723613Y-135082099D01*
X158658776Y-135131850D01*
X158513756Y-135291226D01*
X158510775Y-135295977D01*
X158510775Y-135295978D01*
X158437931Y-135412102D01*
X158399250Y-135473764D01*
X158397156Y-135478974D01*
X158325233Y-135657887D01*
X158281267Y-135713632D01*
X158214142Y-135736757D01*
X158145170Y-135719920D01*
X158096250Y-135668468D01*
X158086792Y-135644138D01*
X158076619Y-135606950D01*
X158076617Y-135606945D01*
X158075136Y-135601531D01*
X157982369Y-135407042D01*
X157856628Y-135232054D01*
X157701886Y-135082099D01*
X157523035Y-134961916D01*
X157325729Y-134875305D01*
X157320278Y-134873996D01*
X157320274Y-134873995D01*
X157121660Y-134826312D01*
X157121659Y-134826312D01*
X157116203Y-134825002D01*
X157032918Y-134820200D01*
X156906687Y-134812921D01*
X156906684Y-134812921D01*
X156901080Y-134812598D01*
X156687161Y-134838485D01*
X156481207Y-134901845D01*
X156476227Y-134904415D01*
X156476223Y-134904417D01*
X156369187Y-134959663D01*
X156289728Y-135000675D01*
X156285280Y-135004088D01*
X156183613Y-135082099D01*
X156118776Y-135131850D01*
X155973756Y-135291226D01*
X155970775Y-135295977D01*
X155970775Y-135295978D01*
X155897931Y-135412102D01*
X155859250Y-135473764D01*
X155857156Y-135478974D01*
X155785233Y-135657887D01*
X155741267Y-135713632D01*
X155674142Y-135736757D01*
X155605170Y-135719920D01*
X155556250Y-135668468D01*
X155546792Y-135644138D01*
X155536619Y-135606950D01*
X155536617Y-135606945D01*
X155535136Y-135601531D01*
X155442369Y-135407042D01*
X155316628Y-135232054D01*
X155161886Y-135082099D01*
X154983035Y-134961916D01*
X154785729Y-134875305D01*
X154780278Y-134873996D01*
X154780274Y-134873995D01*
X154581660Y-134826312D01*
X154581659Y-134826312D01*
X154576203Y-134825002D01*
X154492918Y-134820200D01*
X154366687Y-134812921D01*
X154366684Y-134812921D01*
X154361080Y-134812598D01*
X154147161Y-134838485D01*
X153941207Y-134901845D01*
X153936227Y-134904415D01*
X153936223Y-134904417D01*
X153829187Y-134959663D01*
X153749728Y-135000675D01*
X153745280Y-135004088D01*
X153643613Y-135082099D01*
X153578776Y-135131850D01*
X153433756Y-135291226D01*
X153430775Y-135295977D01*
X153430775Y-135295978D01*
X153357931Y-135412102D01*
X153319250Y-135473764D01*
X153238879Y-135673693D01*
X153195182Y-135884696D01*
X153189542Y-136100102D01*
X133067386Y-136100102D01*
X133068678Y-136091025D01*
X133068679Y-136091017D01*
X133069189Y-136087431D01*
X133070850Y-136024000D01*
X133051695Y-135809373D01*
X133006492Y-135644138D01*
X132996318Y-135606947D01*
X132996317Y-135606943D01*
X132994836Y-135601531D01*
X132902069Y-135407042D01*
X132776328Y-135232054D01*
X132621586Y-135082099D01*
X132442735Y-134961916D01*
X132245429Y-134875305D01*
X132239978Y-134873996D01*
X132239974Y-134873995D01*
X132041360Y-134826312D01*
X132041359Y-134826312D01*
X132035903Y-134825002D01*
X131952618Y-134820200D01*
X131826387Y-134812921D01*
X131826384Y-134812921D01*
X131820780Y-134812598D01*
X131606861Y-134838485D01*
X131400907Y-134901845D01*
X131395927Y-134904415D01*
X131395923Y-134904417D01*
X131288887Y-134959663D01*
X131209428Y-135000675D01*
X131204980Y-135004088D01*
X131103313Y-135082099D01*
X131038476Y-135131850D01*
X130893456Y-135291226D01*
X130890475Y-135295977D01*
X130890475Y-135295978D01*
X130817631Y-135412102D01*
X130778950Y-135473764D01*
X130776856Y-135478974D01*
X130704933Y-135657887D01*
X130660967Y-135713632D01*
X130593842Y-135736757D01*
X130524870Y-135719920D01*
X130475950Y-135668468D01*
X130466492Y-135644138D01*
X130456319Y-135606950D01*
X130456317Y-135606945D01*
X130454836Y-135601531D01*
X130362069Y-135407042D01*
X130236328Y-135232054D01*
X130081586Y-135082099D01*
X129902735Y-134961916D01*
X129705429Y-134875305D01*
X129699978Y-134873996D01*
X129699974Y-134873995D01*
X129501360Y-134826312D01*
X129501359Y-134826312D01*
X129495903Y-134825002D01*
X129412618Y-134820200D01*
X129286387Y-134812921D01*
X129286384Y-134812921D01*
X129280780Y-134812598D01*
X129066861Y-134838485D01*
X128860907Y-134901845D01*
X128855927Y-134904415D01*
X128855923Y-134904417D01*
X128748887Y-134959663D01*
X128669428Y-135000675D01*
X128664980Y-135004088D01*
X128563313Y-135082099D01*
X128498476Y-135131850D01*
X128353456Y-135291226D01*
X128350475Y-135295977D01*
X128350475Y-135295978D01*
X128277631Y-135412102D01*
X128238950Y-135473764D01*
X128236856Y-135478974D01*
X128164933Y-135657887D01*
X128120967Y-135713632D01*
X128053842Y-135736757D01*
X127984870Y-135719920D01*
X127935950Y-135668468D01*
X127926492Y-135644138D01*
X127916319Y-135606950D01*
X127916317Y-135606945D01*
X127914836Y-135601531D01*
X127822069Y-135407042D01*
X127696328Y-135232054D01*
X127541586Y-135082099D01*
X127362735Y-134961916D01*
X127165429Y-134875305D01*
X127159978Y-134873996D01*
X127159974Y-134873995D01*
X126961360Y-134826312D01*
X126961359Y-134826312D01*
X126955903Y-134825002D01*
X126872618Y-134820200D01*
X126746387Y-134812921D01*
X126746384Y-134812921D01*
X126740780Y-134812598D01*
X126526861Y-134838485D01*
X126320907Y-134901845D01*
X126315927Y-134904415D01*
X126315923Y-134904417D01*
X126208887Y-134959663D01*
X126129428Y-135000675D01*
X126124980Y-135004088D01*
X126023313Y-135082099D01*
X125958476Y-135131850D01*
X125813456Y-135291226D01*
X125810475Y-135295977D01*
X125810475Y-135295978D01*
X125737631Y-135412102D01*
X125698950Y-135473764D01*
X125696856Y-135478974D01*
X125624933Y-135657887D01*
X125580967Y-135713632D01*
X125513842Y-135736757D01*
X125444870Y-135719920D01*
X125395950Y-135668468D01*
X125386492Y-135644138D01*
X125376319Y-135606950D01*
X125376317Y-135606945D01*
X125374836Y-135601531D01*
X125282069Y-135407042D01*
X125156328Y-135232054D01*
X125001586Y-135082099D01*
X124822735Y-134961916D01*
X124625429Y-134875305D01*
X124619978Y-134873996D01*
X124619974Y-134873995D01*
X124421360Y-134826312D01*
X124421359Y-134826312D01*
X124415903Y-134825002D01*
X124332618Y-134820200D01*
X124206387Y-134812921D01*
X124206384Y-134812921D01*
X124200780Y-134812598D01*
X123986861Y-134838485D01*
X123780907Y-134901845D01*
X123775927Y-134904415D01*
X123775923Y-134904417D01*
X123668887Y-134959663D01*
X123589428Y-135000675D01*
X123584980Y-135004088D01*
X123483313Y-135082099D01*
X123418476Y-135131850D01*
X123273456Y-135291226D01*
X123270475Y-135295977D01*
X123270475Y-135295978D01*
X123197631Y-135412102D01*
X123158950Y-135473764D01*
X123078579Y-135673693D01*
X123034882Y-135884696D01*
X123029242Y-136100102D01*
X86974536Y-136100102D01*
X86975828Y-136091025D01*
X86975829Y-136091017D01*
X86976339Y-136087431D01*
X86978000Y-136024000D01*
X86958845Y-135809373D01*
X86913642Y-135644138D01*
X86903468Y-135606947D01*
X86903467Y-135606943D01*
X86901986Y-135601531D01*
X86809219Y-135407042D01*
X86683478Y-135232054D01*
X86528736Y-135082099D01*
X86349885Y-134961916D01*
X86152579Y-134875305D01*
X86147128Y-134873996D01*
X86147124Y-134873995D01*
X85948510Y-134826312D01*
X85948509Y-134826312D01*
X85943053Y-134825002D01*
X85859768Y-134820200D01*
X85733537Y-134812921D01*
X85733534Y-134812921D01*
X85727930Y-134812598D01*
X85514011Y-134838485D01*
X85308057Y-134901845D01*
X85303077Y-134904415D01*
X85303073Y-134904417D01*
X85196037Y-134959663D01*
X85116578Y-135000675D01*
X85112130Y-135004088D01*
X85010463Y-135082099D01*
X84945626Y-135131850D01*
X84800606Y-135291226D01*
X84797625Y-135295977D01*
X84797625Y-135295978D01*
X84724781Y-135412102D01*
X84686100Y-135473764D01*
X84684006Y-135478974D01*
X84612083Y-135657887D01*
X84568117Y-135713632D01*
X84500992Y-135736757D01*
X84432020Y-135719920D01*
X84383100Y-135668468D01*
X84373642Y-135644138D01*
X84363469Y-135606950D01*
X84363467Y-135606945D01*
X84361986Y-135601531D01*
X84269219Y-135407042D01*
X84143478Y-135232054D01*
X83988736Y-135082099D01*
X83809885Y-134961916D01*
X83612579Y-134875305D01*
X83607128Y-134873996D01*
X83607124Y-134873995D01*
X83408510Y-134826312D01*
X83408509Y-134826312D01*
X83403053Y-134825002D01*
X83319768Y-134820200D01*
X83193537Y-134812921D01*
X83193534Y-134812921D01*
X83187930Y-134812598D01*
X82974011Y-134838485D01*
X82768057Y-134901845D01*
X82763077Y-134904415D01*
X82763073Y-134904417D01*
X82656037Y-134959663D01*
X82576578Y-135000675D01*
X82572130Y-135004088D01*
X82470463Y-135082099D01*
X82405626Y-135131850D01*
X82260606Y-135291226D01*
X82257625Y-135295977D01*
X82257625Y-135295978D01*
X82184781Y-135412102D01*
X82146100Y-135473764D01*
X82144006Y-135478974D01*
X82072083Y-135657887D01*
X82028117Y-135713632D01*
X81960992Y-135736757D01*
X81892020Y-135719920D01*
X81843100Y-135668468D01*
X81833642Y-135644138D01*
X81823469Y-135606950D01*
X81823467Y-135606945D01*
X81821986Y-135601531D01*
X81729219Y-135407042D01*
X81603478Y-135232054D01*
X81448736Y-135082099D01*
X81269885Y-134961916D01*
X81072579Y-134875305D01*
X81067128Y-134873996D01*
X81067124Y-134873995D01*
X80868510Y-134826312D01*
X80868509Y-134826312D01*
X80863053Y-134825002D01*
X80779768Y-134820200D01*
X80653537Y-134812921D01*
X80653534Y-134812921D01*
X80647930Y-134812598D01*
X80434011Y-134838485D01*
X80228057Y-134901845D01*
X80223077Y-134904415D01*
X80223073Y-134904417D01*
X80116037Y-134959663D01*
X80036578Y-135000675D01*
X80032130Y-135004088D01*
X79930463Y-135082099D01*
X79865626Y-135131850D01*
X79720606Y-135291226D01*
X79717625Y-135295977D01*
X79717625Y-135295978D01*
X79644781Y-135412102D01*
X79606100Y-135473764D01*
X79604006Y-135478974D01*
X79532083Y-135657887D01*
X79488117Y-135713632D01*
X79420992Y-135736757D01*
X79352020Y-135719920D01*
X79303100Y-135668468D01*
X79293642Y-135644138D01*
X79283469Y-135606950D01*
X79283467Y-135606945D01*
X79281986Y-135601531D01*
X79189219Y-135407042D01*
X79063478Y-135232054D01*
X78908736Y-135082099D01*
X78729885Y-134961916D01*
X78532579Y-134875305D01*
X78527128Y-134873996D01*
X78527124Y-134873995D01*
X78328510Y-134826312D01*
X78328509Y-134826312D01*
X78323053Y-134825002D01*
X78239768Y-134820200D01*
X78113537Y-134812921D01*
X78113534Y-134812921D01*
X78107930Y-134812598D01*
X77894011Y-134838485D01*
X77688057Y-134901845D01*
X77683077Y-134904415D01*
X77683073Y-134904417D01*
X77576037Y-134959663D01*
X77496578Y-135000675D01*
X77492130Y-135004088D01*
X77390463Y-135082099D01*
X77325626Y-135131850D01*
X77180606Y-135291226D01*
X77177625Y-135295977D01*
X77177625Y-135295978D01*
X77104781Y-135412102D01*
X77066100Y-135473764D01*
X76985729Y-135673693D01*
X76942032Y-135884696D01*
X76936392Y-136100102D01*
X48133000Y-136100102D01*
X48133000Y-106676192D01*
X62090168Y-106676192D01*
X62100049Y-106688681D01*
X62155123Y-106725480D01*
X62165226Y-106730966D01*
X62358319Y-106813925D01*
X62369262Y-106817480D01*
X62574231Y-106863860D01*
X62585641Y-106865362D01*
X62795637Y-106873613D01*
X62807119Y-106873011D01*
X63015097Y-106842856D01*
X63026293Y-106840168D01*
X63225297Y-106772615D01*
X63235794Y-106767941D01*
X63378280Y-106688146D01*
X63388143Y-106678069D01*
X63387420Y-106676192D01*
X64630168Y-106676192D01*
X64640049Y-106688681D01*
X64695123Y-106725480D01*
X64705226Y-106730966D01*
X64898319Y-106813925D01*
X64909262Y-106817480D01*
X65114231Y-106863860D01*
X65125641Y-106865362D01*
X65335637Y-106873613D01*
X65347119Y-106873011D01*
X65555097Y-106842856D01*
X65566293Y-106840168D01*
X65765297Y-106772615D01*
X65775794Y-106767941D01*
X65918280Y-106688146D01*
X65928143Y-106678069D01*
X65925188Y-106670399D01*
X65290811Y-106036021D01*
X65276868Y-106028408D01*
X65275034Y-106028539D01*
X65268420Y-106032790D01*
X64636361Y-106664850D01*
X64630168Y-106676192D01*
X63387420Y-106676192D01*
X63385188Y-106670399D01*
X62750811Y-106036021D01*
X62736868Y-106028408D01*
X62735034Y-106028539D01*
X62728420Y-106032790D01*
X62096361Y-106664850D01*
X62090168Y-106676192D01*
X48133000Y-106676192D01*
X48133000Y-105638053D01*
X61527293Y-105638053D01*
X61541038Y-105847752D01*
X61542839Y-105859122D01*
X61594568Y-106062807D01*
X61598409Y-106073654D01*
X61686392Y-106264504D01*
X61692142Y-106274465D01*
X61713234Y-106304309D01*
X61723821Y-106312696D01*
X61737121Y-106305668D01*
X62365979Y-105676811D01*
X62372356Y-105665132D01*
X63102408Y-105665132D01*
X63102539Y-105666966D01*
X63106790Y-105673580D01*
X63740487Y-106307276D01*
X63752862Y-106314033D01*
X63759442Y-106309107D01*
X63841941Y-106161794D01*
X63846615Y-106151297D01*
X63887458Y-106030978D01*
X63928295Y-105972902D01*
X63994048Y-105946124D01*
X64063841Y-105959145D01*
X64115514Y-106007832D01*
X64128894Y-106040466D01*
X64134567Y-106062805D01*
X64138409Y-106073654D01*
X64226392Y-106264504D01*
X64232142Y-106274465D01*
X64253234Y-106304309D01*
X64263821Y-106312696D01*
X64277121Y-106305668D01*
X64905979Y-105676811D01*
X64912356Y-105665132D01*
X65642408Y-105665132D01*
X65642539Y-105666966D01*
X65646790Y-105673580D01*
X66280487Y-106307276D01*
X66292862Y-106314033D01*
X66299442Y-106309107D01*
X66381941Y-106161794D01*
X66386616Y-106151294D01*
X66428236Y-106028686D01*
X66469073Y-105970609D01*
X66534826Y-105943831D01*
X66604618Y-105956852D01*
X66656291Y-106005539D01*
X66666755Y-106028372D01*
X66710783Y-106156965D01*
X66815578Y-106345245D01*
X66819133Y-106349588D01*
X66948506Y-106507652D01*
X66948511Y-106507657D01*
X66952059Y-106511992D01*
X67115911Y-106651935D01*
X67120752Y-106654764D01*
X67120755Y-106654766D01*
X67170870Y-106684050D01*
X67219594Y-106735688D01*
X67233300Y-106792838D01*
X67233300Y-121839763D01*
X67232222Y-121856210D01*
X67228300Y-121886000D01*
X67233300Y-121923978D01*
X67248394Y-122038626D01*
X67307305Y-122180850D01*
X67401019Y-122302981D01*
X67407564Y-122308003D01*
X67424863Y-122321277D01*
X67437254Y-122332145D01*
X78204751Y-133099642D01*
X78238777Y-133161954D01*
X78239038Y-133214288D01*
X78226472Y-133274968D01*
X78212032Y-133344696D01*
X78206392Y-133560102D01*
X78238985Y-133773103D01*
X78308783Y-133976965D01*
X78413578Y-134165245D01*
X78417133Y-134169588D01*
X78546506Y-134327652D01*
X78546511Y-134327657D01*
X78550059Y-134331992D01*
X78713911Y-134471935D01*
X78718756Y-134474766D01*
X78895108Y-134577818D01*
X78895111Y-134577819D01*
X78899955Y-134580650D01*
X78905225Y-134582579D01*
X78905226Y-134582579D01*
X79097047Y-134652776D01*
X79097051Y-134652777D01*
X79102311Y-134654702D01*
X79107827Y-134655665D01*
X79107832Y-134655666D01*
X79309058Y-134690785D01*
X79314582Y-134691749D01*
X79320188Y-134691720D01*
X79320192Y-134691720D01*
X79418809Y-134691203D01*
X79530059Y-134690621D01*
X79741931Y-134651353D01*
X79747180Y-134649370D01*
X79747182Y-134649369D01*
X79938253Y-134577169D01*
X79938256Y-134577168D01*
X79943500Y-134575186D01*
X80128396Y-134464529D01*
X80290773Y-134322878D01*
X80305455Y-134304553D01*
X80421995Y-134159088D01*
X80421998Y-134159083D01*
X80425501Y-134154711D01*
X80528319Y-133965343D01*
X80566261Y-133850617D01*
X80606641Y-133792222D01*
X80672182Y-133764928D01*
X80742074Y-133777400D01*
X80794128Y-133825680D01*
X80805095Y-133849365D01*
X80848783Y-133976965D01*
X80953578Y-134165245D01*
X80957133Y-134169588D01*
X81086506Y-134327652D01*
X81086511Y-134327657D01*
X81090059Y-134331992D01*
X81253911Y-134471935D01*
X81258756Y-134474766D01*
X81435108Y-134577818D01*
X81435111Y-134577819D01*
X81439955Y-134580650D01*
X81445225Y-134582579D01*
X81445226Y-134582579D01*
X81637047Y-134652776D01*
X81637051Y-134652777D01*
X81642311Y-134654702D01*
X81647827Y-134655665D01*
X81647832Y-134655666D01*
X81849058Y-134690785D01*
X81854582Y-134691749D01*
X81860188Y-134691720D01*
X81860192Y-134691720D01*
X81958809Y-134691203D01*
X82070059Y-134690621D01*
X82281931Y-134651353D01*
X82287180Y-134649370D01*
X82287182Y-134649369D01*
X82478253Y-134577169D01*
X82478256Y-134577168D01*
X82483500Y-134575186D01*
X82668396Y-134464529D01*
X82830773Y-134322878D01*
X82845455Y-134304553D01*
X82961995Y-134159088D01*
X82961998Y-134159083D01*
X82965501Y-134154711D01*
X83068319Y-133965343D01*
X83106261Y-133850617D01*
X83146641Y-133792222D01*
X83212182Y-133764928D01*
X83282074Y-133777400D01*
X83334128Y-133825680D01*
X83345095Y-133849365D01*
X83388783Y-133976965D01*
X83493578Y-134165245D01*
X83497133Y-134169588D01*
X83626506Y-134327652D01*
X83626511Y-134327657D01*
X83630059Y-134331992D01*
X83793911Y-134471935D01*
X83798756Y-134474766D01*
X83975108Y-134577818D01*
X83975111Y-134577819D01*
X83979955Y-134580650D01*
X83985225Y-134582579D01*
X83985226Y-134582579D01*
X84177047Y-134652776D01*
X84177051Y-134652777D01*
X84182311Y-134654702D01*
X84187827Y-134655665D01*
X84187832Y-134655666D01*
X84389058Y-134690785D01*
X84394582Y-134691749D01*
X84400188Y-134691720D01*
X84400192Y-134691720D01*
X84498809Y-134691203D01*
X84610059Y-134690621D01*
X84821931Y-134651353D01*
X84827180Y-134649370D01*
X84827182Y-134649369D01*
X85018253Y-134577169D01*
X85018256Y-134577168D01*
X85023500Y-134575186D01*
X85208396Y-134464529D01*
X85370773Y-134322878D01*
X85385455Y-134304553D01*
X85501995Y-134159088D01*
X85501998Y-134159083D01*
X85505501Y-134154711D01*
X85608319Y-133965343D01*
X85646261Y-133850617D01*
X85686641Y-133792222D01*
X85752182Y-133764928D01*
X85822074Y-133777400D01*
X85874128Y-133825680D01*
X85885095Y-133849365D01*
X85928783Y-133976965D01*
X86033578Y-134165245D01*
X86037133Y-134169588D01*
X86166506Y-134327652D01*
X86166511Y-134327657D01*
X86170059Y-134331992D01*
X86333911Y-134471935D01*
X86338756Y-134474766D01*
X86515108Y-134577818D01*
X86515111Y-134577819D01*
X86519955Y-134580650D01*
X86525225Y-134582579D01*
X86525226Y-134582579D01*
X86717047Y-134652776D01*
X86717051Y-134652777D01*
X86722311Y-134654702D01*
X86727827Y-134655665D01*
X86727832Y-134655666D01*
X86929058Y-134690785D01*
X86934582Y-134691749D01*
X86940188Y-134691720D01*
X86940192Y-134691720D01*
X87038809Y-134691203D01*
X87150059Y-134690621D01*
X87361931Y-134651353D01*
X87367180Y-134649370D01*
X87367182Y-134649369D01*
X87558253Y-134577169D01*
X87558256Y-134577168D01*
X87563500Y-134575186D01*
X87748396Y-134464529D01*
X87910773Y-134322878D01*
X87925455Y-134304553D01*
X88041995Y-134159088D01*
X88041998Y-134159083D01*
X88045501Y-134154711D01*
X88148319Y-133965343D01*
X88215978Y-133760761D01*
X88230401Y-133659420D01*
X88245828Y-133551025D01*
X88245829Y-133551017D01*
X88246339Y-133547431D01*
X88248000Y-133484000D01*
X88228845Y-133269373D01*
X88215651Y-133221144D01*
X88216969Y-133150160D01*
X88248090Y-133098801D01*
X101558746Y-119788145D01*
X101571137Y-119777277D01*
X101588436Y-119764003D01*
X101594981Y-119758981D01*
X101688695Y-119636850D01*
X101747606Y-119494626D01*
X101762700Y-119379978D01*
X101767700Y-119342000D01*
X101763778Y-119312210D01*
X101762700Y-119295763D01*
X101762700Y-106792386D01*
X101782702Y-106724265D01*
X101823994Y-106684270D01*
X101884108Y-106648292D01*
X101890396Y-106644529D01*
X102052773Y-106502878D01*
X102067455Y-106484553D01*
X102183995Y-106339088D01*
X102183998Y-106339083D01*
X102187501Y-106334711D01*
X102290319Y-106145343D01*
X102357978Y-105940761D01*
X102372401Y-105839420D01*
X102386536Y-105740102D01*
X123029242Y-105740102D01*
X123061835Y-105953103D01*
X123063651Y-105958407D01*
X123063652Y-105958411D01*
X123079788Y-106005539D01*
X123131633Y-106156965D01*
X123236428Y-106345245D01*
X123239983Y-106349588D01*
X123369356Y-106507652D01*
X123369361Y-106507657D01*
X123372909Y-106511992D01*
X123536761Y-106651935D01*
X123591719Y-106684050D01*
X123717958Y-106757818D01*
X123717961Y-106757819D01*
X123722805Y-106760650D01*
X123728075Y-106762579D01*
X123728076Y-106762579D01*
X123919897Y-106832776D01*
X123919901Y-106832777D01*
X123925161Y-106834702D01*
X123930677Y-106835665D01*
X123930682Y-106835666D01*
X124131908Y-106870785D01*
X124137432Y-106871749D01*
X124143038Y-106871720D01*
X124143042Y-106871720D01*
X124241659Y-106871203D01*
X124352909Y-106870621D01*
X124394207Y-106862967D01*
X124559261Y-106832376D01*
X124559260Y-106832376D01*
X124564781Y-106831353D01*
X124570030Y-106829370D01*
X124570032Y-106829369D01*
X124666707Y-106792838D01*
X124753613Y-106759999D01*
X124824405Y-106754631D01*
X124886863Y-106788388D01*
X124921155Y-106850554D01*
X124924150Y-106877865D01*
X124924150Y-132350923D01*
X124904148Y-132419044D01*
X124865661Y-132457310D01*
X124864412Y-132458102D01*
X124859428Y-132460675D01*
X124854983Y-132464086D01*
X124854981Y-132464087D01*
X124753313Y-132542099D01*
X124688476Y-132591850D01*
X124543456Y-132751226D01*
X124540475Y-132755977D01*
X124540475Y-132755978D01*
X124467631Y-132872102D01*
X124428950Y-132933764D01*
X124348579Y-133133693D01*
X124304882Y-133344696D01*
X124299242Y-133560102D01*
X124331835Y-133773103D01*
X124401633Y-133976965D01*
X124506428Y-134165245D01*
X124509983Y-134169588D01*
X124639356Y-134327652D01*
X124639361Y-134327657D01*
X124642909Y-134331992D01*
X124806761Y-134471935D01*
X124811606Y-134474766D01*
X124987958Y-134577818D01*
X124987961Y-134577819D01*
X124992805Y-134580650D01*
X124998075Y-134582579D01*
X124998076Y-134582579D01*
X125189897Y-134652776D01*
X125189901Y-134652777D01*
X125195161Y-134654702D01*
X125200677Y-134655665D01*
X125200682Y-134655666D01*
X125401908Y-134690785D01*
X125407432Y-134691749D01*
X125413038Y-134691720D01*
X125413042Y-134691720D01*
X125511659Y-134691203D01*
X125622909Y-134690621D01*
X125834781Y-134651353D01*
X125840030Y-134649370D01*
X125840032Y-134649369D01*
X126031103Y-134577169D01*
X126031106Y-134577168D01*
X126036350Y-134575186D01*
X126221246Y-134464529D01*
X126383623Y-134322878D01*
X126398305Y-134304553D01*
X126514845Y-134159088D01*
X126514848Y-134159083D01*
X126518351Y-134154711D01*
X126621169Y-133965343D01*
X126659111Y-133850617D01*
X126699491Y-133792222D01*
X126765032Y-133764928D01*
X126834924Y-133777400D01*
X126886978Y-133825680D01*
X126897945Y-133849365D01*
X126941633Y-133976965D01*
X127046428Y-134165245D01*
X127049983Y-134169588D01*
X127179356Y-134327652D01*
X127179361Y-134327657D01*
X127182909Y-134331992D01*
X127346761Y-134471935D01*
X127351606Y-134474766D01*
X127527958Y-134577818D01*
X127527961Y-134577819D01*
X127532805Y-134580650D01*
X127538075Y-134582579D01*
X127538076Y-134582579D01*
X127729897Y-134652776D01*
X127729901Y-134652777D01*
X127735161Y-134654702D01*
X127740677Y-134655665D01*
X127740682Y-134655666D01*
X127941908Y-134690785D01*
X127947432Y-134691749D01*
X127953038Y-134691720D01*
X127953042Y-134691720D01*
X128051659Y-134691203D01*
X128162909Y-134690621D01*
X128374781Y-134651353D01*
X128380030Y-134649370D01*
X128380032Y-134649369D01*
X128571103Y-134577169D01*
X128571106Y-134577168D01*
X128576350Y-134575186D01*
X128761246Y-134464529D01*
X128923623Y-134322878D01*
X128938305Y-134304553D01*
X129054845Y-134159088D01*
X129054848Y-134159083D01*
X129058351Y-134154711D01*
X129161169Y-133965343D01*
X129199111Y-133850617D01*
X129239491Y-133792222D01*
X129305032Y-133764928D01*
X129374924Y-133777400D01*
X129426978Y-133825680D01*
X129437945Y-133849365D01*
X129481633Y-133976965D01*
X129586428Y-134165245D01*
X129589983Y-134169588D01*
X129719356Y-134327652D01*
X129719361Y-134327657D01*
X129722909Y-134331992D01*
X129886761Y-134471935D01*
X129891606Y-134474766D01*
X130067958Y-134577818D01*
X130067961Y-134577819D01*
X130072805Y-134580650D01*
X130078075Y-134582579D01*
X130078076Y-134582579D01*
X130269897Y-134652776D01*
X130269901Y-134652777D01*
X130275161Y-134654702D01*
X130280677Y-134655665D01*
X130280682Y-134655666D01*
X130481908Y-134690785D01*
X130487432Y-134691749D01*
X130493038Y-134691720D01*
X130493042Y-134691720D01*
X130591659Y-134691203D01*
X130702909Y-134690621D01*
X130914781Y-134651353D01*
X130920030Y-134649370D01*
X130920032Y-134649369D01*
X131111103Y-134577169D01*
X131111106Y-134577168D01*
X131116350Y-134575186D01*
X131301246Y-134464529D01*
X131463623Y-134322878D01*
X131478305Y-134304553D01*
X131594845Y-134159088D01*
X131594848Y-134159083D01*
X131598351Y-134154711D01*
X131701169Y-133965343D01*
X131739111Y-133850617D01*
X131779491Y-133792222D01*
X131845032Y-133764928D01*
X131914924Y-133777400D01*
X131966978Y-133825680D01*
X131977945Y-133849365D01*
X132021633Y-133976965D01*
X132126428Y-134165245D01*
X132129983Y-134169588D01*
X132259356Y-134327652D01*
X132259361Y-134327657D01*
X132262909Y-134331992D01*
X132426761Y-134471935D01*
X132431606Y-134474766D01*
X132607958Y-134577818D01*
X132607961Y-134577819D01*
X132612805Y-134580650D01*
X132618075Y-134582579D01*
X132618076Y-134582579D01*
X132809897Y-134652776D01*
X132809901Y-134652777D01*
X132815161Y-134654702D01*
X132820677Y-134655665D01*
X132820682Y-134655666D01*
X133021908Y-134690785D01*
X133027432Y-134691749D01*
X133033038Y-134691720D01*
X133033042Y-134691720D01*
X133131659Y-134691203D01*
X133242909Y-134690621D01*
X133454781Y-134651353D01*
X133460030Y-134649370D01*
X133460032Y-134649369D01*
X133651103Y-134577169D01*
X133651106Y-134577168D01*
X133656350Y-134575186D01*
X133841246Y-134464529D01*
X134003623Y-134322878D01*
X134018305Y-134304553D01*
X134134845Y-134159088D01*
X134134848Y-134159083D01*
X134138351Y-134154711D01*
X134241169Y-133965343D01*
X134308828Y-133760761D01*
X134323251Y-133659420D01*
X134338678Y-133551025D01*
X134338679Y-133551017D01*
X134339189Y-133547431D01*
X134340850Y-133484000D01*
X134321695Y-133269373D01*
X134275032Y-133098801D01*
X134266318Y-133066947D01*
X134266317Y-133066943D01*
X134264836Y-133061531D01*
X134172069Y-132867042D01*
X134046328Y-132692054D01*
X133891586Y-132542099D01*
X133769274Y-132459909D01*
X133723889Y-132405313D01*
X133713550Y-132355327D01*
X133713550Y-105740102D01*
X153222392Y-105740102D01*
X153254985Y-105953103D01*
X153256801Y-105958407D01*
X153256802Y-105958411D01*
X153272938Y-106005539D01*
X153324783Y-106156965D01*
X153429578Y-106345245D01*
X153433133Y-106349588D01*
X153562506Y-106507652D01*
X153562511Y-106507657D01*
X153566059Y-106511992D01*
X153729911Y-106651935D01*
X153784869Y-106684050D01*
X153911108Y-106757818D01*
X153911111Y-106757819D01*
X153915955Y-106760650D01*
X153921225Y-106762579D01*
X153921226Y-106762579D01*
X154113047Y-106832776D01*
X154113051Y-106832777D01*
X154118311Y-106834702D01*
X154123827Y-106835665D01*
X154123832Y-106835666D01*
X154325058Y-106870785D01*
X154330582Y-106871749D01*
X154336188Y-106871720D01*
X154336192Y-106871720D01*
X154434809Y-106871203D01*
X154546059Y-106870621D01*
X154587357Y-106862967D01*
X154752411Y-106832376D01*
X154752410Y-106832376D01*
X154757931Y-106831353D01*
X154763180Y-106829370D01*
X154763182Y-106829369D01*
X154859857Y-106792838D01*
X154946763Y-106759999D01*
X155017555Y-106754631D01*
X155080013Y-106788388D01*
X155114305Y-106850554D01*
X155117300Y-106877865D01*
X155117300Y-132333554D01*
X155097298Y-132401675D01*
X155049090Y-132445520D01*
X155026248Y-132457310D01*
X155019728Y-132460675D01*
X155015280Y-132464088D01*
X154913613Y-132542099D01*
X154848776Y-132591850D01*
X154703756Y-132751226D01*
X154700775Y-132755977D01*
X154700775Y-132755978D01*
X154627931Y-132872102D01*
X154589250Y-132933764D01*
X154508879Y-133133693D01*
X154465182Y-133344696D01*
X154459542Y-133560102D01*
X154492135Y-133773103D01*
X154561933Y-133976965D01*
X154666728Y-134165245D01*
X154670283Y-134169588D01*
X154799656Y-134327652D01*
X154799661Y-134327657D01*
X154803209Y-134331992D01*
X154967061Y-134471935D01*
X154971906Y-134474766D01*
X155148258Y-134577818D01*
X155148261Y-134577819D01*
X155153105Y-134580650D01*
X155158375Y-134582579D01*
X155158376Y-134582579D01*
X155350197Y-134652776D01*
X155350201Y-134652777D01*
X155355461Y-134654702D01*
X155360977Y-134655665D01*
X155360982Y-134655666D01*
X155562208Y-134690785D01*
X155567732Y-134691749D01*
X155573338Y-134691720D01*
X155573342Y-134691720D01*
X155671959Y-134691203D01*
X155783209Y-134690621D01*
X155995081Y-134651353D01*
X156000330Y-134649370D01*
X156000332Y-134649369D01*
X156191403Y-134577169D01*
X156191406Y-134577168D01*
X156196650Y-134575186D01*
X156381546Y-134464529D01*
X156543923Y-134322878D01*
X156558605Y-134304553D01*
X156675145Y-134159088D01*
X156675148Y-134159083D01*
X156678651Y-134154711D01*
X156781469Y-133965343D01*
X156819411Y-133850617D01*
X156859791Y-133792222D01*
X156925332Y-133764928D01*
X156995224Y-133777400D01*
X157047278Y-133825680D01*
X157058245Y-133849365D01*
X157101933Y-133976965D01*
X157206728Y-134165245D01*
X157210283Y-134169588D01*
X157339656Y-134327652D01*
X157339661Y-134327657D01*
X157343209Y-134331992D01*
X157507061Y-134471935D01*
X157511906Y-134474766D01*
X157688258Y-134577818D01*
X157688261Y-134577819D01*
X157693105Y-134580650D01*
X157698375Y-134582579D01*
X157698376Y-134582579D01*
X157890197Y-134652776D01*
X157890201Y-134652777D01*
X157895461Y-134654702D01*
X157900977Y-134655665D01*
X157900982Y-134655666D01*
X158102208Y-134690785D01*
X158107732Y-134691749D01*
X158113338Y-134691720D01*
X158113342Y-134691720D01*
X158211959Y-134691203D01*
X158323209Y-134690621D01*
X158535081Y-134651353D01*
X158540330Y-134649370D01*
X158540332Y-134649369D01*
X158731403Y-134577169D01*
X158731406Y-134577168D01*
X158736650Y-134575186D01*
X158921546Y-134464529D01*
X159083923Y-134322878D01*
X159098605Y-134304553D01*
X159215145Y-134159088D01*
X159215148Y-134159083D01*
X159218651Y-134154711D01*
X159321469Y-133965343D01*
X159359411Y-133850617D01*
X159399791Y-133792222D01*
X159465332Y-133764928D01*
X159535224Y-133777400D01*
X159587278Y-133825680D01*
X159598245Y-133849365D01*
X159641933Y-133976965D01*
X159746728Y-134165245D01*
X159750283Y-134169588D01*
X159879656Y-134327652D01*
X159879661Y-134327657D01*
X159883209Y-134331992D01*
X160047061Y-134471935D01*
X160051906Y-134474766D01*
X160228258Y-134577818D01*
X160228261Y-134577819D01*
X160233105Y-134580650D01*
X160238375Y-134582579D01*
X160238376Y-134582579D01*
X160430197Y-134652776D01*
X160430201Y-134652777D01*
X160435461Y-134654702D01*
X160440977Y-134655665D01*
X160440982Y-134655666D01*
X160642208Y-134690785D01*
X160647732Y-134691749D01*
X160653338Y-134691720D01*
X160653342Y-134691720D01*
X160751959Y-134691203D01*
X160863209Y-134690621D01*
X161075081Y-134651353D01*
X161080330Y-134649370D01*
X161080332Y-134649369D01*
X161271403Y-134577169D01*
X161271406Y-134577168D01*
X161276650Y-134575186D01*
X161461546Y-134464529D01*
X161623923Y-134322878D01*
X161638605Y-134304553D01*
X161755145Y-134159088D01*
X161755148Y-134159083D01*
X161758651Y-134154711D01*
X161861469Y-133965343D01*
X161899411Y-133850617D01*
X161939791Y-133792222D01*
X162005332Y-133764928D01*
X162075224Y-133777400D01*
X162127278Y-133825680D01*
X162138245Y-133849365D01*
X162181933Y-133976965D01*
X162286728Y-134165245D01*
X162290283Y-134169588D01*
X162419656Y-134327652D01*
X162419661Y-134327657D01*
X162423209Y-134331992D01*
X162587061Y-134471935D01*
X162591906Y-134474766D01*
X162768258Y-134577818D01*
X162768261Y-134577819D01*
X162773105Y-134580650D01*
X162778375Y-134582579D01*
X162778376Y-134582579D01*
X162970197Y-134652776D01*
X162970201Y-134652777D01*
X162975461Y-134654702D01*
X162980977Y-134655665D01*
X162980982Y-134655666D01*
X163182208Y-134690785D01*
X163187732Y-134691749D01*
X163193338Y-134691720D01*
X163193342Y-134691720D01*
X163291959Y-134691203D01*
X163403209Y-134690621D01*
X163615081Y-134651353D01*
X163620330Y-134649370D01*
X163620332Y-134649369D01*
X163811403Y-134577169D01*
X163811406Y-134577168D01*
X163816650Y-134575186D01*
X164001546Y-134464529D01*
X164163923Y-134322878D01*
X164178605Y-134304553D01*
X164295145Y-134159088D01*
X164295148Y-134159083D01*
X164298651Y-134154711D01*
X164401469Y-133965343D01*
X164469128Y-133760761D01*
X164483551Y-133659420D01*
X164498978Y-133551025D01*
X164498979Y-133551017D01*
X164499489Y-133547431D01*
X164501150Y-133484000D01*
X164481995Y-133269373D01*
X164435332Y-133098801D01*
X164426618Y-133066947D01*
X164426617Y-133066943D01*
X164425136Y-133061531D01*
X164332369Y-132867042D01*
X164206628Y-132692054D01*
X164051886Y-132542099D01*
X163962424Y-132481983D01*
X163917039Y-132427387D01*
X163906700Y-132377401D01*
X163906700Y-104252386D01*
X163926702Y-104184265D01*
X163967994Y-104144270D01*
X164028108Y-104108292D01*
X164034396Y-104104529D01*
X164196773Y-103962878D01*
X164211455Y-103944553D01*
X164327995Y-103799088D01*
X164327998Y-103799083D01*
X164331501Y-103794711D01*
X164434319Y-103605343D01*
X164501978Y-103400761D01*
X164516401Y-103299420D01*
X164531828Y-103191025D01*
X164531829Y-103191017D01*
X164532339Y-103187431D01*
X164534000Y-103124000D01*
X164514845Y-102909373D01*
X164469642Y-102744138D01*
X164459468Y-102706947D01*
X164459467Y-102706943D01*
X164457986Y-102701531D01*
X164365219Y-102507042D01*
X164357414Y-102496179D01*
X164242754Y-102336613D01*
X164239478Y-102332054D01*
X164084736Y-102182099D01*
X163905885Y-102061916D01*
X163708579Y-101975305D01*
X163703128Y-101973996D01*
X163703124Y-101973995D01*
X163504510Y-101926312D01*
X163504509Y-101926312D01*
X163499053Y-101925002D01*
X163415768Y-101920200D01*
X163289537Y-101912921D01*
X163289534Y-101912921D01*
X163283930Y-101912598D01*
X163070011Y-101938485D01*
X162864057Y-102001845D01*
X162859077Y-102004415D01*
X162859073Y-102004417D01*
X162775356Y-102047627D01*
X162672578Y-102100675D01*
X162668130Y-102104088D01*
X162566463Y-102182099D01*
X162501626Y-102231850D01*
X162356606Y-102391226D01*
X162353625Y-102395977D01*
X162353625Y-102395978D01*
X162280781Y-102512102D01*
X162242100Y-102573764D01*
X162192774Y-102696466D01*
X162168083Y-102757887D01*
X162124117Y-102813632D01*
X162056992Y-102836757D01*
X161988020Y-102819920D01*
X161939100Y-102768468D01*
X161929642Y-102744138D01*
X161919469Y-102706950D01*
X161919467Y-102706945D01*
X161917986Y-102701531D01*
X161825219Y-102507042D01*
X161817414Y-102496179D01*
X161702754Y-102336613D01*
X161699478Y-102332054D01*
X161544736Y-102182099D01*
X161365885Y-102061916D01*
X161168579Y-101975305D01*
X161163128Y-101973996D01*
X161163124Y-101973995D01*
X160964510Y-101926312D01*
X160964509Y-101926312D01*
X160959053Y-101925002D01*
X160875768Y-101920200D01*
X160749537Y-101912921D01*
X160749534Y-101912921D01*
X160743930Y-101912598D01*
X160530011Y-101938485D01*
X160324057Y-102001845D01*
X160319077Y-102004415D01*
X160319073Y-102004417D01*
X160235356Y-102047627D01*
X160132578Y-102100675D01*
X160128130Y-102104088D01*
X160026463Y-102182099D01*
X159961626Y-102231850D01*
X159816606Y-102391226D01*
X159813625Y-102395977D01*
X159813625Y-102395978D01*
X159740781Y-102512102D01*
X159702100Y-102573764D01*
X159652774Y-102696466D01*
X159628083Y-102757887D01*
X159584117Y-102813632D01*
X159516992Y-102836757D01*
X159448020Y-102819920D01*
X159399100Y-102768468D01*
X159389642Y-102744138D01*
X159379469Y-102706950D01*
X159379467Y-102706945D01*
X159377986Y-102701531D01*
X159285219Y-102507042D01*
X159277414Y-102496179D01*
X159162754Y-102336613D01*
X159159478Y-102332054D01*
X159004736Y-102182099D01*
X158825885Y-102061916D01*
X158628579Y-101975305D01*
X158623128Y-101973996D01*
X158623124Y-101973995D01*
X158424510Y-101926312D01*
X158424509Y-101926312D01*
X158419053Y-101925002D01*
X158335768Y-101920200D01*
X158209537Y-101912921D01*
X158209534Y-101912921D01*
X158203930Y-101912598D01*
X157990011Y-101938485D01*
X157784057Y-102001845D01*
X157779077Y-102004415D01*
X157779073Y-102004417D01*
X157695356Y-102047627D01*
X157592578Y-102100675D01*
X157588130Y-102104088D01*
X157486463Y-102182099D01*
X157421626Y-102231850D01*
X157276606Y-102391226D01*
X157273625Y-102395977D01*
X157273625Y-102395978D01*
X157200781Y-102512102D01*
X157162100Y-102573764D01*
X157112774Y-102696466D01*
X157088083Y-102757887D01*
X157044117Y-102813632D01*
X156976992Y-102836757D01*
X156908020Y-102819920D01*
X156859100Y-102768468D01*
X156849642Y-102744138D01*
X156839469Y-102706950D01*
X156839467Y-102706945D01*
X156837986Y-102701531D01*
X156745219Y-102507042D01*
X156737414Y-102496179D01*
X156622754Y-102336613D01*
X156619478Y-102332054D01*
X156464736Y-102182099D01*
X156285885Y-102061916D01*
X156088579Y-101975305D01*
X156083128Y-101973996D01*
X156083124Y-101973995D01*
X155884510Y-101926312D01*
X155884509Y-101926312D01*
X155879053Y-101925002D01*
X155795768Y-101920200D01*
X155669537Y-101912921D01*
X155669534Y-101912921D01*
X155663930Y-101912598D01*
X155450011Y-101938485D01*
X155244057Y-102001845D01*
X155239077Y-102004415D01*
X155239073Y-102004417D01*
X155155356Y-102047627D01*
X155052578Y-102100675D01*
X155048130Y-102104088D01*
X154946463Y-102182099D01*
X154881626Y-102231850D01*
X154736606Y-102391226D01*
X154733625Y-102395977D01*
X154733625Y-102395978D01*
X154660781Y-102512102D01*
X154622100Y-102573764D01*
X154541729Y-102773693D01*
X154498032Y-102984696D01*
X154492392Y-103200102D01*
X154524985Y-103413103D01*
X154526801Y-103418407D01*
X154526802Y-103418411D01*
X154531531Y-103432222D01*
X154594783Y-103616965D01*
X154699578Y-103805245D01*
X154703133Y-103809588D01*
X154832506Y-103967652D01*
X154832511Y-103967657D01*
X154836059Y-103971992D01*
X154999911Y-104111935D01*
X155004751Y-104114763D01*
X155004755Y-104114766D01*
X155054870Y-104144050D01*
X155103594Y-104195688D01*
X155117300Y-104252838D01*
X155117300Y-104453518D01*
X155097298Y-104521639D01*
X155043642Y-104568132D01*
X154973368Y-104578236D01*
X154940655Y-104568892D01*
X154823716Y-104517560D01*
X154818579Y-104515305D01*
X154813128Y-104513996D01*
X154813124Y-104513995D01*
X154614510Y-104466312D01*
X154614509Y-104466312D01*
X154609053Y-104465002D01*
X154525768Y-104460200D01*
X154399537Y-104452921D01*
X154399534Y-104452921D01*
X154393930Y-104452598D01*
X154180011Y-104478485D01*
X153974057Y-104541845D01*
X153969077Y-104544415D01*
X153969073Y-104544417D01*
X153885356Y-104587627D01*
X153782578Y-104640675D01*
X153778130Y-104644088D01*
X153676463Y-104722099D01*
X153611626Y-104771850D01*
X153466606Y-104931226D01*
X153463625Y-104935977D01*
X153463625Y-104935978D01*
X153390781Y-105052102D01*
X153352100Y-105113764D01*
X153271729Y-105313693D01*
X153228032Y-105524696D01*
X153222392Y-105740102D01*
X133713550Y-105740102D01*
X133713550Y-104252386D01*
X133733552Y-104184265D01*
X133774844Y-104144270D01*
X133834958Y-104108292D01*
X133841246Y-104104529D01*
X134003623Y-103962878D01*
X134018305Y-103944553D01*
X134134845Y-103799088D01*
X134134848Y-103799083D01*
X134138351Y-103794711D01*
X134241169Y-103605343D01*
X134308828Y-103400761D01*
X134323251Y-103299420D01*
X134338678Y-103191025D01*
X134338679Y-103191017D01*
X134339189Y-103187431D01*
X134340850Y-103124000D01*
X134321695Y-102909373D01*
X134276492Y-102744138D01*
X134266318Y-102706947D01*
X134266317Y-102706943D01*
X134264836Y-102701531D01*
X134172069Y-102507042D01*
X134164264Y-102496179D01*
X134049604Y-102336613D01*
X134046328Y-102332054D01*
X133891586Y-102182099D01*
X133712735Y-102061916D01*
X133515429Y-101975305D01*
X133509978Y-101973996D01*
X133509974Y-101973995D01*
X133311360Y-101926312D01*
X133311359Y-101926312D01*
X133305903Y-101925002D01*
X133222618Y-101920200D01*
X133096387Y-101912921D01*
X133096384Y-101912921D01*
X133090780Y-101912598D01*
X132876861Y-101938485D01*
X132670907Y-102001845D01*
X132665927Y-102004415D01*
X132665923Y-102004417D01*
X132582206Y-102047627D01*
X132479428Y-102100675D01*
X132474980Y-102104088D01*
X132373313Y-102182099D01*
X132308476Y-102231850D01*
X132163456Y-102391226D01*
X132160475Y-102395977D01*
X132160475Y-102395978D01*
X132087631Y-102512102D01*
X132048950Y-102573764D01*
X131999624Y-102696466D01*
X131974933Y-102757887D01*
X131930967Y-102813632D01*
X131863842Y-102836757D01*
X131794870Y-102819920D01*
X131745950Y-102768468D01*
X131736492Y-102744138D01*
X131726319Y-102706950D01*
X131726317Y-102706945D01*
X131724836Y-102701531D01*
X131632069Y-102507042D01*
X131624264Y-102496179D01*
X131509604Y-102336613D01*
X131506328Y-102332054D01*
X131351586Y-102182099D01*
X131172735Y-102061916D01*
X130975429Y-101975305D01*
X130969978Y-101973996D01*
X130969974Y-101973995D01*
X130771360Y-101926312D01*
X130771359Y-101926312D01*
X130765903Y-101925002D01*
X130682618Y-101920200D01*
X130556387Y-101912921D01*
X130556384Y-101912921D01*
X130550780Y-101912598D01*
X130336861Y-101938485D01*
X130130907Y-102001845D01*
X130125927Y-102004415D01*
X130125923Y-102004417D01*
X130042206Y-102047627D01*
X129939428Y-102100675D01*
X129934980Y-102104088D01*
X129833313Y-102182099D01*
X129768476Y-102231850D01*
X129623456Y-102391226D01*
X129620475Y-102395977D01*
X129620475Y-102395978D01*
X129547631Y-102512102D01*
X129508950Y-102573764D01*
X129459624Y-102696466D01*
X129434933Y-102757887D01*
X129390967Y-102813632D01*
X129323842Y-102836757D01*
X129254870Y-102819920D01*
X129205950Y-102768468D01*
X129196492Y-102744138D01*
X129186319Y-102706950D01*
X129186317Y-102706945D01*
X129184836Y-102701531D01*
X129092069Y-102507042D01*
X129084264Y-102496179D01*
X128969604Y-102336613D01*
X128966328Y-102332054D01*
X128811586Y-102182099D01*
X128632735Y-102061916D01*
X128435429Y-101975305D01*
X128429978Y-101973996D01*
X128429974Y-101973995D01*
X128231360Y-101926312D01*
X128231359Y-101926312D01*
X128225903Y-101925002D01*
X128142618Y-101920200D01*
X128016387Y-101912921D01*
X128016384Y-101912921D01*
X128010780Y-101912598D01*
X127796861Y-101938485D01*
X127590907Y-102001845D01*
X127585927Y-102004415D01*
X127585923Y-102004417D01*
X127502206Y-102047627D01*
X127399428Y-102100675D01*
X127394980Y-102104088D01*
X127293313Y-102182099D01*
X127228476Y-102231850D01*
X127083456Y-102391226D01*
X127080475Y-102395977D01*
X127080475Y-102395978D01*
X127007631Y-102512102D01*
X126968950Y-102573764D01*
X126919624Y-102696466D01*
X126894933Y-102757887D01*
X126850967Y-102813632D01*
X126783842Y-102836757D01*
X126714870Y-102819920D01*
X126665950Y-102768468D01*
X126656492Y-102744138D01*
X126646319Y-102706950D01*
X126646317Y-102706945D01*
X126644836Y-102701531D01*
X126552069Y-102507042D01*
X126544264Y-102496179D01*
X126429604Y-102336613D01*
X126426328Y-102332054D01*
X126271586Y-102182099D01*
X126092735Y-102061916D01*
X125895429Y-101975305D01*
X125889978Y-101973996D01*
X125889974Y-101973995D01*
X125691360Y-101926312D01*
X125691359Y-101926312D01*
X125685903Y-101925002D01*
X125602618Y-101920200D01*
X125476387Y-101912921D01*
X125476384Y-101912921D01*
X125470780Y-101912598D01*
X125256861Y-101938485D01*
X125050907Y-102001845D01*
X125045927Y-102004415D01*
X125045923Y-102004417D01*
X124962206Y-102047627D01*
X124859428Y-102100675D01*
X124854980Y-102104088D01*
X124753313Y-102182099D01*
X124688476Y-102231850D01*
X124543456Y-102391226D01*
X124540475Y-102395977D01*
X124540475Y-102395978D01*
X124467631Y-102512102D01*
X124428950Y-102573764D01*
X124348579Y-102773693D01*
X124304882Y-102984696D01*
X124299242Y-103200102D01*
X124331835Y-103413103D01*
X124333651Y-103418407D01*
X124333652Y-103418411D01*
X124338381Y-103432222D01*
X124401633Y-103616965D01*
X124506428Y-103805245D01*
X124509983Y-103809588D01*
X124639356Y-103967652D01*
X124639361Y-103967657D01*
X124642909Y-103971992D01*
X124806761Y-104111935D01*
X124811601Y-104114763D01*
X124811605Y-104114766D01*
X124861720Y-104144050D01*
X124910444Y-104195688D01*
X124924150Y-104252838D01*
X124924150Y-104453518D01*
X124904148Y-104521639D01*
X124850492Y-104568132D01*
X124780218Y-104578236D01*
X124747505Y-104568892D01*
X124630566Y-104517560D01*
X124625429Y-104515305D01*
X124619978Y-104513996D01*
X124619974Y-104513995D01*
X124421360Y-104466312D01*
X124421359Y-104466312D01*
X124415903Y-104465002D01*
X124332618Y-104460200D01*
X124206387Y-104452921D01*
X124206384Y-104452921D01*
X124200780Y-104452598D01*
X123986861Y-104478485D01*
X123780907Y-104541845D01*
X123775927Y-104544415D01*
X123775923Y-104544417D01*
X123692206Y-104587627D01*
X123589428Y-104640675D01*
X123584980Y-104644088D01*
X123483313Y-104722099D01*
X123418476Y-104771850D01*
X123273456Y-104931226D01*
X123270475Y-104935977D01*
X123270475Y-104935978D01*
X123197631Y-105052102D01*
X123158950Y-105113764D01*
X123078579Y-105313693D01*
X123034882Y-105524696D01*
X123029242Y-105740102D01*
X102386536Y-105740102D01*
X102387828Y-105731025D01*
X102387829Y-105731017D01*
X102388339Y-105727431D01*
X102390000Y-105664000D01*
X102370845Y-105449373D01*
X102325642Y-105284138D01*
X102315468Y-105246947D01*
X102315467Y-105246943D01*
X102313986Y-105241531D01*
X102221219Y-105047042D01*
X102213414Y-105036179D01*
X102098754Y-104876613D01*
X102095478Y-104872054D01*
X101940736Y-104722099D01*
X101761885Y-104601916D01*
X101564579Y-104515305D01*
X101559128Y-104513996D01*
X101559124Y-104513995D01*
X101360510Y-104466312D01*
X101360509Y-104466312D01*
X101355053Y-104465002D01*
X101271768Y-104460200D01*
X101145537Y-104452921D01*
X101145534Y-104452921D01*
X101139930Y-104452598D01*
X100926011Y-104478485D01*
X100720057Y-104541845D01*
X100715077Y-104544415D01*
X100715073Y-104544417D01*
X100631356Y-104587627D01*
X100528578Y-104640675D01*
X100524130Y-104644088D01*
X100422463Y-104722099D01*
X100357626Y-104771850D01*
X100212606Y-104931226D01*
X100209625Y-104935977D01*
X100209625Y-104935978D01*
X100136781Y-105052102D01*
X100098100Y-105113764D01*
X100049202Y-105235401D01*
X100024083Y-105297887D01*
X99980117Y-105353632D01*
X99912992Y-105376757D01*
X99844020Y-105359920D01*
X99795100Y-105308468D01*
X99785642Y-105284138D01*
X99775469Y-105246950D01*
X99775467Y-105246945D01*
X99773986Y-105241531D01*
X99681219Y-105047042D01*
X99673414Y-105036179D01*
X99558754Y-104876613D01*
X99555478Y-104872054D01*
X99400736Y-104722099D01*
X99221885Y-104601916D01*
X99024579Y-104515305D01*
X99019128Y-104513996D01*
X99019124Y-104513995D01*
X98820510Y-104466312D01*
X98820509Y-104466312D01*
X98815053Y-104465002D01*
X98731768Y-104460200D01*
X98605537Y-104452921D01*
X98605534Y-104452921D01*
X98599930Y-104452598D01*
X98386011Y-104478485D01*
X98180057Y-104541845D01*
X98175077Y-104544415D01*
X98175073Y-104544417D01*
X98091356Y-104587627D01*
X97988578Y-104640675D01*
X97984130Y-104644088D01*
X97882463Y-104722099D01*
X97817626Y-104771850D01*
X97672606Y-104931226D01*
X97669625Y-104935977D01*
X97669625Y-104935978D01*
X97596781Y-105052102D01*
X97558100Y-105113764D01*
X97509202Y-105235401D01*
X97483324Y-105299775D01*
X97439357Y-105355519D01*
X97372232Y-105378644D01*
X97303261Y-105361807D01*
X97254341Y-105310354D01*
X97245147Y-105286978D01*
X97230599Y-105235393D01*
X97226477Y-105224654D01*
X97133532Y-105036179D01*
X97127514Y-105026359D01*
X97124391Y-105022177D01*
X97113131Y-105013727D01*
X97100714Y-105020497D01*
X96457210Y-105664000D01*
X96098000Y-106023210D01*
X95456364Y-106664847D01*
X95450169Y-106676193D01*
X95460048Y-106688680D01*
X95515123Y-106725480D01*
X95525226Y-106730966D01*
X95718319Y-106813925D01*
X95729262Y-106817480D01*
X95934231Y-106863860D01*
X95945641Y-106865362D01*
X96155637Y-106873613D01*
X96167119Y-106873011D01*
X96300466Y-106853677D01*
X96370752Y-106863697D01*
X96424463Y-106910126D01*
X96444546Y-106978223D01*
X96424625Y-107046367D01*
X96407641Y-107067468D01*
X84115254Y-119359855D01*
X84102864Y-119370722D01*
X84079019Y-119389019D01*
X83985305Y-119511150D01*
X83926394Y-119653374D01*
X83926394Y-119653375D01*
X83906300Y-119806000D01*
X83907378Y-119814188D01*
X83910222Y-119835790D01*
X83911300Y-119852237D01*
X83911300Y-132350923D01*
X83891298Y-132419044D01*
X83852811Y-132457310D01*
X83851562Y-132458102D01*
X83846578Y-132460675D01*
X83842133Y-132464086D01*
X83842131Y-132464087D01*
X83740463Y-132542099D01*
X83675626Y-132591850D01*
X83530606Y-132751226D01*
X83527625Y-132755977D01*
X83527625Y-132755978D01*
X83454781Y-132872102D01*
X83416100Y-132933764D01*
X83414006Y-132938974D01*
X83342083Y-133117887D01*
X83298117Y-133173632D01*
X83230992Y-133196757D01*
X83162020Y-133179920D01*
X83113100Y-133128468D01*
X83103642Y-133104138D01*
X83093469Y-133066950D01*
X83093467Y-133066945D01*
X83091986Y-133061531D01*
X82999219Y-132867042D01*
X82873478Y-132692054D01*
X82718736Y-132542099D01*
X82596424Y-132459909D01*
X82551039Y-132405313D01*
X82540700Y-132355327D01*
X82540700Y-117308237D01*
X82541778Y-117291790D01*
X82544622Y-117270188D01*
X82545700Y-117262000D01*
X82525606Y-117109375D01*
X82466695Y-116967151D01*
X82466695Y-116967150D01*
X82372981Y-116845019D01*
X82349136Y-116826722D01*
X82336746Y-116815855D01*
X72197083Y-106676192D01*
X92910168Y-106676192D01*
X92920049Y-106688681D01*
X92975123Y-106725480D01*
X92985226Y-106730966D01*
X93178319Y-106813925D01*
X93189262Y-106817480D01*
X93394231Y-106863860D01*
X93405641Y-106865362D01*
X93615637Y-106873613D01*
X93627119Y-106873011D01*
X93835097Y-106842856D01*
X93846293Y-106840168D01*
X94045297Y-106772615D01*
X94055794Y-106767941D01*
X94198280Y-106688146D01*
X94208143Y-106678069D01*
X94205188Y-106670399D01*
X93570811Y-106036021D01*
X93556868Y-106028408D01*
X93555034Y-106028539D01*
X93548420Y-106032790D01*
X92916361Y-106664850D01*
X92910168Y-106676192D01*
X72197083Y-106676192D01*
X71572652Y-106051761D01*
X71538626Y-105989449D01*
X71539020Y-105940909D01*
X71537978Y-105940761D01*
X71567828Y-105731025D01*
X71567829Y-105731017D01*
X71568339Y-105727431D01*
X71570000Y-105664000D01*
X71567684Y-105638053D01*
X92347293Y-105638053D01*
X92361038Y-105847752D01*
X92362839Y-105859122D01*
X92414568Y-106062807D01*
X92418409Y-106073654D01*
X92506392Y-106264504D01*
X92512142Y-106274465D01*
X92533234Y-106304309D01*
X92543821Y-106312696D01*
X92557121Y-106305668D01*
X93185979Y-105676811D01*
X93192356Y-105665132D01*
X93922408Y-105665132D01*
X93922539Y-105666966D01*
X93926790Y-105673580D01*
X94560487Y-106307276D01*
X94572862Y-106314033D01*
X94579442Y-106309107D01*
X94661941Y-106161794D01*
X94666615Y-106151297D01*
X94707458Y-106030978D01*
X94748295Y-105972902D01*
X94814048Y-105946124D01*
X94883841Y-105959145D01*
X94935514Y-106007832D01*
X94948894Y-106040466D01*
X94954567Y-106062805D01*
X94958409Y-106073654D01*
X95046392Y-106264504D01*
X95052142Y-106274465D01*
X95073234Y-106304309D01*
X95083821Y-106312696D01*
X95097121Y-106305668D01*
X95725979Y-105676811D01*
X95733592Y-105662868D01*
X95733461Y-105661034D01*
X95729210Y-105654420D01*
X95093732Y-105018942D01*
X95081352Y-105012182D01*
X95075386Y-105016648D01*
X94981413Y-105195261D01*
X94977006Y-105205901D01*
X94948700Y-105297059D01*
X94909397Y-105356184D01*
X94844368Y-105384674D01*
X94774259Y-105373484D01*
X94721329Y-105326166D01*
X94707099Y-105293895D01*
X94690602Y-105235401D01*
X94686477Y-105224654D01*
X94593532Y-105036179D01*
X94587514Y-105026359D01*
X94584391Y-105022177D01*
X94573131Y-105013727D01*
X94560714Y-105020497D01*
X93930021Y-105651189D01*
X93922408Y-105665132D01*
X93192356Y-105665132D01*
X93193592Y-105662868D01*
X93193461Y-105661034D01*
X93189210Y-105654420D01*
X92553732Y-105018942D01*
X92541352Y-105012182D01*
X92535386Y-105016648D01*
X92441413Y-105195261D01*
X92437005Y-105205904D01*
X92374686Y-105406600D01*
X92372296Y-105417844D01*
X92347594Y-105626552D01*
X92347293Y-105638053D01*
X71567684Y-105638053D01*
X71550845Y-105449373D01*
X71505642Y-105284138D01*
X71495468Y-105246947D01*
X71495467Y-105246943D01*
X71493986Y-105241531D01*
X71401219Y-105047042D01*
X71393414Y-105036179D01*
X71278754Y-104876613D01*
X71275478Y-104872054D01*
X71120736Y-104722099D01*
X71014827Y-104650931D01*
X92909044Y-104650931D01*
X92912530Y-104659319D01*
X93545189Y-105291979D01*
X93559132Y-105299592D01*
X93560966Y-105299461D01*
X93567580Y-105295210D01*
X94199578Y-104663211D01*
X94206283Y-104650931D01*
X95449044Y-104650931D01*
X95452530Y-104659319D01*
X96085189Y-105291979D01*
X96099132Y-105299592D01*
X96100966Y-105299461D01*
X96107580Y-105295210D01*
X96739578Y-104663211D01*
X96746335Y-104650836D01*
X96740305Y-104642780D01*
X96652892Y-104587627D01*
X96642648Y-104582407D01*
X96447453Y-104504532D01*
X96436415Y-104501262D01*
X96230303Y-104460264D01*
X96218857Y-104459061D01*
X96008729Y-104456311D01*
X95997249Y-104457214D01*
X95790138Y-104492802D01*
X95779018Y-104495782D01*
X95581852Y-104568520D01*
X95571474Y-104573470D01*
X95458642Y-104640598D01*
X95449044Y-104650931D01*
X94206283Y-104650931D01*
X94206335Y-104650836D01*
X94200305Y-104642780D01*
X94112892Y-104587627D01*
X94102648Y-104582407D01*
X93907453Y-104504532D01*
X93896415Y-104501262D01*
X93690303Y-104460264D01*
X93678857Y-104459061D01*
X93468729Y-104456311D01*
X93457249Y-104457214D01*
X93250138Y-104492802D01*
X93239018Y-104495782D01*
X93041852Y-104568520D01*
X93031474Y-104573470D01*
X92918642Y-104640598D01*
X92909044Y-104650931D01*
X71014827Y-104650931D01*
X70941885Y-104601916D01*
X70744579Y-104515305D01*
X70739128Y-104513996D01*
X70739124Y-104513995D01*
X70540510Y-104466312D01*
X70540509Y-104466312D01*
X70535053Y-104465002D01*
X70451768Y-104460200D01*
X70325537Y-104452921D01*
X70325534Y-104452921D01*
X70319930Y-104452598D01*
X70106011Y-104478485D01*
X69900057Y-104541845D01*
X69895077Y-104544415D01*
X69895073Y-104544417D01*
X69811356Y-104587627D01*
X69708578Y-104640675D01*
X69704130Y-104644088D01*
X69602463Y-104722099D01*
X69537626Y-104771850D01*
X69392606Y-104931226D01*
X69389625Y-104935977D01*
X69389625Y-104935978D01*
X69316781Y-105052102D01*
X69278100Y-105113764D01*
X69229202Y-105235401D01*
X69204083Y-105297887D01*
X69160117Y-105353632D01*
X69092992Y-105376757D01*
X69024020Y-105359920D01*
X68975100Y-105308468D01*
X68965642Y-105284138D01*
X68955469Y-105246950D01*
X68955467Y-105246945D01*
X68953986Y-105241531D01*
X68861219Y-105047042D01*
X68853414Y-105036179D01*
X68738754Y-104876613D01*
X68735478Y-104872054D01*
X68580736Y-104722099D01*
X68401885Y-104601916D01*
X68204579Y-104515305D01*
X68199128Y-104513996D01*
X68199124Y-104513995D01*
X68000510Y-104466312D01*
X68000509Y-104466312D01*
X67995053Y-104465002D01*
X67911768Y-104460200D01*
X67785537Y-104452921D01*
X67785534Y-104452921D01*
X67779930Y-104452598D01*
X67566011Y-104478485D01*
X67360057Y-104541845D01*
X67355077Y-104544415D01*
X67355073Y-104544417D01*
X67271356Y-104587627D01*
X67168578Y-104640675D01*
X67164130Y-104644088D01*
X67062463Y-104722099D01*
X66997626Y-104771850D01*
X66852606Y-104931226D01*
X66849625Y-104935977D01*
X66849625Y-104935978D01*
X66776781Y-105052102D01*
X66738100Y-105113764D01*
X66689202Y-105235401D01*
X66663324Y-105299775D01*
X66619357Y-105355519D01*
X66552232Y-105378644D01*
X66483261Y-105361807D01*
X66434341Y-105310354D01*
X66425147Y-105286978D01*
X66410599Y-105235393D01*
X66406477Y-105224654D01*
X66313532Y-105036179D01*
X66307514Y-105026359D01*
X66304391Y-105022177D01*
X66293131Y-105013727D01*
X66280714Y-105020497D01*
X65650021Y-105651189D01*
X65642408Y-105665132D01*
X64912356Y-105665132D01*
X64913592Y-105662868D01*
X64913461Y-105661034D01*
X64909210Y-105654420D01*
X64273732Y-105018942D01*
X64261352Y-105012182D01*
X64255386Y-105016648D01*
X64161413Y-105195261D01*
X64157006Y-105205901D01*
X64128700Y-105297059D01*
X64089397Y-105356184D01*
X64024368Y-105384674D01*
X63954259Y-105373484D01*
X63901329Y-105326166D01*
X63887099Y-105293895D01*
X63870602Y-105235401D01*
X63866477Y-105224654D01*
X63773532Y-105036179D01*
X63767514Y-105026359D01*
X63764391Y-105022177D01*
X63753131Y-105013727D01*
X63740714Y-105020497D01*
X63110021Y-105651189D01*
X63102408Y-105665132D01*
X62372356Y-105665132D01*
X62373592Y-105662868D01*
X62373461Y-105661034D01*
X62369210Y-105654420D01*
X61733732Y-105018942D01*
X61721352Y-105012182D01*
X61715386Y-105016648D01*
X61621413Y-105195261D01*
X61617005Y-105205904D01*
X61554686Y-105406600D01*
X61552296Y-105417844D01*
X61527594Y-105626552D01*
X61527293Y-105638053D01*
X48133000Y-105638053D01*
X48133000Y-104650931D01*
X62089044Y-104650931D01*
X62092530Y-104659319D01*
X62725189Y-105291979D01*
X62739132Y-105299592D01*
X62740966Y-105299461D01*
X62747580Y-105295210D01*
X63379578Y-104663211D01*
X63386283Y-104650931D01*
X64629044Y-104650931D01*
X64632530Y-104659319D01*
X65265189Y-105291979D01*
X65279132Y-105299592D01*
X65280966Y-105299461D01*
X65287580Y-105295210D01*
X65919578Y-104663211D01*
X65926335Y-104650836D01*
X65920305Y-104642780D01*
X65832892Y-104587627D01*
X65822648Y-104582407D01*
X65627453Y-104504532D01*
X65616415Y-104501262D01*
X65410303Y-104460264D01*
X65398857Y-104459061D01*
X65188729Y-104456311D01*
X65177249Y-104457214D01*
X64970138Y-104492802D01*
X64959018Y-104495782D01*
X64761852Y-104568520D01*
X64751474Y-104573470D01*
X64638642Y-104640598D01*
X64629044Y-104650931D01*
X63386283Y-104650931D01*
X63386335Y-104650836D01*
X63380305Y-104642780D01*
X63292892Y-104587627D01*
X63282648Y-104582407D01*
X63087453Y-104504532D01*
X63076415Y-104501262D01*
X62870303Y-104460264D01*
X62858857Y-104459061D01*
X62648729Y-104456311D01*
X62637249Y-104457214D01*
X62430138Y-104492802D01*
X62419018Y-104495782D01*
X62221852Y-104568520D01*
X62211474Y-104573470D01*
X62098642Y-104640598D01*
X62089044Y-104650931D01*
X48133000Y-104650931D01*
X48133000Y-104136192D01*
X63360168Y-104136192D01*
X63370049Y-104148681D01*
X63425123Y-104185480D01*
X63435226Y-104190966D01*
X63628319Y-104273925D01*
X63639262Y-104277480D01*
X63844231Y-104323860D01*
X63855641Y-104325362D01*
X64065637Y-104333613D01*
X64077119Y-104333011D01*
X64285097Y-104302856D01*
X64296293Y-104300168D01*
X64495297Y-104232615D01*
X64505794Y-104227941D01*
X64648280Y-104148146D01*
X64658143Y-104138069D01*
X64655188Y-104130399D01*
X64020811Y-103496021D01*
X64006868Y-103488408D01*
X64005034Y-103488539D01*
X63998420Y-103492790D01*
X63366361Y-104124850D01*
X63360168Y-104136192D01*
X48133000Y-104136192D01*
X48133000Y-103098053D01*
X62797293Y-103098053D01*
X62811038Y-103307752D01*
X62812839Y-103319122D01*
X62864568Y-103522807D01*
X62868409Y-103533654D01*
X62956392Y-103724504D01*
X62962142Y-103734465D01*
X62983234Y-103764309D01*
X62993821Y-103772696D01*
X63007121Y-103765668D01*
X63635979Y-103136811D01*
X63642356Y-103125132D01*
X64372408Y-103125132D01*
X64372539Y-103126966D01*
X64376790Y-103133580D01*
X65010487Y-103767276D01*
X65022862Y-103774033D01*
X65029442Y-103769107D01*
X65111941Y-103621794D01*
X65116616Y-103611294D01*
X65158236Y-103488686D01*
X65199073Y-103430609D01*
X65264826Y-103403831D01*
X65334618Y-103416852D01*
X65386291Y-103465539D01*
X65396755Y-103488372D01*
X65440783Y-103616965D01*
X65545578Y-103805245D01*
X65549133Y-103809588D01*
X65678506Y-103967652D01*
X65678511Y-103967657D01*
X65682059Y-103971992D01*
X65845911Y-104111935D01*
X65887422Y-104136192D01*
X66027108Y-104217818D01*
X66027111Y-104217819D01*
X66031955Y-104220650D01*
X66037225Y-104222579D01*
X66037226Y-104222579D01*
X66229047Y-104292776D01*
X66229051Y-104292777D01*
X66234311Y-104294702D01*
X66239827Y-104295665D01*
X66239832Y-104295666D01*
X66441058Y-104330785D01*
X66446582Y-104331749D01*
X66452188Y-104331720D01*
X66452192Y-104331720D01*
X66550809Y-104331203D01*
X66662059Y-104330621D01*
X66873931Y-104291353D01*
X66879180Y-104289370D01*
X66879182Y-104289369D01*
X67070253Y-104217169D01*
X67070256Y-104217168D01*
X67075500Y-104215186D01*
X67207491Y-104136192D01*
X68440168Y-104136192D01*
X68450049Y-104148681D01*
X68505123Y-104185480D01*
X68515226Y-104190966D01*
X68708319Y-104273925D01*
X68719262Y-104277480D01*
X68924231Y-104323860D01*
X68935641Y-104325362D01*
X69145637Y-104333613D01*
X69157119Y-104333011D01*
X69365097Y-104302856D01*
X69376293Y-104300168D01*
X69575297Y-104232615D01*
X69585794Y-104227941D01*
X69728280Y-104148146D01*
X69738143Y-104138069D01*
X69735188Y-104130399D01*
X69100811Y-103496021D01*
X69086868Y-103488408D01*
X69085034Y-103488539D01*
X69078420Y-103492790D01*
X68446361Y-104124850D01*
X68440168Y-104136192D01*
X67207491Y-104136192D01*
X67260396Y-104104529D01*
X67422773Y-103962878D01*
X67437455Y-103944553D01*
X67553995Y-103799088D01*
X67553998Y-103799083D01*
X67557501Y-103794711D01*
X67660319Y-103605343D01*
X67697442Y-103493094D01*
X67737822Y-103434699D01*
X67803363Y-103407405D01*
X67873255Y-103419878D01*
X67925309Y-103468157D01*
X67939194Y-103501644D01*
X67944570Y-103522813D01*
X67948409Y-103533654D01*
X68036392Y-103724504D01*
X68042142Y-103734465D01*
X68063234Y-103764309D01*
X68073821Y-103772696D01*
X68087121Y-103765668D01*
X68715979Y-103136811D01*
X68722356Y-103125132D01*
X69452408Y-103125132D01*
X69452539Y-103126966D01*
X69456790Y-103133580D01*
X70090487Y-103767276D01*
X70102862Y-103774033D01*
X70109442Y-103769107D01*
X70191941Y-103621794D01*
X70196616Y-103611294D01*
X70238236Y-103488686D01*
X70279073Y-103430609D01*
X70344826Y-103403831D01*
X70414618Y-103416852D01*
X70466291Y-103465539D01*
X70476755Y-103488372D01*
X70520783Y-103616965D01*
X70625578Y-103805245D01*
X70629133Y-103809588D01*
X70758506Y-103967652D01*
X70758511Y-103967657D01*
X70762059Y-103971992D01*
X70925911Y-104111935D01*
X70967422Y-104136192D01*
X71107108Y-104217818D01*
X71107111Y-104217819D01*
X71111955Y-104220650D01*
X71117225Y-104222579D01*
X71117226Y-104222579D01*
X71309047Y-104292776D01*
X71309051Y-104292777D01*
X71314311Y-104294702D01*
X71319827Y-104295665D01*
X71319832Y-104295666D01*
X71521058Y-104330785D01*
X71526582Y-104331749D01*
X71532188Y-104331720D01*
X71532192Y-104331720D01*
X71630809Y-104331203D01*
X71742059Y-104330621D01*
X71953931Y-104291353D01*
X71959180Y-104289370D01*
X71959182Y-104289369D01*
X72150253Y-104217169D01*
X72150256Y-104217168D01*
X72155500Y-104215186D01*
X72287491Y-104136192D01*
X94180168Y-104136192D01*
X94190049Y-104148681D01*
X94245123Y-104185480D01*
X94255226Y-104190966D01*
X94448319Y-104273925D01*
X94459262Y-104277480D01*
X94664231Y-104323860D01*
X94675641Y-104325362D01*
X94885637Y-104333613D01*
X94897119Y-104333011D01*
X95105097Y-104302856D01*
X95116293Y-104300168D01*
X95315297Y-104232615D01*
X95325794Y-104227941D01*
X95468280Y-104148146D01*
X95478143Y-104138069D01*
X95475188Y-104130399D01*
X94840811Y-103496021D01*
X94826868Y-103488408D01*
X94825034Y-103488539D01*
X94818420Y-103492790D01*
X94186361Y-104124850D01*
X94180168Y-104136192D01*
X72287491Y-104136192D01*
X72340396Y-104104529D01*
X72502773Y-103962878D01*
X72517455Y-103944553D01*
X72633995Y-103799088D01*
X72633998Y-103799083D01*
X72637501Y-103794711D01*
X72740319Y-103605343D01*
X72807978Y-103400761D01*
X72822401Y-103299420D01*
X72837828Y-103191025D01*
X72837829Y-103191017D01*
X72838339Y-103187431D01*
X72840000Y-103124000D01*
X72837684Y-103098053D01*
X93617293Y-103098053D01*
X93631038Y-103307752D01*
X93632839Y-103319122D01*
X93684568Y-103522807D01*
X93688409Y-103533654D01*
X93776392Y-103724504D01*
X93782142Y-103734465D01*
X93803234Y-103764309D01*
X93813821Y-103772696D01*
X93827121Y-103765668D01*
X94455979Y-103136811D01*
X94462356Y-103125132D01*
X95192408Y-103125132D01*
X95192539Y-103126966D01*
X95196790Y-103133580D01*
X95830487Y-103767276D01*
X95842862Y-103774033D01*
X95849442Y-103769107D01*
X95931941Y-103621794D01*
X95936616Y-103611294D01*
X95978236Y-103488686D01*
X96019073Y-103430609D01*
X96084826Y-103403831D01*
X96154618Y-103416852D01*
X96206291Y-103465539D01*
X96216755Y-103488372D01*
X96260783Y-103616965D01*
X96365578Y-103805245D01*
X96369133Y-103809588D01*
X96498506Y-103967652D01*
X96498511Y-103967657D01*
X96502059Y-103971992D01*
X96665911Y-104111935D01*
X96707422Y-104136192D01*
X96847108Y-104217818D01*
X96847111Y-104217819D01*
X96851955Y-104220650D01*
X96857225Y-104222579D01*
X96857226Y-104222579D01*
X97049047Y-104292776D01*
X97049051Y-104292777D01*
X97054311Y-104294702D01*
X97059827Y-104295665D01*
X97059832Y-104295666D01*
X97261058Y-104330785D01*
X97266582Y-104331749D01*
X97272188Y-104331720D01*
X97272192Y-104331720D01*
X97370809Y-104331203D01*
X97482059Y-104330621D01*
X97693931Y-104291353D01*
X97699180Y-104289370D01*
X97699182Y-104289369D01*
X97890253Y-104217169D01*
X97890256Y-104217168D01*
X97895500Y-104215186D01*
X98027491Y-104136192D01*
X99260168Y-104136192D01*
X99270049Y-104148681D01*
X99325123Y-104185480D01*
X99335226Y-104190966D01*
X99528319Y-104273925D01*
X99539262Y-104277480D01*
X99744231Y-104323860D01*
X99755641Y-104325362D01*
X99965637Y-104333613D01*
X99977119Y-104333011D01*
X100185097Y-104302856D01*
X100196293Y-104300168D01*
X100395297Y-104232615D01*
X100405794Y-104227941D01*
X100548280Y-104148146D01*
X100558143Y-104138069D01*
X100555188Y-104130399D01*
X99920811Y-103496021D01*
X99906868Y-103488408D01*
X99905034Y-103488539D01*
X99898420Y-103492790D01*
X99266361Y-104124850D01*
X99260168Y-104136192D01*
X98027491Y-104136192D01*
X98080396Y-104104529D01*
X98242773Y-103962878D01*
X98257455Y-103944553D01*
X98373995Y-103799088D01*
X98373998Y-103799083D01*
X98377501Y-103794711D01*
X98480319Y-103605343D01*
X98517442Y-103493094D01*
X98557822Y-103434699D01*
X98623363Y-103407405D01*
X98693255Y-103419878D01*
X98745309Y-103468157D01*
X98759194Y-103501644D01*
X98764570Y-103522813D01*
X98768409Y-103533654D01*
X98856392Y-103724504D01*
X98862142Y-103734465D01*
X98883234Y-103764309D01*
X98893821Y-103772696D01*
X98907121Y-103765668D01*
X99535979Y-103136811D01*
X99542356Y-103125132D01*
X100272408Y-103125132D01*
X100272539Y-103126966D01*
X100276790Y-103133580D01*
X100910487Y-103767276D01*
X100922862Y-103774033D01*
X100929442Y-103769107D01*
X101011941Y-103621794D01*
X101016616Y-103611294D01*
X101058236Y-103488686D01*
X101099073Y-103430609D01*
X101164826Y-103403831D01*
X101234618Y-103416852D01*
X101286291Y-103465539D01*
X101296755Y-103488372D01*
X101340783Y-103616965D01*
X101445578Y-103805245D01*
X101449133Y-103809588D01*
X101578506Y-103967652D01*
X101578511Y-103967657D01*
X101582059Y-103971992D01*
X101745911Y-104111935D01*
X101787422Y-104136192D01*
X101927108Y-104217818D01*
X101927111Y-104217819D01*
X101931955Y-104220650D01*
X101937225Y-104222579D01*
X101937226Y-104222579D01*
X102129047Y-104292776D01*
X102129051Y-104292777D01*
X102134311Y-104294702D01*
X102139827Y-104295665D01*
X102139832Y-104295666D01*
X102341058Y-104330785D01*
X102346582Y-104331749D01*
X102352188Y-104331720D01*
X102352192Y-104331720D01*
X102450809Y-104331203D01*
X102562059Y-104330621D01*
X102773931Y-104291353D01*
X102779180Y-104289370D01*
X102779182Y-104289369D01*
X102970253Y-104217169D01*
X102970256Y-104217168D01*
X102975500Y-104215186D01*
X103160396Y-104104529D01*
X103322773Y-103962878D01*
X103337455Y-103944553D01*
X103453995Y-103799088D01*
X103453998Y-103799083D01*
X103457501Y-103794711D01*
X103560319Y-103605343D01*
X103627978Y-103400761D01*
X103642401Y-103299420D01*
X103657828Y-103191025D01*
X103657829Y-103191017D01*
X103658339Y-103187431D01*
X103660000Y-103124000D01*
X103640845Y-102909373D01*
X103595642Y-102744138D01*
X103585468Y-102706947D01*
X103585467Y-102706943D01*
X103583986Y-102701531D01*
X103491219Y-102507042D01*
X103483414Y-102496179D01*
X103368754Y-102336613D01*
X103365478Y-102332054D01*
X103210736Y-102182099D01*
X103031885Y-102061916D01*
X102834579Y-101975305D01*
X102829128Y-101973996D01*
X102829124Y-101973995D01*
X102630510Y-101926312D01*
X102630509Y-101926312D01*
X102625053Y-101925002D01*
X102541768Y-101920200D01*
X102415537Y-101912921D01*
X102415534Y-101912921D01*
X102409930Y-101912598D01*
X102196011Y-101938485D01*
X101990057Y-102001845D01*
X101985077Y-102004415D01*
X101985073Y-102004417D01*
X101901356Y-102047627D01*
X101798578Y-102100675D01*
X101794130Y-102104088D01*
X101692463Y-102182099D01*
X101627626Y-102231850D01*
X101482606Y-102391226D01*
X101479625Y-102395977D01*
X101479625Y-102395978D01*
X101406781Y-102512102D01*
X101368100Y-102573764D01*
X101314560Y-102706950D01*
X101293324Y-102759775D01*
X101249357Y-102815519D01*
X101182232Y-102838644D01*
X101113261Y-102821807D01*
X101064341Y-102770354D01*
X101055147Y-102746978D01*
X101040599Y-102695393D01*
X101036477Y-102684654D01*
X100943532Y-102496179D01*
X100937514Y-102486359D01*
X100934391Y-102482177D01*
X100923131Y-102473727D01*
X100910714Y-102480497D01*
X100280021Y-103111189D01*
X100272408Y-103125132D01*
X99542356Y-103125132D01*
X99543592Y-103122868D01*
X99543461Y-103121034D01*
X99539210Y-103114420D01*
X98903732Y-102478942D01*
X98891352Y-102472182D01*
X98885386Y-102476648D01*
X98791413Y-102655261D01*
X98787009Y-102665894D01*
X98759348Y-102754976D01*
X98720045Y-102814101D01*
X98655015Y-102842592D01*
X98584906Y-102831402D01*
X98531976Y-102784085D01*
X98517481Y-102750860D01*
X98505468Y-102706948D01*
X98505468Y-102706947D01*
X98503986Y-102701531D01*
X98411219Y-102507042D01*
X98403414Y-102496179D01*
X98288754Y-102336613D01*
X98285478Y-102332054D01*
X98130736Y-102182099D01*
X98024827Y-102110931D01*
X99259044Y-102110931D01*
X99262530Y-102119319D01*
X99895189Y-102751979D01*
X99909132Y-102759592D01*
X99910966Y-102759461D01*
X99917580Y-102755210D01*
X100549578Y-102123211D01*
X100556335Y-102110836D01*
X100550305Y-102102780D01*
X100462892Y-102047627D01*
X100452648Y-102042407D01*
X100257453Y-101964532D01*
X100246415Y-101961262D01*
X100040303Y-101920264D01*
X100028857Y-101919061D01*
X99818729Y-101916311D01*
X99807249Y-101917214D01*
X99600138Y-101952802D01*
X99589018Y-101955782D01*
X99391852Y-102028520D01*
X99381474Y-102033470D01*
X99268642Y-102100598D01*
X99259044Y-102110931D01*
X98024827Y-102110931D01*
X97951885Y-102061916D01*
X97754579Y-101975305D01*
X97749128Y-101973996D01*
X97749124Y-101973995D01*
X97550510Y-101926312D01*
X97550509Y-101926312D01*
X97545053Y-101925002D01*
X97461768Y-101920200D01*
X97335537Y-101912921D01*
X97335534Y-101912921D01*
X97329930Y-101912598D01*
X97116011Y-101938485D01*
X96910057Y-102001845D01*
X96905077Y-102004415D01*
X96905073Y-102004417D01*
X96821356Y-102047627D01*
X96718578Y-102100675D01*
X96714130Y-102104088D01*
X96612463Y-102182099D01*
X96547626Y-102231850D01*
X96402606Y-102391226D01*
X96399625Y-102395977D01*
X96399625Y-102395978D01*
X96326781Y-102512102D01*
X96288100Y-102573764D01*
X96234560Y-102706950D01*
X96213324Y-102759775D01*
X96169357Y-102815519D01*
X96102232Y-102838644D01*
X96033261Y-102821807D01*
X95984341Y-102770354D01*
X95975147Y-102746978D01*
X95960599Y-102695393D01*
X95956477Y-102684654D01*
X95863532Y-102496179D01*
X95857514Y-102486359D01*
X95854391Y-102482177D01*
X95843131Y-102473727D01*
X95830714Y-102480497D01*
X95200021Y-103111189D01*
X95192408Y-103125132D01*
X94462356Y-103125132D01*
X94463592Y-103122868D01*
X94463461Y-103121034D01*
X94459210Y-103114420D01*
X93823732Y-102478942D01*
X93811352Y-102472182D01*
X93805386Y-102476648D01*
X93711413Y-102655261D01*
X93707005Y-102665904D01*
X93644686Y-102866600D01*
X93642296Y-102877844D01*
X93617594Y-103086552D01*
X93617293Y-103098053D01*
X72837684Y-103098053D01*
X72820845Y-102909373D01*
X72775642Y-102744138D01*
X72765468Y-102706947D01*
X72765467Y-102706943D01*
X72763986Y-102701531D01*
X72671219Y-102507042D01*
X72663414Y-102496179D01*
X72548754Y-102336613D01*
X72545478Y-102332054D01*
X72390736Y-102182099D01*
X72284827Y-102110931D01*
X94179044Y-102110931D01*
X94182530Y-102119319D01*
X94815189Y-102751979D01*
X94829132Y-102759592D01*
X94830966Y-102759461D01*
X94837580Y-102755210D01*
X95469578Y-102123211D01*
X95476335Y-102110836D01*
X95470305Y-102102780D01*
X95382892Y-102047627D01*
X95372648Y-102042407D01*
X95177453Y-101964532D01*
X95166415Y-101961262D01*
X94960303Y-101920264D01*
X94948857Y-101919061D01*
X94738729Y-101916311D01*
X94727249Y-101917214D01*
X94520138Y-101952802D01*
X94509018Y-101955782D01*
X94311852Y-102028520D01*
X94301474Y-102033470D01*
X94188642Y-102100598D01*
X94179044Y-102110931D01*
X72284827Y-102110931D01*
X72211885Y-102061916D01*
X72014579Y-101975305D01*
X72009128Y-101973996D01*
X72009124Y-101973995D01*
X71810510Y-101926312D01*
X71810509Y-101926312D01*
X71805053Y-101925002D01*
X71721768Y-101920200D01*
X71595537Y-101912921D01*
X71595534Y-101912921D01*
X71589930Y-101912598D01*
X71376011Y-101938485D01*
X71170057Y-102001845D01*
X71165077Y-102004415D01*
X71165073Y-102004417D01*
X71081356Y-102047627D01*
X70978578Y-102100675D01*
X70974130Y-102104088D01*
X70872463Y-102182099D01*
X70807626Y-102231850D01*
X70662606Y-102391226D01*
X70659625Y-102395977D01*
X70659625Y-102395978D01*
X70586781Y-102512102D01*
X70548100Y-102573764D01*
X70494560Y-102706950D01*
X70473324Y-102759775D01*
X70429357Y-102815519D01*
X70362232Y-102838644D01*
X70293261Y-102821807D01*
X70244341Y-102770354D01*
X70235147Y-102746978D01*
X70220599Y-102695393D01*
X70216477Y-102684654D01*
X70123532Y-102496179D01*
X70117514Y-102486359D01*
X70114391Y-102482177D01*
X70103131Y-102473727D01*
X70090714Y-102480497D01*
X69460021Y-103111189D01*
X69452408Y-103125132D01*
X68722356Y-103125132D01*
X68723592Y-103122868D01*
X68723461Y-103121034D01*
X68719210Y-103114420D01*
X68083732Y-102478942D01*
X68071352Y-102472182D01*
X68065386Y-102476648D01*
X67971413Y-102655261D01*
X67967009Y-102665894D01*
X67939348Y-102754976D01*
X67900045Y-102814101D01*
X67835015Y-102842592D01*
X67764906Y-102831402D01*
X67711976Y-102784085D01*
X67697481Y-102750860D01*
X67685468Y-102706948D01*
X67685468Y-102706947D01*
X67683986Y-102701531D01*
X67591219Y-102507042D01*
X67583414Y-102496179D01*
X67468754Y-102336613D01*
X67465478Y-102332054D01*
X67310736Y-102182099D01*
X67204827Y-102110931D01*
X68439044Y-102110931D01*
X68442530Y-102119319D01*
X69075189Y-102751979D01*
X69089132Y-102759592D01*
X69090966Y-102759461D01*
X69097580Y-102755210D01*
X69729578Y-102123211D01*
X69736335Y-102110836D01*
X69730305Y-102102780D01*
X69642892Y-102047627D01*
X69632648Y-102042407D01*
X69437453Y-101964532D01*
X69426415Y-101961262D01*
X69220303Y-101920264D01*
X69208857Y-101919061D01*
X68998729Y-101916311D01*
X68987249Y-101917214D01*
X68780138Y-101952802D01*
X68769018Y-101955782D01*
X68571852Y-102028520D01*
X68561474Y-102033470D01*
X68448642Y-102100598D01*
X68439044Y-102110931D01*
X67204827Y-102110931D01*
X67131885Y-102061916D01*
X66934579Y-101975305D01*
X66929128Y-101973996D01*
X66929124Y-101973995D01*
X66730510Y-101926312D01*
X66730509Y-101926312D01*
X66725053Y-101925002D01*
X66641768Y-101920200D01*
X66515537Y-101912921D01*
X66515534Y-101912921D01*
X66509930Y-101912598D01*
X66296011Y-101938485D01*
X66090057Y-102001845D01*
X66085077Y-102004415D01*
X66085073Y-102004417D01*
X66001356Y-102047627D01*
X65898578Y-102100675D01*
X65894130Y-102104088D01*
X65792463Y-102182099D01*
X65727626Y-102231850D01*
X65582606Y-102391226D01*
X65579625Y-102395977D01*
X65579625Y-102395978D01*
X65506781Y-102512102D01*
X65468100Y-102573764D01*
X65414560Y-102706950D01*
X65393324Y-102759775D01*
X65349357Y-102815519D01*
X65282232Y-102838644D01*
X65213261Y-102821807D01*
X65164341Y-102770354D01*
X65155147Y-102746978D01*
X65140599Y-102695393D01*
X65136477Y-102684654D01*
X65043532Y-102496179D01*
X65037514Y-102486359D01*
X65034391Y-102482177D01*
X65023131Y-102473727D01*
X65010714Y-102480497D01*
X64380021Y-103111189D01*
X64372408Y-103125132D01*
X63642356Y-103125132D01*
X63643592Y-103122868D01*
X63643461Y-103121034D01*
X63639210Y-103114420D01*
X63003732Y-102478942D01*
X62991352Y-102472182D01*
X62985386Y-102476648D01*
X62891413Y-102655261D01*
X62887005Y-102665904D01*
X62824686Y-102866600D01*
X62822296Y-102877844D01*
X62797594Y-103086552D01*
X62797293Y-103098053D01*
X48133000Y-103098053D01*
X48133000Y-102110931D01*
X63359044Y-102110931D01*
X63362530Y-102119319D01*
X63995189Y-102751979D01*
X64009132Y-102759592D01*
X64010966Y-102759461D01*
X64017580Y-102755210D01*
X64649578Y-102123211D01*
X64656335Y-102110836D01*
X64650305Y-102102780D01*
X64562892Y-102047627D01*
X64552648Y-102042407D01*
X64357453Y-101964532D01*
X64346415Y-101961262D01*
X64140303Y-101920264D01*
X64128857Y-101919061D01*
X63918729Y-101916311D01*
X63907249Y-101917214D01*
X63700138Y-101952802D01*
X63689018Y-101955782D01*
X63491852Y-102028520D01*
X63481474Y-102033470D01*
X63368642Y-102100598D01*
X63359044Y-102110931D01*
X48133000Y-102110931D01*
X48133000Y-99292464D01*
X58191888Y-99292464D01*
X58229182Y-99539063D01*
X58305423Y-99776526D01*
X58418650Y-99998746D01*
X58565948Y-100200004D01*
X58743530Y-100375123D01*
X58946825Y-100519597D01*
X58951355Y-100521826D01*
X58951360Y-100521829D01*
X59166062Y-100627475D01*
X59166067Y-100627477D01*
X59170603Y-100629709D01*
X59175447Y-100631190D01*
X59404260Y-100701146D01*
X59404262Y-100701147D01*
X59409108Y-100702628D01*
X59656203Y-100736476D01*
X59737626Y-100734486D01*
X59900469Y-100730506D01*
X59900472Y-100730506D01*
X59905531Y-100730382D01*
X60150678Y-100684504D01*
X60385336Y-100600022D01*
X60603469Y-100479109D01*
X60607447Y-100475979D01*
X60607451Y-100475976D01*
X60795487Y-100328006D01*
X60795488Y-100328005D01*
X60799463Y-100324877D01*
X60968278Y-100141292D01*
X61105569Y-99933079D01*
X61178095Y-99771702D01*
X61205731Y-99710210D01*
X61205733Y-99710204D01*
X61207805Y-99705594D01*
X61209114Y-99700709D01*
X61271047Y-99469571D01*
X61271047Y-99469570D01*
X61272355Y-99464689D01*
X61289849Y-99292464D01*
X73071888Y-99292464D01*
X73109182Y-99539063D01*
X73185423Y-99776526D01*
X73298650Y-99998746D01*
X73445948Y-100200004D01*
X73623530Y-100375123D01*
X73826825Y-100519597D01*
X73831355Y-100521826D01*
X73831360Y-100521829D01*
X74046062Y-100627475D01*
X74046067Y-100627477D01*
X74050603Y-100629709D01*
X74055447Y-100631190D01*
X74284260Y-100701146D01*
X74284262Y-100701147D01*
X74289108Y-100702628D01*
X74536203Y-100736476D01*
X74617626Y-100734486D01*
X74780469Y-100730506D01*
X74780472Y-100730506D01*
X74785531Y-100730382D01*
X75030678Y-100684504D01*
X75265336Y-100600022D01*
X75483469Y-100479109D01*
X75487447Y-100475979D01*
X75487451Y-100475976D01*
X75675487Y-100328006D01*
X75675488Y-100328005D01*
X75679463Y-100324877D01*
X75848278Y-100141292D01*
X75985569Y-99933079D01*
X76058095Y-99771702D01*
X76085731Y-99710210D01*
X76085733Y-99710204D01*
X76087805Y-99705594D01*
X76089114Y-99700709D01*
X76151047Y-99469571D01*
X76151047Y-99469570D01*
X76152355Y-99464689D01*
X76169849Y-99292464D01*
X89011888Y-99292464D01*
X89049182Y-99539063D01*
X89125423Y-99776526D01*
X89238650Y-99998746D01*
X89385948Y-100200004D01*
X89563530Y-100375123D01*
X89766825Y-100519597D01*
X89771355Y-100521826D01*
X89771360Y-100521829D01*
X89986062Y-100627475D01*
X89986067Y-100627477D01*
X89990603Y-100629709D01*
X89995447Y-100631190D01*
X90224260Y-100701146D01*
X90224262Y-100701147D01*
X90229108Y-100702628D01*
X90476203Y-100736476D01*
X90557626Y-100734486D01*
X90720469Y-100730506D01*
X90720472Y-100730506D01*
X90725531Y-100730382D01*
X90970678Y-100684504D01*
X91205336Y-100600022D01*
X91423469Y-100479109D01*
X91427447Y-100475979D01*
X91427451Y-100475976D01*
X91615487Y-100328006D01*
X91615488Y-100328005D01*
X91619463Y-100324877D01*
X91788278Y-100141292D01*
X91925569Y-99933079D01*
X91998095Y-99771702D01*
X92025731Y-99710210D01*
X92025733Y-99710204D01*
X92027805Y-99705594D01*
X92029114Y-99700709D01*
X92091047Y-99469571D01*
X92091047Y-99469570D01*
X92092355Y-99464689D01*
X92109849Y-99292464D01*
X103891888Y-99292464D01*
X103929182Y-99539063D01*
X104005423Y-99776526D01*
X104118650Y-99998746D01*
X104265948Y-100200004D01*
X104443530Y-100375123D01*
X104646825Y-100519597D01*
X104651355Y-100521826D01*
X104651360Y-100521829D01*
X104866062Y-100627475D01*
X104866067Y-100627477D01*
X104870603Y-100629709D01*
X104875447Y-100631190D01*
X105104260Y-100701146D01*
X105104262Y-100701147D01*
X105109108Y-100702628D01*
X105356203Y-100736476D01*
X105437626Y-100734486D01*
X105600469Y-100730506D01*
X105600472Y-100730506D01*
X105605531Y-100730382D01*
X105850678Y-100684504D01*
X106085336Y-100600022D01*
X106303469Y-100479109D01*
X106307447Y-100475979D01*
X106307451Y-100475976D01*
X106495487Y-100328006D01*
X106495488Y-100328005D01*
X106499463Y-100324877D01*
X106668278Y-100141292D01*
X106805569Y-99933079D01*
X106878095Y-99771702D01*
X106905731Y-99710210D01*
X106905733Y-99710204D01*
X106907805Y-99705594D01*
X106909114Y-99700709D01*
X106971047Y-99469571D01*
X106971047Y-99469570D01*
X106972355Y-99464689D01*
X106989849Y-99292464D01*
X119692738Y-99292464D01*
X119730032Y-99539063D01*
X119806273Y-99776526D01*
X119919500Y-99998746D01*
X120066798Y-100200004D01*
X120244380Y-100375123D01*
X120447675Y-100519597D01*
X120452205Y-100521826D01*
X120452210Y-100521829D01*
X120666912Y-100627475D01*
X120666917Y-100627477D01*
X120671453Y-100629709D01*
X120676297Y-100631190D01*
X120905110Y-100701146D01*
X120905112Y-100701147D01*
X120909958Y-100702628D01*
X121157053Y-100736476D01*
X121238476Y-100734486D01*
X121401319Y-100730506D01*
X121401322Y-100730506D01*
X121406381Y-100730382D01*
X121651528Y-100684504D01*
X121886186Y-100600022D01*
X122104319Y-100479109D01*
X122108297Y-100475979D01*
X122108301Y-100475976D01*
X122296337Y-100328006D01*
X122296338Y-100328005D01*
X122300313Y-100324877D01*
X122469128Y-100141292D01*
X122606419Y-99933079D01*
X122678945Y-99771702D01*
X122706581Y-99710210D01*
X122706583Y-99710204D01*
X122708655Y-99705594D01*
X122709964Y-99700709D01*
X122771897Y-99469571D01*
X122771897Y-99469570D01*
X122773205Y-99464689D01*
X122790699Y-99292464D01*
X134572738Y-99292464D01*
X134610032Y-99539063D01*
X134686273Y-99776526D01*
X134799500Y-99998746D01*
X134946798Y-100200004D01*
X135124380Y-100375123D01*
X135327675Y-100519597D01*
X135332205Y-100521826D01*
X135332210Y-100521829D01*
X135546912Y-100627475D01*
X135546917Y-100627477D01*
X135551453Y-100629709D01*
X135556297Y-100631190D01*
X135785110Y-100701146D01*
X135785112Y-100701147D01*
X135789958Y-100702628D01*
X136037053Y-100736476D01*
X136118476Y-100734486D01*
X136281319Y-100730506D01*
X136281322Y-100730506D01*
X136286381Y-100730382D01*
X136531528Y-100684504D01*
X136766186Y-100600022D01*
X136984319Y-100479109D01*
X136988297Y-100475979D01*
X136988301Y-100475976D01*
X137176337Y-100328006D01*
X137176338Y-100328005D01*
X137180313Y-100324877D01*
X137349128Y-100141292D01*
X137486419Y-99933079D01*
X137558945Y-99771702D01*
X137586581Y-99710210D01*
X137586583Y-99710204D01*
X137588655Y-99705594D01*
X137589964Y-99700709D01*
X137651897Y-99469571D01*
X137651897Y-99469570D01*
X137653205Y-99464689D01*
X137670699Y-99292464D01*
X149885888Y-99292464D01*
X149923182Y-99539063D01*
X149999423Y-99776526D01*
X150112650Y-99998746D01*
X150259948Y-100200004D01*
X150437530Y-100375123D01*
X150640825Y-100519597D01*
X150645355Y-100521826D01*
X150645360Y-100521829D01*
X150860062Y-100627475D01*
X150860067Y-100627477D01*
X150864603Y-100629709D01*
X150869447Y-100631190D01*
X151098260Y-100701146D01*
X151098262Y-100701147D01*
X151103108Y-100702628D01*
X151350203Y-100736476D01*
X151431626Y-100734486D01*
X151594469Y-100730506D01*
X151594472Y-100730506D01*
X151599531Y-100730382D01*
X151844678Y-100684504D01*
X152079336Y-100600022D01*
X152297469Y-100479109D01*
X152301447Y-100475979D01*
X152301451Y-100475976D01*
X152489487Y-100328006D01*
X152489488Y-100328005D01*
X152493463Y-100324877D01*
X152662278Y-100141292D01*
X152799569Y-99933079D01*
X152872095Y-99771702D01*
X152899731Y-99710210D01*
X152899733Y-99710204D01*
X152901805Y-99705594D01*
X152903114Y-99700709D01*
X152965047Y-99469571D01*
X152965047Y-99469570D01*
X152966355Y-99464689D01*
X152983849Y-99292464D01*
X164765888Y-99292464D01*
X164803182Y-99539063D01*
X164879423Y-99776526D01*
X164992650Y-99998746D01*
X165139948Y-100200004D01*
X165317530Y-100375123D01*
X165520825Y-100519597D01*
X165525355Y-100521826D01*
X165525360Y-100521829D01*
X165740062Y-100627475D01*
X165740067Y-100627477D01*
X165744603Y-100629709D01*
X165749447Y-100631190D01*
X165978260Y-100701146D01*
X165978262Y-100701147D01*
X165983108Y-100702628D01*
X166230203Y-100736476D01*
X166311626Y-100734486D01*
X166474469Y-100730506D01*
X166474472Y-100730506D01*
X166479531Y-100730382D01*
X166724678Y-100684504D01*
X166959336Y-100600022D01*
X167177469Y-100479109D01*
X167181447Y-100475979D01*
X167181451Y-100475976D01*
X167369487Y-100328006D01*
X167369488Y-100328005D01*
X167373463Y-100324877D01*
X167542278Y-100141292D01*
X167679569Y-99933079D01*
X167752095Y-99771702D01*
X167779731Y-99710210D01*
X167779733Y-99710204D01*
X167781805Y-99705594D01*
X167783114Y-99700709D01*
X167845047Y-99469571D01*
X167845047Y-99469570D01*
X167846355Y-99464689D01*
X167871559Y-99216563D01*
X167871900Y-99184000D01*
X167871671Y-99181152D01*
X167852304Y-98940443D01*
X167852303Y-98940439D01*
X167851898Y-98935401D01*
X167792407Y-98693197D01*
X167694958Y-98463621D01*
X167562057Y-98252578D01*
X167397124Y-98065499D01*
X167204403Y-97907195D01*
X166988850Y-97781741D01*
X166850820Y-97728756D01*
X166760737Y-97694176D01*
X166760733Y-97694175D01*
X166756013Y-97692363D01*
X166751063Y-97691329D01*
X166751060Y-97691328D01*
X166516832Y-97642395D01*
X166516828Y-97642395D01*
X166511881Y-97641361D01*
X166262735Y-97630047D01*
X166257715Y-97630628D01*
X166257711Y-97630628D01*
X166020012Y-97658131D01*
X166020008Y-97658132D01*
X166014985Y-97658713D01*
X166010120Y-97660090D01*
X166010118Y-97660090D01*
X165843069Y-97707360D01*
X165775005Y-97726620D01*
X165548970Y-97832022D01*
X165544790Y-97834863D01*
X165544786Y-97834865D01*
X165457327Y-97894303D01*
X165342694Y-97972207D01*
X165161484Y-98143569D01*
X165158406Y-98147595D01*
X165158405Y-98147596D01*
X165013076Y-98337678D01*
X165013073Y-98337682D01*
X165010003Y-98341698D01*
X164892148Y-98561497D01*
X164810950Y-98797312D01*
X164768499Y-99043075D01*
X164765888Y-99292464D01*
X152983849Y-99292464D01*
X152991559Y-99216563D01*
X152991900Y-99184000D01*
X152991671Y-99181152D01*
X152972304Y-98940443D01*
X152972303Y-98940439D01*
X152971898Y-98935401D01*
X152912407Y-98693197D01*
X152814958Y-98463621D01*
X152682057Y-98252578D01*
X152517124Y-98065499D01*
X152324403Y-97907195D01*
X152108850Y-97781741D01*
X151970820Y-97728756D01*
X151880737Y-97694176D01*
X151880733Y-97694175D01*
X151876013Y-97692363D01*
X151871063Y-97691329D01*
X151871060Y-97691328D01*
X151636832Y-97642395D01*
X151636828Y-97642395D01*
X151631881Y-97641361D01*
X151382735Y-97630047D01*
X151377715Y-97630628D01*
X151377711Y-97630628D01*
X151140012Y-97658131D01*
X151140008Y-97658132D01*
X151134985Y-97658713D01*
X151130120Y-97660090D01*
X151130118Y-97660090D01*
X150963069Y-97707360D01*
X150895005Y-97726620D01*
X150668970Y-97832022D01*
X150664790Y-97834863D01*
X150664786Y-97834865D01*
X150577327Y-97894303D01*
X150462694Y-97972207D01*
X150281484Y-98143569D01*
X150278406Y-98147595D01*
X150278405Y-98147596D01*
X150133076Y-98337678D01*
X150133073Y-98337682D01*
X150130003Y-98341698D01*
X150012148Y-98561497D01*
X149930950Y-98797312D01*
X149888499Y-99043075D01*
X149885888Y-99292464D01*
X137670699Y-99292464D01*
X137678409Y-99216563D01*
X137678750Y-99184000D01*
X137678521Y-99181152D01*
X137659154Y-98940443D01*
X137659153Y-98940439D01*
X137658748Y-98935401D01*
X137599257Y-98693197D01*
X137501808Y-98463621D01*
X137368907Y-98252578D01*
X137203974Y-98065499D01*
X137011253Y-97907195D01*
X136795700Y-97781741D01*
X136657670Y-97728756D01*
X136567587Y-97694176D01*
X136567583Y-97694175D01*
X136562863Y-97692363D01*
X136557913Y-97691329D01*
X136557910Y-97691328D01*
X136323682Y-97642395D01*
X136323678Y-97642395D01*
X136318731Y-97641361D01*
X136069585Y-97630047D01*
X136064565Y-97630628D01*
X136064561Y-97630628D01*
X135826862Y-97658131D01*
X135826858Y-97658132D01*
X135821835Y-97658713D01*
X135816970Y-97660090D01*
X135816968Y-97660090D01*
X135649919Y-97707360D01*
X135581855Y-97726620D01*
X135355820Y-97832022D01*
X135351640Y-97834863D01*
X135351636Y-97834865D01*
X135264177Y-97894303D01*
X135149544Y-97972207D01*
X134968334Y-98143569D01*
X134965256Y-98147595D01*
X134965255Y-98147596D01*
X134819926Y-98337678D01*
X134819923Y-98337682D01*
X134816853Y-98341698D01*
X134698998Y-98561497D01*
X134617800Y-98797312D01*
X134575349Y-99043075D01*
X134572738Y-99292464D01*
X122790699Y-99292464D01*
X122798409Y-99216563D01*
X122798750Y-99184000D01*
X122798521Y-99181152D01*
X122779154Y-98940443D01*
X122779153Y-98940439D01*
X122778748Y-98935401D01*
X122719257Y-98693197D01*
X122621808Y-98463621D01*
X122488907Y-98252578D01*
X122323974Y-98065499D01*
X122131253Y-97907195D01*
X121915700Y-97781741D01*
X121777670Y-97728756D01*
X121687587Y-97694176D01*
X121687583Y-97694175D01*
X121682863Y-97692363D01*
X121677913Y-97691329D01*
X121677910Y-97691328D01*
X121443682Y-97642395D01*
X121443678Y-97642395D01*
X121438731Y-97641361D01*
X121189585Y-97630047D01*
X121184565Y-97630628D01*
X121184561Y-97630628D01*
X120946862Y-97658131D01*
X120946858Y-97658132D01*
X120941835Y-97658713D01*
X120936970Y-97660090D01*
X120936968Y-97660090D01*
X120769919Y-97707360D01*
X120701855Y-97726620D01*
X120475820Y-97832022D01*
X120471640Y-97834863D01*
X120471636Y-97834865D01*
X120384177Y-97894303D01*
X120269544Y-97972207D01*
X120088334Y-98143569D01*
X120085256Y-98147595D01*
X120085255Y-98147596D01*
X119939926Y-98337678D01*
X119939923Y-98337682D01*
X119936853Y-98341698D01*
X119818998Y-98561497D01*
X119737800Y-98797312D01*
X119695349Y-99043075D01*
X119692738Y-99292464D01*
X106989849Y-99292464D01*
X106997559Y-99216563D01*
X106997900Y-99184000D01*
X106997671Y-99181152D01*
X106978304Y-98940443D01*
X106978303Y-98940439D01*
X106977898Y-98935401D01*
X106918407Y-98693197D01*
X106820958Y-98463621D01*
X106688057Y-98252578D01*
X106523124Y-98065499D01*
X106330403Y-97907195D01*
X106114850Y-97781741D01*
X105976820Y-97728756D01*
X105886737Y-97694176D01*
X105886733Y-97694175D01*
X105882013Y-97692363D01*
X105877063Y-97691329D01*
X105877060Y-97691328D01*
X105642832Y-97642395D01*
X105642828Y-97642395D01*
X105637881Y-97641361D01*
X105388735Y-97630047D01*
X105383715Y-97630628D01*
X105383711Y-97630628D01*
X105146012Y-97658131D01*
X105146008Y-97658132D01*
X105140985Y-97658713D01*
X105136120Y-97660090D01*
X105136118Y-97660090D01*
X104969069Y-97707360D01*
X104901005Y-97726620D01*
X104674970Y-97832022D01*
X104670790Y-97834863D01*
X104670786Y-97834865D01*
X104583327Y-97894303D01*
X104468694Y-97972207D01*
X104287484Y-98143569D01*
X104284406Y-98147595D01*
X104284405Y-98147596D01*
X104139076Y-98337678D01*
X104139073Y-98337682D01*
X104136003Y-98341698D01*
X104018148Y-98561497D01*
X103936950Y-98797312D01*
X103894499Y-99043075D01*
X103891888Y-99292464D01*
X92109849Y-99292464D01*
X92117559Y-99216563D01*
X92117900Y-99184000D01*
X92117671Y-99181152D01*
X92098304Y-98940443D01*
X92098303Y-98940439D01*
X92097898Y-98935401D01*
X92038407Y-98693197D01*
X91940958Y-98463621D01*
X91808057Y-98252578D01*
X91643124Y-98065499D01*
X91450403Y-97907195D01*
X91234850Y-97781741D01*
X91096820Y-97728756D01*
X91006737Y-97694176D01*
X91006733Y-97694175D01*
X91002013Y-97692363D01*
X90997063Y-97691329D01*
X90997060Y-97691328D01*
X90762832Y-97642395D01*
X90762828Y-97642395D01*
X90757881Y-97641361D01*
X90508735Y-97630047D01*
X90503715Y-97630628D01*
X90503711Y-97630628D01*
X90266012Y-97658131D01*
X90266008Y-97658132D01*
X90260985Y-97658713D01*
X90256120Y-97660090D01*
X90256118Y-97660090D01*
X90089069Y-97707360D01*
X90021005Y-97726620D01*
X89794970Y-97832022D01*
X89790790Y-97834863D01*
X89790786Y-97834865D01*
X89703327Y-97894303D01*
X89588694Y-97972207D01*
X89407484Y-98143569D01*
X89404406Y-98147595D01*
X89404405Y-98147596D01*
X89259076Y-98337678D01*
X89259073Y-98337682D01*
X89256003Y-98341698D01*
X89138148Y-98561497D01*
X89056950Y-98797312D01*
X89014499Y-99043075D01*
X89011888Y-99292464D01*
X76169849Y-99292464D01*
X76177559Y-99216563D01*
X76177900Y-99184000D01*
X76177671Y-99181152D01*
X76158304Y-98940443D01*
X76158303Y-98940439D01*
X76157898Y-98935401D01*
X76098407Y-98693197D01*
X76000958Y-98463621D01*
X75868057Y-98252578D01*
X75703124Y-98065499D01*
X75510403Y-97907195D01*
X75294850Y-97781741D01*
X75156820Y-97728756D01*
X75066737Y-97694176D01*
X75066733Y-97694175D01*
X75062013Y-97692363D01*
X75057063Y-97691329D01*
X75057060Y-97691328D01*
X74822832Y-97642395D01*
X74822828Y-97642395D01*
X74817881Y-97641361D01*
X74568735Y-97630047D01*
X74563715Y-97630628D01*
X74563711Y-97630628D01*
X74326012Y-97658131D01*
X74326008Y-97658132D01*
X74320985Y-97658713D01*
X74316120Y-97660090D01*
X74316118Y-97660090D01*
X74149069Y-97707360D01*
X74081005Y-97726620D01*
X73854970Y-97832022D01*
X73850790Y-97834863D01*
X73850786Y-97834865D01*
X73763327Y-97894303D01*
X73648694Y-97972207D01*
X73467484Y-98143569D01*
X73464406Y-98147595D01*
X73464405Y-98147596D01*
X73319076Y-98337678D01*
X73319073Y-98337682D01*
X73316003Y-98341698D01*
X73198148Y-98561497D01*
X73116950Y-98797312D01*
X73074499Y-99043075D01*
X73071888Y-99292464D01*
X61289849Y-99292464D01*
X61297559Y-99216563D01*
X61297900Y-99184000D01*
X61297671Y-99181152D01*
X61278304Y-98940443D01*
X61278303Y-98940439D01*
X61277898Y-98935401D01*
X61218407Y-98693197D01*
X61120958Y-98463621D01*
X60988057Y-98252578D01*
X60823124Y-98065499D01*
X60630403Y-97907195D01*
X60414850Y-97781741D01*
X60276820Y-97728756D01*
X60186737Y-97694176D01*
X60186733Y-97694175D01*
X60182013Y-97692363D01*
X60177063Y-97691329D01*
X60177060Y-97691328D01*
X59942832Y-97642395D01*
X59942828Y-97642395D01*
X59937881Y-97641361D01*
X59688735Y-97630047D01*
X59683715Y-97630628D01*
X59683711Y-97630628D01*
X59446012Y-97658131D01*
X59446008Y-97658132D01*
X59440985Y-97658713D01*
X59436120Y-97660090D01*
X59436118Y-97660090D01*
X59269069Y-97707360D01*
X59201005Y-97726620D01*
X58974970Y-97832022D01*
X58970790Y-97834863D01*
X58970786Y-97834865D01*
X58883327Y-97894303D01*
X58768694Y-97972207D01*
X58587484Y-98143569D01*
X58584406Y-98147595D01*
X58584405Y-98147596D01*
X58439076Y-98337678D01*
X58439073Y-98337682D01*
X58436003Y-98341698D01*
X58318148Y-98561497D01*
X58236950Y-98797312D01*
X58194499Y-99043075D01*
X58191888Y-99292464D01*
X48133000Y-99292464D01*
X48133000Y-95351600D01*
X59394018Y-95351600D01*
X59410768Y-95642100D01*
X59411593Y-95646307D01*
X59411594Y-95646312D01*
X59438089Y-95781358D01*
X59466789Y-95927640D01*
X59561044Y-96202935D01*
X59691788Y-96462890D01*
X59856602Y-96702697D01*
X60052438Y-96917917D01*
X60055727Y-96920667D01*
X60272378Y-97101816D01*
X60272383Y-97101820D01*
X60275670Y-97104568D01*
X60398919Y-97181882D01*
X60518528Y-97256913D01*
X60518532Y-97256915D01*
X60522168Y-97259196D01*
X60590429Y-97290017D01*
X60783459Y-97377174D01*
X60783463Y-97377176D01*
X60787371Y-97378940D01*
X60791490Y-97380160D01*
X61062258Y-97460366D01*
X61062263Y-97460367D01*
X61066371Y-97461584D01*
X61070605Y-97462232D01*
X61070610Y-97462233D01*
X61349764Y-97504949D01*
X61349766Y-97504949D01*
X61354006Y-97505598D01*
X61502198Y-97507926D01*
X61640662Y-97510101D01*
X61640668Y-97510101D01*
X61644953Y-97510168D01*
X61933828Y-97475211D01*
X62215287Y-97401371D01*
X62484120Y-97290017D01*
X62735354Y-97143208D01*
X62964338Y-96963661D01*
X63166837Y-96754699D01*
X63169370Y-96751251D01*
X63169374Y-96751246D01*
X63336565Y-96523642D01*
X63339103Y-96520187D01*
X63341149Y-96516419D01*
X63475898Y-96268242D01*
X63475899Y-96268240D01*
X63477948Y-96264466D01*
X63580803Y-95992268D01*
X63645765Y-95708629D01*
X63671632Y-95418798D01*
X63672101Y-95374000D01*
X63670574Y-95351600D01*
X70694016Y-95351600D01*
X70710766Y-95642100D01*
X70711591Y-95646307D01*
X70711592Y-95646312D01*
X70738087Y-95781358D01*
X70766787Y-95927640D01*
X70861042Y-96202935D01*
X70991786Y-96462890D01*
X71156600Y-96702697D01*
X71352436Y-96917917D01*
X71355725Y-96920667D01*
X71572376Y-97101816D01*
X71572381Y-97101820D01*
X71575668Y-97104568D01*
X71698917Y-97181882D01*
X71818526Y-97256913D01*
X71818530Y-97256915D01*
X71822166Y-97259196D01*
X71890427Y-97290017D01*
X72083457Y-97377174D01*
X72083461Y-97377176D01*
X72087369Y-97378940D01*
X72091488Y-97380160D01*
X72362256Y-97460366D01*
X72362261Y-97460367D01*
X72366369Y-97461584D01*
X72370603Y-97462232D01*
X72370608Y-97462233D01*
X72649762Y-97504949D01*
X72649764Y-97504949D01*
X72654004Y-97505598D01*
X72802196Y-97507926D01*
X72940660Y-97510101D01*
X72940666Y-97510101D01*
X72944951Y-97510168D01*
X73233826Y-97475211D01*
X73515285Y-97401371D01*
X73784118Y-97290017D01*
X74035352Y-97143208D01*
X74264336Y-96963661D01*
X74466835Y-96754699D01*
X74469368Y-96751251D01*
X74469372Y-96751246D01*
X74636563Y-96523642D01*
X74639101Y-96520187D01*
X74641147Y-96516419D01*
X74775896Y-96268242D01*
X74775897Y-96268240D01*
X74777946Y-96264466D01*
X74880801Y-95992268D01*
X74945763Y-95708629D01*
X74971630Y-95418798D01*
X74972099Y-95374000D01*
X74970572Y-95351600D01*
X90214018Y-95351600D01*
X90230768Y-95642100D01*
X90231593Y-95646307D01*
X90231594Y-95646312D01*
X90258089Y-95781358D01*
X90286789Y-95927640D01*
X90381044Y-96202935D01*
X90511788Y-96462890D01*
X90676602Y-96702697D01*
X90872438Y-96917917D01*
X90875727Y-96920667D01*
X91092378Y-97101816D01*
X91092383Y-97101820D01*
X91095670Y-97104568D01*
X91218919Y-97181882D01*
X91338528Y-97256913D01*
X91338532Y-97256915D01*
X91342168Y-97259196D01*
X91410429Y-97290017D01*
X91603459Y-97377174D01*
X91603463Y-97377176D01*
X91607371Y-97378940D01*
X91611490Y-97380160D01*
X91882258Y-97460366D01*
X91882263Y-97460367D01*
X91886371Y-97461584D01*
X91890605Y-97462232D01*
X91890610Y-97462233D01*
X92169764Y-97504949D01*
X92169766Y-97504949D01*
X92174006Y-97505598D01*
X92322198Y-97507926D01*
X92460662Y-97510101D01*
X92460668Y-97510101D01*
X92464953Y-97510168D01*
X92753828Y-97475211D01*
X93035287Y-97401371D01*
X93304120Y-97290017D01*
X93555354Y-97143208D01*
X93784338Y-96963661D01*
X93986837Y-96754699D01*
X93989370Y-96751251D01*
X93989374Y-96751246D01*
X94156565Y-96523642D01*
X94159103Y-96520187D01*
X94161149Y-96516419D01*
X94295898Y-96268242D01*
X94295899Y-96268240D01*
X94297948Y-96264466D01*
X94400803Y-95992268D01*
X94465765Y-95708629D01*
X94491632Y-95418798D01*
X94492101Y-95374000D01*
X94490574Y-95351600D01*
X101514016Y-95351600D01*
X101530766Y-95642100D01*
X101531591Y-95646307D01*
X101531592Y-95646312D01*
X101558087Y-95781358D01*
X101586787Y-95927640D01*
X101681042Y-96202935D01*
X101811786Y-96462890D01*
X101976600Y-96702697D01*
X102172436Y-96917917D01*
X102175725Y-96920667D01*
X102392376Y-97101816D01*
X102392381Y-97101820D01*
X102395668Y-97104568D01*
X102518917Y-97181882D01*
X102638526Y-97256913D01*
X102638530Y-97256915D01*
X102642166Y-97259196D01*
X102710427Y-97290017D01*
X102903457Y-97377174D01*
X102903461Y-97377176D01*
X102907369Y-97378940D01*
X102911488Y-97380160D01*
X103182256Y-97460366D01*
X103182261Y-97460367D01*
X103186369Y-97461584D01*
X103190603Y-97462232D01*
X103190608Y-97462233D01*
X103469762Y-97504949D01*
X103469764Y-97504949D01*
X103474004Y-97505598D01*
X103622196Y-97507926D01*
X103760660Y-97510101D01*
X103760666Y-97510101D01*
X103764951Y-97510168D01*
X104053826Y-97475211D01*
X104335285Y-97401371D01*
X104604118Y-97290017D01*
X104855352Y-97143208D01*
X105084336Y-96963661D01*
X105286835Y-96754699D01*
X105289368Y-96751251D01*
X105289372Y-96751246D01*
X105456563Y-96523642D01*
X105459101Y-96520187D01*
X105461147Y-96516419D01*
X105595896Y-96268242D01*
X105595897Y-96268240D01*
X105597946Y-96264466D01*
X105700801Y-95992268D01*
X105765763Y-95708629D01*
X105791630Y-95418798D01*
X105792099Y-95374000D01*
X105790572Y-95351600D01*
X120894868Y-95351600D01*
X120911618Y-95642100D01*
X120912443Y-95646307D01*
X120912444Y-95646312D01*
X120938939Y-95781358D01*
X120967639Y-95927640D01*
X121061894Y-96202935D01*
X121192638Y-96462890D01*
X121357452Y-96702697D01*
X121553288Y-96917917D01*
X121556577Y-96920667D01*
X121773228Y-97101816D01*
X121773233Y-97101820D01*
X121776520Y-97104568D01*
X121899769Y-97181882D01*
X122019378Y-97256913D01*
X122019382Y-97256915D01*
X122023018Y-97259196D01*
X122091279Y-97290017D01*
X122284309Y-97377174D01*
X122284313Y-97377176D01*
X122288221Y-97378940D01*
X122292340Y-97380160D01*
X122563108Y-97460366D01*
X122563113Y-97460367D01*
X122567221Y-97461584D01*
X122571455Y-97462232D01*
X122571460Y-97462233D01*
X122850614Y-97504949D01*
X122850616Y-97504949D01*
X122854856Y-97505598D01*
X123003048Y-97507926D01*
X123141512Y-97510101D01*
X123141518Y-97510101D01*
X123145803Y-97510168D01*
X123434678Y-97475211D01*
X123716137Y-97401371D01*
X123984970Y-97290017D01*
X124236204Y-97143208D01*
X124465188Y-96963661D01*
X124667687Y-96754699D01*
X124670220Y-96751251D01*
X124670224Y-96751246D01*
X124837415Y-96523642D01*
X124839953Y-96520187D01*
X124841999Y-96516419D01*
X124976748Y-96268242D01*
X124976749Y-96268240D01*
X124978798Y-96264466D01*
X125081653Y-95992268D01*
X125146615Y-95708629D01*
X125172482Y-95418798D01*
X125172951Y-95374000D01*
X125171424Y-95351600D01*
X132194866Y-95351600D01*
X132211616Y-95642100D01*
X132212441Y-95646307D01*
X132212442Y-95646312D01*
X132238937Y-95781358D01*
X132267637Y-95927640D01*
X132361892Y-96202935D01*
X132492636Y-96462890D01*
X132657450Y-96702697D01*
X132853286Y-96917917D01*
X132856575Y-96920667D01*
X133073226Y-97101816D01*
X133073231Y-97101820D01*
X133076518Y-97104568D01*
X133199767Y-97181882D01*
X133319376Y-97256913D01*
X133319380Y-97256915D01*
X133323016Y-97259196D01*
X133391277Y-97290017D01*
X133584307Y-97377174D01*
X133584311Y-97377176D01*
X133588219Y-97378940D01*
X133592338Y-97380160D01*
X133863106Y-97460366D01*
X133863111Y-97460367D01*
X133867219Y-97461584D01*
X133871453Y-97462232D01*
X133871458Y-97462233D01*
X134150612Y-97504949D01*
X134150614Y-97504949D01*
X134154854Y-97505598D01*
X134303046Y-97507926D01*
X134441510Y-97510101D01*
X134441516Y-97510101D01*
X134445801Y-97510168D01*
X134734676Y-97475211D01*
X135016135Y-97401371D01*
X135284968Y-97290017D01*
X135536202Y-97143208D01*
X135765186Y-96963661D01*
X135967685Y-96754699D01*
X135970218Y-96751251D01*
X135970222Y-96751246D01*
X136137413Y-96523642D01*
X136139951Y-96520187D01*
X136141997Y-96516419D01*
X136276746Y-96268242D01*
X136276747Y-96268240D01*
X136278796Y-96264466D01*
X136381651Y-95992268D01*
X136446613Y-95708629D01*
X136472480Y-95418798D01*
X136472949Y-95374000D01*
X136471422Y-95351600D01*
X151088018Y-95351600D01*
X151104768Y-95642100D01*
X151105593Y-95646307D01*
X151105594Y-95646312D01*
X151132089Y-95781358D01*
X151160789Y-95927640D01*
X151255044Y-96202935D01*
X151385788Y-96462890D01*
X151550602Y-96702697D01*
X151746438Y-96917917D01*
X151749727Y-96920667D01*
X151966378Y-97101816D01*
X151966383Y-97101820D01*
X151969670Y-97104568D01*
X152092919Y-97181882D01*
X152212528Y-97256913D01*
X152212532Y-97256915D01*
X152216168Y-97259196D01*
X152284429Y-97290017D01*
X152477459Y-97377174D01*
X152477463Y-97377176D01*
X152481371Y-97378940D01*
X152485490Y-97380160D01*
X152756258Y-97460366D01*
X152756263Y-97460367D01*
X152760371Y-97461584D01*
X152764605Y-97462232D01*
X152764610Y-97462233D01*
X153043764Y-97504949D01*
X153043766Y-97504949D01*
X153048006Y-97505598D01*
X153196198Y-97507926D01*
X153334662Y-97510101D01*
X153334668Y-97510101D01*
X153338953Y-97510168D01*
X153627828Y-97475211D01*
X153909287Y-97401371D01*
X154178120Y-97290017D01*
X154429354Y-97143208D01*
X154658338Y-96963661D01*
X154860837Y-96754699D01*
X154863370Y-96751251D01*
X154863374Y-96751246D01*
X155030565Y-96523642D01*
X155033103Y-96520187D01*
X155035149Y-96516419D01*
X155169898Y-96268242D01*
X155169899Y-96268240D01*
X155171948Y-96264466D01*
X155274803Y-95992268D01*
X155339765Y-95708629D01*
X155365632Y-95418798D01*
X155366101Y-95374000D01*
X155364574Y-95351600D01*
X162388016Y-95351600D01*
X162404766Y-95642100D01*
X162405591Y-95646307D01*
X162405592Y-95646312D01*
X162432087Y-95781358D01*
X162460787Y-95927640D01*
X162555042Y-96202935D01*
X162685786Y-96462890D01*
X162850600Y-96702697D01*
X163046436Y-96917917D01*
X163049725Y-96920667D01*
X163266376Y-97101816D01*
X163266381Y-97101820D01*
X163269668Y-97104568D01*
X163392917Y-97181882D01*
X163512526Y-97256913D01*
X163512530Y-97256915D01*
X163516166Y-97259196D01*
X163584427Y-97290017D01*
X163777457Y-97377174D01*
X163777461Y-97377176D01*
X163781369Y-97378940D01*
X163785488Y-97380160D01*
X164056256Y-97460366D01*
X164056261Y-97460367D01*
X164060369Y-97461584D01*
X164064603Y-97462232D01*
X164064608Y-97462233D01*
X164343762Y-97504949D01*
X164343764Y-97504949D01*
X164348004Y-97505598D01*
X164496196Y-97507926D01*
X164634660Y-97510101D01*
X164634666Y-97510101D01*
X164638951Y-97510168D01*
X164927826Y-97475211D01*
X165209285Y-97401371D01*
X165478118Y-97290017D01*
X165729352Y-97143208D01*
X165958336Y-96963661D01*
X166160835Y-96754699D01*
X166163368Y-96751251D01*
X166163372Y-96751246D01*
X166330563Y-96523642D01*
X166333101Y-96520187D01*
X166335147Y-96516419D01*
X166469896Y-96268242D01*
X166469897Y-96268240D01*
X166471946Y-96264466D01*
X166574801Y-95992268D01*
X166639763Y-95708629D01*
X166665630Y-95418798D01*
X166666099Y-95374000D01*
X166646308Y-95083691D01*
X166640849Y-95057328D01*
X166588169Y-94802951D01*
X166587300Y-94798754D01*
X166490168Y-94524461D01*
X166356709Y-94265888D01*
X166345960Y-94250593D01*
X166191859Y-94031331D01*
X166191858Y-94031330D01*
X166189392Y-94027821D01*
X165991314Y-93814663D01*
X165976480Y-93802521D01*
X165769457Y-93633076D01*
X165766139Y-93630360D01*
X165715065Y-93599062D01*
X165521686Y-93480558D01*
X165521678Y-93480554D01*
X165518036Y-93478322D01*
X165514119Y-93476603D01*
X165514116Y-93476601D01*
X165396648Y-93425037D01*
X165251593Y-93361362D01*
X165247465Y-93360186D01*
X165247462Y-93360185D01*
X164975871Y-93282820D01*
X164975872Y-93282820D01*
X164971743Y-93281644D01*
X164755914Y-93250928D01*
X164687915Y-93241250D01*
X164687913Y-93241250D01*
X164683663Y-93240645D01*
X164679374Y-93240623D01*
X164679367Y-93240622D01*
X164396970Y-93239143D01*
X164396963Y-93239143D01*
X164392684Y-93239121D01*
X164388440Y-93239680D01*
X164388436Y-93239680D01*
X164261418Y-93256403D01*
X164104190Y-93277102D01*
X164100050Y-93278235D01*
X164100048Y-93278235D01*
X163827665Y-93352751D01*
X163823520Y-93353885D01*
X163555868Y-93468048D01*
X163405141Y-93558256D01*
X163309868Y-93615276D01*
X163309864Y-93615279D01*
X163306186Y-93617480D01*
X163079094Y-93799415D01*
X163076150Y-93802517D01*
X163076146Y-93802521D01*
X163064624Y-93814663D01*
X162878794Y-94010486D01*
X162876295Y-94013964D01*
X162876294Y-94013965D01*
X162711502Y-94243298D01*
X162711499Y-94243303D01*
X162708994Y-94246789D01*
X162572834Y-94503950D01*
X162472835Y-94777210D01*
X162410847Y-95061514D01*
X162388016Y-95351600D01*
X155364574Y-95351600D01*
X155346310Y-95083691D01*
X155340851Y-95057328D01*
X155288171Y-94802951D01*
X155287302Y-94798754D01*
X155190170Y-94524461D01*
X155056711Y-94265888D01*
X155045962Y-94250593D01*
X154891861Y-94031331D01*
X154891860Y-94031330D01*
X154889394Y-94027821D01*
X154691316Y-93814663D01*
X154676482Y-93802521D01*
X154469459Y-93633076D01*
X154466141Y-93630360D01*
X154415067Y-93599062D01*
X154221688Y-93480558D01*
X154221680Y-93480554D01*
X154218038Y-93478322D01*
X154214121Y-93476603D01*
X154214118Y-93476601D01*
X154096650Y-93425037D01*
X153951595Y-93361362D01*
X153947467Y-93360186D01*
X153947464Y-93360185D01*
X153675873Y-93282820D01*
X153675874Y-93282820D01*
X153671745Y-93281644D01*
X153455916Y-93250928D01*
X153387917Y-93241250D01*
X153387915Y-93241250D01*
X153383665Y-93240645D01*
X153379376Y-93240623D01*
X153379369Y-93240622D01*
X153096972Y-93239143D01*
X153096965Y-93239143D01*
X153092686Y-93239121D01*
X153088442Y-93239680D01*
X153088438Y-93239680D01*
X152961420Y-93256403D01*
X152804192Y-93277102D01*
X152800052Y-93278235D01*
X152800050Y-93278235D01*
X152527667Y-93352751D01*
X152523522Y-93353885D01*
X152255870Y-93468048D01*
X152105143Y-93558256D01*
X152009870Y-93615276D01*
X152009866Y-93615279D01*
X152006188Y-93617480D01*
X151779096Y-93799415D01*
X151776152Y-93802517D01*
X151776148Y-93802521D01*
X151764626Y-93814663D01*
X151578796Y-94010486D01*
X151576297Y-94013964D01*
X151576296Y-94013965D01*
X151411504Y-94243298D01*
X151411501Y-94243303D01*
X151408996Y-94246789D01*
X151272836Y-94503950D01*
X151172837Y-94777210D01*
X151110849Y-95061514D01*
X151088018Y-95351600D01*
X136471422Y-95351600D01*
X136453158Y-95083691D01*
X136447699Y-95057328D01*
X136395019Y-94802951D01*
X136394150Y-94798754D01*
X136297018Y-94524461D01*
X136163559Y-94265888D01*
X136152810Y-94250593D01*
X135998709Y-94031331D01*
X135998708Y-94031330D01*
X135996242Y-94027821D01*
X135798164Y-93814663D01*
X135783330Y-93802521D01*
X135576307Y-93633076D01*
X135572989Y-93630360D01*
X135521915Y-93599062D01*
X135328536Y-93480558D01*
X135328528Y-93480554D01*
X135324886Y-93478322D01*
X135320969Y-93476603D01*
X135320966Y-93476601D01*
X135203498Y-93425037D01*
X135058443Y-93361362D01*
X135054315Y-93360186D01*
X135054312Y-93360185D01*
X134782721Y-93282820D01*
X134782722Y-93282820D01*
X134778593Y-93281644D01*
X134562764Y-93250928D01*
X134494765Y-93241250D01*
X134494763Y-93241250D01*
X134490513Y-93240645D01*
X134486224Y-93240623D01*
X134486217Y-93240622D01*
X134203820Y-93239143D01*
X134203813Y-93239143D01*
X134199534Y-93239121D01*
X134195290Y-93239680D01*
X134195286Y-93239680D01*
X134068268Y-93256403D01*
X133911040Y-93277102D01*
X133906900Y-93278235D01*
X133906898Y-93278235D01*
X133634515Y-93352751D01*
X133630370Y-93353885D01*
X133362718Y-93468048D01*
X133211991Y-93558256D01*
X133116718Y-93615276D01*
X133116714Y-93615279D01*
X133113036Y-93617480D01*
X132885944Y-93799415D01*
X132883000Y-93802517D01*
X132882996Y-93802521D01*
X132871474Y-93814663D01*
X132685644Y-94010486D01*
X132683145Y-94013964D01*
X132683144Y-94013965D01*
X132518352Y-94243298D01*
X132518349Y-94243303D01*
X132515844Y-94246789D01*
X132379684Y-94503950D01*
X132279685Y-94777210D01*
X132217697Y-95061514D01*
X132194866Y-95351600D01*
X125171424Y-95351600D01*
X125153160Y-95083691D01*
X125147701Y-95057328D01*
X125095021Y-94802951D01*
X125094152Y-94798754D01*
X124997020Y-94524461D01*
X124863561Y-94265888D01*
X124852812Y-94250593D01*
X124698711Y-94031331D01*
X124698710Y-94031330D01*
X124696244Y-94027821D01*
X124498166Y-93814663D01*
X124483332Y-93802521D01*
X124276309Y-93633076D01*
X124272991Y-93630360D01*
X124221917Y-93599062D01*
X124028538Y-93480558D01*
X124028530Y-93480554D01*
X124024888Y-93478322D01*
X124020971Y-93476603D01*
X124020968Y-93476601D01*
X123903500Y-93425037D01*
X123758445Y-93361362D01*
X123754317Y-93360186D01*
X123754314Y-93360185D01*
X123482723Y-93282820D01*
X123482724Y-93282820D01*
X123478595Y-93281644D01*
X123262766Y-93250928D01*
X123194767Y-93241250D01*
X123194765Y-93241250D01*
X123190515Y-93240645D01*
X123186226Y-93240623D01*
X123186219Y-93240622D01*
X122903822Y-93239143D01*
X122903815Y-93239143D01*
X122899536Y-93239121D01*
X122895292Y-93239680D01*
X122895288Y-93239680D01*
X122768270Y-93256403D01*
X122611042Y-93277102D01*
X122606902Y-93278235D01*
X122606900Y-93278235D01*
X122334517Y-93352751D01*
X122330372Y-93353885D01*
X122062720Y-93468048D01*
X121911993Y-93558256D01*
X121816720Y-93615276D01*
X121816716Y-93615279D01*
X121813038Y-93617480D01*
X121585946Y-93799415D01*
X121583002Y-93802517D01*
X121582998Y-93802521D01*
X121571476Y-93814663D01*
X121385646Y-94010486D01*
X121383147Y-94013964D01*
X121383146Y-94013965D01*
X121218354Y-94243298D01*
X121218351Y-94243303D01*
X121215846Y-94246789D01*
X121079686Y-94503950D01*
X120979687Y-94777210D01*
X120917699Y-95061514D01*
X120894868Y-95351600D01*
X105790572Y-95351600D01*
X105772308Y-95083691D01*
X105766849Y-95057328D01*
X105714169Y-94802951D01*
X105713300Y-94798754D01*
X105616168Y-94524461D01*
X105482709Y-94265888D01*
X105471960Y-94250593D01*
X105317859Y-94031331D01*
X105317858Y-94031330D01*
X105315392Y-94027821D01*
X105117314Y-93814663D01*
X105102480Y-93802521D01*
X104895457Y-93633076D01*
X104892139Y-93630360D01*
X104841065Y-93599062D01*
X104647686Y-93480558D01*
X104647678Y-93480554D01*
X104644036Y-93478322D01*
X104640119Y-93476603D01*
X104640116Y-93476601D01*
X104522648Y-93425037D01*
X104377593Y-93361362D01*
X104373465Y-93360186D01*
X104373462Y-93360185D01*
X104101871Y-93282820D01*
X104101872Y-93282820D01*
X104097743Y-93281644D01*
X103881914Y-93250928D01*
X103813915Y-93241250D01*
X103813913Y-93241250D01*
X103809663Y-93240645D01*
X103805374Y-93240623D01*
X103805367Y-93240622D01*
X103522970Y-93239143D01*
X103522963Y-93239143D01*
X103518684Y-93239121D01*
X103514440Y-93239680D01*
X103514436Y-93239680D01*
X103387418Y-93256403D01*
X103230190Y-93277102D01*
X103226050Y-93278235D01*
X103226048Y-93278235D01*
X102953665Y-93352751D01*
X102949520Y-93353885D01*
X102681868Y-93468048D01*
X102531141Y-93558256D01*
X102435868Y-93615276D01*
X102435864Y-93615279D01*
X102432186Y-93617480D01*
X102205094Y-93799415D01*
X102202150Y-93802517D01*
X102202146Y-93802521D01*
X102190624Y-93814663D01*
X102004794Y-94010486D01*
X102002295Y-94013964D01*
X102002294Y-94013965D01*
X101837502Y-94243298D01*
X101837499Y-94243303D01*
X101834994Y-94246789D01*
X101698834Y-94503950D01*
X101598835Y-94777210D01*
X101536847Y-95061514D01*
X101514016Y-95351600D01*
X94490574Y-95351600D01*
X94472310Y-95083691D01*
X94466851Y-95057328D01*
X94414171Y-94802951D01*
X94413302Y-94798754D01*
X94316170Y-94524461D01*
X94182711Y-94265888D01*
X94171962Y-94250593D01*
X94017861Y-94031331D01*
X94017860Y-94031330D01*
X94015394Y-94027821D01*
X93817316Y-93814663D01*
X93802482Y-93802521D01*
X93595459Y-93633076D01*
X93592141Y-93630360D01*
X93541067Y-93599062D01*
X93347688Y-93480558D01*
X93347680Y-93480554D01*
X93344038Y-93478322D01*
X93340121Y-93476603D01*
X93340118Y-93476601D01*
X93222650Y-93425037D01*
X93077595Y-93361362D01*
X93073467Y-93360186D01*
X93073464Y-93360185D01*
X92801873Y-93282820D01*
X92801874Y-93282820D01*
X92797745Y-93281644D01*
X92581916Y-93250928D01*
X92513917Y-93241250D01*
X92513915Y-93241250D01*
X92509665Y-93240645D01*
X92505376Y-93240623D01*
X92505369Y-93240622D01*
X92222972Y-93239143D01*
X92222965Y-93239143D01*
X92218686Y-93239121D01*
X92214442Y-93239680D01*
X92214438Y-93239680D01*
X92087420Y-93256403D01*
X91930192Y-93277102D01*
X91926052Y-93278235D01*
X91926050Y-93278235D01*
X91653667Y-93352751D01*
X91649522Y-93353885D01*
X91381870Y-93468048D01*
X91231143Y-93558256D01*
X91135870Y-93615276D01*
X91135866Y-93615279D01*
X91132188Y-93617480D01*
X90905096Y-93799415D01*
X90902152Y-93802517D01*
X90902148Y-93802521D01*
X90890626Y-93814663D01*
X90704796Y-94010486D01*
X90702297Y-94013964D01*
X90702296Y-94013965D01*
X90537504Y-94243298D01*
X90537501Y-94243303D01*
X90534996Y-94246789D01*
X90398836Y-94503950D01*
X90298837Y-94777210D01*
X90236849Y-95061514D01*
X90214018Y-95351600D01*
X74970572Y-95351600D01*
X74952308Y-95083691D01*
X74946849Y-95057328D01*
X74894169Y-94802951D01*
X74893300Y-94798754D01*
X74796168Y-94524461D01*
X74662709Y-94265888D01*
X74651960Y-94250593D01*
X74497859Y-94031331D01*
X74497858Y-94031330D01*
X74495392Y-94027821D01*
X74297314Y-93814663D01*
X74282480Y-93802521D01*
X74075457Y-93633076D01*
X74072139Y-93630360D01*
X74021065Y-93599062D01*
X73827686Y-93480558D01*
X73827678Y-93480554D01*
X73824036Y-93478322D01*
X73820119Y-93476603D01*
X73820116Y-93476601D01*
X73702648Y-93425037D01*
X73557593Y-93361362D01*
X73553465Y-93360186D01*
X73553462Y-93360185D01*
X73281871Y-93282820D01*
X73281872Y-93282820D01*
X73277743Y-93281644D01*
X73061914Y-93250928D01*
X72993915Y-93241250D01*
X72993913Y-93241250D01*
X72989663Y-93240645D01*
X72985374Y-93240623D01*
X72985367Y-93240622D01*
X72702970Y-93239143D01*
X72702963Y-93239143D01*
X72698684Y-93239121D01*
X72694440Y-93239680D01*
X72694436Y-93239680D01*
X72567418Y-93256403D01*
X72410190Y-93277102D01*
X72406050Y-93278235D01*
X72406048Y-93278235D01*
X72133665Y-93352751D01*
X72129520Y-93353885D01*
X71861868Y-93468048D01*
X71711141Y-93558256D01*
X71615868Y-93615276D01*
X71615864Y-93615279D01*
X71612186Y-93617480D01*
X71385094Y-93799415D01*
X71382150Y-93802517D01*
X71382146Y-93802521D01*
X71370624Y-93814663D01*
X71184794Y-94010486D01*
X71182295Y-94013964D01*
X71182294Y-94013965D01*
X71017502Y-94243298D01*
X71017499Y-94243303D01*
X71014994Y-94246789D01*
X70878834Y-94503950D01*
X70778835Y-94777210D01*
X70716847Y-95061514D01*
X70694016Y-95351600D01*
X63670574Y-95351600D01*
X63652310Y-95083691D01*
X63646851Y-95057328D01*
X63594171Y-94802951D01*
X63593302Y-94798754D01*
X63496170Y-94524461D01*
X63362711Y-94265888D01*
X63351962Y-94250593D01*
X63197861Y-94031331D01*
X63197860Y-94031330D01*
X63195394Y-94027821D01*
X62997316Y-93814663D01*
X62982482Y-93802521D01*
X62775459Y-93633076D01*
X62772141Y-93630360D01*
X62721067Y-93599062D01*
X62527688Y-93480558D01*
X62527680Y-93480554D01*
X62524038Y-93478322D01*
X62520121Y-93476603D01*
X62520118Y-93476601D01*
X62402650Y-93425037D01*
X62257595Y-93361362D01*
X62253467Y-93360186D01*
X62253464Y-93360185D01*
X61981873Y-93282820D01*
X61981874Y-93282820D01*
X61977745Y-93281644D01*
X61761916Y-93250928D01*
X61693917Y-93241250D01*
X61693915Y-93241250D01*
X61689665Y-93240645D01*
X61685376Y-93240623D01*
X61685369Y-93240622D01*
X61402972Y-93239143D01*
X61402965Y-93239143D01*
X61398686Y-93239121D01*
X61394442Y-93239680D01*
X61394438Y-93239680D01*
X61267420Y-93256403D01*
X61110192Y-93277102D01*
X61106052Y-93278235D01*
X61106050Y-93278235D01*
X60833667Y-93352751D01*
X60829522Y-93353885D01*
X60561870Y-93468048D01*
X60411143Y-93558256D01*
X60315870Y-93615276D01*
X60315866Y-93615279D01*
X60312188Y-93617480D01*
X60085096Y-93799415D01*
X60082152Y-93802517D01*
X60082148Y-93802521D01*
X60070626Y-93814663D01*
X59884796Y-94010486D01*
X59882297Y-94013964D01*
X59882296Y-94013965D01*
X59717504Y-94243298D01*
X59717501Y-94243303D01*
X59714996Y-94246789D01*
X59578836Y-94503950D01*
X59478837Y-94777210D01*
X59416849Y-95061514D01*
X59394018Y-95351600D01*
X48133000Y-95351600D01*
X48133000Y-90308793D01*
X51026747Y-90308793D01*
X51026823Y-90309863D01*
X51030008Y-90314697D01*
X51310304Y-90529776D01*
X51315934Y-90533631D01*
X51620897Y-90719052D01*
X51626899Y-90722270D01*
X51950114Y-90873674D01*
X51956419Y-90876222D01*
X52294099Y-90991836D01*
X52300650Y-90993689D01*
X52648827Y-91072154D01*
X52655546Y-91073291D01*
X53010170Y-91113696D01*
X53016960Y-91114099D01*
X53373869Y-91115967D01*
X53380670Y-91115635D01*
X53735697Y-91078947D01*
X53742425Y-91077881D01*
X54091419Y-91003062D01*
X54097968Y-91001283D01*
X54436845Y-90889211D01*
X54443187Y-90886725D01*
X54767949Y-90738723D01*
X54774008Y-90735556D01*
X55080888Y-90553343D01*
X55086552Y-90549551D01*
X55371962Y-90335259D01*
X55377188Y-90330874D01*
X55390037Y-90318850D01*
X55395969Y-90308793D01*
X176629747Y-90308793D01*
X176629823Y-90309863D01*
X176633008Y-90314697D01*
X176913304Y-90529776D01*
X176918934Y-90533631D01*
X177223897Y-90719052D01*
X177229899Y-90722270D01*
X177553114Y-90873674D01*
X177559419Y-90876222D01*
X177897099Y-90991836D01*
X177903650Y-90993689D01*
X178251827Y-91072154D01*
X178258546Y-91073291D01*
X178613170Y-91113696D01*
X178619960Y-91114099D01*
X178976869Y-91115967D01*
X178983670Y-91115635D01*
X179338697Y-91078947D01*
X179345425Y-91077881D01*
X179694419Y-91003062D01*
X179700968Y-91001283D01*
X180039845Y-90889211D01*
X180046187Y-90886725D01*
X180370949Y-90738723D01*
X180377008Y-90735556D01*
X180683888Y-90553343D01*
X180689552Y-90549551D01*
X180974962Y-90335259D01*
X180980188Y-90330874D01*
X180993037Y-90318850D01*
X181001105Y-90305172D01*
X181001077Y-90304446D01*
X180995935Y-90296145D01*
X178828812Y-88129022D01*
X178814868Y-88121408D01*
X178813035Y-88121539D01*
X178806420Y-88125790D01*
X176637361Y-90294849D01*
X176629747Y-90308793D01*
X55395969Y-90308793D01*
X55398105Y-90305172D01*
X55398077Y-90304446D01*
X55392935Y-90296145D01*
X53225812Y-88129022D01*
X53211868Y-88121408D01*
X53210035Y-88121539D01*
X53203420Y-88125790D01*
X51034361Y-90294849D01*
X51026747Y-90308793D01*
X48133000Y-90308793D01*
X48133000Y-87748657D01*
X49850192Y-87748657D01*
X49868251Y-88105134D01*
X49868961Y-88111890D01*
X49925411Y-88464319D01*
X49926850Y-88470974D01*
X50021030Y-88815237D01*
X50023179Y-88821698D01*
X50153991Y-89153784D01*
X50156822Y-89159967D01*
X50322734Y-89475984D01*
X50326217Y-89481826D01*
X50525292Y-89778081D01*
X50529385Y-89783511D01*
X50653892Y-89931369D01*
X50666631Y-89939813D01*
X50677074Y-89933716D01*
X52840978Y-87769812D01*
X52847356Y-87758132D01*
X53577408Y-87758132D01*
X53577539Y-87759965D01*
X53581790Y-87766580D01*
X55747511Y-89932301D01*
X55761108Y-89939726D01*
X55770717Y-89933029D01*
X55875251Y-89811498D01*
X55879400Y-89806110D01*
X56081561Y-89511964D01*
X56085108Y-89506153D01*
X56254311Y-89191908D01*
X56257218Y-89185730D01*
X56391499Y-88855038D01*
X56393713Y-88848608D01*
X56491493Y-88505346D01*
X56493000Y-88498716D01*
X56553141Y-88146881D01*
X56553921Y-88140141D01*
X56575808Y-87782275D01*
X56575924Y-87778673D01*
X56575994Y-87758820D01*
X56575902Y-87755193D01*
X56575548Y-87748657D01*
X175453192Y-87748657D01*
X175471251Y-88105134D01*
X175471961Y-88111890D01*
X175528411Y-88464319D01*
X175529850Y-88470974D01*
X175624030Y-88815237D01*
X175626179Y-88821698D01*
X175756991Y-89153784D01*
X175759822Y-89159967D01*
X175925734Y-89475984D01*
X175929217Y-89481826D01*
X176128292Y-89778081D01*
X176132385Y-89783511D01*
X176256892Y-89931369D01*
X176269631Y-89939813D01*
X176280074Y-89933716D01*
X178443978Y-87769812D01*
X178450356Y-87758132D01*
X179180408Y-87758132D01*
X179180539Y-87759965D01*
X179184790Y-87766580D01*
X181350511Y-89932301D01*
X181364108Y-89939726D01*
X181373717Y-89933029D01*
X181478251Y-89811498D01*
X181482400Y-89806110D01*
X181684561Y-89511964D01*
X181688108Y-89506153D01*
X181857311Y-89191908D01*
X181860218Y-89185730D01*
X181994499Y-88855038D01*
X181996713Y-88848608D01*
X182094493Y-88505346D01*
X182096000Y-88498716D01*
X182156141Y-88146881D01*
X182156921Y-88140141D01*
X182178808Y-87782275D01*
X182178924Y-87778673D01*
X182178994Y-87758820D01*
X182178902Y-87755193D01*
X182159514Y-87397200D01*
X182158779Y-87390434D01*
X182101101Y-87038218D01*
X182099634Y-87031546D01*
X182004258Y-86687634D01*
X182002084Y-86681170D01*
X181870115Y-86349547D01*
X181867259Y-86343367D01*
X181700249Y-86027939D01*
X181696749Y-86022114D01*
X181496637Y-85726550D01*
X181492523Y-85721130D01*
X181375089Y-85582656D01*
X181362263Y-85574219D01*
X181351938Y-85580272D01*
X179188022Y-87744188D01*
X179180408Y-87758132D01*
X178450356Y-87758132D01*
X178451592Y-87755868D01*
X178451461Y-87754035D01*
X178447210Y-87747420D01*
X176281479Y-85581689D01*
X176267942Y-85574297D01*
X176258241Y-85581084D01*
X176146595Y-85711806D01*
X176142461Y-85717214D01*
X175941336Y-86012051D01*
X175937801Y-86017888D01*
X175769694Y-86332725D01*
X175766813Y-86338904D01*
X175633689Y-86670060D01*
X175631498Y-86676495D01*
X175534913Y-87020106D01*
X175533430Y-87026742D01*
X175474521Y-87378765D01*
X175473762Y-87385537D01*
X175453216Y-87741862D01*
X175453192Y-87748657D01*
X56575548Y-87748657D01*
X56556514Y-87397200D01*
X56555779Y-87390434D01*
X56498101Y-87038218D01*
X56496634Y-87031546D01*
X56401258Y-86687634D01*
X56399084Y-86681170D01*
X56267115Y-86349547D01*
X56264259Y-86343367D01*
X56097249Y-86027939D01*
X56093749Y-86022114D01*
X55893637Y-85726550D01*
X55889523Y-85721130D01*
X55772089Y-85582656D01*
X55759263Y-85574219D01*
X55748938Y-85580272D01*
X53585022Y-87744188D01*
X53577408Y-87758132D01*
X52847356Y-87758132D01*
X52848592Y-87755868D01*
X52848461Y-87754035D01*
X52844210Y-87747420D01*
X50678479Y-85581689D01*
X50664942Y-85574297D01*
X50655241Y-85581084D01*
X50543595Y-85711806D01*
X50539461Y-85717214D01*
X50338336Y-86012051D01*
X50334801Y-86017888D01*
X50166694Y-86332725D01*
X50163813Y-86338904D01*
X50030689Y-86670060D01*
X50028498Y-86676495D01*
X49931913Y-87020106D01*
X49930430Y-87026742D01*
X49871521Y-87378765D01*
X49870762Y-87385537D01*
X49850216Y-87741862D01*
X49850192Y-87748657D01*
X48133000Y-87748657D01*
X48133000Y-85208446D01*
X51027532Y-85208446D01*
X51027567Y-85209286D01*
X51032618Y-85217408D01*
X53200188Y-87384978D01*
X53214132Y-87392592D01*
X53215965Y-87392461D01*
X53222580Y-87388210D01*
X55391214Y-85219576D01*
X55397291Y-85208446D01*
X176630532Y-85208446D01*
X176630567Y-85209286D01*
X176635618Y-85217408D01*
X178803188Y-87384978D01*
X178817132Y-87392592D01*
X178818965Y-87392461D01*
X178825580Y-87388210D01*
X180994214Y-85219576D01*
X181001828Y-85205632D01*
X181001760Y-85204677D01*
X180996817Y-85197202D01*
X180992915Y-85193881D01*
X180708993Y-84977590D01*
X180703369Y-84973768D01*
X180397755Y-84789409D01*
X180391738Y-84786210D01*
X180068006Y-84635939D01*
X180061670Y-84633405D01*
X179723612Y-84518979D01*
X179717044Y-84517145D01*
X179368606Y-84439899D01*
X179361867Y-84438783D01*
X179007109Y-84399617D01*
X179000328Y-84399238D01*
X178643391Y-84398615D01*
X178636618Y-84398970D01*
X178281704Y-84436899D01*
X178274994Y-84437986D01*
X177926271Y-84514020D01*
X177919696Y-84515831D01*
X177581225Y-84629082D01*
X177574903Y-84631585D01*
X177250649Y-84780725D01*
X177244606Y-84783911D01*
X176938362Y-84967195D01*
X176932716Y-84971003D01*
X176648038Y-85186303D01*
X176642848Y-85190690D01*
X176638555Y-85194735D01*
X176630532Y-85208446D01*
X55397291Y-85208446D01*
X55398828Y-85205632D01*
X55398760Y-85204677D01*
X55393817Y-85197202D01*
X55389915Y-85193881D01*
X55105993Y-84977590D01*
X55100369Y-84973768D01*
X54794755Y-84789409D01*
X54788738Y-84786210D01*
X54465006Y-84635939D01*
X54458670Y-84633405D01*
X54120612Y-84518979D01*
X54114044Y-84517145D01*
X53765606Y-84439899D01*
X53758867Y-84438783D01*
X53404109Y-84399617D01*
X53397328Y-84399238D01*
X53040391Y-84398615D01*
X53033618Y-84398970D01*
X52678704Y-84436899D01*
X52671994Y-84437986D01*
X52323271Y-84514020D01*
X52316696Y-84515831D01*
X51978225Y-84629082D01*
X51971903Y-84631585D01*
X51647649Y-84780725D01*
X51641606Y-84783911D01*
X51335362Y-84967195D01*
X51329716Y-84971003D01*
X51045038Y-85186303D01*
X51039848Y-85190690D01*
X51035555Y-85194735D01*
X51027532Y-85208446D01*
X48133000Y-85208446D01*
X48133000Y-82803000D01*
X48153002Y-82734879D01*
X48206658Y-82688386D01*
X48259000Y-82677000D01*
X183770000Y-82677000D01*
X183838121Y-82697002D01*
G37*
G04 #@! TD.AperFunction*
M02*
