M48
METRIC,TZ
T1C0.889
T2C1.575
T3C3.200
%
G90
G05
T1
X62738Y-105664
X64008Y-103124
X65278Y-105664
X66548Y-103124
X67818Y-105664
X69088Y-103124
X70358Y-105664
X71628Y-103124
X78146Y-136024
X79416Y-133484
X80686Y-136024
X81956Y-133484
X83226Y-136024
X84496Y-133484
X85766Y-136024
X87036Y-133484
X93558Y-105664
X94828Y-103124
X96098Y-105664
X97368Y-103124
X98638Y-105664
X99908Y-103124
X101178Y-105664
X102448Y-103124
X124239Y-105664
X124239Y-136024
X125509Y-103124
X125509Y-133484
X126779Y-105664
X126779Y-136024
X128049Y-103124
X128049Y-133484
X129319Y-105664
X129319Y-136024
X130589Y-103124
X130589Y-133484
X131859Y-105664
X131859Y-136024
X133129Y-103124
X133129Y-133484
X154399Y-136024
X154432Y-105664
X155669Y-133484
X155702Y-103124
X156939Y-136024
X156972Y-105664
X158209Y-133484
X158242Y-103124
X159479Y-136024
X159512Y-105664
X160749Y-133484
X160782Y-103124
X162019Y-136024
X162052Y-105664
X163289Y-133484
X163322Y-103124
T2
X59743Y-99184
X74623Y-99184
X75151Y-139964
X90031Y-139964
X90563Y-99184
X105443Y-99184
X121244Y-99184
X121244Y-139964
X136124Y-99184
X136124Y-139964
X151404Y-139964
X151437Y-99184
X166284Y-139964
X166317Y-99184
T3
X53213Y-87757
X53213Y-151968
X178816Y-87757
X178816Y-151968
T0
M30
