G04 #@! TF.GenerationSoftware,KiCad,Pcbnew,(5.99.0-9973-gfb99c55869)*
G04 #@! TF.CreationDate,2022-08-18T17:51:10-07:00*
G04 #@! TF.ProjectId,RB_v3_2,52425f76-335f-4322-9e6b-696361645f70,rev?*
G04 #@! TF.SameCoordinates,Original*
G04 #@! TF.FileFunction,Legend,Top*
G04 #@! TF.FilePolarity,Positive*
%FSLAX46Y46*%
G04 Gerber Fmt 4.6, Leading zero omitted, Abs format (unit mm)*
G04 Created by KiCad (PCBNEW (5.99.0-9973-gfb99c55869)) date 2022-08-18 17:51:10*
%MOMM*%
%LPD*%
G01*
G04 APERTURE LIST*
%ADD10C,0.150000*%
%ADD11C,0.120000*%
G04 APERTURE END LIST*
D10*
X128350516Y-85812380D02*
X128350516Y-86526666D01*
X128302897Y-86669523D01*
X128207659Y-86764761D01*
X128064802Y-86812380D01*
X127969564Y-86812380D01*
X128731469Y-85812380D02*
X129350516Y-85812380D01*
X129017183Y-86193333D01*
X129160040Y-86193333D01*
X129255278Y-86240952D01*
X129302897Y-86288571D01*
X129350516Y-86383809D01*
X129350516Y-86621904D01*
X129302897Y-86717142D01*
X129255278Y-86764761D01*
X129160040Y-86812380D01*
X128874326Y-86812380D01*
X128779088Y-86764761D01*
X128731469Y-86717142D01*
X126517183Y-84986761D02*
X126660040Y-85034380D01*
X126898135Y-85034380D01*
X126993373Y-84986761D01*
X127040992Y-84939142D01*
X127088611Y-84843904D01*
X127088611Y-84748666D01*
X127040992Y-84653428D01*
X126993373Y-84605809D01*
X126898135Y-84558190D01*
X126707659Y-84510571D01*
X126612421Y-84462952D01*
X126564802Y-84415333D01*
X126517183Y-84320095D01*
X126517183Y-84224857D01*
X126564802Y-84129619D01*
X126612421Y-84082000D01*
X126707659Y-84034380D01*
X126945754Y-84034380D01*
X127088611Y-84082000D01*
X127374326Y-84367714D02*
X127755278Y-84367714D01*
X127517183Y-84034380D02*
X127517183Y-84891523D01*
X127564802Y-84986761D01*
X127660040Y-85034380D01*
X127755278Y-85034380D01*
X128517183Y-85034380D02*
X128517183Y-84510571D01*
X128469564Y-84415333D01*
X128374326Y-84367714D01*
X128183850Y-84367714D01*
X128088611Y-84415333D01*
X128517183Y-84986761D02*
X128421945Y-85034380D01*
X128183850Y-85034380D01*
X128088611Y-84986761D01*
X128040992Y-84891523D01*
X128040992Y-84796285D01*
X128088611Y-84701047D01*
X128183850Y-84653428D01*
X128421945Y-84653428D01*
X128517183Y-84605809D01*
X128850516Y-84367714D02*
X129231469Y-84367714D01*
X128993373Y-84034380D02*
X128993373Y-84891523D01*
X129040992Y-84986761D01*
X129136230Y-85034380D01*
X129231469Y-85034380D01*
X129993373Y-84367714D02*
X129993373Y-85034380D01*
X129564802Y-84367714D02*
X129564802Y-84891523D01*
X129612421Y-84986761D01*
X129707659Y-85034380D01*
X129850516Y-85034380D01*
X129945754Y-84986761D01*
X129993373Y-84939142D01*
X130421945Y-84986761D02*
X130517183Y-85034380D01*
X130707659Y-85034380D01*
X130802897Y-84986761D01*
X130850516Y-84891523D01*
X130850516Y-84843904D01*
X130802897Y-84748666D01*
X130707659Y-84701047D01*
X130564802Y-84701047D01*
X130469564Y-84653428D01*
X130421945Y-84558190D01*
X130421945Y-84510571D01*
X130469564Y-84415333D01*
X130564802Y-84367714D01*
X130707659Y-84367714D01*
X130802897Y-84415333D01*
X133128850Y-102576380D02*
X133128850Y-102814476D01*
X132890754Y-102719238D02*
X133128850Y-102814476D01*
X133366945Y-102719238D01*
X132985992Y-103004952D02*
X133128850Y-102814476D01*
X133271707Y-103004952D01*
X158510816Y-152360380D02*
X158510816Y-153074666D01*
X158463197Y-153217523D01*
X158367959Y-153312761D01*
X158225102Y-153360380D01*
X158129864Y-153360380D01*
X158891769Y-152360380D02*
X159558435Y-152360380D01*
X159129864Y-153360380D01*
X155820340Y-154884380D02*
X155820340Y-153884380D01*
X156296530Y-154217714D02*
X156296530Y-154884380D01*
X156296530Y-154312952D02*
X156344150Y-154265333D01*
X156439388Y-154217714D01*
X156582245Y-154217714D01*
X156677483Y-154265333D01*
X156725102Y-154360571D01*
X156725102Y-154884380D01*
X157058435Y-154217714D02*
X157439388Y-154217714D01*
X157201292Y-153884380D02*
X157201292Y-154741523D01*
X157248911Y-154836761D01*
X157344150Y-154884380D01*
X157439388Y-154884380D01*
X158153673Y-154836761D02*
X158058435Y-154884380D01*
X157867959Y-154884380D01*
X157772721Y-154836761D01*
X157725102Y-154741523D01*
X157725102Y-154360571D01*
X157772721Y-154265333D01*
X157867959Y-154217714D01*
X158058435Y-154217714D01*
X158153673Y-154265333D01*
X158201292Y-154360571D01*
X158201292Y-154455809D01*
X157725102Y-154551047D01*
X158629864Y-154884380D02*
X158629864Y-154217714D01*
X158629864Y-154408190D02*
X158677483Y-154312952D01*
X158725102Y-154265333D01*
X158820340Y-154217714D01*
X158915578Y-154217714D01*
X159391769Y-154884380D02*
X159296530Y-154836761D01*
X159248911Y-154741523D01*
X159248911Y-153884380D01*
X159915578Y-154884380D02*
X159820340Y-154836761D01*
X159772721Y-154789142D01*
X159725102Y-154693904D01*
X159725102Y-154408190D01*
X159772721Y-154312952D01*
X159820340Y-154265333D01*
X159915578Y-154217714D01*
X160058435Y-154217714D01*
X160153673Y-154265333D01*
X160201292Y-154312952D01*
X160248911Y-154408190D01*
X160248911Y-154693904D01*
X160201292Y-154789142D01*
X160153673Y-154836761D01*
X160058435Y-154884380D01*
X159915578Y-154884380D01*
X161106054Y-154836761D02*
X161010816Y-154884380D01*
X160820340Y-154884380D01*
X160725102Y-154836761D01*
X160677483Y-154789142D01*
X160629864Y-154693904D01*
X160629864Y-154408190D01*
X160677483Y-154312952D01*
X160725102Y-154265333D01*
X160820340Y-154217714D01*
X161010816Y-154217714D01*
X161106054Y-154265333D01*
X161534626Y-154884380D02*
X161534626Y-153884380D01*
X161629864Y-154503428D02*
X161915578Y-154884380D01*
X161915578Y-154217714D02*
X161534626Y-154598666D01*
X154399150Y-135476380D02*
X154399150Y-135714476D01*
X154161054Y-135619238D02*
X154399150Y-135714476D01*
X154637245Y-135619238D01*
X154256292Y-135904952D02*
X154399150Y-135714476D01*
X154542007Y-135904952D01*
X82257666Y-152360380D02*
X82257666Y-153074666D01*
X82210047Y-153217523D01*
X82114809Y-153312761D01*
X81971952Y-153360380D01*
X81876714Y-153360380D01*
X83210047Y-152360380D02*
X82733857Y-152360380D01*
X82686238Y-152836571D01*
X82733857Y-152788952D01*
X82829095Y-152741333D01*
X83067190Y-152741333D01*
X83162428Y-152788952D01*
X83210047Y-152836571D01*
X83257666Y-152931809D01*
X83257666Y-153169904D01*
X83210047Y-153265142D01*
X83162428Y-153312761D01*
X83067190Y-153360380D01*
X82829095Y-153360380D01*
X82733857Y-153312761D01*
X82686238Y-153265142D01*
X75288095Y-154836761D02*
X75430952Y-154884380D01*
X75669047Y-154884380D01*
X75764285Y-154836761D01*
X75811904Y-154789142D01*
X75859523Y-154693904D01*
X75859523Y-154598666D01*
X75811904Y-154503428D01*
X75764285Y-154455809D01*
X75669047Y-154408190D01*
X75478571Y-154360571D01*
X75383333Y-154312952D01*
X75335714Y-154265333D01*
X75288095Y-154170095D01*
X75288095Y-154074857D01*
X75335714Y-153979619D01*
X75383333Y-153932000D01*
X75478571Y-153884380D01*
X75716666Y-153884380D01*
X75859523Y-153932000D01*
X76669047Y-154836761D02*
X76573809Y-154884380D01*
X76383333Y-154884380D01*
X76288095Y-154836761D01*
X76240476Y-154741523D01*
X76240476Y-154360571D01*
X76288095Y-154265333D01*
X76383333Y-154217714D01*
X76573809Y-154217714D01*
X76669047Y-154265333D01*
X76716666Y-154360571D01*
X76716666Y-154455809D01*
X76240476Y-154551047D01*
X77145238Y-154217714D02*
X77145238Y-154884380D01*
X77145238Y-154312952D02*
X77192857Y-154265333D01*
X77288095Y-154217714D01*
X77430952Y-154217714D01*
X77526190Y-154265333D01*
X77573809Y-154360571D01*
X77573809Y-154884380D01*
X78002380Y-154836761D02*
X78097619Y-154884380D01*
X78288095Y-154884380D01*
X78383333Y-154836761D01*
X78430952Y-154741523D01*
X78430952Y-154693904D01*
X78383333Y-154598666D01*
X78288095Y-154551047D01*
X78145238Y-154551047D01*
X78050000Y-154503428D01*
X78002380Y-154408190D01*
X78002380Y-154360571D01*
X78050000Y-154265333D01*
X78145238Y-154217714D01*
X78288095Y-154217714D01*
X78383333Y-154265333D01*
X79240476Y-154836761D02*
X79145238Y-154884380D01*
X78954761Y-154884380D01*
X78859523Y-154836761D01*
X78811904Y-154741523D01*
X78811904Y-154360571D01*
X78859523Y-154265333D01*
X78954761Y-154217714D01*
X79145238Y-154217714D01*
X79240476Y-154265333D01*
X79288095Y-154360571D01*
X79288095Y-154455809D01*
X78811904Y-154551047D01*
X81002380Y-153932000D02*
X80907142Y-153884380D01*
X80764285Y-153884380D01*
X80621428Y-153932000D01*
X80526190Y-154027238D01*
X80478571Y-154122476D01*
X80430952Y-154312952D01*
X80430952Y-154455809D01*
X80478571Y-154646285D01*
X80526190Y-154741523D01*
X80621428Y-154836761D01*
X80764285Y-154884380D01*
X80859523Y-154884380D01*
X81002380Y-154836761D01*
X81050000Y-154789142D01*
X81050000Y-154455809D01*
X80859523Y-154455809D01*
X81478571Y-154884380D02*
X81478571Y-154217714D01*
X81478571Y-154408190D02*
X81526190Y-154312952D01*
X81573809Y-154265333D01*
X81669047Y-154217714D01*
X81764285Y-154217714D01*
X82240476Y-154884380D02*
X82145238Y-154836761D01*
X82097619Y-154789142D01*
X82050000Y-154693904D01*
X82050000Y-154408190D01*
X82097619Y-154312952D01*
X82145238Y-154265333D01*
X82240476Y-154217714D01*
X82383333Y-154217714D01*
X82478571Y-154265333D01*
X82526190Y-154312952D01*
X82573809Y-154408190D01*
X82573809Y-154693904D01*
X82526190Y-154789142D01*
X82478571Y-154836761D01*
X82383333Y-154884380D01*
X82240476Y-154884380D01*
X83430952Y-154217714D02*
X83430952Y-154884380D01*
X83002380Y-154217714D02*
X83002380Y-154741523D01*
X83050000Y-154836761D01*
X83145238Y-154884380D01*
X83288095Y-154884380D01*
X83383333Y-154836761D01*
X83430952Y-154789142D01*
X83907142Y-154217714D02*
X83907142Y-155217714D01*
X83907142Y-154265333D02*
X84002380Y-154217714D01*
X84192857Y-154217714D01*
X84288095Y-154265333D01*
X84335714Y-154312952D01*
X84383333Y-154408190D01*
X84383333Y-154693904D01*
X84335714Y-154789142D01*
X84288095Y-154836761D01*
X84192857Y-154884380D01*
X84002380Y-154884380D01*
X83907142Y-154836761D01*
X86097619Y-154884380D02*
X85526190Y-154884380D01*
X85811904Y-154884380D02*
X85811904Y-153884380D01*
X85716666Y-154027238D01*
X85621428Y-154122476D01*
X85526190Y-154170095D01*
X88097619Y-154884380D02*
X88050000Y-154884380D01*
X87954761Y-154836761D01*
X87811904Y-154693904D01*
X87573809Y-154408190D01*
X87478571Y-154265333D01*
X87430952Y-154122476D01*
X87430952Y-154027238D01*
X87478571Y-153932000D01*
X87573809Y-153884380D01*
X87621428Y-153884380D01*
X87716666Y-153932000D01*
X87764285Y-154027238D01*
X87764285Y-154074857D01*
X87716666Y-154170095D01*
X87669047Y-154217714D01*
X87383333Y-154408190D01*
X87335714Y-154455809D01*
X87288095Y-154551047D01*
X87288095Y-154693904D01*
X87335714Y-154789142D01*
X87383333Y-154836761D01*
X87478571Y-154884380D01*
X87621428Y-154884380D01*
X87716666Y-154836761D01*
X87764285Y-154789142D01*
X87907142Y-154598666D01*
X87954761Y-154455809D01*
X87954761Y-154360571D01*
X89240476Y-153979619D02*
X89288095Y-153932000D01*
X89383333Y-153884380D01*
X89621428Y-153884380D01*
X89716666Y-153932000D01*
X89764285Y-153979619D01*
X89811904Y-154074857D01*
X89811904Y-154170095D01*
X89764285Y-154312952D01*
X89192857Y-154884380D01*
X89811904Y-154884380D01*
X78146000Y-135476380D02*
X78146000Y-135714476D01*
X77907904Y-135619238D02*
X78146000Y-135714476D01*
X78384095Y-135619238D01*
X78003142Y-135904952D02*
X78146000Y-135714476D01*
X78288857Y-135904952D01*
X97669666Y-85812380D02*
X97669666Y-86526666D01*
X97622047Y-86669523D01*
X97526809Y-86764761D01*
X97383952Y-86812380D01*
X97288714Y-86812380D01*
X98098238Y-85907619D02*
X98145857Y-85860000D01*
X98241095Y-85812380D01*
X98479190Y-85812380D01*
X98574428Y-85860000D01*
X98622047Y-85907619D01*
X98669666Y-86002857D01*
X98669666Y-86098095D01*
X98622047Y-86240952D01*
X98050619Y-86812380D01*
X98669666Y-86812380D01*
X92598238Y-84986761D02*
X92741095Y-85034380D01*
X92979190Y-85034380D01*
X93074428Y-84986761D01*
X93122047Y-84939142D01*
X93169666Y-84843904D01*
X93169666Y-84748666D01*
X93122047Y-84653428D01*
X93074428Y-84605809D01*
X92979190Y-84558190D01*
X92788714Y-84510571D01*
X92693476Y-84462952D01*
X92645857Y-84415333D01*
X92598238Y-84320095D01*
X92598238Y-84224857D01*
X92645857Y-84129619D01*
X92693476Y-84082000D01*
X92788714Y-84034380D01*
X93026809Y-84034380D01*
X93169666Y-84082000D01*
X93979190Y-84986761D02*
X93883952Y-85034380D01*
X93693476Y-85034380D01*
X93598238Y-84986761D01*
X93550619Y-84891523D01*
X93550619Y-84510571D01*
X93598238Y-84415333D01*
X93693476Y-84367714D01*
X93883952Y-84367714D01*
X93979190Y-84415333D01*
X94026809Y-84510571D01*
X94026809Y-84605809D01*
X93550619Y-84701047D01*
X94455380Y-84367714D02*
X94455380Y-85034380D01*
X94455380Y-84462952D02*
X94503000Y-84415333D01*
X94598238Y-84367714D01*
X94741095Y-84367714D01*
X94836333Y-84415333D01*
X94883952Y-84510571D01*
X94883952Y-85034380D01*
X95312523Y-84986761D02*
X95407761Y-85034380D01*
X95598238Y-85034380D01*
X95693476Y-84986761D01*
X95741095Y-84891523D01*
X95741095Y-84843904D01*
X95693476Y-84748666D01*
X95598238Y-84701047D01*
X95455380Y-84701047D01*
X95360142Y-84653428D01*
X95312523Y-84558190D01*
X95312523Y-84510571D01*
X95360142Y-84415333D01*
X95455380Y-84367714D01*
X95598238Y-84367714D01*
X95693476Y-84415333D01*
X96550619Y-84986761D02*
X96455380Y-85034380D01*
X96264904Y-85034380D01*
X96169666Y-84986761D01*
X96122047Y-84891523D01*
X96122047Y-84510571D01*
X96169666Y-84415333D01*
X96264904Y-84367714D01*
X96455380Y-84367714D01*
X96550619Y-84415333D01*
X96598238Y-84510571D01*
X96598238Y-84605809D01*
X96122047Y-84701047D01*
X98312523Y-84082000D02*
X98217285Y-84034380D01*
X98074428Y-84034380D01*
X97931571Y-84082000D01*
X97836333Y-84177238D01*
X97788714Y-84272476D01*
X97741095Y-84462952D01*
X97741095Y-84605809D01*
X97788714Y-84796285D01*
X97836333Y-84891523D01*
X97931571Y-84986761D01*
X98074428Y-85034380D01*
X98169666Y-85034380D01*
X98312523Y-84986761D01*
X98360142Y-84939142D01*
X98360142Y-84605809D01*
X98169666Y-84605809D01*
X98788714Y-85034380D02*
X98788714Y-84367714D01*
X98788714Y-84558190D02*
X98836333Y-84462952D01*
X98883952Y-84415333D01*
X98979190Y-84367714D01*
X99074428Y-84367714D01*
X99550619Y-85034380D02*
X99455380Y-84986761D01*
X99407761Y-84939142D01*
X99360142Y-84843904D01*
X99360142Y-84558190D01*
X99407761Y-84462952D01*
X99455380Y-84415333D01*
X99550619Y-84367714D01*
X99693476Y-84367714D01*
X99788714Y-84415333D01*
X99836333Y-84462952D01*
X99883952Y-84558190D01*
X99883952Y-84843904D01*
X99836333Y-84939142D01*
X99788714Y-84986761D01*
X99693476Y-85034380D01*
X99550619Y-85034380D01*
X100741095Y-84367714D02*
X100741095Y-85034380D01*
X100312523Y-84367714D02*
X100312523Y-84891523D01*
X100360142Y-84986761D01*
X100455380Y-85034380D01*
X100598238Y-85034380D01*
X100693476Y-84986761D01*
X100741095Y-84939142D01*
X101217285Y-84367714D02*
X101217285Y-85367714D01*
X101217285Y-84415333D02*
X101312523Y-84367714D01*
X101503000Y-84367714D01*
X101598238Y-84415333D01*
X101645857Y-84462952D01*
X101693476Y-84558190D01*
X101693476Y-84843904D01*
X101645857Y-84939142D01*
X101598238Y-84986761D01*
X101503000Y-85034380D01*
X101312523Y-85034380D01*
X101217285Y-84986761D01*
X102836333Y-84129619D02*
X102883952Y-84082000D01*
X102979190Y-84034380D01*
X103217285Y-84034380D01*
X103312523Y-84082000D01*
X103360142Y-84129619D01*
X103407761Y-84224857D01*
X103407761Y-84320095D01*
X103360142Y-84462952D01*
X102788714Y-85034380D01*
X103407761Y-85034380D01*
X102448000Y-102576380D02*
X102448000Y-102814476D01*
X102209904Y-102719238D02*
X102448000Y-102814476D01*
X102686095Y-102719238D01*
X102305142Y-103004952D02*
X102448000Y-102814476D01*
X102590857Y-103004952D01*
X158543666Y-85812380D02*
X158543666Y-86526666D01*
X158496047Y-86669523D01*
X158400809Y-86764761D01*
X158257952Y-86812380D01*
X158162714Y-86812380D01*
X159448428Y-86145714D02*
X159448428Y-86812380D01*
X159210333Y-85764761D02*
X158972238Y-86479047D01*
X159591285Y-86479047D01*
X155853190Y-85034380D02*
X155853190Y-84034380D01*
X156329380Y-84367714D02*
X156329380Y-85034380D01*
X156329380Y-84462952D02*
X156377000Y-84415333D01*
X156472238Y-84367714D01*
X156615095Y-84367714D01*
X156710333Y-84415333D01*
X156757952Y-84510571D01*
X156757952Y-85034380D01*
X157091285Y-84367714D02*
X157472238Y-84367714D01*
X157234142Y-84034380D02*
X157234142Y-84891523D01*
X157281761Y-84986761D01*
X157377000Y-85034380D01*
X157472238Y-85034380D01*
X158186523Y-84986761D02*
X158091285Y-85034380D01*
X157900809Y-85034380D01*
X157805571Y-84986761D01*
X157757952Y-84891523D01*
X157757952Y-84510571D01*
X157805571Y-84415333D01*
X157900809Y-84367714D01*
X158091285Y-84367714D01*
X158186523Y-84415333D01*
X158234142Y-84510571D01*
X158234142Y-84605809D01*
X157757952Y-84701047D01*
X158662714Y-85034380D02*
X158662714Y-84367714D01*
X158662714Y-84558190D02*
X158710333Y-84462952D01*
X158757952Y-84415333D01*
X158853190Y-84367714D01*
X158948428Y-84367714D01*
X159424619Y-85034380D02*
X159329380Y-84986761D01*
X159281761Y-84891523D01*
X159281761Y-84034380D01*
X159948428Y-85034380D02*
X159853190Y-84986761D01*
X159805571Y-84939142D01*
X159757952Y-84843904D01*
X159757952Y-84558190D01*
X159805571Y-84462952D01*
X159853190Y-84415333D01*
X159948428Y-84367714D01*
X160091285Y-84367714D01*
X160186523Y-84415333D01*
X160234142Y-84462952D01*
X160281761Y-84558190D01*
X160281761Y-84843904D01*
X160234142Y-84939142D01*
X160186523Y-84986761D01*
X160091285Y-85034380D01*
X159948428Y-85034380D01*
X161138904Y-84986761D02*
X161043666Y-85034380D01*
X160853190Y-85034380D01*
X160757952Y-84986761D01*
X160710333Y-84939142D01*
X160662714Y-84843904D01*
X160662714Y-84558190D01*
X160710333Y-84462952D01*
X160757952Y-84415333D01*
X160853190Y-84367714D01*
X161043666Y-84367714D01*
X161138904Y-84415333D01*
X161567476Y-85034380D02*
X161567476Y-84034380D01*
X161662714Y-84653428D02*
X161948428Y-85034380D01*
X161948428Y-84367714D02*
X161567476Y-84748666D01*
X163322000Y-102576380D02*
X163322000Y-102814476D01*
X163083904Y-102719238D02*
X163322000Y-102814476D01*
X163560095Y-102719238D01*
X163179142Y-103004952D02*
X163322000Y-102814476D01*
X163464857Y-103004952D01*
X128350516Y-152360380D02*
X128350516Y-153074666D01*
X128302897Y-153217523D01*
X128207659Y-153312761D01*
X128064802Y-153360380D01*
X127969564Y-153360380D01*
X129255278Y-152360380D02*
X129064802Y-152360380D01*
X128969564Y-152408000D01*
X128921945Y-152455619D01*
X128826707Y-152598476D01*
X128779088Y-152788952D01*
X128779088Y-153169904D01*
X128826707Y-153265142D01*
X128874326Y-153312761D01*
X128969564Y-153360380D01*
X129160040Y-153360380D01*
X129255278Y-153312761D01*
X129302897Y-153265142D01*
X129350516Y-153169904D01*
X129350516Y-152931809D01*
X129302897Y-152836571D01*
X129255278Y-152788952D01*
X129160040Y-152741333D01*
X128969564Y-152741333D01*
X128874326Y-152788952D01*
X128826707Y-152836571D01*
X128779088Y-152931809D01*
X126683850Y-154836761D02*
X126826707Y-154884380D01*
X127064802Y-154884380D01*
X127160040Y-154836761D01*
X127207659Y-154789142D01*
X127255278Y-154693904D01*
X127255278Y-154598666D01*
X127207659Y-154503428D01*
X127160040Y-154455809D01*
X127064802Y-154408190D01*
X126874326Y-154360571D01*
X126779088Y-154312952D01*
X126731469Y-154265333D01*
X126683850Y-154170095D01*
X126683850Y-154074857D01*
X126731469Y-153979619D01*
X126779088Y-153932000D01*
X126874326Y-153884380D01*
X127112421Y-153884380D01*
X127255278Y-153932000D01*
X128064802Y-154836761D02*
X127969564Y-154884380D01*
X127779088Y-154884380D01*
X127683850Y-154836761D01*
X127636230Y-154741523D01*
X127636230Y-154360571D01*
X127683850Y-154265333D01*
X127779088Y-154217714D01*
X127969564Y-154217714D01*
X128064802Y-154265333D01*
X128112421Y-154360571D01*
X128112421Y-154455809D01*
X127636230Y-154551047D01*
X128540992Y-154217714D02*
X128540992Y-154884380D01*
X128540992Y-154312952D02*
X128588611Y-154265333D01*
X128683850Y-154217714D01*
X128826707Y-154217714D01*
X128921945Y-154265333D01*
X128969564Y-154360571D01*
X128969564Y-154884380D01*
X129398135Y-154836761D02*
X129493373Y-154884380D01*
X129683850Y-154884380D01*
X129779088Y-154836761D01*
X129826707Y-154741523D01*
X129826707Y-154693904D01*
X129779088Y-154598666D01*
X129683850Y-154551047D01*
X129540992Y-154551047D01*
X129445754Y-154503428D01*
X129398135Y-154408190D01*
X129398135Y-154360571D01*
X129445754Y-154265333D01*
X129540992Y-154217714D01*
X129683850Y-154217714D01*
X129779088Y-154265333D01*
X130636230Y-154836761D02*
X130540992Y-154884380D01*
X130350516Y-154884380D01*
X130255278Y-154836761D01*
X130207659Y-154741523D01*
X130207659Y-154360571D01*
X130255278Y-154265333D01*
X130350516Y-154217714D01*
X130540992Y-154217714D01*
X130636230Y-154265333D01*
X130683850Y-154360571D01*
X130683850Y-154455809D01*
X130207659Y-154551047D01*
X124238850Y-135476380D02*
X124238850Y-135714476D01*
X124000754Y-135619238D02*
X124238850Y-135714476D01*
X124476945Y-135619238D01*
X124095992Y-135904952D02*
X124238850Y-135714476D01*
X124381707Y-135904952D01*
X66849666Y-85812380D02*
X66849666Y-86526666D01*
X66802047Y-86669523D01*
X66706809Y-86764761D01*
X66563952Y-86812380D01*
X66468714Y-86812380D01*
X67849666Y-86812380D02*
X67278238Y-86812380D01*
X67563952Y-86812380D02*
X67563952Y-85812380D01*
X67468714Y-85955238D01*
X67373476Y-86050476D01*
X67278238Y-86098095D01*
X61778238Y-84986761D02*
X61921095Y-85034380D01*
X62159190Y-85034380D01*
X62254428Y-84986761D01*
X62302047Y-84939142D01*
X62349666Y-84843904D01*
X62349666Y-84748666D01*
X62302047Y-84653428D01*
X62254428Y-84605809D01*
X62159190Y-84558190D01*
X61968714Y-84510571D01*
X61873476Y-84462952D01*
X61825857Y-84415333D01*
X61778238Y-84320095D01*
X61778238Y-84224857D01*
X61825857Y-84129619D01*
X61873476Y-84082000D01*
X61968714Y-84034380D01*
X62206809Y-84034380D01*
X62349666Y-84082000D01*
X63159190Y-84986761D02*
X63063952Y-85034380D01*
X62873476Y-85034380D01*
X62778238Y-84986761D01*
X62730619Y-84891523D01*
X62730619Y-84510571D01*
X62778238Y-84415333D01*
X62873476Y-84367714D01*
X63063952Y-84367714D01*
X63159190Y-84415333D01*
X63206809Y-84510571D01*
X63206809Y-84605809D01*
X62730619Y-84701047D01*
X63635380Y-84367714D02*
X63635380Y-85034380D01*
X63635380Y-84462952D02*
X63683000Y-84415333D01*
X63778238Y-84367714D01*
X63921095Y-84367714D01*
X64016333Y-84415333D01*
X64063952Y-84510571D01*
X64063952Y-85034380D01*
X64492523Y-84986761D02*
X64587761Y-85034380D01*
X64778238Y-85034380D01*
X64873476Y-84986761D01*
X64921095Y-84891523D01*
X64921095Y-84843904D01*
X64873476Y-84748666D01*
X64778238Y-84701047D01*
X64635380Y-84701047D01*
X64540142Y-84653428D01*
X64492523Y-84558190D01*
X64492523Y-84510571D01*
X64540142Y-84415333D01*
X64635380Y-84367714D01*
X64778238Y-84367714D01*
X64873476Y-84415333D01*
X65730619Y-84986761D02*
X65635380Y-85034380D01*
X65444904Y-85034380D01*
X65349666Y-84986761D01*
X65302047Y-84891523D01*
X65302047Y-84510571D01*
X65349666Y-84415333D01*
X65444904Y-84367714D01*
X65635380Y-84367714D01*
X65730619Y-84415333D01*
X65778238Y-84510571D01*
X65778238Y-84605809D01*
X65302047Y-84701047D01*
X67492523Y-84082000D02*
X67397285Y-84034380D01*
X67254428Y-84034380D01*
X67111571Y-84082000D01*
X67016333Y-84177238D01*
X66968714Y-84272476D01*
X66921095Y-84462952D01*
X66921095Y-84605809D01*
X66968714Y-84796285D01*
X67016333Y-84891523D01*
X67111571Y-84986761D01*
X67254428Y-85034380D01*
X67349666Y-85034380D01*
X67492523Y-84986761D01*
X67540142Y-84939142D01*
X67540142Y-84605809D01*
X67349666Y-84605809D01*
X67968714Y-85034380D02*
X67968714Y-84367714D01*
X67968714Y-84558190D02*
X68016333Y-84462952D01*
X68063952Y-84415333D01*
X68159190Y-84367714D01*
X68254428Y-84367714D01*
X68730619Y-85034380D02*
X68635380Y-84986761D01*
X68587761Y-84939142D01*
X68540142Y-84843904D01*
X68540142Y-84558190D01*
X68587761Y-84462952D01*
X68635380Y-84415333D01*
X68730619Y-84367714D01*
X68873476Y-84367714D01*
X68968714Y-84415333D01*
X69016333Y-84462952D01*
X69063952Y-84558190D01*
X69063952Y-84843904D01*
X69016333Y-84939142D01*
X68968714Y-84986761D01*
X68873476Y-85034380D01*
X68730619Y-85034380D01*
X69921095Y-84367714D02*
X69921095Y-85034380D01*
X69492523Y-84367714D02*
X69492523Y-84891523D01*
X69540142Y-84986761D01*
X69635380Y-85034380D01*
X69778238Y-85034380D01*
X69873476Y-84986761D01*
X69921095Y-84939142D01*
X70397285Y-84367714D02*
X70397285Y-85367714D01*
X70397285Y-84415333D02*
X70492523Y-84367714D01*
X70683000Y-84367714D01*
X70778238Y-84415333D01*
X70825857Y-84462952D01*
X70873476Y-84558190D01*
X70873476Y-84843904D01*
X70825857Y-84939142D01*
X70778238Y-84986761D01*
X70683000Y-85034380D01*
X70492523Y-85034380D01*
X70397285Y-84986761D01*
X72587761Y-85034380D02*
X72016333Y-85034380D01*
X72302047Y-85034380D02*
X72302047Y-84034380D01*
X72206809Y-84177238D01*
X72111571Y-84272476D01*
X72016333Y-84320095D01*
X71628000Y-102576380D02*
X71628000Y-102814476D01*
X71389904Y-102719238D02*
X71628000Y-102814476D01*
X71866095Y-102719238D01*
X71485142Y-103004952D02*
X71628000Y-102814476D01*
X71770857Y-103004952D01*
D11*
X136341950Y-97827279D02*
X136341950Y-87519799D01*
X121025750Y-108551000D02*
X136341950Y-108551000D01*
X121025750Y-87519799D02*
X121025750Y-97827279D01*
X136341950Y-108551000D02*
X136341950Y-100540722D01*
X136341950Y-87519799D02*
X121025750Y-87519799D01*
X121025750Y-100540722D02*
X121025750Y-108551000D01*
X138500950Y-103124000D02*
G75*
G03*
X138500950Y-103124000I-381000J0D01*
G01*
X166502250Y-151628201D02*
X166502250Y-141320721D01*
X151186050Y-130597000D02*
X151186050Y-138607278D01*
X166502250Y-130597000D02*
X151186050Y-130597000D01*
X166502250Y-138607278D02*
X166502250Y-130597000D01*
X151186050Y-141320721D02*
X151186050Y-151628201D01*
X151186050Y-151628201D02*
X166502250Y-151628201D01*
X149789050Y-136024000D02*
G75*
G03*
X149789050Y-136024000I-381000J0D01*
G01*
X90249100Y-138607278D02*
X90249100Y-130597000D01*
X90249100Y-151628201D02*
X90249100Y-141320721D01*
X74932900Y-151628201D02*
X90249100Y-151628201D01*
X74932900Y-141320721D02*
X74932900Y-151628201D01*
X74932900Y-130597000D02*
X74932900Y-138607278D01*
X90249100Y-130597000D02*
X74932900Y-130597000D01*
X73535900Y-136024000D02*
G75*
G03*
X73535900Y-136024000I-381000J0D01*
G01*
X90344900Y-108551000D02*
X105661100Y-108551000D01*
X105661100Y-97827279D02*
X105661100Y-87519799D01*
X105661100Y-108551000D02*
X105661100Y-100540722D01*
X90344900Y-87519799D02*
X90344900Y-97827279D01*
X90344900Y-100540722D02*
X90344900Y-108551000D01*
X105661100Y-87519799D02*
X90344900Y-87519799D01*
X107820100Y-103124000D02*
G75*
G03*
X107820100Y-103124000I-381000J0D01*
G01*
X166535100Y-87519799D02*
X151218900Y-87519799D01*
X166535100Y-108551000D02*
X166535100Y-100540722D01*
X151218900Y-87519799D02*
X151218900Y-97827279D01*
X166535100Y-97827279D02*
X166535100Y-87519799D01*
X151218900Y-100540722D02*
X151218900Y-108551000D01*
X151218900Y-108551000D02*
X166535100Y-108551000D01*
X168694100Y-103124000D02*
G75*
G03*
X168694100Y-103124000I-381000J0D01*
G01*
X121025750Y-130597000D02*
X121025750Y-138607278D01*
X136341950Y-151628201D02*
X136341950Y-141320721D01*
X136341950Y-130597000D02*
X121025750Y-130597000D01*
X121025750Y-151628201D02*
X136341950Y-151628201D01*
X136341950Y-138607278D02*
X136341950Y-130597000D01*
X121025750Y-141320721D02*
X121025750Y-151628201D01*
X119628750Y-136024000D02*
G75*
G03*
X119628750Y-136024000I-381000J0D01*
G01*
X59524900Y-100540722D02*
X59524900Y-108551000D01*
X59524900Y-108551000D02*
X74841100Y-108551000D01*
X74841100Y-108551000D02*
X74841100Y-100540722D01*
X74841100Y-97827279D02*
X74841100Y-87519799D01*
X59524900Y-87519799D02*
X59524900Y-97827279D01*
X74841100Y-87519799D02*
X59524900Y-87519799D01*
X77000100Y-103124000D02*
G75*
G03*
X77000100Y-103124000I-381000J0D01*
G01*
M02*
