M48
METRIC,LZ
VER,1
FMAT,2
T01C0.3F042B423S6H2000
DETECT,ON
ATC,ON
%
T01
X-0017Y-01975
Y-0205
Y-019
X00725Y-0265
Y-025
Y-02575
X-0017Y-02675
Y-0275
Y-026
Y-02325
Y-024
Y-0225
Y-03025
Y-0295
Y-031
X0056Y-0394
X0068
X0056Y-0406
X0068
X0056Y-0418
X0068
X0044Y-0394
Y-0406
Y-0418
X0104Y-0394
X0116
X0104Y-0406
X0116
X0104Y-0418
X0116
X008Y-0394
Y-0406
Y-0418
X0056Y-0358
X0068
X0056Y-037
X0068
X0056Y-0382
X0068
X0044Y-0358
Y-037
Y-0382
X008Y-0358
Y-037
Y-0382
X0104
Y-037
Y-0358
X0116Y-0382
Y-037
Y-0358
M30
