G04 CAM350/DFMSTREAM V12.2 (Build 1147) Date:  Wed Feb 07 17:33:43 2018 *
G04 Database: O:\ITS_UPGRADE\Fabrication\ALPIDE\ECUE_TR_BOARD_PWR_V1-2\ECUE_TR_BOARD_PWR_V1-2.cam *
G04 Layer 6: etm.art *
%FSLAX55Y55*%
%MOMM*%
%SFA1.000B1.000*%

%MIA0B0*%
%IPPOS*%
%ADD12R,0.33020X1.54940*%
%ADD13R,1.99900X1.99900*%
%ADD17C,0.20320*%
%ADD18C,0.25400*%
%ADD19C,0.30480*%
%ADD21C,0.17780*%
%ADD22C,0.01000*%
%ADD23R,1.55000X2.05000*%
%ADD24R,1.45000X2.95000*%
%LNetm.art*%
%LPD*%
G36*
X990000Y-3305350D02*
G01X991050Y-3004650D01*
X1200000Y-3005350*
Y-3305350*
X990000*
G37*
G36*
X995000Y-4235000D02*
G01Y-3485000D01*
X1205000*
Y-4235000*
X995000*
G37*
G36*
X-1020Y110740D02*
G01Y305820D01*
X993900*
Y110740*
X-1020*
G37*
G36*
X-220000Y-4235000D02*
G01Y-3485000D01*
X240000*
Y-4235000*
X-220000*
G37*
G36*
X390000D02*
G01Y-3485000D01*
X855000*
Y-4235000*
X390000*
G37*
G36*
X-320000Y-4720000D02*
G01Y-4330000D01*
X1380000*
Y-4720000*
X-320000*
G37*
G54D24*
X-90000Y-3025000D03*
Y-2325000D03*
Y-2675000D03*
Y-1975000D03*
X210000Y-3025000D03*
Y-2325000D03*
Y-2675000D03*
Y-1975000D03*
G54D12*
X296420Y200150D03*
X246380D03*
X196340D03*
X146300D03*
X96270D03*
X46230D03*
X646680D03*
X596650D03*
X546610D03*
X496570D03*
X446530D03*
X396490D03*
X346460D03*
X946910D03*
X896870D03*
X846840D03*
X796800D03*
X746760D03*
X696720D03*
G54D13*
X755000Y-1835000D03*
X995000D03*
G54D23*
X1115000Y-2835000D03*
X815000D03*
Y-2575000D03*
X1115000D03*
G54D17*
X-4397880Y-7301780D02*
G01X-4406770Y-7294160D01*
X-4417140Y-7289080*
X-4429000*
X-4442330Y-7296700*
X-4452700Y-7309400*
X-4460110Y-7324640*
X-4466040Y-7350040*
X-4467520Y-7372900*
X-4464560Y-7395760*
X-4460110Y-7411000*
X-4451220Y-7426240*
X-4440850Y-7436400*
X-4430480Y-7441480*
X-4420110*
X-4409740Y-7436400*
X-4400850Y-7428780*
X-4393440Y-7418620*
X-4273850Y-7441480D02*
G01X-4333110D01*
Y-7289080*
X-4273850*
X-4297550Y-7362740D02*
G01X-4333110D01*
X-4206110Y-7441480D02*
G01Y-7289080D01*
X-4169070*
X-4157220Y-7296700*
X-4149810Y-7306860*
X-4146850Y-7327180*
X-4149810Y-7347500*
X-4158700Y-7360200*
X-4169070Y-7367820*
X-4206110*
X-4169070D02*
G01X-4146850Y-7441480D01*
X-4083560D02*
G01Y-7289080D01*
X-4015400Y-7441480*
Y-7289080*
X7739080Y-6877600D02*
G01Y-7030000D01*
X7679820*
X7619490D02*
G01X7582450Y-6877600D01*
X7545410Y-7030000*
X7558740Y-6976660D02*
G01X7606160D01*
X7455450Y-7030000D02*
G01X7467300Y-7027460D01*
X7477670Y-7017300*
X7486570Y-7002060*
X7492490Y-6984280*
X7495460Y-6963960*
Y-6943640*
X7492490Y-6923320*
X7486570Y-6905540*
X7477670Y-6890300*
X7467300Y-6880140*
X7455450Y-6877600*
X7443600Y-6880140*
X7433230Y-6890300*
X7424330Y-6905540*
X7418410Y-6923320*
X7415440Y-6943640*
Y-6963960*
X7418410Y-6984280*
X7424330Y-7002060*
X7433230Y-7017300*
X7443600Y-7027460*
X7455450Y-7030000*
X7443600Y-6989360D02*
G01X7425820Y-7030000D01*
X7361050Y-6877600D02*
G01Y-6986820D01*
X7355120Y-7009680*
X7343270Y-7024920*
X7328450Y-7030000*
X7313630Y-7024920*
X7301780Y-7009680*
X7295850Y-6986820*
Y-6877600*
X7171820Y-7030000D02*
G01X7231080D01*
Y-6877600*
X7171820*
X7195520Y-6951260D02*
G01X7231080D01*
X6984490Y-7030000D02*
G01X6947450Y-6877600D01*
X6910410Y-7030000*
X6923740Y-6976660D02*
G01X6971160D01*
X6850080Y-7030000D02*
G01Y-6877600D01*
X6813040*
X6801190Y-6885220*
X6793780Y-6895380*
X6790820Y-6915700*
X6793780Y-6936020*
X6802670Y-6948720*
X6813040Y-6956340*
X6850080*
X6813040D02*
G01X6790820Y-7030000D01*
X6723080D02*
G01Y-6877600D01*
X6686040*
X6674190Y-6885220*
X6666780Y-6895380*
X6663820Y-6915700*
X6666780Y-6936020*
X6675670Y-6948720*
X6686040Y-6956340*
X6723080*
X6686040D02*
G01X6663820Y-7030000D01*
X6536820D02*
G01X6596080D01*
Y-6877600*
X6536820*
X6560520Y-6951260D02*
G01X6596080D01*
X6439450Y-6877600D02*
G01Y-7030000D01*
X6473530Y-6877600D02*
G01X6405370D01*
X6218050Y-7030000D02*
G01Y-6877600D01*
X6188410*
X6176560Y-6885220*
X6167670Y-6895380*
X6160260Y-6910620*
X6154330Y-6928400*
X6152850Y-6953800*
X6154330Y-6979200*
X6160260Y-6996980*
X6167670Y-7012220*
X6176560Y-7022380*
X6188410Y-7030000*
X6218050*
X6028820D02*
G01X6088080D01*
Y-6877600*
X6028820*
X6052520Y-6951260D02*
G01X6088080D01*
X5835570Y-7009680D02*
G01X5823710Y-7022380D01*
X5810380Y-7030000*
X5798520*
X5786670Y-7022380*
X5777780Y-7009680*
X5773330Y-6991900*
X5776300Y-6974120*
X5783710Y-6958880*
X5797040Y-6948720*
X5814820Y-6943640*
X5825190Y-6933480*
X5829640Y-6915700*
X5826670Y-6897920*
X5819270Y-6885220*
X5808900Y-6877600*
X5798520*
X5788150Y-6882680*
X5779260Y-6895380*
X5677450Y-7030000D02*
G01X5689300Y-7027460D01*
X5699670Y-7017300*
X5708570Y-7002060*
X5714490Y-6984280*
X5717460Y-6963960*
Y-6943640*
X5714490Y-6923320*
X5708570Y-6905540*
X5699670Y-6890300*
X5689300Y-6880140*
X5677450Y-6877600*
X5665600Y-6880140*
X5655230Y-6890300*
X5646330Y-6905540*
X5640410Y-6923320*
X5637440Y-6943640*
Y-6963960*
X5640410Y-6984280*
X5646330Y-7002060*
X5655230Y-7017300*
X5665600Y-7027460*
X5677450Y-7030000*
X5583050Y-6877600D02*
G01Y-6986820D01*
X5577120Y-7009680*
X5565270Y-7024920*
X5550450Y-7030000*
X5535630Y-7024920*
X5523780Y-7009680*
X5517850Y-6986820*
Y-6877600*
X5456050Y-7030000D02*
G01Y-6877600D01*
X5426410*
X5414560Y-6885220*
X5405670Y-6895380*
X5398260Y-6910620*
X5392330Y-6928400*
X5390850Y-6953800*
X5392330Y-6979200*
X5398260Y-6996980*
X5405670Y-7012220*
X5414560Y-7022380*
X5426410Y-7030000*
X5456050*
X5329050Y-6877600D02*
G01Y-6986820D01*
X5323120Y-7009680*
X5311270Y-7024920*
X5296450Y-7030000*
X5281630Y-7024920*
X5269780Y-7009680*
X5263850Y-6986820*
Y-6877600*
X5199080Y-7030000D02*
G01Y-6877600D01*
X5162040*
X5150190Y-6885220*
X5142780Y-6895380*
X5139820Y-6915700*
X5142780Y-6936020*
X5151670Y-6948720*
X5162040Y-6956340*
X5199080*
X5162040D02*
G01X5139820Y-7030000D01*
X5012820D02*
G01X5072080D01*
Y-6877600*
X5012820*
X5036520Y-6951260D02*
G01X5072080D01*
X4832900Y-6877600D02*
G01X4812160Y-7030000D01*
X4788450Y-6877600*
X4764740Y-7030000*
X4744000Y-6877600*
X4680710Y-6979200D02*
G01X4642190D01*
X4565570Y-7009680D02*
G01X4553710Y-7022380D01*
X4540380Y-7030000*
X4528520*
X4516670Y-7022380*
X4507780Y-7009680*
X4503330Y-6991900*
X4506300Y-6974120*
X4513710Y-6958880*
X4527040Y-6948720*
X4544820Y-6943640*
X4555190Y-6933480*
X4559640Y-6915700*
X4556670Y-6897920*
X4549270Y-6885220*
X4538900Y-6877600*
X4528520*
X4518150Y-6882680*
X4509260Y-6895380*
X4425230Y-6877600D02*
G01X4389670D01*
X4407450D02*
G01Y-7030000D01*
X4425230D02*
G01X4389670D01*
X4313050D02*
G01Y-6877600D01*
X4283410*
X4271560Y-6885220*
X4262670Y-6895380*
X4255260Y-6910620*
X4249330Y-6928400*
X4247850Y-6953800*
X4249330Y-6979200*
X4255260Y-6996980*
X4262670Y-7012220*
X4271560Y-7022380*
X4283410Y-7030000*
X4313050*
X4123820D02*
G01X4183080D01*
Y-6877600*
X4123820*
X4147520Y-6951260D02*
G01X4183080D01*
G54D18*
X-4536310Y-8457480D02*
G01Y-8254280D01*
X-4485510*
X-4468580Y-8264440*
X-4455880Y-8288150*
X-4451650Y-8315240*
X-4455880Y-8342330*
X-4466460Y-8362650*
X-4485510Y-8372820*
X-4536310*
X-4360630Y-8457480D02*
G01Y-8254280D01*
X-4271730D02*
G01Y-8457480D01*
Y-8355880D02*
G01X-4360630D01*
X-4176480Y-8464250D02*
G01X-4100280Y-8254280D01*
X-3918250Y-8457480D02*
G01X-4002910D01*
Y-8254280*
X-3918250*
X-3952110Y-8352490D02*
G01X-4002910D01*
X-3827230Y-8430390D02*
G01X-3810300Y-8447320D01*
X-3791250Y-8457480*
X-3774310*
X-3757380Y-8447320*
X-3744680Y-8430390*
X-3738330Y-8406680*
X-3742560Y-8382980*
X-3753150Y-8362650*
X-3772200Y-8349110*
X-3797600Y-8342330*
X-3812410Y-8328790*
X-3818770Y-8305080*
X-3814530Y-8281370*
X-3803950Y-8264440*
X-3789130Y-8254280*
X-3774310*
X-3759500Y-8261050*
X-3746790Y-8277990*
X-3562650Y-8457480D02*
G01X-3647310D01*
Y-8254280*
X-3562650*
X-3596510Y-8352490D02*
G01X-3647310D01*
X-4654000Y-8109500D02*
G01X-3384000D01*
Y-6839500*
X-4654000*
Y-8109500*
X-4400000Y-7474500D02*
G01X-4387300Y-7573560D01*
X-4354280Y-7667540*
X-4300940Y-7753900*
X-4227280Y-7822480*
X-4140920Y-7875820*
X-4046940Y-7908840*
X-3947880Y-7916460*
X-3848820Y-7903760*
X-3754840Y-7868200*
X-3671020Y-7814860*
X-3602440Y-7741200*
X-3551640Y-7654840*
X-3521160Y-7558320*
X-3513540Y-7459260*
X-3526240Y-7360200*
X-3564340Y-7266220*
X-3620220Y-7184940*
X-3696420Y-7116360*
X-3782780Y-7065560*
X-3879300Y-7037620*
X-3978360Y-7032540*
X-4077420Y-7047780*
X-4168860Y-7085880*
X-4252680Y-7144300*
X-4318720Y-7220500*
X-4328880Y-7233200*
X-3202980Y-7262740D02*
G01X-3270720D01*
Y-7059540*
X-3202980*
X-3230080Y-7157750D02*
G01X-3270720D01*
X-3059900Y-7076480D02*
G01X-3070060Y-7066310D01*
X-3081910Y-7059540*
X-3095460*
X-3110700Y-7069700*
X-3122550Y-7086630*
X-3131020Y-7106960*
X-3137790Y-7140820*
X-3139490Y-7171300*
X-3136100Y-7201780*
X-3131020Y-7222100*
X-3120860Y-7242420*
X-3109000Y-7255970*
X-3097150Y-7262740*
X-3085300*
X-3073440Y-7255970*
X-3063280Y-7245810*
X-3054810Y-7232270*
X-2994700Y-7059540D02*
G01Y-7205170D01*
X-2987930Y-7235650*
X-2974380Y-7255970*
X-2957450Y-7262740*
X-2940520Y-7255970*
X-2926970Y-7235650*
X-2920200Y-7205170*
Y-7059540*
X-2783880Y-7262740D02*
G01X-2851620D01*
Y-7059540*
X-2783880*
X-2810980Y-7157750D02*
G01X-2851620D01*
X-2728850Y-7330470D02*
G01X-2627250D01*
X-2538350Y-7059540D02*
G01Y-7262740D01*
X-2577300Y-7059540D02*
G01X-2499400D01*
X-2432520Y-7262740D02*
G01Y-7059540D01*
X-2390180*
X-2376640Y-7069700*
X-2368170Y-7083250*
X-2364780Y-7110340*
X-2368170Y-7137440*
X-2378330Y-7154370*
X-2390180Y-7164530*
X-2432520*
X-2390180D02*
G01X-2364780Y-7262740D01*
X-2309750Y-7330470D02*
G01X-2208150D01*
X-2105700Y-7154370D02*
G01X-2098930Y-7144210D01*
X-2093850Y-7127280*
X-2090460Y-7103560*
X-2093850Y-7083250*
X-2100620Y-7069700*
X-2112480Y-7059540*
X-2158200*
Y-7262740*
X-2102320*
X-2090460Y-7249200*
X-2083690Y-7228870*
X-2080300Y-7205170*
X-2083690Y-7181460*
X-2093850Y-7161140*
X-2105700Y-7154370*
X-2158200*
X-1979550Y-7262740D02*
G01X-1993100Y-7259350D01*
X-2004950Y-7245810*
X-2015110Y-7225490*
X-2021890Y-7201780*
X-2025270Y-7174690*
Y-7147590*
X-2021890Y-7120500*
X-2015110Y-7096790*
X-2004950Y-7076480*
X-1993100Y-7062930*
X-1979550Y-7059540*
X-1966000Y-7062930*
X-1954150Y-7076480*
X-1943990Y-7096790*
X-1937210Y-7120500*
X-1933830Y-7147590*
Y-7174690*
X-1937210Y-7201780*
X-1943990Y-7225490*
X-1954150Y-7245810*
X-1966000Y-7259350*
X-1979550Y-7262740*
X-1882190D02*
G01X-1839850Y-7059540D01*
X-1797510Y-7262740*
X-1812760Y-7191620D02*
G01X-1866950D01*
X-1734020Y-7262740D02*
G01Y-7059540D01*
X-1691680*
X-1678140Y-7069700*
X-1669670Y-7083250*
X-1666280Y-7110340*
X-1669670Y-7137440*
X-1679830Y-7154370*
X-1691680Y-7164530*
X-1734020*
X-1691680D02*
G01X-1666280Y-7262740D01*
X-1597700D02*
G01Y-7059540D01*
X-1563840*
X-1550290Y-7069700*
X-1540130Y-7083250*
X-1531660Y-7103560*
X-1524890Y-7127280*
X-1523200Y-7161140*
X-1524890Y-7195010*
X-1531660Y-7218720*
X-1540130Y-7239040*
X-1550290Y-7252580*
X-1563840Y-7262740*
X-1597700*
X-1471550Y-7330470D02*
G01X-1369950D01*
X-1314920Y-7262740D02*
G01Y-7059540D01*
X-1274280*
X-1260730Y-7069700*
X-1250570Y-7093410*
X-1247180Y-7120500*
X-1250570Y-7147590*
X-1259040Y-7167910*
X-1274280Y-7178080*
X-1314920*
X-1192150Y-7059540D02*
G01X-1168450Y-7262740D01*
X-1141350Y-7059540*
X-1114260Y-7262740*
X-1090550Y-7059540*
X-1035520Y-7262740D02*
G01Y-7059540D01*
X-993180*
X-979640Y-7069700*
X-971170Y-7083250*
X-967780Y-7110340*
X-971170Y-7137440*
X-981330Y-7154370*
X-993180Y-7164530*
X-1035520*
X-993180D02*
G01X-967780Y-7262740D01*
X-883960Y-7195010D02*
G01X-839940D01*
X-764590Y-7059540D02*
G01X-722250Y-7262740D01*
X-679910Y-7059540*
X-582550Y-7262740D02*
G01Y-7059540D01*
X-602870Y-7100180*
Y-7262740D02*
G01X-562230D01*
X-464860Y-7195010D02*
G01X-420840D01*
X-335320Y-7093410D02*
G01X-325160Y-7073090D01*
X-313310Y-7062930*
X-299760Y-7059540*
X-282830Y-7066310*
X-270980Y-7083250*
X-267590Y-7103560*
X-269280Y-7123890*
X-276060Y-7140820*
X-309920Y-7174690*
X-325160Y-7198390*
X-335320Y-7232270*
X-338710Y-7262740*
X-267590*
X-3511000Y-7474500D02*
G01Y-7030000D01*
X-3176570Y-8363500D02*
G01Y-8109500D01*
X-3134230*
X-3117300Y-8122210*
X-3104600Y-8139130*
X-3094010Y-8164530*
X-3085550Y-8194170*
X-3083430Y-8236500*
X-3085550Y-8278840*
X-3094010Y-8308470*
X-3104600Y-8333870*
X-3117300Y-8350800*
X-3134230Y-8363500*
X-3176570*
X-3010200D02*
G01X-2957280Y-8109500D01*
X-2904360Y-8363500*
X-2923410Y-8274600D02*
G01X-2991150D01*
X-2784560Y-8109500D02*
G01Y-8363500D01*
X-2833240Y-8109500D02*
G01X-2735880D01*
X-2569510Y-8363500D02*
G01X-2654170D01*
Y-8109500*
X-2569510*
X-2603370Y-8232260D02*
G01X-2654170D01*
X-3176570Y-7855500D02*
G01Y-7601500D01*
X-3134230*
X-3117300Y-7614210*
X-3104600Y-7631130*
X-3094010Y-7656530*
X-3085550Y-7686170*
X-3083430Y-7728500*
X-3085550Y-7770840*
X-3094010Y-7800470*
X-3104600Y-7825870*
X-3117300Y-7842800*
X-3134230Y-7855500*
X-3176570*
X-2914950D02*
G01X-2999610D01*
Y-7601500*
X-2914950*
X-2948810Y-7724260D02*
G01X-2999610D01*
X-2829010Y-7821640D02*
G01X-2812080Y-7842800D01*
X-2793030Y-7855500*
X-2776090*
X-2759160Y-7842800*
X-2746460Y-7821640*
X-2740110Y-7792000*
X-2744340Y-7762370*
X-2754930Y-7736970*
X-2773980Y-7720030*
X-2799380Y-7711570*
X-2814190Y-7694640*
X-2820550Y-7665000*
X-2816310Y-7635370*
X-2805730Y-7614210*
X-2790910Y-7601500*
X-2776090*
X-2761280Y-7609960*
X-2748570Y-7631130*
X-2656290Y-7821640D02*
G01X-2639360Y-7842800D01*
X-2620310Y-7855500*
X-2603370*
X-2586440Y-7842800*
X-2573740Y-7821640*
X-2567390Y-7792000*
X-2571620Y-7762370*
X-2582210Y-7736970*
X-2601260Y-7720030*
X-2626660Y-7711570*
X-2641470Y-7694640*
X-2647830Y-7665000*
X-2643590Y-7635370*
X-2633010Y-7614210*
X-2618190Y-7601500*
X-2603370*
X-2588560Y-7609960*
X-2575850Y-7631130*
X-2050500Y-8109500D02*
G01X-2067440Y-8117960D01*
X-2080130Y-8139130*
X-2088600Y-8164530*
X-2094950Y-8198400*
X-2097070Y-8236500*
X-2094950Y-8274600*
X-2088600Y-8308470*
X-2080130Y-8333870*
X-2067440Y-8355040*
X-2050500Y-8363500*
X-2033570Y-8355040*
X-2020870Y-8333870*
X-2012400Y-8308470*
X-2006050Y-8274600*
X-2003930Y-8236500*
X-2006050Y-8198400*
X-2012400Y-8164530*
X-2020870Y-8139130*
X-2033570Y-8117960*
X-2050500Y-8109500*
X-1918000Y-8257670D02*
G01X-1903180Y-8228030D01*
X-1890480Y-8211100*
X-1873550Y-8202640*
X-1858730Y-8211100*
X-1848150Y-8228030*
X-1839680Y-8253430*
X-1837560Y-8283070*
X-1839680Y-8308470*
X-1848150Y-8333870*
X-1860850Y-8355040*
X-1875660Y-8363500*
X-1892600Y-8355040*
X-1907410Y-8329640*
X-1915880Y-8291530*
X-1918000Y-8249200*
X-1913770Y-8194170*
X-1907410Y-8164530*
X-1896830Y-8134900*
X-1882010Y-8113730*
X-1867200Y-8109500*
X-1852380Y-8117960*
X-1841790Y-8139130*
X-1743160Y-8371960D02*
G01X-1666960Y-8109500D01*
X-1532340D02*
G01X-1549280Y-8117960D01*
X-1561970Y-8139130*
X-1570440Y-8164530*
X-1576790Y-8198400*
X-1578910Y-8236500*
X-1576790Y-8274600*
X-1570440Y-8308470*
X-1561970Y-8333870*
X-1549280Y-8355040*
X-1532340Y-8363500*
X-1515410Y-8355040*
X-1502710Y-8333870*
X-1494240Y-8308470*
X-1487890Y-8274600*
X-1485770Y-8236500*
X-1487890Y-8198400*
X-1494240Y-8164530*
X-1502710Y-8139130*
X-1515410Y-8117960*
X-1532340Y-8109500*
X-1399840Y-8151830D02*
G01X-1387140Y-8126440D01*
X-1372320Y-8113730*
X-1355390Y-8109500*
X-1334220Y-8117960*
X-1319400Y-8139130*
X-1315170Y-8164530*
X-1317290Y-8189940*
X-1325750Y-8211100*
X-1368090Y-8253430*
X-1387140Y-8283070*
X-1399840Y-8325410*
X-1404070Y-8363500*
X-1315170*
X-1225000Y-8371960D02*
G01X-1148800Y-8109500D01*
X-1054400Y-8151830D02*
G01X-1041700Y-8126440D01*
X-1026880Y-8113730*
X-1009950Y-8109500*
X-988780Y-8117960*
X-973960Y-8139130*
X-969730Y-8164530*
X-971850Y-8189940*
X-980310Y-8211100*
X-1022650Y-8253430*
X-1041700Y-8283070*
X-1054400Y-8325410*
X-1058630Y-8363500*
X-969730*
X-841460Y-8109500D02*
G01X-858400Y-8117960D01*
X-871090Y-8139130*
X-879560Y-8164530*
X-885910Y-8198400*
X-888030Y-8236500*
X-885910Y-8274600*
X-879560Y-8308470*
X-871090Y-8333870*
X-858400Y-8355040*
X-841460Y-8363500*
X-824530Y-8355040*
X-811830Y-8333870*
X-803360Y-8308470*
X-797010Y-8274600*
X-794890Y-8236500*
X-797010Y-8198400*
X-803360Y-8164530*
X-811830Y-8139130*
X-824530Y-8117960*
X-841460Y-8109500*
X-668740Y-8363500D02*
G01Y-8109500D01*
X-694140Y-8160300*
Y-8363500D02*
G01X-643340D01*
X-496020D02*
G01X-481200Y-8359270D01*
X-464270Y-8346570*
X-453690Y-8325410*
X-449450Y-8295770*
X-453690Y-8266140*
X-466390Y-8240740*
X-485440Y-8228030*
X-506600*
X-519300Y-8219570*
X-529890Y-8198400*
X-534120Y-8168770*
X-527770Y-8139130*
X-512960Y-8117960*
X-496020Y-8109500*
X-479090Y-8117960*
X-464270Y-8139130*
X-457920Y-8168770*
X-462150Y-8198400*
X-472740Y-8219570*
X-485440Y-8228030*
X-506600*
X-525650Y-8240740*
X-538350Y-8266140*
X-542590Y-8295770*
X-538350Y-8325410*
X-527770Y-8346570*
X-510840Y-8359270*
X-496020Y-8363500*
X-2103420Y-7855500D02*
G01X-2050500Y-7601500D01*
X-1997580Y-7855500*
X-2016630Y-7766600D02*
G01X-2084370D01*
X-1877780Y-7863960D02*
G01X-1882010Y-7859730D01*
Y-7851270*
X-1877780Y-7847040*
X-1873550Y-7851270*
Y-7859730*
X-1877780Y-7863960*
X-1747390Y-7804700D02*
G01X-1736810Y-7830110D01*
X-1724110Y-7847040*
X-1709290Y-7855500*
X-1692360Y-7847040*
X-1679660Y-7830110*
X-1666960Y-7804700*
X-1662730Y-7770840*
Y-7601500*
X-1578910D02*
G01Y-7783530D01*
X-1570440Y-7821640*
X-1553510Y-7847040*
X-1532340Y-7855500*
X-1511170Y-7847040*
X-1494240Y-7821640*
X-1485770Y-7783530*
Y-7601500*
X-1408300Y-7855500D02*
G01Y-7601500D01*
X-1310940Y-7855500*
Y-7601500*
X-1212300D02*
G01X-1161500D01*
X-1186900D02*
G01Y-7855500D01*
X-1212300D02*
G01X-1161500D01*
X-1014180D02*
G01X-1031120Y-7851270D01*
X-1045930Y-7834340*
X-1058630Y-7808940*
X-1067100Y-7779300*
X-1071330Y-7745430*
Y-7711570*
X-1067100Y-7677700*
X-1058630Y-7648060*
X-1045930Y-7622670*
X-1031120Y-7605730*
X-1014180Y-7601500*
X-997250Y-7605730*
X-982430Y-7622670*
X-969730Y-7648060*
X-961260Y-7677700*
X-957030Y-7711570*
Y-7745430*
X-961260Y-7779300*
X-969730Y-7808940*
X-982430Y-7834340*
X-997250Y-7851270*
X-1014180Y-7855500*
X-997250Y-7787770D02*
G01X-971850Y-7855500D01*
X-888030Y-7601500D02*
G01Y-7783530D01*
X-879560Y-7821640*
X-862630Y-7847040*
X-841460Y-7855500*
X-820290Y-7847040*
X-803360Y-7821640*
X-794890Y-7783530*
Y-7601500*
X-626410Y-7855500D02*
G01X-711070D01*
Y-7601500*
X-626410*
X-660270Y-7724260D02*
G01X-711070D01*
X45000Y-7347500D02*
G01Y-7093500D01*
X19600Y-7144300*
Y-7347500D02*
G01X70400D01*
X496270Y-8300000D02*
G01Y-8096800D01*
X540300Y-8266130*
X584330Y-8096800*
Y-8300000*
X637660D02*
G01X680000Y-8096800D01*
X722340Y-8300000*
X707090Y-8228880D02*
G01X652900D01*
X819700Y-8096800D02*
G01Y-8300000D01*
X780750Y-8096800D02*
G01X858650D01*
X939080D02*
G01X979720D01*
X959400D02*
G01Y-8300000D01*
X939080D02*
G01X979720D01*
X1132970D02*
G01X1065230D01*
Y-8096800*
X1132970*
X1105870Y-8195010D02*
G01X1065230D01*
X1204930Y-8300000D02*
G01Y-8096800D01*
X1247270*
X1260810Y-8106960*
X1269280Y-8120510*
X1272670Y-8147600*
X1269280Y-8174700*
X1259120Y-8191630*
X1247270Y-8201790*
X1204930*
X1247270D02*
G01X1272670Y-8300000D01*
X1412370D02*
G01X1344630D01*
Y-8096800*
X1412370*
X1385270Y-8195010D02*
G01X1344630D01*
X1620650Y-8300000D02*
G01Y-8096800D01*
X1654510*
X1668060Y-8106960*
X1678220Y-8120510*
X1686690Y-8140820*
X1693460Y-8164540*
X1695150Y-8198400*
X1693460Y-8232270*
X1686690Y-8255980*
X1678220Y-8276300*
X1668060Y-8289840*
X1654510Y-8300000*
X1620650*
X1760350Y-8096800D02*
G01Y-8242430D01*
X1767120Y-8272910*
X1780670Y-8293230*
X1797600Y-8300000*
X1814530Y-8293230*
X1828080Y-8272910*
X1834850Y-8242430*
Y-8096800*
X2114250Y-8113740D02*
G01X2104090Y-8103570D01*
X2092240Y-8096800*
X2078690*
X2063450Y-8106960*
X2051600Y-8123890*
X2043130Y-8144220*
X2036360Y-8178080*
X2034660Y-8208560*
X2038050Y-8239040*
X2043130Y-8259360*
X2053290Y-8279680*
X2065150Y-8293230*
X2077000Y-8300000*
X2088850*
X2100710Y-8293230*
X2110870Y-8283070*
X2119340Y-8269530*
X2196380Y-8096800D02*
G01X2237020D01*
X2216700D02*
G01Y-8300000D01*
X2196380D02*
G01X2237020D01*
X2775500Y-8306770D02*
G01X2772110Y-8303390D01*
Y-8296610*
X2775500Y-8293230*
X2778890Y-8296610*
Y-8303390*
X2775500Y-8306770*
Y-8215340D02*
G01X2772110Y-8211950D01*
Y-8205170*
X2775500Y-8201790*
X2778890Y-8205170*
Y-8211950*
X2775500Y-8215340*
X3022730Y-8300000D02*
G01Y-8096800D01*
X3087070*
X3063370Y-8195010D02*
G01X3022730D01*
X3160730Y-8300000D02*
G01Y-8096800D01*
X3203070*
X3216610Y-8106960*
X3225080Y-8120510*
X3228470Y-8147600*
X3225080Y-8174700*
X3214920Y-8191630*
X3203070Y-8201790*
X3160730*
X3203070D02*
G01X3228470Y-8300000D01*
X3354620D02*
G01Y-8096800D01*
X3291960Y-8242430*
X3376640*
X574170Y-7919000D02*
G01X506430D01*
Y-7715800*
X574170*
X547070Y-7814010D02*
G01X506430D01*
X646130Y-7919000D02*
G01Y-7715800D01*
X686770*
X700320Y-7725960*
X710480Y-7749670*
X713870Y-7776760*
X710480Y-7803850*
X702010Y-7824170*
X686770Y-7834340*
X646130*
X819700Y-7925770D02*
G01X816310Y-7922390D01*
Y-7915610*
X819700Y-7912230*
X823090Y-7915610*
Y-7922390*
X819700Y-7925770*
X1061850Y-7919000D02*
G01Y-7715800D01*
X1095710*
X1109260Y-7725960*
X1119420Y-7739510*
X1127890Y-7759820*
X1134660Y-7783540*
X1136350Y-7817400*
X1134660Y-7851270*
X1127890Y-7874980*
X1119420Y-7895300*
X1109260Y-7908840*
X1095710Y-7919000*
X1061850*
X1201550Y-7715800D02*
G01Y-7861430D01*
X1208320Y-7891910*
X1221870Y-7912230*
X1238800Y-7919000*
X1255730Y-7912230*
X1269280Y-7891910*
X1276050Y-7861430*
Y-7715800*
X1555450Y-7732740D02*
G01X1545290Y-7722570D01*
X1533440Y-7715800*
X1519890*
X1504650Y-7725960*
X1492800Y-7742890*
X1484330Y-7763220*
X1477560Y-7797080*
X1475860Y-7827560*
X1479250Y-7858040*
X1484330Y-7878360*
X1494490Y-7898680*
X1506350Y-7912230*
X1518200Y-7919000*
X1530050*
X1541910Y-7912230*
X1552070Y-7902070*
X1560540Y-7888530*
X1637580Y-7715800D02*
G01X1678220D01*
X1657900D02*
G01Y-7919000D01*
X1637580D02*
G01X1678220D01*
X2775500Y-7925770D02*
G01X2772110Y-7922390D01*
Y-7915610*
X2775500Y-7912230*
X2778890Y-7915610*
Y-7922390*
X2775500Y-7925770*
Y-7834340D02*
G01X2772110Y-7830950D01*
Y-7824170*
X2775500Y-7820790*
X2778890Y-7824170*
Y-7830950*
X2775500Y-7834340*
X3054900Y-7919000D02*
G01X3066750Y-7915610D01*
X3080300Y-7905460*
X3088770Y-7888530*
X3092150Y-7864810*
X3088770Y-7841110*
X3078610Y-7820790*
X3063370Y-7810630*
X3046430*
X3036270Y-7803850*
X3027800Y-7786920*
X3024420Y-7763220*
X3029500Y-7739510*
X3041350Y-7722570*
X3054900Y-7715800*
X3068450Y-7722570*
X3080300Y-7739510*
X3085380Y-7763220*
X3081990Y-7786920*
X3073530Y-7803850*
X3063370Y-7810630*
X3046430*
X3031190Y-7820790*
X3021030Y-7841110*
X3017650Y-7864810*
X3021030Y-7888530*
X3029500Y-7905460*
X3043050Y-7915610*
X3054900Y-7919000*
X3191210D02*
G01X3194600Y-7874980D01*
X3199680Y-7837720*
X3206450Y-7803850*
X3214920Y-7766600*
X3228470Y-7715800*
X3160730*
X3297050Y-7888530D02*
G01X3307200Y-7905460D01*
X3319060Y-7915610*
X3334300Y-7919000*
X3349540Y-7912230*
X3361390Y-7898680*
X3369860Y-7874980*
X3371550Y-7847880*
X3368170Y-7820790*
X3359700Y-7803850*
X3347850Y-7790310*
X3335990Y-7786920*
X3324140Y-7790310*
X3308900Y-7803850*
X3313980Y-7715800*
X3359700*
X3445210Y-7783540D02*
G01Y-7878360D01*
X3451990Y-7902070*
X3462150Y-7915610*
X3474000Y-7919000*
X3485850Y-7915610*
X3496010Y-7902070*
X3502790Y-7878360*
Y-7919000D02*
G01Y-7783540D01*
X3562900Y-7919000D02*
G01Y-7783540D01*
Y-7820790D02*
G01X3567980Y-7803850D01*
X3576450Y-7790310*
X3588300Y-7783540*
X3600150Y-7790310*
X3608620Y-7803850*
X3613700Y-7820790*
Y-7919000*
Y-7820790D02*
G01X3618780Y-7803850D01*
X3627250Y-7790310*
X3639100Y-7783540*
X3650950Y-7790310*
X3659420Y-7803850*
X3664500Y-7824170*
Y-7919000*
X574170Y-7538000D02*
G01X506430D01*
Y-7334800*
X574170*
X547070Y-7433010D02*
G01X506430D01*
X646130Y-7538000D02*
G01Y-7334800D01*
X686770*
X700320Y-7344960*
X710480Y-7368670*
X713870Y-7395760*
X710480Y-7422850*
X702010Y-7443170*
X686770Y-7453340*
X646130*
X819700Y-7544770D02*
G01X816310Y-7541390D01*
Y-7534610*
X819700Y-7531230*
X823090Y-7534610*
Y-7541390*
X819700Y-7544770*
X1061850Y-7538000D02*
G01Y-7334800D01*
X1095710*
X1109260Y-7344960*
X1119420Y-7358510*
X1127890Y-7378820*
X1134660Y-7402540*
X1136350Y-7436400*
X1134660Y-7470270*
X1127890Y-7493980*
X1119420Y-7514300*
X1109260Y-7527840*
X1095710Y-7538000*
X1061850*
X1201550Y-7334800D02*
G01Y-7480430D01*
X1208320Y-7510910*
X1221870Y-7531230*
X1238800Y-7538000*
X1255730Y-7531230*
X1269280Y-7510910*
X1276050Y-7480430*
Y-7334800*
X1555450Y-7351740D02*
G01X1545290Y-7341570D01*
X1533440Y-7334800*
X1519890*
X1504650Y-7344960*
X1492800Y-7361890*
X1484330Y-7382220*
X1477560Y-7416080*
X1475860Y-7446560*
X1479250Y-7477040*
X1484330Y-7497360*
X1494490Y-7517680*
X1506350Y-7531230*
X1518200Y-7538000*
X1530050*
X1541910Y-7531230*
X1552070Y-7521070*
X1560540Y-7507530*
X1620650Y-7334800D02*
G01Y-7480430D01*
X1627420Y-7510910*
X1640970Y-7531230*
X1657900Y-7538000*
X1674830Y-7531230*
X1688380Y-7510910*
X1695150Y-7480430*
Y-7334800*
X1777280D02*
G01X1817920D01*
X1797600D02*
G01Y-7538000D01*
X1777280D02*
G01X1817920D01*
X1894960Y-7334800D02*
G01X1937300Y-7538000D01*
X1979640Y-7334800*
X2043130Y-7538000D02*
G01Y-7334800D01*
X2085470*
X2099010Y-7344960*
X2107480Y-7358510*
X2110870Y-7385600*
X2107480Y-7412700*
X2097320Y-7429630*
X2085470Y-7439790*
X2043130*
X2085470D02*
G01X2110870Y-7538000D01*
X2250570D02*
G01X2182830D01*
Y-7334800*
X2250570*
X2223470Y-7433010D02*
G01X2182830D01*
X2775500Y-7544770D02*
G01X2772110Y-7541390D01*
Y-7534610*
X2775500Y-7531230*
X2778890Y-7534610*
Y-7541390*
X2775500Y-7544770*
Y-7453340D02*
G01X2772110Y-7449950D01*
Y-7443170*
X2775500Y-7439790*
X2778890Y-7443170*
Y-7449950*
X2775500Y-7453340*
X3017650Y-7497360D02*
G01X3027800Y-7521070D01*
X3041350Y-7534610*
X3056590Y-7538000*
X3070140Y-7534610*
X3083690Y-7517680*
X3092150Y-7497360*
X3093850Y-7477040*
X3090460Y-7453340*
X3078610Y-7436400*
X3066750Y-7429630*
X3051510*
X3066750D02*
G01X3076910Y-7419470D01*
X3085380Y-7402540*
X3088770Y-7382220*
X3085380Y-7361890*
X3076910Y-7344960*
X3061670Y-7334800*
X3046430Y-7338190*
X3031190Y-7351740*
X3157350Y-7507530D02*
G01X3167500Y-7524460D01*
X3179360Y-7534610*
X3194600Y-7538000*
X3209840Y-7531230*
X3221690Y-7517680*
X3230160Y-7493980*
X3231850Y-7466880*
X3228470Y-7439790*
X3220000Y-7422850*
X3208150Y-7409310*
X3196290Y-7405920*
X3184440Y-7409310*
X3169200Y-7422850*
X3174280Y-7334800*
X3220000*
X3305510Y-7402540D02*
G01Y-7497360D01*
X3312290Y-7521070*
X3322450Y-7534610*
X3334300Y-7538000*
X3346150Y-7534610*
X3356310Y-7521070*
X3363090Y-7497360*
Y-7538000D02*
G01Y-7402540D01*
X501350Y-7157000D02*
G01Y-6953800D01*
X579250Y-7157000*
Y-6953800*
X693550Y-7048630D02*
G01X700320Y-7038470D01*
X705400Y-7021540*
X708790Y-6997820*
X705400Y-6977510*
X698630Y-6963960*
X686770Y-6953800*
X641050*
Y-7157000*
X696930*
X708790Y-7143460*
X715560Y-7123130*
X718950Y-7099430*
X715560Y-7075720*
X705400Y-7055400*
X693550Y-7048630*
X641050*
X785830Y-7157000D02*
G01Y-6953800D01*
X828170*
X841710Y-6963960*
X850180Y-6977510*
X853570Y-7004600*
X850180Y-7031700*
X840020Y-7048630*
X828170Y-7058790*
X785830*
X828170D02*
G01X853570Y-7157000D01*
X993270D02*
G01X925530D01*
Y-6953800*
X993270*
X966170Y-7052010D02*
G01X925530D01*
X1201550Y-7157000D02*
G01Y-6953800D01*
X1235410*
X1248960Y-6963960*
X1259120Y-6977510*
X1267590Y-6997820*
X1274360Y-7021540*
X1276050Y-7055400*
X1274360Y-7089270*
X1267590Y-7112980*
X1259120Y-7133300*
X1248960Y-7146840*
X1235410Y-7157000*
X1201550*
X1412370D02*
G01X1344630D01*
Y-6953800*
X1412370*
X1385270Y-7052010D02*
G01X1344630D01*
X1695150Y-6970740D02*
G01X1684990Y-6960570D01*
X1673140Y-6953800*
X1659590*
X1644350Y-6963960*
X1632500Y-6980890*
X1624030Y-7001220*
X1617260Y-7035080*
X1615560Y-7065560*
X1618950Y-7096040*
X1624030Y-7116360*
X1634190Y-7136680*
X1646050Y-7150230*
X1657900Y-7157000*
X1669750*
X1681610Y-7150230*
X1691770Y-7140070*
X1700240Y-7126530*
X1797600Y-7157000D02*
G01X1784050Y-7153610D01*
X1772200Y-7140070*
X1762040Y-7119750*
X1755260Y-7096040*
X1751880Y-7068950*
Y-7041850*
X1755260Y-7014760*
X1762040Y-6991050*
X1772200Y-6970740*
X1784050Y-6957190*
X1797600Y-6953800*
X1811150Y-6957190*
X1823000Y-6970740*
X1833160Y-6991050*
X1839940Y-7014760*
X1843320Y-7041850*
Y-7068950*
X1839940Y-7096040*
X1833160Y-7119750*
X1823000Y-7140070*
X1811150Y-7153610*
X1797600Y-7157000*
X1900050Y-6953800D02*
G01Y-7099430D01*
X1906820Y-7129910*
X1920370Y-7150230*
X1937300Y-7157000*
X1954230Y-7150230*
X1967780Y-7129910*
X1974550Y-7099430*
Y-6953800*
X2114250Y-6970740D02*
G01X2104090Y-6960570D01*
X2092240Y-6953800*
X2078690*
X2063450Y-6963960*
X2051600Y-6980890*
X2043130Y-7001220*
X2036360Y-7035080*
X2034660Y-7065560*
X2038050Y-7096040*
X2043130Y-7116360*
X2053290Y-7136680*
X2065150Y-7150230*
X2077000Y-7157000*
X2088850*
X2100710Y-7150230*
X2110870Y-7140070*
X2119340Y-7126530*
X2181140Y-7157000D02*
G01Y-6953800D01*
X2252260D02*
G01Y-7157000D01*
Y-7055400D02*
G01X2181140D01*
X2390270Y-7157000D02*
G01X2322530D01*
Y-6953800*
X2390270*
X2363170Y-7052010D02*
G01X2322530D01*
X2775500Y-7163770D02*
G01X2772110Y-7160390D01*
Y-7153610*
X2775500Y-7150230*
X2778890Y-7153610*
Y-7160390*
X2775500Y-7163770*
Y-7072340D02*
G01X2772110Y-7068950D01*
Y-7062170*
X2775500Y-7058790*
X2778890Y-7062170*
Y-7068950*
X2775500Y-7072340*
X3022730Y-6987670D02*
G01X3032890Y-6967350D01*
X3044740Y-6957190*
X3058290Y-6953800*
X3075220Y-6960570*
X3087070Y-6977510*
X3090460Y-6997820*
X3088770Y-7018150*
X3081990Y-7035080*
X3048130Y-7068950*
X3032890Y-7092650*
X3022730Y-7126530*
X3019340Y-7157000*
X3090460*
G54D19*
X-4565100Y-7484660D02*
G01X-4463500Y-7792000D01*
X-3828500Y-7347500D02*
G01X-3841200Y-7438940D01*
X-3874220Y-7525300*
X-3927560Y-7601500*
X-3998680Y-7662460*
X-4079960Y-7703100*
X-4171400Y-7725960*
X-4260300Y-7723420*
X-4351740Y-7700560*
X-4433020Y-7654840*
X-4499060Y-7591340*
X-4549860Y-7512600*
X-4580340Y-7426240*
X-4587960Y-7334800*
X-4575260Y-7243360*
X-4537160Y-7157000*
X-4481280Y-7083340*
X-4410160Y-7024920*
X-4326340Y-6986820*
X-4234900Y-6969040*
X-4143460Y-6974120*
X-4054560Y-6999520*
X-3975820Y-7047780*
X-3909780Y-7113820*
X-3861520Y-7192560*
X-3836120Y-7281460*
X-3828500Y-7347500*
X-3952960Y-7629440D02*
G01X-4273000Y-8109500D01*
X-4209500Y-6966500D02*
G01X-3447500Y-6903000D01*
X-3836120Y-7271300D02*
G01X-3574500Y-8109500D01*
G54D21*
X-142960Y-6864900D02*
G01X-122640D01*
X-132800D02*
G01Y-6966500D01*
X-142960D02*
G01X-122640D01*
X-81150D02*
G01Y-6864900D01*
X-42210Y-6966500*
Y-6864900*
X-9190Y-6966500D02*
G01Y-6864900D01*
X7750*
X14520Y-6869980*
X19600Y-6876750*
X23830Y-6886910*
X27220Y-6898770*
X28070Y-6915700*
X27220Y-6932630*
X23830Y-6944490*
X19600Y-6954650*
X14520Y-6961420*
X7750Y-6966500*
X-9190*
X70400Y-6864900D02*
G01X90720D01*
X80560D02*
G01Y-6966500D01*
X70400D02*
G01X90720D01*
X170310Y-6873370D02*
G01X165230Y-6868290D01*
X159300Y-6864900*
X152530*
X144910Y-6869980*
X138980Y-6878450*
X134750Y-6888610*
X131360Y-6905540*
X130510Y-6920780*
X132210Y-6936020*
X134750Y-6946180*
X139830Y-6956340*
X145750Y-6963110*
X151680Y-6966500*
X157610*
X163530Y-6963110*
X168610Y-6958040*
X172850Y-6951260*
X239730Y-6966500D02*
G01X205870D01*
Y-6864900*
X239730*
X226190Y-6914010D02*
G01X205870D01*
G54D22*
X-3320500Y-8427000D02*
G01X3918500D01*
Y-6839500*
X-3320500*
Y-8427000*
Y-7982500D02*
G01X3918500D01*
X-3320500Y-7474500D02*
G01X362500D01*
X-2304500D02*
G01Y-8427000D01*
X-209000Y-6839500D02*
G01Y-7474500D01*
X-254020Y-4695720D02*
G01Y-4890030D01*
X-450100Y-4695720D02*
G01X-254020D01*
X-444250Y-63500D02*
G01X-255020D01*
Y-63500D02*
G01Y146300D01*
X-189740Y304800D02*
G01X0D01*
Y514600*
X362500Y-6839500D02*
G01Y-8427000D01*
Y-7601500D02*
G01X3918500D01*
X362500Y-7220500D02*
G01X3918500D01*
X992890Y494790D02*
G01Y304800D01*
X1202940*
X1245870Y-4695720D02*
G01Y-4890030D01*
X1440940Y-4695720D02*
G01X1245870D01*
X1451100Y-63500D02*
G01X1245870D01*
Y-63500D02*
G01Y126490D01*
M02*
